%TF.GenerationSoftware,KiCad,Pcbnew,10.0.1*%
%TF.CreationDate,2026-04-30T14:59:29+02:00*%
%TF.ProjectId,Dive_Computer,44697665-5f43-46f6-9d70-757465722e6b,rev?*%
%TF.SameCoordinates,Original*%
%TF.FileFunction,Copper,L1,Top*%
%TF.FilePolarity,Positive*%
%FSLAX46Y46*%
G04 Gerber Fmt 4.6, Leading zero omitted, Abs format (unit mm)*
G04 Created by KiCad (PCBNEW 10.0.1) date 2026-04-30 14:59:29*
%MOMM*%
%LPD*%
G01*
G04 APERTURE LIST*
G04 Aperture macros list*
%AMRoundRect*
0 Rectangle with rounded corners*
0 $1 Rounding radius*
0 $2 $3 $4 $5 $6 $7 $8 $9 X,Y pos of 4 corners*
0 Add a 4 corners polygon primitive as box body*
4,1,4,$2,$3,$4,$5,$6,$7,$8,$9,$2,$3,0*
0 Add four circle primitives for the rounded corners*
1,1,$1+$1,$2,$3*
1,1,$1+$1,$4,$5*
1,1,$1+$1,$6,$7*
1,1,$1+$1,$8,$9*
0 Add four rect primitives between the rounded corners*
20,1,$1+$1,$2,$3,$4,$5,0*
20,1,$1+$1,$4,$5,$6,$7,0*
20,1,$1+$1,$6,$7,$8,$9,0*
20,1,$1+$1,$8,$9,$2,$3,0*%
%AMFreePoly0*
4,1,23,0.500000,-0.750000,0.000000,-0.750000,0.000000,-0.745722,-0.065263,-0.745722,-0.191342,-0.711940,-0.304381,-0.646677,-0.396677,-0.554381,-0.461940,-0.441342,-0.495722,-0.315263,-0.495722,-0.250000,-0.500000,-0.250000,-0.500000,0.250000,-0.495722,0.250000,-0.495722,0.315263,-0.461940,0.441342,-0.396677,0.554381,-0.304381,0.646677,-0.191342,0.711940,-0.065263,0.745722,0.000000,0.745722,
0.000000,0.750000,0.500000,0.750000,0.500000,-0.750000,0.500000,-0.750000,$1*%
%AMFreePoly1*
4,1,23,0.000000,0.745722,0.065263,0.745722,0.191342,0.711940,0.304381,0.646677,0.396677,0.554381,0.461940,0.441342,0.495722,0.315263,0.495722,0.250000,0.500000,0.250000,0.500000,-0.250000,0.495722,-0.250000,0.495722,-0.315263,0.461940,-0.441342,0.396677,-0.554381,0.304381,-0.646677,0.191342,-0.711940,0.065263,-0.745722,0.000000,-0.745722,0.000000,-0.750000,-0.500000,-0.750000,
-0.500000,0.750000,0.000000,0.750000,0.000000,0.745722,0.000000,0.745722,$1*%
G04 Aperture macros list end*
%TA.AperFunction,SMDPad,CuDef*%
%ADD10RoundRect,0.200000X0.275000X-0.200000X0.275000X0.200000X-0.275000X0.200000X-0.275000X-0.200000X0*%
%TD*%
%TA.AperFunction,ComponentPad*%
%ADD11RoundRect,0.225000X0.475000X-0.225000X0.475000X0.225000X-0.475000X0.225000X-0.475000X-0.225000X0*%
%TD*%
%TA.AperFunction,ComponentPad*%
%ADD12O,1.400000X0.900000*%
%TD*%
%TA.AperFunction,SMDPad,CuDef*%
%ADD13RoundRect,0.225000X-0.225000X-0.250000X0.225000X-0.250000X0.225000X0.250000X-0.225000X0.250000X0*%
%TD*%
%TA.AperFunction,SMDPad,CuDef*%
%ADD14R,2.000000X1.100000*%
%TD*%
%TA.AperFunction,SMDPad,CuDef*%
%ADD15R,0.800000X0.800000*%
%TD*%
%TA.AperFunction,SMDPad,CuDef*%
%ADD16RoundRect,0.200000X-0.200000X-0.275000X0.200000X-0.275000X0.200000X0.275000X-0.200000X0.275000X0*%
%TD*%
%TA.AperFunction,ComponentPad*%
%ADD17C,2.000000*%
%TD*%
%TA.AperFunction,SMDPad,CuDef*%
%ADD18RoundRect,0.250000X-0.325000X-1.100000X0.325000X-1.100000X0.325000X1.100000X-0.325000X1.100000X0*%
%TD*%
%TA.AperFunction,SMDPad,CuDef*%
%ADD19RoundRect,0.162500X0.162500X-0.447500X0.162500X0.447500X-0.162500X0.447500X-0.162500X-0.447500X0*%
%TD*%
%TA.AperFunction,SMDPad,CuDef*%
%ADD20RoundRect,0.200000X-0.275000X0.200000X-0.275000X-0.200000X0.275000X-0.200000X0.275000X0.200000X0*%
%TD*%
%TA.AperFunction,SMDPad,CuDef*%
%ADD21RoundRect,0.225000X-0.250000X0.225000X-0.250000X-0.225000X0.250000X-0.225000X0.250000X0.225000X0*%
%TD*%
%TA.AperFunction,SMDPad,CuDef*%
%ADD22RoundRect,0.150000X-0.150000X0.587500X-0.150000X-0.587500X0.150000X-0.587500X0.150000X0.587500X0*%
%TD*%
%TA.AperFunction,SMDPad,CuDef*%
%ADD23RoundRect,0.062500X-0.062500X0.350000X-0.062500X-0.350000X0.062500X-0.350000X0.062500X0.350000X0*%
%TD*%
%TA.AperFunction,SMDPad,CuDef*%
%ADD24RoundRect,0.062500X-0.350000X0.062500X-0.350000X-0.062500X0.350000X-0.062500X0.350000X0.062500X0*%
%TD*%
%TA.AperFunction,HeatsinkPad*%
%ADD25R,1.700000X1.700000*%
%TD*%
%TA.AperFunction,ComponentPad*%
%ADD26C,3.200000*%
%TD*%
%TA.AperFunction,ComponentPad*%
%ADD27C,1.348000*%
%TD*%
%TA.AperFunction,SMDPad,CuDef*%
%ADD28R,1.100000X2.000000*%
%TD*%
%TA.AperFunction,SMDPad,CuDef*%
%ADD29RoundRect,0.250000X-1.600000X0.300000X-1.600000X-0.300000X1.600000X-0.300000X1.600000X0.300000X0*%
%TD*%
%TA.AperFunction,ComponentPad*%
%ADD30RoundRect,0.225000X-0.225000X-0.475000X0.225000X-0.475000X0.225000X0.475000X-0.225000X0.475000X0*%
%TD*%
%TA.AperFunction,ComponentPad*%
%ADD31O,0.900000X1.400000*%
%TD*%
%TA.AperFunction,SMDPad,CuDef*%
%ADD32FreePoly0,90.000000*%
%TD*%
%TA.AperFunction,SMDPad,CuDef*%
%ADD33FreePoly1,90.000000*%
%TD*%
%TA.AperFunction,SMDPad,CuDef*%
%ADD34R,0.350000X0.375000*%
%TD*%
%TA.AperFunction,SMDPad,CuDef*%
%ADD35R,0.375000X0.350000*%
%TD*%
%TA.AperFunction,ViaPad*%
%ADD36C,0.600000*%
%TD*%
%TA.AperFunction,ViaPad*%
%ADD37C,0.500000*%
%TD*%
%TA.AperFunction,Conductor*%
%ADD38C,0.200000*%
%TD*%
G04 APERTURE END LIST*
D10*
%TO.P,R4,1*%
%TO.N,Net-(IC1-RUN)*%
X238493654Y-82523730D03*
%TO.P,R4,2*%
%TO.N,Net-(D2-K)*%
X238493654Y-80873730D03*
%TD*%
%TO.P,R1,1*%
%TO.N,/SDA*%
X232650000Y-59770000D03*
%TO.P,R1,2*%
%TO.N,+3.3V*%
X232650000Y-58120000D03*
%TD*%
D11*
%TO.P,BATTERIE1,1,Pin_1_1*%
%TO.N,/BAT+*%
X207100000Y-74600000D03*
D12*
%TO.P,BATTERIE1,2,Pin_2_2*%
%TO.N,GND*%
X207100000Y-73350001D03*
%TD*%
D13*
%TO.P,C6,1*%
%TO.N,VCC*%
X231350000Y-86712500D03*
%TO.P,C6,2*%
%TO.N,GND*%
X232900000Y-86712500D03*
%TD*%
D14*
%TO.P,D3,1,K_1*%
%TO.N,Net-(D2-K)*%
X219855000Y-81082501D03*
D15*
%TO.P,D3,2,A_2*%
%TO.N,Net-(D1-K)*%
X217955000Y-81082501D03*
%TD*%
D10*
%TO.P,R8,1*%
%TO.N,/~{CHRG}*%
X228500000Y-60725000D03*
%TO.P,R8,2*%
%TO.N,+3.3V*%
X228500000Y-59075000D03*
%TD*%
D16*
%TO.P,R10,1*%
%TO.N,/BAT+*%
X209674999Y-74700000D03*
%TO.P,R10,2*%
%TO.N,Net-(Q1-G)*%
X211324999Y-74700000D03*
%TD*%
D17*
%TO.P,Power_Inductor1,1,1_1*%
%TO.N,GND*%
X220655000Y-85582501D03*
%TO.P,Power_Inductor1,2,2_2*%
%TO.N,Net-(C4-Pad1)*%
X215655000Y-85582501D03*
%TD*%
D13*
%TO.P,C4,1*%
%TO.N,Net-(C4-Pad1)*%
X214704999Y-80782500D03*
%TO.P,C4,2*%
%TO.N,Net-(D1-K)*%
X216254999Y-80782500D03*
%TD*%
D18*
%TO.P,C3,1*%
%TO.N,Net-(IC1-RUN)*%
X236604998Y-84982501D03*
%TO.P,C3,2*%
%TO.N,GND*%
X239555000Y-84982501D03*
%TD*%
D19*
%TO.P,Q1,1,D_1*%
%TO.N,VCC*%
X208749999Y-79509999D03*
%TO.P,Q1,2,G_2*%
%TO.N,Net-(Q1-G)*%
X210649999Y-79509999D03*
%TO.P,Q1,3,S_3*%
%TO.N,/BAT+*%
X209699999Y-76890000D03*
%TD*%
D20*
%TO.P,R5,1*%
%TO.N,GND*%
X236893656Y-80903729D03*
%TO.P,R5,2*%
%TO.N,Net-(IC1-RUN)*%
X236893656Y-82553729D03*
%TD*%
D21*
%TO.P,C1,1*%
%TO.N,+3.3V*%
X215459153Y-70608837D03*
%TO.P,C1,2*%
%TO.N,GND*%
X215459153Y-72158837D03*
%TD*%
D22*
%TO.P,U2,1,V_{CC}_1*%
%TO.N,/BAT+*%
X207950000Y-63162500D03*
%TO.P,U2,2,V_{OUT}_2*%
%TO.N,Net-(Q1-G)*%
X206050000Y-63162500D03*
%TO.P,U2,3,GND_3*%
%TO.N,GND*%
X207000000Y-65037501D03*
%TD*%
D23*
%TO.P,IC1,1,INTVCC_1*%
%TO.N,Net-(IC1-FREQ)*%
X232800000Y-82175000D03*
%TO.P,IC1,2,BOOST_2*%
%TO.N,Net-(IC1-BOOST)*%
X232300000Y-82175000D03*
%TO.P,IC1,3,IN_3*%
%TO.N,Net-(D2-K)*%
X231800000Y-82175000D03*
%TO.P,IC1,4,SW_4*%
%TO.N,Net-(IC1-SW)*%
X231300000Y-82175000D03*
D24*
%TO.P,IC1,5,GND_1_5*%
%TO.N,GND*%
X230587500Y-82887500D03*
%TO.P,IC1,6,DHC_6*%
%TO.N,Net-(D2-A)*%
X230587500Y-83387500D03*
%TO.P,IC1,7,FREQ_7*%
%TO.N,Net-(IC1-FREQ)*%
X230587500Y-83887500D03*
%TO.P,IC1,8,CHGSNS_8*%
%TO.N,Net-(IC1-CHGSNS)*%
X230587500Y-84387500D03*
D23*
%TO.P,IC1,9,BAT_9*%
%TO.N,VCC*%
X231300000Y-85100000D03*
%TO.P,IC1,10,BATSNS_10*%
X231800000Y-85100000D03*
%TO.P,IC1,11,NC_11*%
%TO.N,unconnected-(IC1-NC-Pad11)*%
X232300000Y-85100000D03*
%TO.P,IC1,12,NTC_12*%
%TO.N,GND*%
X232800000Y-85100000D03*
D24*
%TO.P,IC1,13,PROG_13*%
%TO.N,Net-(IC1-PROG)*%
X233512500Y-84387500D03*
%TO.P,IC1,14,~{CHRG}_14*%
%TO.N,/~{CHRG}*%
X233512500Y-83887500D03*
%TO.P,IC1,15,~{FAULT}_15*%
%TO.N,/~{FLT}*%
X233512500Y-83387500D03*
%TO.P,IC1,16,RUN_16*%
%TO.N,Net-(IC1-RUN)*%
X233512500Y-82887500D03*
D25*
%TO.P,IC1,17,GND_2_17*%
%TO.N,GND*%
X232050000Y-83637500D03*
%TD*%
D26*
%TO.P,,P$1*%
%TO.N,N/C*%
X206685786Y-55485786D03*
%TD*%
D10*
%TO.P,R7,1*%
%TO.N,GND*%
X240630000Y-82385000D03*
%TO.P,R7,2*%
%TO.N,Net-(U1-GPIO3)*%
X240630000Y-80735000D03*
%TD*%
D13*
%TO.P,C5,1*%
%TO.N,Net-(C4-Pad1)*%
X214705000Y-79182501D03*
%TO.P,C5,2*%
%TO.N,Net-(D2-A)*%
X216255000Y-79182501D03*
%TD*%
D21*
%TO.P,C2,1*%
%TO.N,+3.3V*%
X217559152Y-70708838D03*
%TO.P,C2,2*%
%TO.N,GND*%
X217559152Y-72258838D03*
%TD*%
D26*
%TO.P,,P$1*%
%TO.N,N/C*%
X244785786Y-55485786D03*
%TD*%
D27*
%TO.P,U1,0,GPIO0_0*%
%TO.N,/INT1*%
X225920000Y-78320000D03*
%TO.P,U1,1,GPIO1_1*%
%TO.N,/INT2*%
X228460000Y-78320000D03*
%TO.P,U1,2,GPIO2_2*%
%TO.N,unconnected-(U1-GPIO2-Pad2)*%
X231000000Y-78320000D03*
%TO.P,U1,3,GPIO3_3*%
%TO.N,Net-(U1-GPIO3)*%
X233540000Y-78320000D03*
%TO.P,U1,3.3,3V3_3.3*%
%TO.N,+3.3V*%
X238620000Y-78320000D03*
%TO.P,U1,4,GPIO4_4*%
%TO.N,/SPI_CLK*%
X236080000Y-78320000D03*
%TO.P,U1,5,GPIO5_5*%
%TO.N,/MISO*%
X243700000Y-63080000D03*
%TO.P,U1,5V,5V_5V*%
%TO.N,Net-(D4-K)*%
X243700000Y-78320000D03*
%TO.P,U1,6,GPIO6_6*%
%TO.N,/MOSI*%
X241160000Y-63080000D03*
%TO.P,U1,7,GPIO7_7*%
%TO.N,/CS*%
X238620000Y-63080000D03*
%TO.P,U1,8,GPIO8_8*%
%TO.N,/SDA*%
X236080000Y-63080000D03*
%TO.P,U1,9,GPIO9_9*%
%TO.N,/SCL*%
X233540000Y-63080000D03*
%TO.P,U1,10,GPIO10_10*%
%TO.N,/Data{slash}Command*%
X231000000Y-63080000D03*
%TO.P,U1,20,GPIO20_20*%
%TO.N,/~{CHRG}*%
X228460000Y-63080000D03*
%TO.P,U1,21,GPIO21_21*%
%TO.N,Net-(JP1-A)*%
X225920000Y-63080000D03*
%TO.P,U1,G,GND_G*%
%TO.N,GND*%
X241160000Y-78320000D03*
%TD*%
D10*
%TO.P,R3,1*%
%TO.N,GND*%
X234925000Y-86762501D03*
%TO.P,R3,2*%
%TO.N,Net-(IC1-PROG)*%
X234925000Y-85112501D03*
%TD*%
D14*
%TO.P,D1,1,K_1*%
%TO.N,Net-(D1-K)*%
X218527500Y-82882501D03*
D15*
%TO.P,D1,2,A_2*%
%TO.N,GND*%
X220427500Y-82882501D03*
%TD*%
D28*
%TO.P,D4,1,K_1*%
%TO.N,Net-(D4-K)*%
X244100000Y-81300000D03*
D15*
%TO.P,D4,2,A_2*%
%TO.N,VCC*%
X244100000Y-83200000D03*
%TD*%
D29*
%TO.P,L1,1*%
%TO.N,Net-(IC1-SW)*%
X225679999Y-81982500D03*
%TO.P,L1,2*%
%TO.N,Net-(IC1-CHGSNS)*%
X225679999Y-84982500D03*
%TD*%
D21*
%TO.P,C7,1*%
%TO.N,Net-(IC1-BOOST)*%
X228900000Y-80650000D03*
%TO.P,C7,2*%
%TO.N,Net-(IC1-SW)*%
X228900000Y-82200000D03*
%TD*%
D20*
%TO.P,R9,1*%
%TO.N,/~{FLT}*%
X223300000Y-59075000D03*
%TO.P,R9,2*%
%TO.N,+3.3V*%
X223300000Y-60725000D03*
%TD*%
D26*
%TO.P,,P$1*%
%TO.N,N/C*%
X206685786Y-85985786D03*
%TD*%
%TO.P,,P$1*%
%TO.N,N/C*%
X244785786Y-85985786D03*
%TD*%
D13*
%TO.P,C8,1*%
%TO.N,Net-(IC1-FREQ)*%
X233605000Y-80782499D03*
%TO.P,C8,2*%
%TO.N,GND*%
X235155000Y-80782499D03*
%TD*%
D20*
%TO.P,R6,1*%
%TO.N,Net-(U1-GPIO3)*%
X242200000Y-80775000D03*
%TO.P,R6,2*%
%TO.N,VCC*%
X242200000Y-82425000D03*
%TD*%
D30*
%TO.P,J1,1,Pin_1_1*%
%TO.N,GND*%
X221950000Y-55900000D03*
D31*
%TO.P,J1,2,Pin_2_2*%
%TO.N,VCC*%
X223199999Y-55900000D03*
%TO.P,J1,3,Pin_3_3*%
%TO.N,/Data{slash}Command*%
X224450000Y-55900000D03*
%TO.P,J1,4,Pin_4_4*%
%TO.N,/SPI_CLK*%
X225699999Y-55900000D03*
%TO.P,J1,5,Pin_5_5*%
%TO.N,/CS*%
X226950000Y-55900000D03*
%TO.P,J1,6,Pin_6_6*%
%TO.N,/MISO*%
X228199999Y-55900000D03*
%TO.P,J1,7,Pin_7_7*%
%TO.N,/MOSI*%
X229450000Y-55900000D03*
%TD*%
D10*
%TO.P,R2,1*%
%TO.N,/SCL*%
X234400000Y-59800000D03*
%TO.P,R2,2*%
%TO.N,+3.3V*%
X234400000Y-58150000D03*
%TD*%
D14*
%TO.P,D2,1,K_1*%
%TO.N,Net-(D2-K)*%
X219835003Y-79082500D03*
D15*
%TO.P,D2,2,A_2*%
%TO.N,Net-(D2-A)*%
X217935003Y-79082500D03*
%TD*%
D32*
%TO.P,JP1,1,A_1*%
%TO.N,Net-(JP1-A)*%
X225900000Y-60400000D03*
D33*
%TO.P,JP1,2,B_2*%
%TO.N,/~{FLT}*%
X225900000Y-59100002D03*
%TD*%
D13*
%TO.P,C9,1*%
%TO.N,GND*%
X207201033Y-67075170D03*
%TO.P,C9,2*%
%TO.N,/BAT+*%
X208751033Y-67075170D03*
%TD*%
%TO.P,C10,1*%
%TO.N,GND*%
X236715000Y-55280000D03*
%TO.P,C10,2*%
%TO.N,+3.3V*%
X238265000Y-55280000D03*
%TD*%
D34*
%TO.P,LIS12DUX1,1,SCL_1*%
%TO.N,/SCL*%
X215059153Y-68383837D03*
%TO.P,LIS12DUX1,2,CS_2*%
%TO.N,+3.3V*%
X215559153Y-68383837D03*
%TO.P,LIS12DUX1,3,SDO_3*%
X216059153Y-68383837D03*
%TO.P,LIS12DUX1,4,SDA_4*%
%TO.N,/SDA*%
X216559153Y-68383837D03*
D35*
%TO.P,LIS12DUX1,5,NC_5*%
%TO.N,unconnected-(LIS12DUX1-NC-Pad5)*%
X216571653Y-67871337D03*
%TO.P,LIS12DUX1,6,GND_6*%
%TO.N,GND*%
X216571653Y-67371337D03*
D34*
%TO.P,LIS12DUX1,7,RES_7*%
X216559153Y-66858837D03*
%TO.P,LIS12DUX1,8,GND_8*%
X216059153Y-66858837D03*
%TO.P,LIS12DUX1,9,Vdd_9*%
%TO.N,+3.3V*%
X215559153Y-66858837D03*
%TO.P,LIS12DUX1,10,Vdd_IO_10*%
X215059153Y-66858837D03*
D35*
%TO.P,LIS12DUX1,11,INT2_11*%
%TO.N,/INT2*%
X215046653Y-67371337D03*
%TO.P,LIS12DUX1,12,INT1_12*%
%TO.N,/INT1*%
X215046653Y-67871337D03*
%TD*%
D36*
%TO.N,GND*%
X205700000Y-68400000D03*
X205800000Y-65500000D03*
%TO.N,Net-(D2-K)*%
X219835003Y-79082500D03*
X231100000Y-80800000D03*
X219855000Y-81082501D03*
%TO.N,+3.3V*%
X232100000Y-56900000D03*
X239450000Y-56060000D03*
X216500000Y-69800000D03*
X223300000Y-62300000D03*
%TO.N,GND*%
X217800000Y-54900000D03*
X208800000Y-54800000D03*
X236700000Y-64400000D03*
X222900000Y-81700000D03*
X207200000Y-78200000D03*
X220900000Y-63600000D03*
X230700000Y-59800000D03*
X242700000Y-86900000D03*
X205700000Y-83800000D03*
X220100000Y-75900000D03*
X229200000Y-67300000D03*
X239000000Y-79900000D03*
X245500000Y-57900000D03*
X212700000Y-74900000D03*
X238187500Y-86887500D03*
X241100000Y-60400000D03*
X229200000Y-86800000D03*
X232400000Y-75400000D03*
X216500000Y-65400000D03*
X223000000Y-86800000D03*
X233100000Y-71800000D03*
X245700000Y-83400000D03*
X212600000Y-59700000D03*
X245100000Y-65300000D03*
X233687500Y-85787500D03*
X235430000Y-55470000D03*
X223200000Y-74200000D03*
X217200000Y-76500000D03*
X242400000Y-54500000D03*
X245000000Y-76100000D03*
X222900000Y-79300000D03*
X207000000Y-71600000D03*
X213000000Y-86900000D03*
X210800000Y-84600000D03*
X241300000Y-81600000D03*
X233700000Y-82000000D03*
X205800000Y-71500000D03*
X228000000Y-74300000D03*
X230700000Y-55600000D03*
X226000000Y-76500000D03*
X240987500Y-86787500D03*
X205800000Y-77300000D03*
X221100000Y-60400000D03*
X218500000Y-69100000D03*
X205800000Y-79700000D03*
X245900000Y-80000000D03*
X239200000Y-61100000D03*
X242200000Y-79500000D03*
X232050000Y-83637500D03*
X212500000Y-54900000D03*
X212300000Y-79000000D03*
X222200000Y-83700000D03*
X232600000Y-54500000D03*
X218100000Y-86900000D03*
X243400000Y-84300000D03*
X209100000Y-87000000D03*
X234000000Y-64900000D03*
X216100000Y-62400000D03*
X238200000Y-83800000D03*
X212200000Y-67100000D03*
X221400000Y-82400000D03*
X230500000Y-69700000D03*
X205800000Y-58100000D03*
X218100000Y-84500000D03*
%TO.N,VCC*%
X208700000Y-81700000D03*
X231400000Y-85900000D03*
X242200000Y-84000000D03*
X209700000Y-81700000D03*
X207700000Y-81700000D03*
D37*
%TO.N,/~{CHRG}*%
X235125000Y-84212500D03*
D36*
%TO.N,Net-(IC1-FREQ)*%
X233605000Y-80782499D03*
X228800000Y-83987500D03*
%TO.N,Net-(IC1-BOOST)*%
X230300000Y-80050000D03*
X232400000Y-80551472D03*
%TO.N,/~{FLT}*%
X225900000Y-59100000D03*
D37*
X234927458Y-83301195D03*
%TD*%
%TO.N,Net-(Q1-G)*%
D38*
X206050000Y-62150000D02*
X206050000Y-63162500D01*
X210300000Y-61500000D02*
X206700000Y-61500000D01*
X211324999Y-62524999D02*
X210300000Y-61500000D01*
X211324999Y-74700000D02*
X211324999Y-62524999D01*
X206700000Y-61500000D02*
X206050000Y-62150000D01*
%TO.N,Net-(IC1-RUN)*%
X234483771Y-82553728D02*
X234149999Y-82887500D01*
X236893656Y-82553728D02*
X234483771Y-82553728D01*
X234149999Y-82887500D02*
X233512499Y-82887500D01*
X236923657Y-82523727D02*
X236893656Y-82553728D01*
X238493654Y-82523729D02*
X236923657Y-82523727D01*
%TO.N,Net-(D2-K)*%
X238000000Y-79900000D02*
X238493654Y-80393654D01*
X231800000Y-82175000D02*
X231800000Y-80800000D01*
X232200000Y-79900000D02*
X238000000Y-79900000D01*
X238493654Y-80393654D02*
X238493654Y-80873730D01*
X231800000Y-80300000D02*
X232200000Y-79900000D01*
X231800000Y-80800000D02*
X231800000Y-80300000D01*
X231800000Y-80800000D02*
X231100000Y-80800000D01*
%TO.N,/SDA*%
X232200000Y-60220000D02*
X232200000Y-63300000D01*
X216559153Y-68383837D02*
X231916163Y-68383837D01*
X235106000Y-64054000D02*
X236080000Y-63080000D01*
X236080000Y-64220000D02*
X236080000Y-63080000D01*
X232954000Y-64054000D02*
X235106000Y-64054000D01*
X232200000Y-63300000D02*
X232954000Y-64054000D01*
X232650000Y-59770000D02*
X232200000Y-60220000D01*
X231916163Y-68383837D02*
X236080000Y-64220000D01*
%TO.N,+3.3V*%
X228500000Y-59075000D02*
X229725000Y-59075000D01*
X229725000Y-59075000D02*
X230700000Y-58100000D01*
X223300000Y-60725000D02*
X223300000Y-62300000D01*
X239110000Y-55280000D02*
X238265000Y-55280000D01*
X230700000Y-58100000D02*
X231800000Y-58100000D01*
X239450000Y-55620000D02*
X239110000Y-55280000D01*
X239450000Y-56060000D02*
X239450000Y-55620000D01*
%TO.N,GND*%
X231300000Y-82887500D02*
X232050000Y-83637500D01*
X236923657Y-80873728D02*
X236893656Y-80903729D01*
X232800000Y-85100000D02*
X232800000Y-84387500D01*
X230587500Y-82887500D02*
X231300000Y-82887500D01*
X232800000Y-84387500D02*
X232050000Y-83637500D01*
%TO.N,VCC*%
X242200000Y-84000000D02*
X242300000Y-84000000D01*
%TO.N,/~{CHRG}*%
X234800001Y-83887501D02*
X233512501Y-83887501D01*
X228500000Y-60725000D02*
X228500000Y-63040000D01*
X235125000Y-84212500D02*
X234800001Y-83887501D01*
X228500000Y-63040000D02*
X228460000Y-63080000D01*
%TO.N,Net-(Q1-G)*%
X210649998Y-77850000D02*
X210649998Y-79509998D01*
X211324999Y-77175000D02*
X210649998Y-77850000D01*
X211324998Y-74699999D02*
X211324999Y-77175000D01*
%TO.N,Net-(IC1-FREQ)*%
X232799999Y-81587500D02*
X233605000Y-80782499D01*
X232799999Y-82175000D02*
X232799999Y-81587500D01*
X230587500Y-83887500D02*
X228900000Y-83887500D01*
X233605000Y-80782499D02*
X233604999Y-80782499D01*
X228900000Y-83887500D02*
X228800000Y-83987500D01*
%TO.N,Net-(IC1-BOOST)*%
X232300000Y-82175000D02*
X232300000Y-80651472D01*
X232300000Y-80651472D02*
X232400000Y-80551472D01*
X230150000Y-80200000D02*
X229350000Y-80200000D01*
X230300000Y-80050000D02*
X230150000Y-80200000D01*
X229350000Y-80200000D02*
X228900000Y-80650000D01*
%TO.N,Net-(D2-A)*%
X218352503Y-80100000D02*
X217935003Y-79682500D01*
X217835002Y-79182501D02*
X217935003Y-79082500D01*
X217935003Y-79682500D02*
X217935003Y-79082500D01*
X221022499Y-80100000D02*
X218352503Y-80100000D01*
X221700000Y-80777501D02*
X221022499Y-80100000D01*
X216255000Y-79182501D02*
X217835002Y-79182501D01*
X223487500Y-83387500D02*
X221700000Y-81600000D01*
X221700000Y-81600000D02*
X221700000Y-80777501D01*
X230587500Y-83387500D02*
X223487500Y-83387500D01*
%TO.N,Net-(IC1-PROG)*%
X234200000Y-84387501D02*
X234925000Y-85112500D01*
X233512500Y-84387501D02*
X234200000Y-84387501D01*
%TO.N,/~{FLT}*%
X234850000Y-83387500D02*
X233512499Y-83387500D01*
X234927458Y-83301195D02*
X234927459Y-83310043D01*
X234927459Y-83310043D02*
X234850000Y-83387500D01*
X225900000Y-59100002D02*
X223325002Y-59100002D01*
X223325002Y-59100002D02*
X223300000Y-59075000D01*
%TO.N,Net-(U1-GPIO3)*%
X233540000Y-78320000D02*
X233540000Y-77360000D01*
X242160000Y-80735000D02*
X242200000Y-80775000D01*
X238800000Y-76600000D02*
X239800000Y-77600000D01*
X240630000Y-80030000D02*
X240630000Y-80735000D01*
X233540000Y-77360000D02*
X234300000Y-76600000D01*
X239800000Y-79200000D02*
X240630000Y-80030000D01*
X240630000Y-80735000D02*
X242160000Y-80735000D01*
X234300000Y-76600000D02*
X238800000Y-76600000D01*
X239800000Y-77600000D02*
X239800000Y-79200000D01*
%TO.N,/INT1*%
X214300000Y-74100000D02*
X213200000Y-73000000D01*
X221700000Y-74100000D02*
X214300000Y-74100000D01*
X225920000Y-78320000D02*
X221700000Y-74100000D01*
X213200000Y-69000000D02*
X214328663Y-67871337D01*
X213200000Y-73000000D02*
X213200000Y-69000000D01*
X214328663Y-67871337D02*
X215046653Y-67871337D01*
%TO.N,/INT2*%
X227080000Y-79700000D02*
X228460000Y-78320000D01*
X214200000Y-74700000D02*
X220600000Y-74700000D01*
X212600000Y-68800000D02*
X212600000Y-73100000D01*
X212600000Y-73100000D02*
X214200000Y-74700000D01*
X220600000Y-74700000D02*
X225600000Y-79700000D01*
X225600000Y-79700000D02*
X227080000Y-79700000D01*
X215046653Y-67371337D02*
X214028663Y-67371337D01*
X214028663Y-67371337D02*
X212600000Y-68800000D01*
%TO.N,/SCL*%
X233540000Y-61960000D02*
X233540000Y-63080000D01*
X214500000Y-73300000D02*
X228900000Y-73300000D01*
X236200000Y-61100000D02*
X234400000Y-61100000D01*
X214816163Y-68383837D02*
X214000000Y-69200000D01*
X237300000Y-62200000D02*
X236200000Y-61100000D01*
X234400000Y-59800000D02*
X234400000Y-61100000D01*
X234400000Y-61100000D02*
X233540000Y-61960000D01*
X215059153Y-68383837D02*
X214816163Y-68383837D01*
X214000000Y-72800000D02*
X214500000Y-73300000D01*
X214000000Y-69200000D02*
X214000000Y-72800000D01*
X228900000Y-73300000D02*
X237300000Y-64900000D01*
X237300000Y-64900000D02*
X237300000Y-62200000D01*
%TO.N,Net-(JP1-A)*%
X225900000Y-60400000D02*
X225900000Y-63060000D01*
X225900000Y-63060000D02*
X225920000Y-63080000D01*
%TD*%
%TA.AperFunction,Conductor*%
%TO.N,/BAT+*%
G36*
X210205820Y-73984322D02*
G01*
X210220145Y-77375476D01*
X210200744Y-77442598D01*
X210148133Y-77488576D01*
X210096146Y-77500000D01*
X208072694Y-77500000D01*
X208005655Y-77480315D01*
X207992597Y-77470660D01*
X206443903Y-76160226D01*
X206405441Y-76101895D01*
X206400000Y-76065566D01*
X206400000Y-75669263D01*
X206419685Y-75602224D01*
X206472489Y-75556469D01*
X206536603Y-75545905D01*
X206576684Y-75549999D01*
X206849999Y-75549999D01*
X207350000Y-75549999D01*
X207623308Y-75549999D01*
X207623322Y-75549998D01*
X207722607Y-75539855D01*
X207883481Y-75486547D01*
X207883492Y-75486542D01*
X208027728Y-75397575D01*
X208027732Y-75397572D01*
X208147572Y-75277732D01*
X208147575Y-75277728D01*
X208236542Y-75133492D01*
X208236547Y-75133481D01*
X208289855Y-74972606D01*
X208299999Y-74873322D01*
X208300000Y-74873309D01*
X208300000Y-74850000D01*
X207350000Y-74850000D01*
X207350000Y-75549999D01*
X206849999Y-75549999D01*
X206850000Y-75549998D01*
X206850000Y-74766988D01*
X206859940Y-74784205D01*
X206915795Y-74840060D01*
X206984204Y-74879556D01*
X207060504Y-74900000D01*
X207139496Y-74900000D01*
X207215796Y-74879556D01*
X207284205Y-74840060D01*
X207340060Y-74784205D01*
X207379556Y-74715796D01*
X207400000Y-74639496D01*
X207400000Y-74560504D01*
X207379556Y-74484204D01*
X207340060Y-74415795D01*
X207284205Y-74359940D01*
X207266988Y-74350000D01*
X208299999Y-74350000D01*
X208299999Y-74326692D01*
X208299998Y-74326677D01*
X208289855Y-74227392D01*
X208236547Y-74066518D01*
X208236544Y-74066511D01*
X208190852Y-73992435D01*
X210205816Y-73983924D01*
X210205820Y-73984322D01*
G37*
%TD.AperFunction*%
%TD*%
%TA.AperFunction,Conductor*%
%TO.N,Net-(IC1-SW)*%
G36*
X228067120Y-81005023D02*
G01*
X228082118Y-81009427D01*
X228097116Y-81019065D01*
X228114219Y-81024087D01*
X228140893Y-81047199D01*
X228149276Y-81056873D01*
X228170919Y-81092587D01*
X228186461Y-81131998D01*
X228187466Y-81134752D01*
X228274920Y-81250078D01*
X228340296Y-81299654D01*
X228390023Y-81337363D01*
X228390024Y-81337363D01*
X228390244Y-81337530D01*
X228392965Y-81338524D01*
X228487471Y-81375792D01*
X228524410Y-81390359D01*
X228608856Y-81400500D01*
X228608862Y-81400500D01*
X229191138Y-81400500D01*
X229191144Y-81400500D01*
X229275590Y-81390359D01*
X229409975Y-81337364D01*
X229525078Y-81250078D01*
X229612364Y-81134975D01*
X229626354Y-81099500D01*
X229628096Y-81095082D01*
X229645577Y-81064443D01*
X229655179Y-81052102D01*
X229669656Y-81041678D01*
X229671004Y-81039948D01*
X229673071Y-81039220D01*
X229711881Y-81011280D01*
X229718076Y-81009100D01*
X229723961Y-81007030D01*
X229765118Y-81000000D01*
X230023563Y-81000000D01*
X230054662Y-81003963D01*
X230084284Y-81011638D01*
X230113392Y-81023274D01*
X230723618Y-81362288D01*
X230746171Y-81378876D01*
X230746426Y-81378593D01*
X230747654Y-81379696D01*
X230747660Y-81379702D01*
X230768123Y-81398083D01*
X230771993Y-81401559D01*
X230792674Y-81418224D01*
X230798172Y-81422551D01*
X230798175Y-81422553D01*
X230898251Y-81473439D01*
X230898253Y-81473439D01*
X230898254Y-81473440D01*
X230938972Y-81485396D01*
X230964258Y-81495978D01*
X231295132Y-81679797D01*
X231295134Y-81679798D01*
X231323234Y-81701154D01*
X231336054Y-81714162D01*
X231367995Y-81770972D01*
X231370758Y-81781963D01*
X231374500Y-81812194D01*
X231374500Y-82345166D01*
X231372601Y-82358367D01*
X231372900Y-82358389D01*
X231372545Y-82363348D01*
X231371876Y-82366176D01*
X231372155Y-82367715D01*
X231370267Y-82374599D01*
X231369476Y-82380104D01*
X231368193Y-82384473D01*
X231367607Y-82384301D01*
X231367523Y-82384608D01*
X231363758Y-82400548D01*
X231363797Y-82400563D01*
X231363683Y-82400867D01*
X231363436Y-82401915D01*
X231362575Y-82403993D01*
X231362259Y-82404687D01*
X231362186Y-82404933D01*
X231361136Y-82407472D01*
X231360791Y-82407899D01*
X231360422Y-82408709D01*
X231360215Y-82408614D01*
X231340736Y-82432800D01*
X231324399Y-82454627D01*
X231325273Y-82455637D01*
X231324217Y-82456551D01*
X231322307Y-82457422D01*
X231320910Y-82459290D01*
X231318470Y-82461118D01*
X231318209Y-82460770D01*
X231317310Y-82461888D01*
X231299618Y-82467781D01*
X231260758Y-82485524D01*
X231259322Y-82485731D01*
X231241630Y-82487000D01*
X231115465Y-82487000D01*
X231087512Y-82483808D01*
X231060643Y-82477591D01*
X231051910Y-82474499D01*
X231051717Y-82475125D01*
X231042513Y-82472280D01*
X231024869Y-82469710D01*
X231024868Y-82469709D01*
X230993406Y-82465126D01*
X230971949Y-82462000D01*
X230971945Y-82462000D01*
X230203054Y-82462000D01*
X230203049Y-82462000D01*
X230132493Y-82472279D01*
X230023650Y-82525489D01*
X230023649Y-82525489D01*
X230023649Y-82525490D01*
X230023644Y-82525493D01*
X230015564Y-82533574D01*
X229987314Y-82554723D01*
X229964228Y-82567330D01*
X229904797Y-82582500D01*
X223921829Y-82582500D01*
X223886888Y-82577475D01*
X223871889Y-82573070D01*
X223813143Y-82535327D01*
X223811956Y-82533958D01*
X223784476Y-82479083D01*
X223782831Y-82471521D01*
X223779999Y-82445168D01*
X223779999Y-81375792D01*
X223785021Y-81340860D01*
X223785999Y-81337530D01*
X223789888Y-81324286D01*
X223825396Y-81267521D01*
X223834995Y-81258784D01*
X223861492Y-81240348D01*
X224065213Y-81134975D01*
X224286164Y-81020689D01*
X224313817Y-81010344D01*
X224341888Y-81003514D01*
X224371201Y-81000000D01*
X228032184Y-81000000D01*
X228067120Y-81005023D01*
G37*
%TD.AperFunction*%
%TD*%
%TA.AperFunction,Conductor*%
%TO.N,Net-(D1-K)*%
G36*
X217618945Y-80219685D02*
G01*
X217639587Y-80236319D01*
X217867642Y-80464374D01*
X217867652Y-80464385D01*
X217871982Y-80468715D01*
X217871983Y-80468716D01*
X217983787Y-80580520D01*
X218070598Y-80630639D01*
X218120718Y-80659577D01*
X218267489Y-80698903D01*
X218272247Y-80700605D01*
X218296573Y-80718303D01*
X218322253Y-80733956D01*
X218324529Y-80738642D01*
X218328746Y-80741710D01*
X218339641Y-80769751D01*
X218352783Y-80796802D01*
X218353502Y-80805422D01*
X218354052Y-80806836D01*
X218353746Y-80808339D01*
X218354500Y-80817366D01*
X218354500Y-81680371D01*
X218354501Y-81680377D01*
X218360908Y-81739984D01*
X218411202Y-81874829D01*
X218411206Y-81874836D01*
X218497452Y-81990045D01*
X218497455Y-81990048D01*
X218612664Y-82076294D01*
X218612669Y-82076297D01*
X218665631Y-82096050D01*
X218721498Y-82137832D01*
X218754999Y-82182501D01*
X218755000Y-82182501D01*
X219426620Y-82182501D01*
X219493659Y-82202186D01*
X219539414Y-82254990D01*
X219549358Y-82324148D01*
X219542802Y-82349835D01*
X219533408Y-82375019D01*
X219527001Y-82434617D01*
X219527000Y-82434636D01*
X219527000Y-83330371D01*
X219527001Y-83330375D01*
X219528600Y-83345247D01*
X219516194Y-83414006D01*
X219468583Y-83465143D01*
X219405310Y-83482501D01*
X217479000Y-83482501D01*
X217411961Y-83462816D01*
X217366206Y-83410012D01*
X217355000Y-83358501D01*
X217355000Y-81600000D01*
X215924000Y-81600000D01*
X215856961Y-81580315D01*
X215811206Y-81527511D01*
X215800000Y-81476000D01*
X215800000Y-80324000D01*
X215819685Y-80256961D01*
X215872489Y-80211206D01*
X215924000Y-80200000D01*
X217551906Y-80200000D01*
X217618945Y-80219685D01*
G37*
%TD.AperFunction*%
%TD*%
%TA.AperFunction,Conductor*%
%TO.N,+3.3V*%
G36*
X215695284Y-67124566D02*
G01*
X215695285Y-67124567D01*
X215739600Y-67190889D01*
X215748215Y-67196645D01*
X215793021Y-67250256D01*
X215803321Y-67300779D01*
X215800000Y-67700000D01*
X216137116Y-67969693D01*
X216177167Y-68026941D01*
X216182168Y-68047388D01*
X216183653Y-68056897D01*
X216183653Y-68066085D01*
X216190327Y-68099639D01*
X216190728Y-68102206D01*
X216189831Y-68109030D01*
X216189831Y-68145525D01*
X216183653Y-68176587D01*
X216183653Y-68591089D01*
X216195284Y-68649566D01*
X216195285Y-68649567D01*
X216239598Y-68715886D01*
X216239601Y-68715889D01*
X216244889Y-68719422D01*
X216289695Y-68773033D01*
X216300000Y-68822525D01*
X216300000Y-68900000D01*
X216800000Y-69400000D01*
X217748638Y-69400000D01*
X217815677Y-69419685D01*
X217836319Y-69436319D01*
X218363681Y-69963681D01*
X218397166Y-70025004D01*
X218400000Y-70051362D01*
X218400000Y-71260377D01*
X218380315Y-71327416D01*
X218327511Y-71373171D01*
X218276542Y-71384376D01*
X214824542Y-71399455D01*
X214757417Y-71380063D01*
X214711432Y-71327460D01*
X214700000Y-71275456D01*
X214700000Y-69951362D01*
X214719685Y-69884323D01*
X214736319Y-69863681D01*
X215400000Y-69200000D01*
X215400000Y-68721634D01*
X215419685Y-68654595D01*
X215420901Y-68652739D01*
X215423021Y-68649566D01*
X215434652Y-68591089D01*
X215434653Y-68591087D01*
X215434653Y-68176585D01*
X215428475Y-68145533D01*
X215428475Y-68097141D01*
X215434653Y-68066088D01*
X215434653Y-67676585D01*
X215428475Y-67645533D01*
X215428475Y-67597141D01*
X215434653Y-67566088D01*
X215434653Y-67176586D01*
X215434652Y-67176584D01*
X215423021Y-67118107D01*
X215423020Y-67118106D01*
X215410922Y-67100000D01*
X215690398Y-67100000D01*
X215695284Y-67124566D01*
G37*
%TD.AperFunction*%
%TD*%
%TA.AperFunction,Conductor*%
%TO.N,Net-(IC1-RUN)*%
G36*
X237360878Y-82070582D02*
G01*
X237406633Y-82123386D01*
X237417839Y-82174898D01*
X237417839Y-82749982D01*
X237417825Y-82751835D01*
X237365538Y-86250019D01*
X237344854Y-86316757D01*
X237291372Y-86361718D01*
X237239699Y-86372152D01*
X235939986Y-86352724D01*
X235873248Y-86332040D01*
X235828287Y-86278558D01*
X235817839Y-86228738D01*
X235817839Y-83585245D01*
X235835510Y-83521447D01*
X236417839Y-82550900D01*
X236417837Y-82174898D01*
X236437521Y-82107860D01*
X236490325Y-82062105D01*
X236541833Y-82050899D01*
X237293839Y-82050898D01*
X237360878Y-82070582D01*
G37*
%TD.AperFunction*%
%TD*%
%TA.AperFunction,Conductor*%
%TO.N,VCC*%
G36*
X242622282Y-81936469D02*
G01*
X242921944Y-82057091D01*
X242961548Y-82082702D01*
X243427849Y-82530683D01*
X243500000Y-82600000D01*
X244348638Y-82600000D01*
X244378078Y-82608644D01*
X244408065Y-82615168D01*
X244413080Y-82618922D01*
X244415677Y-82619685D01*
X244436319Y-82636319D01*
X244563681Y-82763681D01*
X244597166Y-82825004D01*
X244600000Y-82851362D01*
X244600000Y-83448638D01*
X244580315Y-83515677D01*
X244563681Y-83536319D01*
X244436319Y-83663681D01*
X244374996Y-83697166D01*
X244348638Y-83700000D01*
X243299999Y-83700000D01*
X243158580Y-83841419D01*
X243158579Y-83841421D01*
X243140646Y-83859354D01*
X243122714Y-83877285D01*
X243097049Y-83896980D01*
X243092688Y-83899498D01*
X242999501Y-83992685D01*
X242999500Y-83992685D01*
X242996983Y-83997045D01*
X242977283Y-84022715D01*
X242558862Y-84441137D01*
X242518634Y-84468017D01*
X242222788Y-84590561D01*
X242175335Y-84600000D01*
X241851362Y-84600000D01*
X241821921Y-84591355D01*
X241791935Y-84584832D01*
X241786919Y-84581077D01*
X241784323Y-84580315D01*
X241763681Y-84563681D01*
X241636319Y-84436319D01*
X241602834Y-84374996D01*
X241600000Y-84348638D01*
X241600000Y-82178862D01*
X241619685Y-82111823D01*
X241636319Y-82091181D01*
X241763681Y-81963819D01*
X241825004Y-81930334D01*
X241851362Y-81927500D01*
X242575979Y-81927500D01*
X242622282Y-81936469D01*
G37*
%TD.AperFunction*%
%TD*%
%TA.AperFunction,Conductor*%
%TO.N,VCC*%
G36*
X231817539Y-84807684D02*
G01*
X231863294Y-84860488D01*
X231874500Y-84911999D01*
X231874500Y-85484450D01*
X231884779Y-85555006D01*
X231937988Y-85663848D01*
X231945485Y-85671344D01*
X231978972Y-85732666D01*
X231981807Y-85758820D01*
X231984051Y-87093811D01*
X231964479Y-87160883D01*
X231911752Y-87206727D01*
X231858770Y-87218012D01*
X230782335Y-87206894D01*
X230715503Y-87186518D01*
X230670296Y-87133245D01*
X230659616Y-87082750D01*
X230660533Y-86331699D01*
X230666386Y-86294209D01*
X231118862Y-84874347D01*
X231157973Y-84816451D01*
X231222176Y-84788889D01*
X231236993Y-84787999D01*
X231750500Y-84787999D01*
X231817539Y-84807684D01*
G37*
%TD.AperFunction*%
%TD*%
%TA.AperFunction,Conductor*%
%TO.N,Net-(IC1-CHGSNS)*%
G36*
X228329010Y-84405023D02*
G01*
X228351087Y-84411506D01*
X228354251Y-84412435D01*
X228406994Y-84443730D01*
X228431283Y-84468019D01*
X228431976Y-84468519D01*
X228434487Y-84469870D01*
X228451483Y-84479682D01*
X228476698Y-84494240D01*
X228476699Y-84494240D01*
X228476702Y-84494242D01*
X228568216Y-84547077D01*
X228720943Y-84588000D01*
X228720945Y-84588000D01*
X228879055Y-84588000D01*
X228879057Y-84588000D01*
X229031784Y-84547077D01*
X229168716Y-84468020D01*
X229187811Y-84448924D01*
X229216058Y-84427778D01*
X229239150Y-84415168D01*
X229298577Y-84400001D01*
X230757669Y-84400001D01*
X230763308Y-84400812D01*
X230763315Y-84400612D01*
X230766249Y-84400701D01*
X230777654Y-84402875D01*
X230792617Y-84405028D01*
X230794503Y-84405582D01*
X230794362Y-84406061D01*
X230804598Y-84408013D01*
X230812492Y-84410863D01*
X230814273Y-84411506D01*
X230813959Y-84412372D01*
X230825018Y-84419730D01*
X230839919Y-84424154D01*
X230863651Y-84445435D01*
X230866524Y-84447346D01*
X230867717Y-84448732D01*
X230867792Y-84448829D01*
X230869333Y-84450607D01*
X230869455Y-84450749D01*
X230883857Y-84482537D01*
X230898237Y-84514021D01*
X230898258Y-84514321D01*
X230898290Y-84514391D01*
X230898272Y-84514512D01*
X230899500Y-84531643D01*
X230899500Y-84532363D01*
X230901204Y-84547059D01*
X230901140Y-84548757D01*
X230901471Y-84549585D01*
X230900295Y-84571198D01*
X230899782Y-84584839D01*
X230899622Y-84585666D01*
X230896914Y-84598780D01*
X230895518Y-84606928D01*
X230895270Y-84608216D01*
X230892995Y-84612624D01*
X230877270Y-84652622D01*
X230859096Y-84680390D01*
X230836319Y-84706393D01*
X229848551Y-85558133D01*
X229818812Y-85577143D01*
X229793234Y-85588749D01*
X229741637Y-85599829D01*
X223921468Y-85582911D01*
X223886552Y-85577788D01*
X223871566Y-85573341D01*
X223812901Y-85535404D01*
X223811656Y-85533959D01*
X223784390Y-85479191D01*
X223782792Y-85471790D01*
X223779999Y-85445619D01*
X223779999Y-84541825D01*
X223785021Y-84506893D01*
X223789424Y-84491896D01*
X223827195Y-84433122D01*
X223828570Y-84431930D01*
X223883419Y-84404477D01*
X223890978Y-84402833D01*
X223917330Y-84400000D01*
X228294082Y-84400000D01*
X228329010Y-84405023D01*
G37*
%TD.AperFunction*%
%TD*%
%TA.AperFunction,Conductor*%
%TO.N,/BAT+*%
G36*
X210018616Y-62408225D02*
G01*
X210064962Y-62460511D01*
X210076746Y-62511893D01*
X210205813Y-73983451D01*
X210205816Y-73983924D01*
X210205814Y-73983924D01*
X208114714Y-73992756D01*
X207945752Y-62536299D01*
X207964446Y-62468980D01*
X208016570Y-62422452D01*
X208068339Y-62410483D01*
X209951359Y-62389296D01*
X210018616Y-62408225D01*
G37*
%TD.AperFunction*%
%TD*%
%TA.AperFunction,Conductor*%
%TO.N,Net-(D2-K)*%
G36*
X231717741Y-80270109D02*
G01*
X231755780Y-80289845D01*
X231766678Y-80298169D01*
X231808006Y-80354505D01*
X231812315Y-80424242D01*
X231811185Y-80428804D01*
X231799500Y-80472413D01*
X231799500Y-80630528D01*
X231840423Y-80783255D01*
X231840424Y-80783258D01*
X231882887Y-80856806D01*
X231887037Y-80872294D01*
X231894477Y-80883871D01*
X231899500Y-80918806D01*
X231899500Y-80949138D01*
X231879815Y-81016177D01*
X231863181Y-81036819D01*
X231736319Y-81163681D01*
X231674996Y-81197166D01*
X231648638Y-81200000D01*
X231051362Y-81200000D01*
X230984323Y-81180315D01*
X230963681Y-81163681D01*
X230836319Y-81036319D01*
X230802834Y-80974996D01*
X230800000Y-80948638D01*
X230800000Y-80741938D01*
X230819685Y-80674899D01*
X230825457Y-80666671D01*
X230967497Y-80480706D01*
X231023833Y-80439377D01*
X231033404Y-80436344D01*
X231350000Y-80350000D01*
X231647889Y-80268757D01*
X231717741Y-80270109D01*
G37*
%TD.AperFunction*%
%TD*%
%TA.AperFunction,Conductor*%
%TO.N,Net-(D4-K)*%
G36*
X244665015Y-77305023D02*
G01*
X244690050Y-77312374D01*
X244743669Y-77344551D01*
X244847058Y-77450029D01*
X244865667Y-77475412D01*
X244867922Y-77478488D01*
X244880196Y-77501508D01*
X244894753Y-77562329D01*
X244805207Y-82039609D01*
X244799487Y-82074435D01*
X244797837Y-82079662D01*
X244796588Y-82085579D01*
X244794403Y-82085117D01*
X244771281Y-82140332D01*
X244643221Y-82298045D01*
X244643221Y-82298047D01*
X244617301Y-82322002D01*
X244592750Y-82338915D01*
X244550287Y-82357624D01*
X244397014Y-82392995D01*
X244351490Y-82394910D01*
X244348638Y-82394500D01*
X243632632Y-82394500D01*
X243604334Y-82386190D01*
X243575390Y-82380497D01*
X243568778Y-82375750D01*
X243565593Y-82374815D01*
X243546719Y-82359914D01*
X243538087Y-82351620D01*
X243503384Y-82290978D01*
X243500000Y-82262206D01*
X243500000Y-80199998D01*
X243264341Y-79846511D01*
X243026186Y-79489279D01*
X243017227Y-79473429D01*
X243009513Y-79457085D01*
X243002973Y-79440098D01*
X242907964Y-79126303D01*
X242903984Y-79108550D01*
X242901336Y-79090668D01*
X242900000Y-79072512D01*
X242900000Y-77569189D01*
X242904263Y-77536953D01*
X242904621Y-77535621D01*
X242908644Y-77521921D01*
X242910050Y-77515454D01*
X242910831Y-77512557D01*
X242927532Y-77485229D01*
X242942879Y-77457120D01*
X243051076Y-77348923D01*
X243079326Y-77327775D01*
X243102418Y-77315167D01*
X243161843Y-77300000D01*
X244630080Y-77300000D01*
X244665015Y-77305023D01*
G37*
%TD.AperFunction*%
%TD*%
%TA.AperFunction,Conductor*%
%TO.N,Net-(C4-Pad1)*%
G36*
X215348106Y-78505023D02*
G01*
X215363104Y-78509427D01*
X215378094Y-78519057D01*
X215395175Y-78524067D01*
X215421855Y-78547172D01*
X215423042Y-78548541D01*
X215450518Y-78603402D01*
X215452163Y-78610960D01*
X215455000Y-78637331D01*
X215455000Y-79867517D01*
X215435315Y-79934556D01*
X215424712Y-79948720D01*
X215394435Y-79983660D01*
X215394430Y-79983668D01*
X215334664Y-80114534D01*
X215334662Y-80114541D01*
X215314977Y-80181580D01*
X215314976Y-80181584D01*
X215294500Y-80324000D01*
X215294500Y-81476000D01*
X215294501Y-81476009D01*
X215306052Y-81583450D01*
X215306054Y-81583462D01*
X215317260Y-81634972D01*
X215351383Y-81737497D01*
X215351386Y-81737503D01*
X215429172Y-81858539D01*
X215430259Y-81859991D01*
X215430472Y-81860562D01*
X215431569Y-81862269D01*
X215431197Y-81862507D01*
X215454683Y-81925453D01*
X215455000Y-81934312D01*
X215455000Y-82362500D01*
X216604200Y-83281860D01*
X216834041Y-83465733D01*
X216874093Y-83522984D01*
X216874233Y-83523401D01*
X216906384Y-83620000D01*
X216906386Y-83620004D01*
X216984171Y-83741038D01*
X216984179Y-83741049D01*
X217029923Y-83793841D01*
X217029926Y-83793844D01*
X217029930Y-83793848D01*
X217138664Y-83888068D01*
X217182463Y-83908070D01*
X217235264Y-83953823D01*
X217254949Y-84020862D01*
X217254949Y-84021025D01*
X217251269Y-86845509D01*
X217251268Y-86845511D01*
X217251269Y-86845513D01*
X217246199Y-86880441D01*
X217241776Y-86895430D01*
X217203925Y-86954156D01*
X217202445Y-86955435D01*
X217147839Y-86982756D01*
X217140522Y-86984355D01*
X217114429Y-86987213D01*
X214170170Y-86996236D01*
X214170170Y-86996237D01*
X214170169Y-86996236D01*
X214170169Y-86996237D01*
X214135220Y-86991322D01*
X214120204Y-86986963D01*
X214061311Y-86949369D01*
X214060111Y-86947993D01*
X214032497Y-86893237D01*
X214030830Y-86885682D01*
X214027918Y-86859341D01*
X214019012Y-83953823D01*
X214002731Y-78642202D01*
X214007645Y-78607263D01*
X214012006Y-78592241D01*
X214021782Y-78576928D01*
X214049596Y-78533355D01*
X214050889Y-78532228D01*
X214105841Y-78504565D01*
X214109663Y-78503728D01*
X214113572Y-78502872D01*
X214140105Y-78500000D01*
X215313170Y-78500000D01*
X215348106Y-78505023D01*
G37*
%TD.AperFunction*%
%TD*%
%TA.AperFunction,Conductor*%
%TO.N,VCC*%
G36*
X209027933Y-78919685D02*
G01*
X209032006Y-78922417D01*
X209236319Y-79065524D01*
X209279934Y-79120106D01*
X209281713Y-79124711D01*
X210309595Y-81951387D01*
X210310009Y-81957934D01*
X210313334Y-81963591D01*
X210312187Y-81992374D01*
X210314006Y-82021117D01*
X210310750Y-82028472D01*
X210310554Y-82033405D01*
X210294626Y-82064901D01*
X210237026Y-82147138D01*
X210182443Y-82190755D01*
X210135461Y-82200000D01*
X206966619Y-82200000D01*
X206899580Y-82180315D01*
X206863224Y-82144450D01*
X206814885Y-82071433D01*
X206794291Y-82004667D01*
X206804128Y-81954555D01*
X206805472Y-81951387D01*
X208007313Y-79118475D01*
X208051615Y-79064449D01*
X208052893Y-79063591D01*
X208268876Y-78920605D01*
X208335642Y-78900011D01*
X208337326Y-78900000D01*
X208960894Y-78900000D01*
X209027933Y-78919685D01*
G37*
%TD.AperFunction*%
%TD*%
%TA.AperFunction,Conductor*%
%TO.N,+3.3V*%
G36*
X231945444Y-56312035D02*
G01*
X233450000Y-56800000D01*
X234976292Y-57295014D01*
X235033988Y-57334421D01*
X235038328Y-57340045D01*
X235276299Y-57667396D01*
X235299796Y-57733194D01*
X235300000Y-57740307D01*
X235300000Y-58448638D01*
X235280315Y-58515677D01*
X235263681Y-58536319D01*
X235036319Y-58763681D01*
X234974996Y-58797166D01*
X234948638Y-58800000D01*
X231951362Y-58800000D01*
X231884323Y-58780315D01*
X231863681Y-58763681D01*
X231636319Y-58536319D01*
X231602834Y-58474996D01*
X231600000Y-58448638D01*
X231600000Y-56563159D01*
X231601536Y-56557926D01*
X231600452Y-56552581D01*
X231611275Y-56524758D01*
X231619685Y-56496120D01*
X231624331Y-56491199D01*
X231625784Y-56487465D01*
X231651088Y-56462861D01*
X231834278Y-56329690D01*
X231900078Y-56306192D01*
X231945444Y-56312035D01*
G37*
%TD.AperFunction*%
%TD*%
%TA.AperFunction,Conductor*%
%TO.N,+3.3V*%
G36*
X215626692Y-66619685D02*
G01*
X215672447Y-66672489D01*
X215683653Y-66724000D01*
X215683653Y-67066089D01*
X215690398Y-67100000D01*
X215410922Y-67100000D01*
X215378705Y-67051784D01*
X215312383Y-67007469D01*
X215312382Y-67007468D01*
X215253905Y-66995837D01*
X215253901Y-66995837D01*
X215024000Y-66995837D01*
X215015314Y-66993286D01*
X215006353Y-66994575D01*
X214982312Y-66983596D01*
X214956961Y-66976152D01*
X214951033Y-66969311D01*
X214942797Y-66965550D01*
X214928507Y-66943315D01*
X214911206Y-66923348D01*
X214908918Y-66912833D01*
X214905023Y-66906772D01*
X214900000Y-66871837D01*
X214900000Y-66724000D01*
X214919685Y-66656961D01*
X214972489Y-66611206D01*
X215024000Y-66600000D01*
X215559653Y-66600000D01*
X215626692Y-66619685D01*
G37*
%TD.AperFunction*%
%TD*%
%TA.AperFunction,Conductor*%
%TO.N,GND*%
G36*
X236856227Y-63851501D02*
G01*
X236892033Y-63909678D01*
X236894919Y-63919999D01*
X236899500Y-63953391D01*
X236899500Y-64664915D01*
X236899499Y-64664917D01*
X236899500Y-64664918D01*
X236894476Y-64699852D01*
X236887064Y-64725093D01*
X236855769Y-64777837D01*
X228783033Y-72850573D01*
X228754782Y-72871722D01*
X228731694Y-72884330D01*
X228672264Y-72899500D01*
X214735084Y-72899500D01*
X214735083Y-72899499D01*
X214735083Y-72899500D01*
X214700148Y-72894477D01*
X214674906Y-72887065D01*
X214622161Y-72855769D01*
X214449426Y-72683033D01*
X214428274Y-72654777D01*
X214415667Y-72631688D01*
X214400500Y-72572263D01*
X214400500Y-71737856D01*
X214420185Y-71670817D01*
X214472989Y-71625062D01*
X214542147Y-71615118D01*
X214580214Y-71627078D01*
X214672627Y-71673561D01*
X214739752Y-71692953D01*
X214825876Y-71704952D01*
X218277876Y-71689873D01*
X218342137Y-71682751D01*
X218393106Y-71671546D01*
X218430658Y-71660731D01*
X218527571Y-71604052D01*
X218580375Y-71558297D01*
X218580382Y-71558289D01*
X218580387Y-71558285D01*
X218622548Y-71513569D01*
X218622553Y-71513564D01*
X218673439Y-71413488D01*
X218693124Y-71346449D01*
X218705500Y-71260377D01*
X218705500Y-70051362D01*
X218703749Y-70018703D01*
X218700915Y-69992345D01*
X218700080Y-69985340D01*
X218665297Y-69878593D01*
X218665295Y-69878588D01*
X218631810Y-69817266D01*
X218579710Y-69747670D01*
X218579705Y-69747665D01*
X218579702Y-69747660D01*
X218579698Y-69747656D01*
X218579692Y-69747649D01*
X218136319Y-69304276D01*
X218102834Y-69242953D01*
X218100000Y-69216595D01*
X218100000Y-68926166D01*
X218105023Y-68891230D01*
X218109427Y-68876232D01*
X218110402Y-68874715D01*
X218147172Y-68817481D01*
X218147200Y-68817456D01*
X218147199Y-68817456D01*
X218148541Y-68816293D01*
X218203420Y-68788814D01*
X218210979Y-68787170D01*
X218237332Y-68784337D01*
X231968888Y-68784337D01*
X231968890Y-68784337D01*
X232070751Y-68757044D01*
X232162076Y-68704317D01*
X236325910Y-64540481D01*
X236325913Y-64540480D01*
X236400480Y-64465913D01*
X236426843Y-64420250D01*
X236453207Y-64374588D01*
X236480501Y-64272727D01*
X236480501Y-64167273D01*
X236480501Y-64159678D01*
X236480501Y-64157994D01*
X236480500Y-64157920D01*
X236480500Y-64068401D01*
X236485523Y-64033467D01*
X236490514Y-64016469D01*
X236525414Y-63960260D01*
X236537785Y-63948849D01*
X236537784Y-63948848D01*
X236541313Y-63945594D01*
X236556497Y-63933637D01*
X236576907Y-63919999D01*
X236684324Y-63848223D01*
X236704651Y-63837232D01*
X236707823Y-63835881D01*
X236707824Y-63835882D01*
X236724056Y-63828973D01*
X236793448Y-63820833D01*
X236856227Y-63851501D01*
G37*
%TD.AperFunction*%
%TA.AperFunction,Conductor*%
G36*
X243315318Y-53991310D02*
G01*
X243325834Y-53994398D01*
X243325091Y-53996928D01*
X243376987Y-54022891D01*
X243412653Y-54082972D01*
X243410591Y-54141055D01*
X243413153Y-54141613D01*
X243412798Y-54143243D01*
X243410355Y-54147715D01*
X243410175Y-54152797D01*
X243410171Y-54152809D01*
X243409652Y-54154369D01*
X243407171Y-54153543D01*
X243379321Y-54204535D01*
X243353849Y-54230007D01*
X243353841Y-54230016D01*
X243202185Y-54427659D01*
X243121370Y-54567636D01*
X243077623Y-54643409D01*
X243077619Y-54643416D01*
X243077616Y-54643423D01*
X243077610Y-54643436D01*
X242982285Y-54873572D01*
X242917802Y-55114225D01*
X242885287Y-55361203D01*
X242885287Y-55361210D01*
X242885286Y-55361227D01*
X242885286Y-55610344D01*
X242885287Y-55610361D01*
X242908933Y-55789975D01*
X242917804Y-55857351D01*
X242939815Y-55939496D01*
X242978532Y-56083991D01*
X242982285Y-56097995D01*
X242982289Y-56098008D01*
X243077610Y-56328134D01*
X243077616Y-56328147D01*
X243077623Y-56328162D01*
X243114154Y-56391435D01*
X243202185Y-56543911D01*
X243353839Y-56741552D01*
X243353843Y-56741557D01*
X243353846Y-56741560D01*
X243353852Y-56741567D01*
X243530004Y-56917719D01*
X243530011Y-56917725D01*
X243530014Y-56917727D01*
X243530018Y-56917731D01*
X243692936Y-57042741D01*
X243727659Y-57069385D01*
X243943409Y-57193948D01*
X243943424Y-57193955D01*
X243943435Y-57193959D01*
X243943436Y-57193960D01*
X244038896Y-57233501D01*
X244038897Y-57233501D01*
X244173579Y-57289288D01*
X244414221Y-57353768D01*
X244661221Y-57386286D01*
X244661228Y-57386286D01*
X244910344Y-57386286D01*
X244910351Y-57386286D01*
X245157351Y-57353768D01*
X245397993Y-57289288D01*
X245628159Y-57193950D01*
X245843913Y-57069385D01*
X246041562Y-56917724D01*
X246052962Y-56906324D01*
X246061005Y-56898280D01*
X246089243Y-56877142D01*
X246099183Y-56871715D01*
X246167452Y-56856865D01*
X246232916Y-56881282D01*
X246274787Y-56937215D01*
X246277468Y-56944403D01*
X246285286Y-56987737D01*
X246285286Y-84480379D01*
X246280262Y-84515317D01*
X246277075Y-84526170D01*
X246267437Y-84541165D01*
X246262417Y-84558267D01*
X246248942Y-84569943D01*
X246239300Y-84584947D01*
X246223084Y-84592351D01*
X246209615Y-84604024D01*
X246191964Y-84606562D01*
X246175743Y-84613970D01*
X246158099Y-84611433D01*
X246140457Y-84613971D01*
X246106594Y-84604029D01*
X246099615Y-84600842D01*
X246063443Y-84575728D01*
X246041575Y-84553860D01*
X246041567Y-84553852D01*
X246041560Y-84553846D01*
X246041557Y-84553843D01*
X246041552Y-84553839D01*
X245843911Y-84402185D01*
X245701809Y-84320143D01*
X245628162Y-84277623D01*
X245628147Y-84277616D01*
X245628134Y-84277610D01*
X245398000Y-84182286D01*
X245370976Y-84175045D01*
X245301516Y-84156433D01*
X245165202Y-84119907D01*
X245157454Y-84117277D01*
X245149288Y-84116742D01*
X244921961Y-84086813D01*
X244921951Y-84086812D01*
X244910361Y-84085287D01*
X244910356Y-84085286D01*
X244910351Y-84085286D01*
X244750003Y-84085286D01*
X244749440Y-84085281D01*
X244748478Y-84084989D01*
X244715614Y-84080265D01*
X244712194Y-84079261D01*
X244696641Y-84069267D01*
X244682578Y-84065002D01*
X244673616Y-84054472D01*
X244653413Y-84041490D01*
X244642808Y-84018272D01*
X244637294Y-84011793D01*
X244636225Y-84003858D01*
X244624385Y-83977936D01*
X244628694Y-83947954D01*
X244627966Y-83942549D01*
X244630139Y-83937899D01*
X244634325Y-83908777D01*
X244659441Y-83872601D01*
X244713914Y-83818128D01*
X244779702Y-83752340D01*
X244801558Y-83728008D01*
X244818192Y-83707366D01*
X244822553Y-83701825D01*
X244873439Y-83601749D01*
X244893124Y-83534710D01*
X244905500Y-83448638D01*
X244905500Y-82851362D01*
X244903749Y-82818703D01*
X244900915Y-82792345D01*
X244900080Y-82785340D01*
X244865297Y-82678593D01*
X244850123Y-82650805D01*
X244845896Y-82631375D01*
X244836964Y-82613608D01*
X244838621Y-82597934D01*
X244835271Y-82582535D01*
X244842219Y-82563902D01*
X244844311Y-82544126D01*
X244856299Y-82526150D01*
X244859686Y-82517070D01*
X244862267Y-82513741D01*
X244866493Y-82508477D01*
X244902206Y-82472765D01*
X244910800Y-82453297D01*
X244920979Y-82440622D01*
X244921159Y-82440496D01*
X244921401Y-82440100D01*
X245008444Y-82332904D01*
X245053071Y-82258335D01*
X245076193Y-82203120D01*
X245076192Y-82203119D01*
X245090064Y-82169995D01*
X245090414Y-82168597D01*
X245090299Y-82168570D01*
X245090301Y-82168561D01*
X245090224Y-82168540D01*
X245090807Y-82166429D01*
X245090817Y-82166399D01*
X245092571Y-82159046D01*
X245094744Y-82151114D01*
X245095492Y-82148696D01*
X245095501Y-82148676D01*
X245096750Y-82142759D01*
X245096748Y-82142758D01*
X245098646Y-82133772D01*
X245098648Y-82133766D01*
X245098980Y-82132189D01*
X245100948Y-82123948D01*
X245101745Y-82119092D01*
X245102324Y-82116352D01*
X245104800Y-82104617D01*
X245105424Y-82096690D01*
X245106668Y-82089122D01*
X245107376Y-82081403D01*
X245107707Y-82077783D01*
X245110646Y-82045718D01*
X245200192Y-77568438D01*
X245191862Y-77491219D01*
X245177305Y-77430398D01*
X245149771Y-77357774D01*
X245143058Y-77345184D01*
X245137512Y-77334781D01*
X245137503Y-77334766D01*
X245137497Y-77334754D01*
X245134967Y-77330729D01*
X245114304Y-77297861D01*
X245093443Y-77269406D01*
X245089561Y-77264834D01*
X245065229Y-77236179D01*
X244961840Y-77130701D01*
X244961839Y-77130700D01*
X244961836Y-77130697D01*
X244900866Y-77082597D01*
X244847251Y-77050423D01*
X244844974Y-77049425D01*
X244776120Y-77019249D01*
X244776115Y-77019247D01*
X244776114Y-77019247D01*
X244776112Y-77019246D01*
X244751093Y-77011900D01*
X244751088Y-77011899D01*
X244751085Y-77011898D01*
X244714727Y-77003989D01*
X244708485Y-77002631D01*
X244673558Y-76997610D01*
X244630081Y-76994500D01*
X244630080Y-76994500D01*
X243161843Y-76994500D01*
X243117312Y-77000093D01*
X243086288Y-77003989D01*
X243026866Y-77019156D01*
X242956013Y-77047032D01*
X242932937Y-77059631D01*
X242932917Y-77059643D01*
X242896246Y-77083210D01*
X242867996Y-77104358D01*
X242835065Y-77132893D01*
X242835040Y-77132916D01*
X242726865Y-77241091D01*
X242726853Y-77241105D01*
X242674742Y-77310719D01*
X242666970Y-77324952D01*
X242666966Y-77324959D01*
X242662964Y-77332290D01*
X242650156Y-77353250D01*
X242615862Y-77433037D01*
X242615081Y-77435934D01*
X242613078Y-77444161D01*
X242611498Y-77449545D01*
X242610188Y-77454201D01*
X242610187Y-77454205D01*
X242609582Y-77456356D01*
X242609235Y-77457645D01*
X242601402Y-77496887D01*
X242597136Y-77529141D01*
X242594500Y-77569187D01*
X242594500Y-79072523D01*
X242595323Y-79094928D01*
X242596659Y-79113081D01*
X242599129Y-79135409D01*
X242601780Y-79153307D01*
X242605884Y-79175386D01*
X242609859Y-79193118D01*
X242609863Y-79193133D01*
X242615572Y-79214832D01*
X242685536Y-79445909D01*
X242710585Y-79528641D01*
X242717873Y-79549863D01*
X242724413Y-79566851D01*
X242733241Y-79587487D01*
X242740945Y-79603808D01*
X242751271Y-79623754D01*
X242760238Y-79639619D01*
X242771989Y-79658732D01*
X243173674Y-80261256D01*
X243194482Y-80327955D01*
X243194500Y-80330039D01*
X243194500Y-80384575D01*
X243174815Y-80451614D01*
X243122011Y-80497369D01*
X243052853Y-80507313D01*
X242989297Y-80478288D01*
X242954318Y-80427909D01*
X242950460Y-80417566D01*
X242918797Y-80332671D01*
X242918793Y-80332664D01*
X242832547Y-80217455D01*
X242832544Y-80217452D01*
X242832542Y-80217450D01*
X242752443Y-80157488D01*
X242717335Y-80131206D01*
X242717331Y-80131204D01*
X242717327Y-80131201D01*
X242717325Y-80131200D01*
X242592654Y-80084702D01*
X242592651Y-80084701D01*
X242582486Y-80080910D01*
X242582485Y-80080909D01*
X242582483Y-80080909D01*
X242569021Y-80079461D01*
X242569014Y-80079460D01*
X242522883Y-80074501D01*
X242522881Y-80074500D01*
X242522873Y-80074500D01*
X242522865Y-80074500D01*
X241877123Y-80074500D01*
X241875192Y-80074659D01*
X241873545Y-80074885D01*
X241817516Y-80080908D01*
X241682677Y-80131200D01*
X241682666Y-80131204D01*
X241682665Y-80131205D01*
X241567456Y-80217450D01*
X241567453Y-80217453D01*
X241567451Y-80217456D01*
X241539924Y-80254228D01*
X241514967Y-80279184D01*
X241503854Y-80287503D01*
X241438389Y-80311920D01*
X241370119Y-80297068D01*
X241363286Y-80293337D01*
X241323460Y-80258824D01*
X241282864Y-80204594D01*
X241262548Y-80177456D01*
X241262546Y-80177454D01*
X241262544Y-80177452D01*
X241147334Y-80091205D01*
X241147333Y-80091204D01*
X241120155Y-80081067D01*
X241113817Y-80077835D01*
X241111520Y-80075664D01*
X241107150Y-80072812D01*
X241095837Y-80066634D01*
X241093143Y-80064617D01*
X241093619Y-80063980D01*
X241079288Y-80054627D01*
X241077155Y-80052651D01*
X241077153Y-80052649D01*
X241077146Y-80052643D01*
X241074667Y-80050577D01*
X241074775Y-80050447D01*
X241074772Y-80050444D01*
X241074830Y-80050380D01*
X241075316Y-80049797D01*
X241069677Y-80042936D01*
X241060719Y-80037425D01*
X241041058Y-80008114D01*
X241040698Y-80007365D01*
X241033971Y-79984756D01*
X241032603Y-79985123D01*
X241029143Y-79972211D01*
X241005295Y-79883205D01*
X241003207Y-79875412D01*
X240950480Y-79784087D01*
X240866220Y-79699827D01*
X240857757Y-79684524D01*
X240845708Y-79672729D01*
X240845071Y-79671577D01*
X240839649Y-79661647D01*
X240836109Y-79645377D01*
X240833022Y-79639794D01*
X240830504Y-79628785D01*
X240830940Y-79621616D01*
X240824796Y-79593377D01*
X240834189Y-79568187D01*
X240834746Y-79559044D01*
X240840563Y-79551097D01*
X240849210Y-79527912D01*
X240867636Y-79514117D01*
X240876019Y-79502667D01*
X240890255Y-79497183D01*
X240905140Y-79486040D01*
X240908077Y-79484944D01*
X240926935Y-79483055D01*
X240941220Y-79477554D01*
X240954499Y-79480294D01*
X240970781Y-79478664D01*
X241010437Y-79484945D01*
X241067606Y-79494000D01*
X241252394Y-79494000D01*
X241252395Y-79494000D01*
X241434908Y-79465092D01*
X241610661Y-79407986D01*
X241715464Y-79354587D01*
X241777884Y-79322783D01*
X241791468Y-79319521D01*
X241795715Y-79309268D01*
X241795716Y-79309268D01*
X241357583Y-78871136D01*
X241324100Y-78809816D01*
X241329084Y-78740125D01*
X241370955Y-78684191D01*
X241383259Y-78676075D01*
X241417886Y-78656084D01*
X241496084Y-78577886D01*
X241516072Y-78543264D01*
X241566634Y-78495053D01*
X241635241Y-78481828D01*
X241700107Y-78507795D01*
X241711138Y-78517586D01*
X242149267Y-78955716D01*
X242149267Y-78955715D01*
X242149268Y-78955716D01*
X242149268Y-78955715D01*
X242159521Y-78951468D01*
X242162783Y-78937882D01*
X242164092Y-78935312D01*
X242164094Y-78935310D01*
X242247986Y-78770661D01*
X242305092Y-78594908D01*
X242334000Y-78412395D01*
X242334000Y-78227607D01*
X242334000Y-78227602D01*
X242333938Y-78226982D01*
X242333611Y-78225153D01*
X242315073Y-78108114D01*
X242305093Y-78045095D01*
X242305092Y-78045094D01*
X242305092Y-78045091D01*
X242247986Y-77869338D01*
X242164092Y-77704686D01*
X242159808Y-77698790D01*
X242149269Y-77684283D01*
X242149268Y-77684283D01*
X241711138Y-78122412D01*
X241649815Y-78155897D01*
X241580123Y-78150913D01*
X241524190Y-78109041D01*
X241516070Y-78096731D01*
X241509345Y-78085083D01*
X241496084Y-78062114D01*
X241417886Y-77983916D01*
X241383266Y-77963928D01*
X241335050Y-77913361D01*
X241321828Y-77844754D01*
X241347796Y-77779889D01*
X241357577Y-77768868D01*
X241795716Y-77330730D01*
X241794145Y-77329589D01*
X241782002Y-77320767D01*
X241776033Y-77316430D01*
X241775377Y-77315946D01*
X241775302Y-77315899D01*
X241610671Y-77232017D01*
X241610665Y-77232014D01*
X241610664Y-77232014D01*
X241434908Y-77174907D01*
X241434906Y-77174906D01*
X241434904Y-77174906D01*
X241252400Y-77146000D01*
X241252395Y-77146000D01*
X241067605Y-77146000D01*
X241067600Y-77146000D01*
X240885090Y-77174906D01*
X240709337Y-77232013D01*
X240709330Y-77232016D01*
X240544692Y-77315902D01*
X240544606Y-77315956D01*
X240543936Y-77316451D01*
X240524283Y-77330727D01*
X240524283Y-77330729D01*
X240524283Y-77330730D01*
X240762742Y-77569189D01*
X240962414Y-77768860D01*
X240995899Y-77830183D01*
X240990915Y-77899874D01*
X240949044Y-77955808D01*
X240936734Y-77963927D01*
X240902120Y-77983911D01*
X240902111Y-77983918D01*
X240823918Y-78062111D01*
X240823911Y-78062120D01*
X240803927Y-78096734D01*
X240753360Y-78144949D01*
X240684752Y-78158171D01*
X240619888Y-78132203D01*
X240608860Y-78122414D01*
X240486661Y-78000215D01*
X240249422Y-77762975D01*
X240228275Y-77734724D01*
X240215668Y-77711635D01*
X240200501Y-77652210D01*
X240200501Y-77547276D01*
X240200501Y-77547274D01*
X240199546Y-77543711D01*
X240191753Y-77514628D01*
X240180695Y-77473356D01*
X240177431Y-77461175D01*
X240176356Y-77453015D01*
X240176318Y-77452922D01*
X240173699Y-77445209D01*
X240170097Y-77437903D01*
X240170057Y-77437806D01*
X240165042Y-77431271D01*
X240139107Y-77386351D01*
X240137144Y-77382950D01*
X240137143Y-77382949D01*
X240137142Y-77382948D01*
X240134230Y-77377903D01*
X240134229Y-77377902D01*
X240120480Y-77354087D01*
X240040547Y-77274154D01*
X240040517Y-77274125D01*
X239045915Y-76279522D01*
X239045914Y-76279521D01*
X239045913Y-76279520D01*
X239029551Y-76270073D01*
X239000250Y-76253155D01*
X239000250Y-76253156D01*
X238954589Y-76226793D01*
X238903657Y-76213146D01*
X238903656Y-76213145D01*
X238852730Y-76199500D01*
X238852727Y-76199500D01*
X234247273Y-76199500D01*
X234145413Y-76226792D01*
X234145408Y-76226795D01*
X234054088Y-76279518D01*
X234054082Y-76279523D01*
X233219526Y-77114078D01*
X233219521Y-77114084D01*
X233219511Y-77114100D01*
X233162724Y-77212456D01*
X233162523Y-77219930D01*
X233161645Y-77224623D01*
X233139500Y-77307273D01*
X233139500Y-77343090D01*
X233137389Y-77354383D01*
X233135764Y-77357577D01*
X233134477Y-77366533D01*
X233129478Y-77383559D01*
X233094614Y-77439732D01*
X233078844Y-77454291D01*
X233063626Y-77466280D01*
X233053037Y-77473356D01*
X233053033Y-77473359D01*
X232918791Y-77563057D01*
X232918786Y-77563060D01*
X232783060Y-77698786D01*
X232683255Y-77848153D01*
X232683209Y-77848223D01*
X232681061Y-77851439D01*
X232676403Y-77858410D01*
X232602951Y-78035742D01*
X232602944Y-78035772D01*
X232565500Y-78224014D01*
X232565500Y-78371613D01*
X232560237Y-78389533D01*
X232602944Y-78604226D01*
X232602951Y-78604256D01*
X232676404Y-78781590D01*
X232676406Y-78781594D01*
X232676407Y-78781595D01*
X232676409Y-78781599D01*
X232693322Y-78806910D01*
X232693323Y-78806912D01*
X232783057Y-78941208D01*
X232783058Y-78941209D01*
X232783063Y-78941215D01*
X232918783Y-79076935D01*
X232918789Y-79076940D01*
X232918793Y-79076943D01*
X233078401Y-79183591D01*
X233078404Y-79183592D01*
X233078405Y-79183593D01*
X233081246Y-79184770D01*
X233081520Y-79184921D01*
X233082453Y-79185270D01*
X233101401Y-79193118D01*
X233194649Y-79231742D01*
X233243991Y-79252180D01*
X233264499Y-79263025D01*
X233275311Y-79270113D01*
X233295098Y-79293368D01*
X233298383Y-79296015D01*
X233299046Y-79298008D01*
X233320588Y-79323326D01*
X233329908Y-79392571D01*
X233300311Y-79455863D01*
X233241743Y-79492949D01*
X233235923Y-79494630D01*
X233201514Y-79499500D01*
X232147273Y-79499500D01*
X232045413Y-79526792D01*
X232045408Y-79526795D01*
X231954088Y-79579518D01*
X231954082Y-79579523D01*
X231579898Y-79953707D01*
X231524844Y-79985657D01*
X231057127Y-80113216D01*
X230987270Y-80111864D01*
X230929234Y-80072960D01*
X230901444Y-80008854D01*
X230900500Y-79993585D01*
X230900500Y-79970945D01*
X230900500Y-79970943D01*
X230859577Y-79818216D01*
X230853435Y-79807577D01*
X230853435Y-79807576D01*
X230783242Y-79685997D01*
X230783234Y-79685985D01*
X230780524Y-79681290D01*
X230780521Y-79681286D01*
X230780520Y-79681284D01*
X230668716Y-79569480D01*
X230668714Y-79569479D01*
X230668709Y-79569475D01*
X230668707Y-79569474D01*
X230668015Y-79568975D01*
X230665513Y-79567629D01*
X230531797Y-79490430D01*
X230531783Y-79490422D01*
X230399206Y-79454899D01*
X230379057Y-79449500D01*
X230379056Y-79449500D01*
X230220943Y-79449500D01*
X230068218Y-79490422D01*
X230068211Y-79490424D01*
X230068210Y-79490425D01*
X230068200Y-79490430D01*
X229931298Y-79569470D01*
X229931294Y-79569472D01*
X229931290Y-79569475D01*
X229931282Y-79569481D01*
X229931278Y-79569484D01*
X229931276Y-79569485D01*
X229819485Y-79681276D01*
X229819482Y-79681280D01*
X229819470Y-79681298D01*
X229795939Y-79722058D01*
X229774122Y-79749801D01*
X229760504Y-79762786D01*
X229704175Y-79793546D01*
X229694048Y-79796003D01*
X229664812Y-79799500D01*
X229297269Y-79799500D01*
X229195410Y-79826792D01*
X229195408Y-79826792D01*
X229125039Y-79867422D01*
X229125032Y-79867426D01*
X229122232Y-79869043D01*
X229118208Y-79871366D01*
X229118184Y-79871377D01*
X229112391Y-79874723D01*
X229107243Y-79876855D01*
X229105065Y-79877946D01*
X229105058Y-79877949D01*
X229104989Y-79877789D01*
X229082481Y-79887113D01*
X229052025Y-79895274D01*
X229019930Y-79899500D01*
X228608856Y-79899500D01*
X228598245Y-79900774D01*
X228570839Y-79904064D01*
X228570840Y-79904065D01*
X228524412Y-79909639D01*
X228390021Y-79962636D01*
X228274920Y-80049920D01*
X228187636Y-80165021D01*
X228134639Y-80299413D01*
X228131213Y-80327955D01*
X228130427Y-80334500D01*
X228124500Y-80383856D01*
X228124500Y-80383861D01*
X228124500Y-80570500D01*
X228104815Y-80637539D01*
X228052011Y-80683294D01*
X228000500Y-80694500D01*
X224371191Y-80694500D01*
X224334832Y-80696672D01*
X224305514Y-80700187D01*
X224269689Y-80706668D01*
X224269667Y-80706673D01*
X224241599Y-80713501D01*
X224206778Y-80724209D01*
X224206755Y-80724217D01*
X224179137Y-80734549D01*
X224179135Y-80734549D01*
X224145813Y-80749337D01*
X223721131Y-80969001D01*
X223721123Y-80969006D01*
X223687020Y-80989570D01*
X223687011Y-80989576D01*
X223660503Y-81008019D01*
X223631999Y-81030748D01*
X223629356Y-81032857D01*
X223629349Y-81032863D01*
X223629347Y-81032865D01*
X223619755Y-81041595D01*
X223566398Y-81105502D01*
X223566386Y-81105519D01*
X223530889Y-81162266D01*
X223530884Y-81162276D01*
X223496766Y-81238206D01*
X223496765Y-81238210D01*
X223491898Y-81254784D01*
X223487654Y-81274289D01*
X223482629Y-81297389D01*
X223477608Y-81332316D01*
X223474499Y-81375790D01*
X223474499Y-82445174D01*
X223476244Y-82477768D01*
X223476246Y-82477786D01*
X223476247Y-82477799D01*
X223476248Y-82477810D01*
X223477894Y-82493124D01*
X223478674Y-82500384D01*
X223466263Y-82569142D01*
X223418648Y-82620276D01*
X223350947Y-82637550D01*
X223284655Y-82615480D01*
X223267702Y-82601310D01*
X222846916Y-82180524D01*
X222149426Y-81483033D01*
X222149425Y-81483032D01*
X222149421Y-81483028D01*
X222128274Y-81454777D01*
X222115667Y-81431688D01*
X222100500Y-81372263D01*
X222100500Y-80724775D01*
X222100495Y-80724755D01*
X222100430Y-80724515D01*
X222100370Y-80724291D01*
X222100021Y-80722989D01*
X222099760Y-80722012D01*
X222073207Y-80622913D01*
X222020480Y-80531588D01*
X221268412Y-79779520D01*
X221268410Y-79779518D01*
X221268404Y-79779514D01*
X221265923Y-79778081D01*
X221265923Y-79778082D01*
X221212937Y-79747490D01*
X221185199Y-79725676D01*
X221172210Y-79712054D01*
X221141451Y-79655717D01*
X221138995Y-79645596D01*
X221135502Y-79616370D01*
X221135502Y-78487636D01*
X221133473Y-78470135D01*
X221133473Y-78470134D01*
X221133413Y-78469618D01*
X221132589Y-78462512D01*
X221132588Y-78462509D01*
X221087209Y-78359735D01*
X221007768Y-78280294D01*
X220987097Y-78271167D01*
X220987097Y-78271166D01*
X220987095Y-78271166D01*
X220904996Y-78234915D01*
X220904997Y-78234915D01*
X220879871Y-78232000D01*
X220879868Y-78232000D01*
X218790146Y-78232000D01*
X218790130Y-78232001D01*
X218790116Y-78232002D01*
X218777810Y-78233429D01*
X218765015Y-78234913D01*
X218765011Y-78234915D01*
X218662239Y-78280293D01*
X218591153Y-78351378D01*
X218585894Y-78354856D01*
X218560517Y-78375565D01*
X218496132Y-78402699D01*
X218496129Y-78402699D01*
X218489058Y-78403503D01*
X218424965Y-78393732D01*
X218404996Y-78384915D01*
X218379871Y-78382000D01*
X218379868Y-78382000D01*
X217490146Y-78382000D01*
X217490130Y-78382001D01*
X217490116Y-78382002D01*
X217472258Y-78384073D01*
X217465015Y-78384913D01*
X217465014Y-78384913D01*
X217465008Y-78384914D01*
X217464562Y-78385047D01*
X217462306Y-78386109D01*
X217362239Y-78430292D01*
X217282796Y-78509734D01*
X217237417Y-78612505D01*
X217237044Y-78614274D01*
X217236986Y-78615677D01*
X217236819Y-78617665D01*
X217234503Y-78637631D01*
X217234503Y-78645346D01*
X217234071Y-78650508D01*
X217232890Y-78653558D01*
X217232548Y-78658349D01*
X217231037Y-78664267D01*
X217229479Y-78675105D01*
X217228196Y-78679474D01*
X217227228Y-78679189D01*
X217223114Y-78695308D01*
X217223800Y-78695564D01*
X217222737Y-78698412D01*
X217222100Y-78699281D01*
X217221662Y-78701001D01*
X217220425Y-78703710D01*
X217219253Y-78703175D01*
X217212669Y-78712177D01*
X217207480Y-78727109D01*
X217184903Y-78750207D01*
X217185276Y-78750638D01*
X217184220Y-78751552D01*
X217183698Y-78751789D01*
X217183091Y-78752621D01*
X217179595Y-78755363D01*
X217179353Y-78755459D01*
X217178473Y-78756119D01*
X217178295Y-78755881D01*
X217150145Y-78767109D01*
X217120761Y-78780525D01*
X217119325Y-78780732D01*
X217115259Y-78781023D01*
X217114697Y-78781248D01*
X217114004Y-78781113D01*
X217101633Y-78782001D01*
X217087760Y-78782001D01*
X217052819Y-78776976D01*
X217037820Y-78772571D01*
X217022825Y-78762935D01*
X217005730Y-78757917D01*
X216979054Y-78734806D01*
X216975209Y-78730369D01*
X216970669Y-78725130D01*
X216949022Y-78689409D01*
X216947552Y-78685682D01*
X216943762Y-78676070D01*
X216943530Y-78675481D01*
X216942531Y-78672746D01*
X216855078Y-78557421D01*
X216739977Y-78470137D01*
X216605586Y-78417140D01*
X216562242Y-78411936D01*
X216562242Y-78411935D01*
X216534476Y-78408601D01*
X216521144Y-78407001D01*
X216521140Y-78407001D01*
X215988860Y-78407001D01*
X215988856Y-78407001D01*
X215978245Y-78408275D01*
X215950839Y-78411565D01*
X215950840Y-78411566D01*
X215904411Y-78417141D01*
X215904410Y-78417141D01*
X215835506Y-78444313D01*
X215765919Y-78450594D01*
X215703983Y-78418256D01*
X215686933Y-78397875D01*
X215653869Y-78348420D01*
X215653862Y-78348410D01*
X215653861Y-78348408D01*
X215652674Y-78347039D01*
X215652672Y-78347037D01*
X215652652Y-78347016D01*
X215621874Y-78316257D01*
X215621862Y-78316246D01*
X215621849Y-78316233D01*
X215595169Y-78293128D01*
X215581250Y-78281773D01*
X215581247Y-78281771D01*
X215551940Y-78266880D01*
X215541092Y-78260660D01*
X215528232Y-78252399D01*
X215528233Y-78252399D01*
X215449170Y-78216300D01*
X215434200Y-78211904D01*
X215434163Y-78211894D01*
X215391592Y-78202634D01*
X215356647Y-78197610D01*
X215356649Y-78197610D01*
X215313170Y-78194500D01*
X214140105Y-78194500D01*
X214107230Y-78196273D01*
X214080690Y-78199146D01*
X214048223Y-78204443D01*
X214048217Y-78204444D01*
X214040484Y-78206138D01*
X213968477Y-78231688D01*
X213913523Y-78259352D01*
X213850160Y-78301928D01*
X213850146Y-78301938D01*
X213848871Y-78303050D01*
X213848869Y-78303052D01*
X213792087Y-78368978D01*
X213778967Y-78389533D01*
X213764285Y-78412534D01*
X213754509Y-78427847D01*
X213754502Y-78427860D01*
X213718618Y-78507070D01*
X213714258Y-78522087D01*
X213705122Y-78564710D01*
X213705119Y-78564729D01*
X213700211Y-78599626D01*
X213700206Y-78599669D01*
X213697231Y-78643129D01*
X213697231Y-78643132D01*
X213722418Y-86860256D01*
X213722419Y-86860269D01*
X213724268Y-86892911D01*
X213727176Y-86919222D01*
X213727182Y-86919271D01*
X213732504Y-86951497D01*
X213732505Y-86951502D01*
X213734172Y-86959059D01*
X213759719Y-87030795D01*
X213759724Y-87030806D01*
X213766334Y-87043913D01*
X213787335Y-87085556D01*
X213829867Y-87148787D01*
X213831067Y-87150163D01*
X213896933Y-87206876D01*
X213938505Y-87233413D01*
X213955826Y-87244470D01*
X213964356Y-87248334D01*
X214017301Y-87293926D01*
X214037191Y-87360904D01*
X214017713Y-87428004D01*
X213965051Y-87473921D01*
X213913192Y-87485286D01*
X208191193Y-87485286D01*
X208156258Y-87480263D01*
X208145404Y-87477076D01*
X208086626Y-87439302D01*
X208057601Y-87375746D01*
X208067544Y-87306589D01*
X208070734Y-87299606D01*
X208095843Y-87263444D01*
X208117721Y-87241566D01*
X208117724Y-87241562D01*
X208269385Y-87043913D01*
X208393950Y-86828159D01*
X208489288Y-86597993D01*
X208553768Y-86357351D01*
X208586286Y-86110351D01*
X208586286Y-85861221D01*
X208553768Y-85614221D01*
X208489288Y-85373579D01*
X208393954Y-85143423D01*
X208393948Y-85143409D01*
X208269385Y-84927659D01*
X208196508Y-84832683D01*
X208117731Y-84730018D01*
X208117727Y-84730014D01*
X208117725Y-84730011D01*
X208117719Y-84730004D01*
X207941567Y-84553852D01*
X207941560Y-84553846D01*
X207941557Y-84553843D01*
X207941552Y-84553839D01*
X207743911Y-84402185D01*
X207601809Y-84320143D01*
X207528162Y-84277623D01*
X207528147Y-84277616D01*
X207528134Y-84277610D01*
X207298000Y-84182286D01*
X207270976Y-84175045D01*
X207201516Y-84156433D01*
X207065202Y-84119907D01*
X207057454Y-84117277D01*
X207049288Y-84116742D01*
X206814451Y-84085825D01*
X206812435Y-84085491D01*
X206810361Y-84085286D01*
X206810356Y-84085286D01*
X206810351Y-84085286D01*
X206561221Y-84085286D01*
X206561215Y-84085286D01*
X206561210Y-84085286D01*
X206559133Y-84085491D01*
X206557119Y-84085825D01*
X206314225Y-84117802D01*
X206073572Y-84182285D01*
X205843436Y-84277610D01*
X205843423Y-84277616D01*
X205843416Y-84277619D01*
X205843409Y-84277623D01*
X205843396Y-84277629D01*
X205843395Y-84277631D01*
X205627659Y-84402185D01*
X205430016Y-84553841D01*
X205430007Y-84553849D01*
X205429993Y-84553862D01*
X205410573Y-84573281D01*
X205410572Y-84573284D01*
X205382318Y-84594435D01*
X205372394Y-84599854D01*
X205304121Y-84614706D01*
X205238656Y-84590290D01*
X205196785Y-84534356D01*
X205196783Y-84534352D01*
X205194099Y-84527154D01*
X205186286Y-84483834D01*
X205186286Y-62520733D01*
X205449500Y-62520733D01*
X205449500Y-63804265D01*
X205451812Y-63828929D01*
X205451978Y-63832499D01*
X205452353Y-63834699D01*
X205452353Y-63834701D01*
X205497206Y-63962880D01*
X205497207Y-63962882D01*
X205577850Y-64072150D01*
X205687118Y-64152793D01*
X205728481Y-64167267D01*
X205728488Y-64167269D01*
X205815299Y-64197646D01*
X205815304Y-64197646D01*
X205815307Y-64197647D01*
X205826892Y-64198733D01*
X205845730Y-64200500D01*
X205845734Y-64200500D01*
X205845739Y-64200500D01*
X206254270Y-64200500D01*
X206254271Y-64200500D01*
X206255790Y-64200357D01*
X206284699Y-64197646D01*
X206284701Y-64197646D01*
X206371500Y-64167273D01*
X206412882Y-64152793D01*
X206522150Y-64072150D01*
X206602793Y-63962882D01*
X206607704Y-63948849D01*
X206633185Y-63876027D01*
X206633185Y-63876025D01*
X206634566Y-63872080D01*
X206647646Y-63834701D01*
X206647646Y-63834699D01*
X206650500Y-63804269D01*
X206650500Y-62520730D01*
X206647646Y-62490300D01*
X206647646Y-62490298D01*
X206602793Y-62362119D01*
X206602793Y-62362118D01*
X206592446Y-62348099D01*
X206575741Y-62317002D01*
X206570379Y-62302319D01*
X206569227Y-62284534D01*
X206563115Y-62267805D01*
X206565866Y-62232622D01*
X206567284Y-62226311D01*
X206600586Y-62165805D01*
X206816969Y-61949421D01*
X206845225Y-61928271D01*
X206868314Y-61915665D01*
X206927735Y-61900500D01*
X207615970Y-61900500D01*
X207632392Y-61905322D01*
X207649505Y-61905121D01*
X207650902Y-61905522D01*
X207658167Y-61907655D01*
X207673168Y-61917295D01*
X207683009Y-61920185D01*
X207689907Y-61928052D01*
X207716946Y-61945428D01*
X207745972Y-62008983D01*
X207741019Y-62043433D01*
X207741429Y-62046059D01*
X207740264Y-62048690D01*
X207736031Y-62078142D01*
X207717538Y-62100042D01*
X207713153Y-62109951D01*
X207704169Y-62115874D01*
X207692914Y-62129204D01*
X207688171Y-62132426D01*
X207659448Y-62146896D01*
X207587117Y-62172206D01*
X207477849Y-62252849D01*
X207397206Y-62362118D01*
X207352353Y-62490297D01*
X207351978Y-62492499D01*
X207351812Y-62496069D01*
X207350572Y-62509302D01*
X207349500Y-62520733D01*
X207349500Y-63804265D01*
X207351812Y-63828929D01*
X207351978Y-63832499D01*
X207352353Y-63834699D01*
X207352353Y-63834701D01*
X207397206Y-63962880D01*
X207397207Y-63962882D01*
X207477850Y-64072150D01*
X207587118Y-64152793D01*
X207587119Y-64152793D01*
X207587120Y-64152794D01*
X207595333Y-64157135D01*
X207594116Y-64159435D01*
X207639475Y-64191965D01*
X207665225Y-64256916D01*
X207665735Y-64266460D01*
X207784438Y-72315200D01*
X207765744Y-72382523D01*
X207713620Y-72429051D01*
X207644616Y-72440014D01*
X207630389Y-72437330D01*
X207627106Y-72436509D01*
X207627105Y-72436509D01*
X207627097Y-72436507D01*
X207627089Y-72436505D01*
X207627079Y-72436503D01*
X207443572Y-72400001D01*
X207443570Y-72400001D01*
X207350000Y-72400001D01*
X207350000Y-72944805D01*
X207330315Y-73011844D01*
X207277511Y-73057599D01*
X207208353Y-73067543D01*
X207193908Y-73064580D01*
X207139497Y-73050001D01*
X207139496Y-73050001D01*
X207060504Y-73050001D01*
X207060502Y-73050001D01*
X207006092Y-73064580D01*
X206936242Y-73062917D01*
X206878380Y-73023753D01*
X206850877Y-72959525D01*
X206850000Y-72944805D01*
X206850000Y-72400001D01*
X206756430Y-72400001D01*
X206756428Y-72400001D01*
X206572919Y-72436503D01*
X206572892Y-72436509D01*
X206400013Y-72508116D01*
X206400003Y-72508121D01*
X206244407Y-72612088D01*
X206244406Y-72612089D01*
X206244400Y-72612094D01*
X206112093Y-72744401D01*
X206112088Y-72744407D01*
X206112087Y-72744408D01*
X206008120Y-72900004D01*
X206008115Y-72900014D01*
X205936510Y-73072887D01*
X205936507Y-73072896D01*
X205936505Y-73072904D01*
X205931115Y-73100000D01*
X205931114Y-73100000D01*
X205931116Y-73100001D01*
X206694805Y-73100001D01*
X206761844Y-73119686D01*
X206807599Y-73172490D01*
X206817543Y-73241648D01*
X206814584Y-73256074D01*
X206800000Y-73310505D01*
X206800000Y-73389497D01*
X206814579Y-73443911D01*
X206812917Y-73513757D01*
X206773755Y-73571620D01*
X206709527Y-73599124D01*
X206694805Y-73600001D01*
X205931116Y-73600001D01*
X205936506Y-73627103D01*
X205936507Y-73627104D01*
X205936510Y-73627113D01*
X206008115Y-73799986D01*
X206008120Y-73799996D01*
X206112087Y-73955592D01*
X206112088Y-73955593D01*
X206112091Y-73955597D01*
X206123310Y-73966815D01*
X206123312Y-73966818D01*
X206123314Y-73966819D01*
X206123319Y-73966824D01*
X206144466Y-73995076D01*
X206151957Y-74008796D01*
X206166807Y-74077065D01*
X206165771Y-74091551D01*
X206157442Y-74128195D01*
X206109639Y-74249412D01*
X206104065Y-74295840D01*
X206099500Y-74333859D01*
X206099500Y-74866140D01*
X206104824Y-74910491D01*
X206109639Y-74950585D01*
X206109639Y-74950586D01*
X206162635Y-75084975D01*
X206162636Y-75084976D01*
X206246089Y-75195025D01*
X206270912Y-75260336D01*
X206256484Y-75328700D01*
X206228490Y-75363661D01*
X206219627Y-75371341D01*
X206219612Y-75371354D01*
X206177451Y-75416070D01*
X206177445Y-75416079D01*
X206126560Y-75516153D01*
X206106877Y-75583184D01*
X206094500Y-75669265D01*
X206094500Y-76065560D01*
X206094501Y-76065589D01*
X206097869Y-76110808D01*
X206097871Y-76110831D01*
X206103312Y-76147149D01*
X206106866Y-76166576D01*
X206150394Y-76270064D01*
X206150399Y-76270073D01*
X206188851Y-76328389D01*
X206188862Y-76328404D01*
X206246565Y-76393437D01*
X206246568Y-76393440D01*
X207795262Y-77703874D01*
X207805068Y-77711635D01*
X207810985Y-77716318D01*
X207824023Y-77725958D01*
X207824025Y-77725959D01*
X207824026Y-77725959D01*
X207824027Y-77725960D01*
X207919583Y-77773439D01*
X207919587Y-77773440D01*
X207919589Y-77773441D01*
X207938445Y-77778977D01*
X207959024Y-77785020D01*
X208017802Y-77822793D01*
X208046828Y-77886349D01*
X208047923Y-77897564D01*
X208084573Y-78603073D01*
X208068393Y-78671043D01*
X208029191Y-78712901D01*
X207884143Y-78808927D01*
X207882611Y-78809948D01*
X207881330Y-78810809D01*
X207815385Y-78870733D01*
X207815380Y-78870738D01*
X207771084Y-78924757D01*
X207771080Y-78924763D01*
X207726072Y-78999165D01*
X206522892Y-81835236D01*
X206522890Y-81835240D01*
X206522890Y-81835242D01*
X206504349Y-81895708D01*
X206497439Y-81930910D01*
X206494511Y-81945826D01*
X206491806Y-81966186D01*
X206489548Y-81983175D01*
X206502363Y-82094712D01*
X206502364Y-82094715D01*
X206502364Y-82094718D01*
X206520955Y-82154989D01*
X206522957Y-82161478D01*
X206548874Y-82216247D01*
X206560148Y-82240072D01*
X206560152Y-82240079D01*
X206583839Y-82275859D01*
X206608488Y-82313091D01*
X206648676Y-82361935D01*
X206648679Y-82361938D01*
X206648680Y-82361939D01*
X206648681Y-82361941D01*
X206685030Y-82397799D01*
X206685038Y-82397806D01*
X206702997Y-82413458D01*
X206710118Y-82419665D01*
X206713430Y-82422551D01*
X206713432Y-82422553D01*
X206813508Y-82473439D01*
X206880547Y-82493124D01*
X206966619Y-82505500D01*
X206966622Y-82505500D01*
X210135461Y-82505500D01*
X210135468Y-82505500D01*
X210172996Y-82501842D01*
X210194445Y-82499752D01*
X210241427Y-82490507D01*
X210274063Y-82482193D01*
X210373156Y-82429416D01*
X210427739Y-82385799D01*
X210487253Y-82322400D01*
X210544853Y-82240163D01*
X210567247Y-82202770D01*
X210583175Y-82171274D01*
X210590818Y-82154987D01*
X210592925Y-82145757D01*
X210593357Y-82144783D01*
X210605278Y-82113264D01*
X210610954Y-82066807D01*
X210612864Y-82058446D01*
X210615813Y-82045536D01*
X210615813Y-82045532D01*
X210616700Y-82023219D01*
X210616700Y-82023200D01*
X210616901Y-82018141D01*
X210618896Y-82001822D01*
X210618072Y-81988802D01*
X210618592Y-81975755D01*
X210614845Y-81914383D01*
X210608172Y-81895906D01*
X210603422Y-81879154D01*
X210596702Y-81846985D01*
X210590394Y-81829639D01*
X210187621Y-80722012D01*
X210119125Y-80533650D01*
X210114715Y-80463921D01*
X210148703Y-80402875D01*
X210210300Y-80369896D01*
X210276614Y-80374233D01*
X210400448Y-80417566D01*
X210400455Y-80417566D01*
X210400457Y-80417567D01*
X210431719Y-80420499D01*
X210431723Y-80420499D01*
X210431727Y-80420499D01*
X210868266Y-80420499D01*
X210868275Y-80420499D01*
X210899548Y-80417566D01*
X210899550Y-80417566D01*
X210992856Y-80384916D01*
X211031288Y-80371468D01*
X211143588Y-80288588D01*
X211226468Y-80176288D01*
X211247623Y-80115832D01*
X211272566Y-80044550D01*
X211272566Y-80044548D01*
X211275499Y-80013275D01*
X211275499Y-79006722D01*
X211272566Y-78975449D01*
X211272566Y-78975447D01*
X211226469Y-78843713D01*
X211226468Y-78843710D01*
X211199310Y-78806912D01*
X211180628Y-78781599D01*
X211157779Y-78750638D01*
X211143588Y-78731410D01*
X211143587Y-78731409D01*
X211143584Y-78731407D01*
X211117528Y-78712177D01*
X211115209Y-78710465D01*
X211090086Y-78685682D01*
X211076468Y-78667747D01*
X211053269Y-78615176D01*
X211053103Y-78614274D01*
X211052541Y-78611215D01*
X211051785Y-78602924D01*
X211051605Y-78602451D01*
X211051700Y-78601995D01*
X211050498Y-78588800D01*
X211050498Y-78085083D01*
X211055521Y-78050149D01*
X211062932Y-78024909D01*
X211094226Y-77972163D01*
X211207986Y-77858405D01*
X211645479Y-77420913D01*
X211698206Y-77329588D01*
X211725499Y-77227727D01*
X211725499Y-77122273D01*
X211725499Y-77097611D01*
X211725499Y-77092501D01*
X211725498Y-77092475D01*
X211725498Y-75530010D01*
X211730521Y-75495075D01*
X211736928Y-75473255D01*
X211765149Y-75423695D01*
X211767631Y-75421030D01*
X211774396Y-75414953D01*
X211774703Y-75414477D01*
X211775158Y-75414268D01*
X211784065Y-75406269D01*
X211839872Y-75364491D01*
X211839872Y-75364489D01*
X211882545Y-75332546D01*
X211968795Y-75217331D01*
X212019090Y-75082483D01*
X212025499Y-75022873D01*
X212025498Y-74377128D01*
X212019090Y-74317517D01*
X212011005Y-74295841D01*
X212002325Y-74272567D01*
X211968795Y-74182669D01*
X211968794Y-74182668D01*
X211968792Y-74182664D01*
X211968781Y-74182649D01*
X211966391Y-74178929D01*
X211966390Y-74178928D01*
X211963488Y-74175579D01*
X211882546Y-74067455D01*
X211882542Y-74067452D01*
X211882539Y-74067449D01*
X211789461Y-73997770D01*
X211789460Y-73997769D01*
X211789459Y-73997769D01*
X211764503Y-73972811D01*
X211750875Y-73954605D01*
X211728111Y-73902297D01*
X211727466Y-73898719D01*
X211726656Y-73889667D01*
X211726460Y-73889140D01*
X211726565Y-73888652D01*
X211725499Y-73876720D01*
X211725499Y-68747273D01*
X212199500Y-68747273D01*
X212199500Y-68754199D01*
X212199500Y-73152727D01*
X212226792Y-73254589D01*
X212227856Y-73256430D01*
X212227857Y-73256431D01*
X212279520Y-73345913D01*
X212279521Y-73345914D01*
X212279522Y-73345915D01*
X213076935Y-74143328D01*
X213874125Y-74940517D01*
X213874146Y-74940539D01*
X213875189Y-74941582D01*
X213879519Y-74945912D01*
X213879520Y-74945913D01*
X213954087Y-75020480D01*
X214045413Y-75073207D01*
X214147273Y-75100501D01*
X214147275Y-75100501D01*
X214260323Y-75100501D01*
X214262227Y-75100501D01*
X214262290Y-75100500D01*
X220364915Y-75100500D01*
X220399847Y-75105521D01*
X220425091Y-75112934D01*
X220477837Y-75144230D01*
X225354087Y-80020480D01*
X225445412Y-80073207D01*
X225547273Y-80100500D01*
X225547275Y-80100500D01*
X227132725Y-80100500D01*
X227132727Y-80100500D01*
X227234588Y-80073207D01*
X227325913Y-80020480D01*
X228044302Y-79302088D01*
X228072549Y-79280946D01*
X228074621Y-79279815D01*
X228082258Y-79275645D01*
X228088095Y-79272458D01*
X228152520Y-79257393D01*
X228169335Y-79258072D01*
X228169335Y-79258071D01*
X228174143Y-79258266D01*
X228193331Y-79260547D01*
X228193770Y-79260635D01*
X228364014Y-79294500D01*
X228555982Y-79294500D01*
X228555983Y-79294500D01*
X228576231Y-79290472D01*
X228650758Y-79275647D01*
X228744251Y-79257050D01*
X228921599Y-79183591D01*
X229081207Y-79076943D01*
X229216943Y-78941207D01*
X229323591Y-78781599D01*
X229397050Y-78604251D01*
X229397050Y-78604246D01*
X229397052Y-78604243D01*
X229413393Y-78522091D01*
X229421345Y-78482114D01*
X229434500Y-78415982D01*
X229434500Y-78389533D01*
X230020237Y-78389533D01*
X230062944Y-78604226D01*
X230062951Y-78604256D01*
X230136404Y-78781590D01*
X230136406Y-78781594D01*
X230136407Y-78781595D01*
X230136409Y-78781599D01*
X230153322Y-78806910D01*
X230153323Y-78806912D01*
X230243057Y-78941208D01*
X230243058Y-78941209D01*
X230243063Y-78941215D01*
X230378783Y-79076935D01*
X230378789Y-79076940D01*
X230378793Y-79076943D01*
X230538401Y-79183591D01*
X230538404Y-79183592D01*
X230538405Y-79183593D01*
X230541246Y-79184770D01*
X230541520Y-79184921D01*
X230542453Y-79185270D01*
X230561437Y-79193133D01*
X230654649Y-79231742D01*
X230715749Y-79257050D01*
X230733785Y-79260637D01*
X230733786Y-79260638D01*
X230733787Y-79260638D01*
X230904015Y-79294500D01*
X231095982Y-79294500D01*
X231095983Y-79294500D01*
X231116231Y-79290472D01*
X231190758Y-79275647D01*
X231284251Y-79257050D01*
X231461599Y-79183591D01*
X231621207Y-79076943D01*
X231756943Y-78941207D01*
X231863591Y-78781599D01*
X231937050Y-78604251D01*
X231937050Y-78604246D01*
X231937052Y-78604243D01*
X231961345Y-78482115D01*
X231961345Y-78482113D01*
X231974500Y-78415983D01*
X231974500Y-78224014D01*
X231951629Y-78109041D01*
X231937051Y-78035755D01*
X231937050Y-78035749D01*
X231890720Y-77923896D01*
X231865265Y-77862441D01*
X231863968Y-77858966D01*
X231863591Y-77858402D01*
X231863591Y-77858401D01*
X231756943Y-77698793D01*
X231756940Y-77698789D01*
X231756935Y-77698783D01*
X231621212Y-77563060D01*
X231621207Y-77563057D01*
X231597589Y-77547276D01*
X231568485Y-77527829D01*
X231461599Y-77456409D01*
X231461596Y-77456407D01*
X231461200Y-77456143D01*
X231461195Y-77456140D01*
X231460555Y-77455713D01*
X231455939Y-77454063D01*
X231284256Y-77382951D01*
X231284252Y-77382950D01*
X231284244Y-77382948D01*
X231284238Y-77382946D01*
X231284226Y-77382944D01*
X231095984Y-77345500D01*
X231095982Y-77345500D01*
X231095980Y-77345500D01*
X230904020Y-77345500D01*
X230904018Y-77345500D01*
X230904016Y-77345500D01*
X230715772Y-77382944D01*
X230715742Y-77382951D01*
X230538406Y-77456404D01*
X230528490Y-77463031D01*
X230528488Y-77463032D01*
X230402410Y-77547276D01*
X230378786Y-77563061D01*
X230378783Y-77563063D01*
X230243060Y-77698786D01*
X230143255Y-77848153D01*
X230143209Y-77848223D01*
X230141061Y-77851439D01*
X230136403Y-77858410D01*
X230062951Y-78035742D01*
X230062944Y-78035772D01*
X230025500Y-78224014D01*
X230025500Y-78371613D01*
X230020237Y-78389533D01*
X229434500Y-78389533D01*
X229434500Y-78224017D01*
X229434500Y-78224014D01*
X229411629Y-78109041D01*
X229397051Y-78035755D01*
X229397050Y-78035749D01*
X229350720Y-77923896D01*
X229325265Y-77862441D01*
X229323968Y-77858966D01*
X229323591Y-77858402D01*
X229323591Y-77858401D01*
X229216943Y-77698793D01*
X229216940Y-77698789D01*
X229216935Y-77698783D01*
X229081212Y-77563060D01*
X229081207Y-77563057D01*
X229057589Y-77547276D01*
X229028485Y-77527829D01*
X228921599Y-77456409D01*
X228921596Y-77456407D01*
X228921200Y-77456143D01*
X228921195Y-77456140D01*
X228920555Y-77455713D01*
X228915939Y-77454063D01*
X228744256Y-77382951D01*
X228744252Y-77382950D01*
X228744244Y-77382948D01*
X228744238Y-77382946D01*
X228744226Y-77382944D01*
X228555984Y-77345500D01*
X228555982Y-77345500D01*
X228555980Y-77345500D01*
X228364020Y-77345500D01*
X228364018Y-77345500D01*
X228364016Y-77345500D01*
X228175772Y-77382944D01*
X228175742Y-77382951D01*
X227998406Y-77456404D01*
X227988490Y-77463031D01*
X227988488Y-77463032D01*
X227862410Y-77547276D01*
X227838786Y-77563061D01*
X227838783Y-77563063D01*
X227703060Y-77698786D01*
X227603255Y-77848153D01*
X227603209Y-77848223D01*
X227601061Y-77851439D01*
X227596403Y-77858410D01*
X227522951Y-78035742D01*
X227522944Y-78035772D01*
X227485500Y-78224014D01*
X227485500Y-78224017D01*
X227485500Y-78224020D01*
X227485500Y-78415980D01*
X227485500Y-78415982D01*
X227485499Y-78415982D01*
X227519741Y-78588121D01*
X227520168Y-78590937D01*
X227519937Y-78592629D01*
X227521564Y-78608413D01*
X227521802Y-78634972D01*
X227504732Y-78698877D01*
X227498538Y-78709424D01*
X227479294Y-78734311D01*
X226963034Y-79250572D01*
X226937224Y-79270352D01*
X226935965Y-79271076D01*
X226923498Y-79277884D01*
X226917958Y-79281444D01*
X226915324Y-79282961D01*
X226884198Y-79290472D01*
X226853456Y-79299500D01*
X226634408Y-79299500D01*
X226599473Y-79294477D01*
X226588619Y-79291290D01*
X226529841Y-79253516D01*
X226500816Y-79189960D01*
X226510757Y-79120808D01*
X226512740Y-79116466D01*
X226537853Y-79080295D01*
X226541203Y-79076944D01*
X226541207Y-79076943D01*
X226676943Y-78941207D01*
X226783591Y-78781599D01*
X226857050Y-78604251D01*
X226857050Y-78604246D01*
X226857052Y-78604243D01*
X226881345Y-78482115D01*
X226881345Y-78482113D01*
X226894500Y-78415983D01*
X226894500Y-78224014D01*
X226871629Y-78109041D01*
X226857051Y-78035755D01*
X226857050Y-78035749D01*
X226810720Y-77923896D01*
X226785265Y-77862441D01*
X226783968Y-77858966D01*
X226783591Y-77858402D01*
X226783591Y-77858401D01*
X226676943Y-77698793D01*
X226676940Y-77698789D01*
X226676935Y-77698783D01*
X226541212Y-77563060D01*
X226541207Y-77563057D01*
X226517589Y-77547276D01*
X226488485Y-77527829D01*
X226381599Y-77456409D01*
X226381596Y-77456407D01*
X226381200Y-77456143D01*
X226381195Y-77456140D01*
X226380555Y-77455713D01*
X226375939Y-77454063D01*
X226204256Y-77382951D01*
X226204252Y-77382950D01*
X226204244Y-77382948D01*
X226204238Y-77382946D01*
X226204226Y-77382944D01*
X226015984Y-77345500D01*
X226015982Y-77345500D01*
X226015980Y-77345500D01*
X225824020Y-77345500D01*
X225824018Y-77345500D01*
X225824016Y-77345500D01*
X225654633Y-77379193D01*
X225631520Y-77381571D01*
X225604986Y-77381802D01*
X225541094Y-77364720D01*
X225530558Y-77358530D01*
X225505692Y-77339299D01*
X222091181Y-73924788D01*
X222070032Y-73896538D01*
X222066280Y-73889667D01*
X222064610Y-73886608D01*
X222060818Y-73869179D01*
X222052270Y-73853518D01*
X222053544Y-73835744D01*
X222049757Y-73818338D01*
X222055990Y-73801624D01*
X222057266Y-73783827D01*
X222067945Y-73769565D01*
X222074171Y-73752873D01*
X222088453Y-73742180D01*
X222099147Y-73727901D01*
X222130082Y-73711015D01*
X222130100Y-73711001D01*
X222133980Y-73709554D01*
X222137316Y-73708311D01*
X222180630Y-73700500D01*
X228952725Y-73700500D01*
X228952727Y-73700500D01*
X229054588Y-73673207D01*
X229145913Y-73620480D01*
X237620480Y-65145913D01*
X237673207Y-65054588D01*
X237700500Y-64952727D01*
X237700500Y-64847273D01*
X237700500Y-63855842D01*
X237705521Y-63820915D01*
X237708707Y-63810062D01*
X237746477Y-63751281D01*
X237810031Y-63722252D01*
X237879186Y-63732190D01*
X237886172Y-63735380D01*
X237922339Y-63760490D01*
X237998789Y-63836940D01*
X237998793Y-63836943D01*
X238158401Y-63943591D01*
X238158404Y-63943592D01*
X238158405Y-63943593D01*
X238204969Y-63962880D01*
X238335749Y-64017050D01*
X238352025Y-64020287D01*
X238381809Y-64026212D01*
X238381829Y-64026215D01*
X238381851Y-64026220D01*
X238476628Y-64045073D01*
X238524016Y-64054500D01*
X238715982Y-64054500D01*
X238715983Y-64054500D01*
X238735728Y-64050572D01*
X238810758Y-64035647D01*
X238904251Y-64017050D01*
X239081599Y-63943591D01*
X239241207Y-63836943D01*
X239376943Y-63701207D01*
X239483591Y-63541599D01*
X239557050Y-63364251D01*
X239594500Y-63175980D01*
X239594500Y-63149533D01*
X240180237Y-63149533D01*
X240222944Y-63364226D01*
X240222951Y-63364256D01*
X240296404Y-63541590D01*
X240296406Y-63541594D01*
X240296407Y-63541595D01*
X240296409Y-63541599D01*
X240299248Y-63545847D01*
X240299296Y-63545919D01*
X240299297Y-63545921D01*
X240403057Y-63701208D01*
X240403058Y-63701209D01*
X240403063Y-63701215D01*
X240538783Y-63836935D01*
X240538789Y-63836940D01*
X240538793Y-63836943D01*
X240698401Y-63943591D01*
X240698404Y-63943592D01*
X240698405Y-63943593D01*
X240744969Y-63962880D01*
X240875749Y-64017050D01*
X240892025Y-64020287D01*
X240921809Y-64026212D01*
X240921829Y-64026215D01*
X240921851Y-64026220D01*
X241016628Y-64045073D01*
X241064016Y-64054500D01*
X241255982Y-64054500D01*
X241255983Y-64054500D01*
X241275728Y-64050572D01*
X241350758Y-64035647D01*
X241444251Y-64017050D01*
X241621599Y-63943591D01*
X241781207Y-63836943D01*
X241916943Y-63701207D01*
X242023591Y-63541599D01*
X242097050Y-63364251D01*
X242134500Y-63175980D01*
X242134500Y-63149533D01*
X242720237Y-63149533D01*
X242762944Y-63364226D01*
X242762951Y-63364256D01*
X242836404Y-63541590D01*
X242836406Y-63541594D01*
X242836407Y-63541595D01*
X242836409Y-63541599D01*
X242839248Y-63545847D01*
X242839296Y-63545919D01*
X242839297Y-63545921D01*
X242943057Y-63701208D01*
X242943058Y-63701209D01*
X242943063Y-63701215D01*
X243078783Y-63836935D01*
X243078789Y-63836940D01*
X243078793Y-63836943D01*
X243238401Y-63943591D01*
X243238404Y-63943592D01*
X243238405Y-63943593D01*
X243284969Y-63962880D01*
X243415749Y-64017050D01*
X243432025Y-64020287D01*
X243461809Y-64026212D01*
X243461829Y-64026215D01*
X243461851Y-64026220D01*
X243556628Y-64045073D01*
X243604016Y-64054500D01*
X243795982Y-64054500D01*
X243795983Y-64054500D01*
X243815728Y-64050572D01*
X243890758Y-64035647D01*
X243984251Y-64017050D01*
X244161599Y-63943591D01*
X244321207Y-63836943D01*
X244456943Y-63701207D01*
X244563591Y-63541599D01*
X244637050Y-63364251D01*
X244674500Y-63175980D01*
X244674500Y-62984020D01*
X244674500Y-62984017D01*
X244674500Y-62984014D01*
X244657887Y-62900500D01*
X244637051Y-62795755D01*
X244637050Y-62795749D01*
X244603974Y-62715896D01*
X244584668Y-62669285D01*
X244565272Y-62622458D01*
X244563968Y-62618967D01*
X244563593Y-62618407D01*
X244563593Y-62618405D01*
X244563592Y-62618404D01*
X244563591Y-62618401D01*
X244456943Y-62458793D01*
X244456940Y-62458789D01*
X244456935Y-62458783D01*
X244321212Y-62323060D01*
X244321207Y-62323057D01*
X244318471Y-62321229D01*
X244268485Y-62287829D01*
X244161599Y-62216409D01*
X244161596Y-62216407D01*
X244160555Y-62215713D01*
X244155939Y-62214063D01*
X243984256Y-62142951D01*
X243984252Y-62142950D01*
X243984244Y-62142948D01*
X243984238Y-62142946D01*
X243984226Y-62142944D01*
X243795984Y-62105500D01*
X243795982Y-62105500D01*
X243795980Y-62105500D01*
X243604020Y-62105500D01*
X243604018Y-62105500D01*
X243604016Y-62105500D01*
X243415772Y-62142944D01*
X243415742Y-62142951D01*
X243238406Y-62216404D01*
X243231615Y-62220943D01*
X243081528Y-62321229D01*
X243078786Y-62323061D01*
X243078783Y-62323063D01*
X242943060Y-62458786D01*
X242843255Y-62608153D01*
X242843209Y-62608223D01*
X242836409Y-62618401D01*
X242836403Y-62618410D01*
X242762951Y-62795742D01*
X242762944Y-62795772D01*
X242725500Y-62984014D01*
X242725500Y-63131613D01*
X242720237Y-63149533D01*
X242134500Y-63149533D01*
X242134500Y-62984020D01*
X242134500Y-62984017D01*
X242134500Y-62984014D01*
X242117887Y-62900500D01*
X242097051Y-62795755D01*
X242097050Y-62795749D01*
X242063974Y-62715896D01*
X242044668Y-62669285D01*
X242025272Y-62622458D01*
X242023968Y-62618967D01*
X242023593Y-62618407D01*
X242023593Y-62618405D01*
X242023592Y-62618404D01*
X242023591Y-62618401D01*
X241916943Y-62458793D01*
X241916940Y-62458789D01*
X241916935Y-62458783D01*
X241781212Y-62323060D01*
X241781207Y-62323057D01*
X241778471Y-62321229D01*
X241728485Y-62287829D01*
X241621599Y-62216409D01*
X241621596Y-62216407D01*
X241620555Y-62215713D01*
X241615939Y-62214063D01*
X241444256Y-62142951D01*
X241444252Y-62142950D01*
X241444244Y-62142948D01*
X241444238Y-62142946D01*
X241444226Y-62142944D01*
X241255984Y-62105500D01*
X241255982Y-62105500D01*
X241255980Y-62105500D01*
X241064020Y-62105500D01*
X241064018Y-62105500D01*
X241064016Y-62105500D01*
X240875772Y-62142944D01*
X240875742Y-62142951D01*
X240698406Y-62216404D01*
X240691615Y-62220943D01*
X240541528Y-62321229D01*
X240538786Y-62323061D01*
X240538783Y-62323063D01*
X240403060Y-62458786D01*
X240303255Y-62608153D01*
X240303209Y-62608223D01*
X240296409Y-62618401D01*
X240296403Y-62618410D01*
X240222951Y-62795742D01*
X240222944Y-62795772D01*
X240185500Y-62984014D01*
X240185500Y-63131613D01*
X240180237Y-63149533D01*
X239594500Y-63149533D01*
X239594500Y-62984020D01*
X239594500Y-62984017D01*
X239594500Y-62984014D01*
X239577887Y-62900500D01*
X239557051Y-62795755D01*
X239557050Y-62795749D01*
X239523974Y-62715896D01*
X239504668Y-62669285D01*
X239485272Y-62622458D01*
X239483968Y-62618967D01*
X239483593Y-62618407D01*
X239483593Y-62618405D01*
X239483592Y-62618404D01*
X239483591Y-62618401D01*
X239376943Y-62458793D01*
X239376940Y-62458789D01*
X239376935Y-62458783D01*
X239241212Y-62323060D01*
X239241207Y-62323057D01*
X239238471Y-62321229D01*
X239188485Y-62287829D01*
X239081599Y-62216409D01*
X239081596Y-62216407D01*
X239080555Y-62215713D01*
X239075939Y-62214063D01*
X238904256Y-62142951D01*
X238904252Y-62142950D01*
X238904244Y-62142948D01*
X238904238Y-62142946D01*
X238904226Y-62142944D01*
X238715984Y-62105500D01*
X238715982Y-62105500D01*
X238715980Y-62105500D01*
X238524020Y-62105500D01*
X238524018Y-62105500D01*
X238524016Y-62105500D01*
X238335772Y-62142944D01*
X238335742Y-62142951D01*
X238158406Y-62216404D01*
X238151615Y-62220943D01*
X238001528Y-62321229D01*
X237998789Y-62323059D01*
X237998779Y-62323067D01*
X237924787Y-62397059D01*
X237924786Y-62397062D01*
X237896532Y-62418213D01*
X237886608Y-62423632D01*
X237818335Y-62438484D01*
X237752870Y-62414068D01*
X237710999Y-62358134D01*
X237710997Y-62358130D01*
X237709383Y-62353804D01*
X237708313Y-62350932D01*
X237700500Y-62307612D01*
X237700500Y-62147275D01*
X237700500Y-62147273D01*
X237673207Y-62045413D01*
X237673207Y-62045412D01*
X237672064Y-62043433D01*
X237652919Y-62010272D01*
X237620480Y-61954087D01*
X236445913Y-60779520D01*
X236387410Y-60745743D01*
X236380471Y-60741736D01*
X236354590Y-60726793D01*
X236329123Y-60719969D01*
X236303657Y-60713146D01*
X236303656Y-60713145D01*
X236252730Y-60699500D01*
X236252727Y-60699500D01*
X236252726Y-60699500D01*
X234942333Y-60699500D01*
X234932607Y-60696644D01*
X234929165Y-60697078D01*
X234929107Y-60697899D01*
X234924990Y-60697604D01*
X234922550Y-60697912D01*
X234907392Y-60694475D01*
X234903020Y-60693191D01*
X234903304Y-60692223D01*
X234881489Y-60686655D01*
X234880646Y-60686270D01*
X234827843Y-60640514D01*
X234808159Y-60573474D01*
X234827845Y-60506435D01*
X234850960Y-60479760D01*
X234856770Y-60474726D01*
X234883600Y-60458807D01*
X234888431Y-60454767D01*
X234890944Y-60454450D01*
X234894634Y-60452260D01*
X234917331Y-60443796D01*
X234917337Y-60443792D01*
X235032543Y-60357548D01*
X235032546Y-60357546D01*
X235118796Y-60242331D01*
X235169091Y-60107483D01*
X235175500Y-60047873D01*
X235175499Y-59552128D01*
X235169091Y-59492517D01*
X235159225Y-59466066D01*
X235153223Y-59449973D01*
X235118798Y-59357673D01*
X235118797Y-59357671D01*
X235118796Y-59357669D01*
X235118793Y-59357664D01*
X235047098Y-59261892D01*
X235022680Y-59196428D01*
X235037531Y-59128155D01*
X235086936Y-59078749D01*
X235107944Y-59069683D01*
X235121407Y-59065297D01*
X235182730Y-59031812D01*
X235195099Y-59022553D01*
X235252329Y-58979710D01*
X235252340Y-58979702D01*
X235479702Y-58752340D01*
X235501558Y-58728008D01*
X235518192Y-58707366D01*
X235522553Y-58701825D01*
X235573439Y-58601749D01*
X235593124Y-58534710D01*
X235605500Y-58448638D01*
X235605500Y-57740307D01*
X235605374Y-57731549D01*
X235605170Y-57724436D01*
X235587501Y-57630452D01*
X235564004Y-57564654D01*
X235523405Y-57487760D01*
X235285434Y-57160409D01*
X235285412Y-57160379D01*
X235280201Y-57153422D01*
X235275849Y-57147782D01*
X235214458Y-57089854D01*
X235206293Y-57082149D01*
X235206289Y-57082146D01*
X235148602Y-57042745D01*
X235148595Y-57042741D01*
X235070542Y-57004416D01*
X235070540Y-57004415D01*
X232275749Y-56097995D01*
X232039683Y-56021433D01*
X231984477Y-56009039D01*
X231984452Y-56009035D01*
X231939123Y-56003197D01*
X231939064Y-56003191D01*
X231908211Y-56000800D01*
X231908206Y-56000800D01*
X231908205Y-56000800D01*
X231908204Y-56000800D01*
X231797335Y-56018487D01*
X231797333Y-56018487D01*
X231797330Y-56018488D01*
X231797327Y-56018489D01*
X231731542Y-56041981D01*
X231731540Y-56041982D01*
X231654650Y-56082580D01*
X231654641Y-56082585D01*
X231471457Y-56215752D01*
X231471452Y-56215755D01*
X231438123Y-56243826D01*
X231412819Y-56268431D01*
X231400325Y-56281313D01*
X231400322Y-56281316D01*
X231396149Y-56288032D01*
X231377453Y-56309965D01*
X231354573Y-56354955D01*
X231351776Y-56359459D01*
X231341077Y-56376680D01*
X231341076Y-56376682D01*
X231335335Y-56391435D01*
X231335336Y-56391436D01*
X231333099Y-56397186D01*
X231326563Y-56410040D01*
X231321827Y-56426162D01*
X231319908Y-56431098D01*
X231319906Y-56431099D01*
X231315736Y-56441820D01*
X231299330Y-56501045D01*
X231299574Y-56516998D01*
X231298327Y-56536533D01*
X231294500Y-56563157D01*
X231294500Y-57575500D01*
X231274815Y-57642539D01*
X231222011Y-57688294D01*
X231170500Y-57699500D01*
X230647271Y-57699500D01*
X230545411Y-57726792D01*
X230545408Y-57726793D01*
X230454097Y-57779513D01*
X230454082Y-57779523D01*
X230454080Y-57779524D01*
X229608034Y-58625572D01*
X229582224Y-58645352D01*
X229580965Y-58646076D01*
X229568498Y-58652884D01*
X229562958Y-58656444D01*
X229560324Y-58657961D01*
X229529198Y-58665472D01*
X229498456Y-58674500D01*
X229330010Y-58674500D01*
X229295070Y-58669476D01*
X229273250Y-58663068D01*
X229223703Y-58634855D01*
X229221042Y-58632378D01*
X229206263Y-58615926D01*
X229132548Y-58517457D01*
X229132547Y-58517456D01*
X229132546Y-58517454D01*
X229132543Y-58517452D01*
X229113684Y-58503334D01*
X229091865Y-58487000D01*
X229040617Y-58448635D01*
X229017337Y-58431207D01*
X229017334Y-58431205D01*
X229017325Y-58431200D01*
X228892654Y-58384702D01*
X228892651Y-58384701D01*
X228882486Y-58380910D01*
X228882485Y-58380909D01*
X228882483Y-58380909D01*
X228869021Y-58379461D01*
X228869014Y-58379460D01*
X228822883Y-58374501D01*
X228822881Y-58374500D01*
X228822873Y-58374500D01*
X228822865Y-58374500D01*
X228177123Y-58374500D01*
X228175192Y-58374659D01*
X228173545Y-58374885D01*
X228117516Y-58380908D01*
X227982677Y-58431200D01*
X227982666Y-58431204D01*
X227982665Y-58431205D01*
X227867456Y-58517450D01*
X227867450Y-58517456D01*
X227781205Y-58632665D01*
X227781201Y-58632671D01*
X227781200Y-58632673D01*
X227732298Y-58763790D01*
X227732296Y-58763797D01*
X227730909Y-58767517D01*
X227730909Y-58767518D01*
X227730908Y-58767520D01*
X227727335Y-58800757D01*
X227724500Y-58827127D01*
X227724500Y-58827132D01*
X227724500Y-59322876D01*
X227724659Y-59324806D01*
X227724885Y-59326454D01*
X227730907Y-59382482D01*
X227755421Y-59448206D01*
X227781202Y-59517328D01*
X227781206Y-59517335D01*
X227807252Y-59552128D01*
X227867450Y-59632542D01*
X227867452Y-59632544D01*
X227867455Y-59632547D01*
X227982664Y-59718793D01*
X227982671Y-59718797D01*
X227986087Y-59720071D01*
X228117517Y-59769091D01*
X228177127Y-59775500D01*
X228822872Y-59775499D01*
X228882483Y-59769091D01*
X229017331Y-59718796D01*
X229132546Y-59632546D01*
X229202233Y-59539455D01*
X229227184Y-59514505D01*
X229245390Y-59500876D01*
X229297702Y-59478111D01*
X229300384Y-59477628D01*
X229301284Y-59477466D01*
X229310324Y-59476657D01*
X229310852Y-59476461D01*
X229311339Y-59476567D01*
X229323277Y-59475500D01*
X229777725Y-59475500D01*
X229777727Y-59475500D01*
X229879588Y-59448207D01*
X229970913Y-59395480D01*
X230816974Y-58549418D01*
X230845219Y-58528275D01*
X230868311Y-58515667D01*
X230927736Y-58500500D01*
X231205294Y-58500500D01*
X231272333Y-58520185D01*
X231318088Y-58572989D01*
X231323193Y-58586084D01*
X231334700Y-58621401D01*
X231334704Y-58621411D01*
X231368189Y-58682733D01*
X231420289Y-58752329D01*
X231420307Y-58752350D01*
X231623063Y-58955105D01*
X231647660Y-58979702D01*
X231668884Y-58998766D01*
X231671993Y-59001559D01*
X231692674Y-59018224D01*
X231698172Y-59022551D01*
X231698175Y-59022553D01*
X231798251Y-59073439D01*
X231865290Y-59093124D01*
X231876452Y-59094728D01*
X231940006Y-59123752D01*
X231977781Y-59182530D01*
X231977782Y-59252400D01*
X231958071Y-59291776D01*
X231931210Y-59327657D01*
X231931203Y-59327668D01*
X231880907Y-59462516D01*
X231874501Y-59522116D01*
X231874500Y-59522139D01*
X231874500Y-59937995D01*
X231872362Y-59960920D01*
X231869137Y-59978063D01*
X231854663Y-60017136D01*
X231826794Y-60065408D01*
X231826792Y-60065412D01*
X231803037Y-60154072D01*
X231803033Y-60154087D01*
X231801267Y-60160670D01*
X231801268Y-60160671D01*
X231799500Y-60167271D01*
X231799500Y-62192370D01*
X231799499Y-62192375D01*
X231799500Y-62192378D01*
X231795323Y-62221416D01*
X231794475Y-62227312D01*
X231790637Y-62240380D01*
X231752859Y-62299156D01*
X231689301Y-62328177D01*
X231627296Y-62321229D01*
X231619578Y-62318271D01*
X231595065Y-62305588D01*
X231480277Y-62228889D01*
X231461595Y-62216406D01*
X231461594Y-62216405D01*
X231461584Y-62216401D01*
X231284256Y-62142951D01*
X231284252Y-62142950D01*
X231284244Y-62142948D01*
X231284238Y-62142946D01*
X231284226Y-62142944D01*
X231095984Y-62105500D01*
X231095982Y-62105500D01*
X231095980Y-62105500D01*
X230904020Y-62105500D01*
X230904018Y-62105500D01*
X230904016Y-62105500D01*
X230715772Y-62142944D01*
X230715742Y-62142951D01*
X230538406Y-62216404D01*
X230531615Y-62220943D01*
X230381528Y-62321229D01*
X230378786Y-62323061D01*
X230378783Y-62323063D01*
X230243060Y-62458786D01*
X230143255Y-62608153D01*
X230143209Y-62608223D01*
X230136409Y-62618401D01*
X230136403Y-62618410D01*
X230062951Y-62795742D01*
X230062944Y-62795772D01*
X230025500Y-62984014D01*
X230025500Y-63131613D01*
X230020237Y-63149533D01*
X230062944Y-63364226D01*
X230062951Y-63364256D01*
X230136404Y-63541590D01*
X230136406Y-63541594D01*
X230136407Y-63541595D01*
X230136409Y-63541599D01*
X230139248Y-63545847D01*
X230139296Y-63545919D01*
X230139297Y-63545921D01*
X230243057Y-63701208D01*
X230243058Y-63701209D01*
X230243063Y-63701215D01*
X230378783Y-63836935D01*
X230378789Y-63836940D01*
X230378793Y-63836943D01*
X230538401Y-63943591D01*
X230538404Y-63943592D01*
X230538405Y-63943593D01*
X230584969Y-63962880D01*
X230715749Y-64017050D01*
X230732025Y-64020287D01*
X230761809Y-64026212D01*
X230761829Y-64026215D01*
X230761851Y-64026220D01*
X230856628Y-64045073D01*
X230904016Y-64054500D01*
X231095982Y-64054500D01*
X231095983Y-64054500D01*
X231115728Y-64050572D01*
X231190758Y-64035647D01*
X231284251Y-64017050D01*
X231461599Y-63943591D01*
X231621207Y-63836943D01*
X231756943Y-63701207D01*
X231774398Y-63675084D01*
X231797970Y-63648840D01*
X231808630Y-63639932D01*
X231872689Y-63612047D01*
X231941655Y-63623221D01*
X231951598Y-63627978D01*
X231985757Y-63652151D01*
X232168306Y-63834699D01*
X232350656Y-64017049D01*
X232708087Y-64374480D01*
X232799412Y-64427207D01*
X232901273Y-64454500D01*
X232901275Y-64454500D01*
X234961915Y-64454500D01*
X234996842Y-64459521D01*
X235007695Y-64462707D01*
X235066476Y-64500477D01*
X235095505Y-64564031D01*
X235085566Y-64633190D01*
X235085565Y-64633192D01*
X235082380Y-64640167D01*
X235057264Y-64676342D01*
X231799196Y-67934410D01*
X231770945Y-67955559D01*
X231747857Y-67968167D01*
X231688427Y-67983337D01*
X217201483Y-67983337D01*
X217201478Y-67983336D01*
X217201476Y-67983337D01*
X217166542Y-67978312D01*
X217151543Y-67973907D01*
X217092797Y-67936164D01*
X217092768Y-67936130D01*
X217092767Y-67936130D01*
X217092766Y-67936128D01*
X217091610Y-67934795D01*
X217064133Y-67879931D01*
X217062487Y-67872367D01*
X217059652Y-67846012D01*
X217059652Y-67651480D01*
X217059652Y-67651473D01*
X217059650Y-67651454D01*
X217056739Y-67626349D01*
X217056738Y-67626347D01*
X217056738Y-67626346D01*
X217011359Y-67523572D01*
X216931918Y-67444131D01*
X216931916Y-67444130D01*
X216860474Y-67412585D01*
X216829146Y-67398752D01*
X216829147Y-67398752D01*
X216804021Y-67395837D01*
X216804018Y-67395837D01*
X216339296Y-67395837D01*
X216339280Y-67395838D01*
X216339266Y-67395839D01*
X216321408Y-67397910D01*
X216314165Y-67398750D01*
X216314164Y-67398750D01*
X216314158Y-67398751D01*
X216313712Y-67398884D01*
X216311454Y-67399947D01*
X216282830Y-67412585D01*
X216213551Y-67421654D01*
X216150367Y-67391830D01*
X216113337Y-67332579D01*
X216109177Y-67306545D01*
X216109123Y-67306551D01*
X216109038Y-67305674D01*
X216108865Y-67304590D01*
X216108809Y-67303335D01*
X216108810Y-67303320D01*
X216108808Y-67303304D01*
X216108808Y-67303293D01*
X216102666Y-67239769D01*
X216102664Y-67239756D01*
X216102664Y-67239753D01*
X216092364Y-67189230D01*
X216082375Y-67152253D01*
X216050515Y-67095478D01*
X216034652Y-67034795D01*
X216034652Y-66626479D01*
X216034652Y-66626473D01*
X216034650Y-66626454D01*
X216031739Y-66601349D01*
X216031738Y-66601347D01*
X216031738Y-66601346D01*
X215986359Y-66498572D01*
X215906918Y-66419131D01*
X215906916Y-66419130D01*
X215865839Y-66400992D01*
X215818101Y-66379914D01*
X215811986Y-66377012D01*
X215753206Y-66347125D01*
X215712764Y-66326561D01*
X215712761Y-66326560D01*
X215712763Y-66326560D01*
X215645731Y-66306877D01*
X215645725Y-66306876D01*
X215559653Y-66294500D01*
X215559650Y-66294500D01*
X215024010Y-66294500D01*
X215024000Y-66294500D01*
X215023991Y-66294500D01*
X215023990Y-66294501D01*
X214959064Y-66301481D01*
X214959052Y-66301483D01*
X214907546Y-66312688D01*
X214869345Y-66323644D01*
X214869341Y-66323646D01*
X214772427Y-66380326D01*
X214772426Y-66380326D01*
X214758610Y-66392298D01*
X214727500Y-66412015D01*
X214711387Y-66419129D01*
X214631947Y-66498569D01*
X214586567Y-66601342D01*
X214586483Y-66601743D01*
X214586478Y-66602118D01*
X214583653Y-66626472D01*
X214583653Y-66784032D01*
X214583653Y-66829684D01*
X214583643Y-66830549D01*
X214583245Y-66831842D01*
X214578630Y-66863945D01*
X214574227Y-66878940D01*
X214563788Y-66895187D01*
X214563128Y-66897339D01*
X214561549Y-66898672D01*
X214536482Y-66937692D01*
X214535113Y-66938879D01*
X214480249Y-66966356D01*
X214472690Y-66968001D01*
X214446322Y-66970837D01*
X214090953Y-66970837D01*
X214090890Y-66970836D01*
X214088986Y-66970836D01*
X214081390Y-66970836D01*
X213975936Y-66970836D01*
X213908029Y-66989032D01*
X213908028Y-66989031D01*
X213874076Y-66998129D01*
X213874075Y-66998129D01*
X213782747Y-67050859D01*
X213782744Y-67050861D01*
X212279526Y-68554078D01*
X212279521Y-68554084D01*
X212279511Y-68554100D01*
X212222400Y-68653018D01*
X212221033Y-68666812D01*
X212220733Y-68668029D01*
X212199500Y-68747273D01*
X211725499Y-68747273D01*
X211725499Y-62472274D01*
X211725499Y-62472272D01*
X211698206Y-62370412D01*
X211645479Y-62279086D01*
X211570912Y-62204519D01*
X210545913Y-61179520D01*
X210535119Y-61173288D01*
X210500250Y-61153155D01*
X210500250Y-61153156D01*
X210454589Y-61126793D01*
X210403657Y-61113146D01*
X210403656Y-61113145D01*
X210352730Y-61099500D01*
X210352727Y-61099500D01*
X206752727Y-61099500D01*
X206647273Y-61099500D01*
X206647271Y-61099500D01*
X206545411Y-61126792D01*
X206545408Y-61126793D01*
X206454097Y-61179513D01*
X206454083Y-61179522D01*
X206454078Y-61179526D01*
X205729526Y-61904078D01*
X205729521Y-61904084D01*
X205729511Y-61904100D01*
X205672677Y-62002538D01*
X205672458Y-62010272D01*
X205671598Y-62014798D01*
X205649500Y-62097273D01*
X205649500Y-62131206D01*
X205647324Y-62142669D01*
X205645725Y-62145790D01*
X205644476Y-62154481D01*
X205638131Y-62176087D01*
X205609623Y-62225951D01*
X205606869Y-62228889D01*
X205590036Y-62243855D01*
X205577851Y-62252848D01*
X205497206Y-62362118D01*
X205452353Y-62490297D01*
X205451978Y-62492499D01*
X205451812Y-62496069D01*
X205450572Y-62509302D01*
X205449500Y-62520733D01*
X205186286Y-62520733D01*
X205186286Y-60477127D01*
X222524500Y-60477127D01*
X222524500Y-60477128D01*
X222524500Y-60477132D01*
X222524500Y-60972876D01*
X222524659Y-60974806D01*
X222524885Y-60976454D01*
X222530907Y-61032482D01*
X222543600Y-61066512D01*
X222581202Y-61167328D01*
X222581206Y-61167335D01*
X222612281Y-61208846D01*
X222667450Y-61282542D01*
X222667452Y-61282544D01*
X222667455Y-61282547D01*
X222782664Y-61368793D01*
X222782669Y-61368796D01*
X222782670Y-61368796D01*
X222782671Y-61368797D01*
X222786467Y-61370212D01*
X222802125Y-61376052D01*
X222816023Y-61383641D01*
X222833098Y-61392964D01*
X222845616Y-61402334D01*
X222887488Y-61458263D01*
X222891681Y-61469504D01*
X222899500Y-61512837D01*
X222899500Y-61782072D01*
X222894476Y-61817009D01*
X222887064Y-61842250D01*
X222855769Y-61894994D01*
X222819486Y-61931276D01*
X222819480Y-61931282D01*
X222819470Y-61931298D01*
X222740430Y-62068200D01*
X222740425Y-62068210D01*
X222740424Y-62068211D01*
X222740422Y-62068218D01*
X222702379Y-62210200D01*
X222699500Y-62220943D01*
X222699500Y-62379057D01*
X222729308Y-62490300D01*
X222729307Y-62490300D01*
X222740422Y-62531782D01*
X222740425Y-62531788D01*
X222740428Y-62531793D01*
X222816623Y-62663771D01*
X222816638Y-62663795D01*
X222819475Y-62668709D01*
X222819479Y-62668714D01*
X222819480Y-62668716D01*
X222820049Y-62669285D01*
X222931287Y-62780523D01*
X222931969Y-62781014D01*
X222934475Y-62782363D01*
X223068209Y-62859573D01*
X223068216Y-62859577D01*
X223220943Y-62900500D01*
X223220945Y-62900500D01*
X223379055Y-62900500D01*
X223379057Y-62900500D01*
X223531784Y-62859577D01*
X223668716Y-62780520D01*
X223780520Y-62668716D01*
X223859577Y-62531784D01*
X223900500Y-62379057D01*
X223900500Y-62220943D01*
X223859577Y-62068216D01*
X223817544Y-61995412D01*
X223780524Y-61931290D01*
X223780518Y-61931282D01*
X223742518Y-61893282D01*
X223736781Y-61885384D01*
X223735359Y-61881399D01*
X223728272Y-61871931D01*
X223725547Y-61866941D01*
X223716025Y-61849501D01*
X223715666Y-61848843D01*
X223700500Y-61789420D01*
X223700500Y-61516295D01*
X223705523Y-61481359D01*
X223709927Y-61466361D01*
X223719565Y-61451362D01*
X223724588Y-61434258D01*
X223747700Y-61407585D01*
X223756765Y-61399730D01*
X223794634Y-61377260D01*
X223817331Y-61368796D01*
X223817337Y-61368792D01*
X223855447Y-61340261D01*
X223932546Y-61282546D01*
X224018796Y-61167331D01*
X224069091Y-61032483D01*
X224075500Y-60972873D01*
X224075499Y-60477128D01*
X224069091Y-60417517D01*
X224067706Y-60413805D01*
X224067705Y-60413794D01*
X224067703Y-60413796D01*
X224018797Y-60282671D01*
X224018793Y-60282664D01*
X223932547Y-60167455D01*
X223932544Y-60167452D01*
X223932542Y-60167450D01*
X223852436Y-60107483D01*
X223817335Y-60081206D01*
X223817331Y-60081204D01*
X223817327Y-60081201D01*
X223817325Y-60081200D01*
X223692654Y-60034702D01*
X223692651Y-60034701D01*
X223682486Y-60030910D01*
X223682485Y-60030909D01*
X223682483Y-60030909D01*
X223669021Y-60029461D01*
X223669014Y-60029460D01*
X223622883Y-60024501D01*
X223622881Y-60024500D01*
X223622873Y-60024500D01*
X223622865Y-60024500D01*
X222977123Y-60024500D01*
X222973878Y-60024768D01*
X222973545Y-60024885D01*
X222917516Y-60030908D01*
X222782677Y-60081200D01*
X222782666Y-60081204D01*
X222782665Y-60081205D01*
X222667456Y-60167450D01*
X222667450Y-60167456D01*
X222581205Y-60282665D01*
X222581201Y-60282671D01*
X222581200Y-60282673D01*
X222532298Y-60413790D01*
X222532296Y-60413797D01*
X222530909Y-60417517D01*
X222530909Y-60417518D01*
X222530908Y-60417520D01*
X222528083Y-60443797D01*
X222524500Y-60477127D01*
X205186286Y-60477127D01*
X205186286Y-58827127D01*
X222524500Y-58827127D01*
X222524500Y-58827132D01*
X222524500Y-59322876D01*
X222524659Y-59324806D01*
X222524885Y-59326454D01*
X222530907Y-59382482D01*
X222555421Y-59448206D01*
X222581202Y-59517328D01*
X222581206Y-59517335D01*
X222607252Y-59552128D01*
X222667450Y-59632542D01*
X222667452Y-59632544D01*
X222667455Y-59632547D01*
X222782664Y-59718793D01*
X222782671Y-59718797D01*
X222786087Y-59720071D01*
X222917517Y-59769091D01*
X222977127Y-59775500D01*
X223622872Y-59775499D01*
X223682483Y-59769091D01*
X223817331Y-59718796D01*
X223932546Y-59632546D01*
X223983517Y-59564456D01*
X224008468Y-59539506D01*
X224026675Y-59525877D01*
X224078985Y-59503113D01*
X224081667Y-59502630D01*
X224082567Y-59502468D01*
X224091608Y-59501659D01*
X224092136Y-59501463D01*
X224092623Y-59501569D01*
X224104560Y-59500502D01*
X224703670Y-59500502D01*
X224738606Y-59505525D01*
X224753604Y-59509929D01*
X224768598Y-59519564D01*
X224785695Y-59524582D01*
X224812371Y-59547692D01*
X224815577Y-59551391D01*
X224844610Y-59614943D01*
X224845742Y-59626874D01*
X224845802Y-59628185D01*
X224845802Y-59628187D01*
X224864856Y-59695153D01*
X224865072Y-59696894D01*
X224865545Y-59697679D01*
X224867247Y-59714364D01*
X224869535Y-59732747D01*
X224869491Y-59734236D01*
X224868782Y-59747652D01*
X224868657Y-59762461D01*
X224868618Y-59763805D01*
X224868114Y-59765350D01*
X224865820Y-59782586D01*
X224866132Y-59782631D01*
X224865504Y-59787022D01*
X224864642Y-59792249D01*
X224849770Y-59871812D01*
X224844500Y-59900002D01*
X224844500Y-60465833D01*
X224854909Y-60544893D01*
X224876913Y-60627011D01*
X224888988Y-60672074D01*
X224919494Y-60745724D01*
X224919501Y-60745739D01*
X224919503Y-60745743D01*
X224985314Y-60859732D01*
X224985322Y-60859744D01*
X224985325Y-60859749D01*
X224985337Y-60859767D01*
X224985339Y-60859769D01*
X224985350Y-60859785D01*
X225033875Y-60923023D01*
X225033880Y-60923028D01*
X225033888Y-60923037D01*
X225081277Y-60970426D01*
X225126958Y-61016107D01*
X225126966Y-61016115D01*
X225126991Y-61016135D01*
X225148296Y-61032483D01*
X225190229Y-61064660D01*
X225190274Y-61064694D01*
X225193039Y-61066284D01*
X225193243Y-61066402D01*
X225193256Y-61066415D01*
X225193410Y-61066498D01*
X225297844Y-61126794D01*
X225304258Y-61130497D01*
X225304263Y-61130499D01*
X225304265Y-61130500D01*
X225306624Y-61131477D01*
X225373862Y-61159328D01*
X225373863Y-61159328D01*
X225377933Y-61161014D01*
X225377934Y-61161014D01*
X225377936Y-61161015D01*
X225377939Y-61161015D01*
X225378686Y-61161325D01*
X225381830Y-61162058D01*
X225390385Y-61164350D01*
X225422809Y-61178236D01*
X225436158Y-61186372D01*
X225448151Y-61199563D01*
X225463380Y-61208846D01*
X225483153Y-61238061D01*
X225483158Y-61238066D01*
X225483163Y-61238075D01*
X225487037Y-61246050D01*
X225499500Y-61300231D01*
X225499500Y-62104838D01*
X225494476Y-62139775D01*
X225488564Y-62159908D01*
X225458050Y-62211864D01*
X225453343Y-62216656D01*
X225433772Y-62232865D01*
X225298790Y-62323057D01*
X225298789Y-62323058D01*
X225298783Y-62323063D01*
X225163060Y-62458786D01*
X225063255Y-62608153D01*
X225063209Y-62608223D01*
X225056409Y-62618401D01*
X225056403Y-62618410D01*
X224982951Y-62795742D01*
X224982944Y-62795772D01*
X224945500Y-62984014D01*
X224945500Y-63131613D01*
X224940237Y-63149533D01*
X224982944Y-63364226D01*
X224982951Y-63364256D01*
X225056404Y-63541590D01*
X225056406Y-63541594D01*
X225056407Y-63541595D01*
X225056409Y-63541599D01*
X225059248Y-63545847D01*
X225059296Y-63545919D01*
X225059297Y-63545921D01*
X225163057Y-63701208D01*
X225163058Y-63701209D01*
X225163063Y-63701215D01*
X225298783Y-63836935D01*
X225298789Y-63836940D01*
X225298793Y-63836943D01*
X225458401Y-63943591D01*
X225458404Y-63943592D01*
X225458405Y-63943593D01*
X225504969Y-63962880D01*
X225635749Y-64017050D01*
X225652025Y-64020287D01*
X225681809Y-64026212D01*
X225681829Y-64026215D01*
X225681851Y-64026220D01*
X225776628Y-64045073D01*
X225824016Y-64054500D01*
X226015982Y-64054500D01*
X226015983Y-64054500D01*
X226035728Y-64050572D01*
X226110758Y-64035647D01*
X226204251Y-64017050D01*
X226381599Y-63943591D01*
X226541207Y-63836943D01*
X226676943Y-63701207D01*
X226783591Y-63541599D01*
X226857050Y-63364251D01*
X226894500Y-63175980D01*
X226894500Y-63149533D01*
X227480237Y-63149533D01*
X227522944Y-63364226D01*
X227522951Y-63364256D01*
X227596404Y-63541590D01*
X227596406Y-63541594D01*
X227596407Y-63541595D01*
X227596409Y-63541599D01*
X227599248Y-63545847D01*
X227599296Y-63545919D01*
X227599297Y-63545921D01*
X227703057Y-63701208D01*
X227703058Y-63701209D01*
X227703063Y-63701215D01*
X227838783Y-63836935D01*
X227838789Y-63836940D01*
X227838793Y-63836943D01*
X227998401Y-63943591D01*
X227998404Y-63943592D01*
X227998405Y-63943593D01*
X228044969Y-63962880D01*
X228175749Y-64017050D01*
X228192025Y-64020287D01*
X228221809Y-64026212D01*
X228221829Y-64026215D01*
X228221851Y-64026220D01*
X228316628Y-64045073D01*
X228364016Y-64054500D01*
X228555982Y-64054500D01*
X228555983Y-64054500D01*
X228575728Y-64050572D01*
X228650758Y-64035647D01*
X228744251Y-64017050D01*
X228921599Y-63943591D01*
X229081207Y-63836943D01*
X229216943Y-63701207D01*
X229323591Y-63541599D01*
X229397050Y-63364251D01*
X229434500Y-63175980D01*
X229434500Y-62984020D01*
X229434500Y-62984017D01*
X229434500Y-62984014D01*
X229417887Y-62900500D01*
X229397051Y-62795755D01*
X229397050Y-62795749D01*
X229363974Y-62715896D01*
X229344668Y-62669285D01*
X229325272Y-62622458D01*
X229323968Y-62618967D01*
X229323593Y-62618407D01*
X229323593Y-62618405D01*
X229323592Y-62618404D01*
X229323591Y-62618401D01*
X229216943Y-62458793D01*
X229216940Y-62458789D01*
X229216935Y-62458783D01*
X229081217Y-62323065D01*
X229081212Y-62323061D01*
X229081210Y-62323059D01*
X229034369Y-62291760D01*
X228970430Y-62249036D01*
X228970429Y-62249036D01*
X228944173Y-62225450D01*
X228936613Y-62216404D01*
X228930720Y-62209352D01*
X228904472Y-62155106D01*
X228903102Y-62148524D01*
X228900500Y-62123256D01*
X228900500Y-61516295D01*
X228905523Y-61481359D01*
X228909927Y-61466361D01*
X228919565Y-61451362D01*
X228924588Y-61434258D01*
X228947700Y-61407585D01*
X228956765Y-61399730D01*
X228994634Y-61377260D01*
X229017331Y-61368796D01*
X229017337Y-61368792D01*
X229055447Y-61340261D01*
X229132546Y-61282546D01*
X229218796Y-61167331D01*
X229269091Y-61032483D01*
X229275500Y-60972873D01*
X229275499Y-60477128D01*
X229269091Y-60417517D01*
X229267706Y-60413805D01*
X229267705Y-60413794D01*
X229267703Y-60413796D01*
X229218797Y-60282671D01*
X229218793Y-60282664D01*
X229132547Y-60167455D01*
X229132544Y-60167452D01*
X229132542Y-60167450D01*
X229052436Y-60107483D01*
X229017335Y-60081206D01*
X229017331Y-60081204D01*
X229017327Y-60081201D01*
X229017325Y-60081200D01*
X228892654Y-60034702D01*
X228892651Y-60034701D01*
X228882486Y-60030910D01*
X228882485Y-60030909D01*
X228882483Y-60030909D01*
X228869021Y-60029461D01*
X228869014Y-60029460D01*
X228822883Y-60024501D01*
X228822881Y-60024500D01*
X228822873Y-60024500D01*
X228822865Y-60024500D01*
X228177123Y-60024500D01*
X228175192Y-60024659D01*
X228173545Y-60024885D01*
X228117516Y-60030908D01*
X227982677Y-60081200D01*
X227982666Y-60081204D01*
X227982665Y-60081205D01*
X227867456Y-60167450D01*
X227867450Y-60167456D01*
X227781205Y-60282665D01*
X227781201Y-60282671D01*
X227781200Y-60282673D01*
X227732298Y-60413790D01*
X227732296Y-60413797D01*
X227730909Y-60417517D01*
X227730909Y-60417518D01*
X227730908Y-60417520D01*
X227728083Y-60443797D01*
X227724500Y-60477127D01*
X227724500Y-60477128D01*
X227724500Y-60477132D01*
X227724500Y-60972876D01*
X227724659Y-60974806D01*
X227724885Y-60976454D01*
X227730907Y-61032482D01*
X227743600Y-61066512D01*
X227781202Y-61167328D01*
X227781206Y-61167335D01*
X227812281Y-61208846D01*
X227867450Y-61282542D01*
X227867452Y-61282544D01*
X227867455Y-61282547D01*
X227982664Y-61368793D01*
X227982669Y-61368796D01*
X227982670Y-61368796D01*
X227982671Y-61368797D01*
X227986467Y-61370212D01*
X228002125Y-61376052D01*
X228016023Y-61383641D01*
X228033098Y-61392964D01*
X228045616Y-61402334D01*
X228087488Y-61458263D01*
X228091681Y-61469504D01*
X228099500Y-61512837D01*
X228099500Y-62073847D01*
X228094475Y-62108791D01*
X228090070Y-62123789D01*
X228080432Y-62138784D01*
X228075415Y-62155878D01*
X228052304Y-62182553D01*
X228042010Y-62191474D01*
X228008258Y-62212325D01*
X228007443Y-62212663D01*
X227998401Y-62216408D01*
X227838790Y-62323057D01*
X227838789Y-62323058D01*
X227838783Y-62323063D01*
X227703060Y-62458786D01*
X227603255Y-62608153D01*
X227603209Y-62608223D01*
X227596409Y-62618401D01*
X227596403Y-62618410D01*
X227522951Y-62795742D01*
X227522944Y-62795772D01*
X227485500Y-62984014D01*
X227485500Y-63131613D01*
X227480237Y-63149533D01*
X226894500Y-63149533D01*
X226894500Y-62984020D01*
X226894500Y-62984017D01*
X226894500Y-62984014D01*
X226877887Y-62900500D01*
X226857051Y-62795755D01*
X226857050Y-62795749D01*
X226823974Y-62715896D01*
X226804668Y-62669285D01*
X226785272Y-62622458D01*
X226783968Y-62618967D01*
X226783593Y-62618407D01*
X226783593Y-62618405D01*
X226783592Y-62618404D01*
X226783591Y-62618401D01*
X226676943Y-62458793D01*
X226676940Y-62458789D01*
X226676935Y-62458783D01*
X226541215Y-62323063D01*
X226541209Y-62323058D01*
X226541208Y-62323057D01*
X226431018Y-62249430D01*
X226430977Y-62249402D01*
X226430666Y-62249195D01*
X226381599Y-62216409D01*
X226381597Y-62216408D01*
X226380620Y-62216003D01*
X226375584Y-62212663D01*
X226374757Y-62211680D01*
X226366320Y-62205879D01*
X226350986Y-62193522D01*
X226311144Y-62136132D01*
X226306841Y-62123202D01*
X226300500Y-62084056D01*
X226300500Y-61306565D01*
X226302244Y-61294438D01*
X226305523Y-61271629D01*
X226306539Y-61268171D01*
X226309927Y-61256630D01*
X226347697Y-61197858D01*
X226347699Y-61197855D01*
X226354398Y-61192050D01*
X226403511Y-61165985D01*
X226422064Y-61161015D01*
X226450556Y-61149213D01*
X226491709Y-61132166D01*
X226493556Y-61131477D01*
X226493990Y-61131283D01*
X226495526Y-61130619D01*
X226495727Y-61130502D01*
X226495734Y-61130500D01*
X226495737Y-61130498D01*
X226495743Y-61130496D01*
X226609757Y-61064670D01*
X226673028Y-61016120D01*
X226673032Y-61016115D01*
X226673037Y-61016112D01*
X226718723Y-60970426D01*
X226761271Y-60927879D01*
X226762047Y-60927183D01*
X226765596Y-60923562D01*
X226766095Y-60923057D01*
X226766105Y-60923043D01*
X226766112Y-60923037D01*
X226766115Y-60923032D01*
X226766120Y-60923028D01*
X226766234Y-60922879D01*
X226766459Y-60922592D01*
X226766460Y-60922591D01*
X226766472Y-60922576D01*
X226769913Y-60918169D01*
X226770415Y-60917429D01*
X226814670Y-60859757D01*
X226880496Y-60745743D01*
X226911015Y-60672064D01*
X226945090Y-60544897D01*
X226955500Y-60465826D01*
X226955500Y-59900000D01*
X226954197Y-59871812D01*
X226935779Y-59807082D01*
X226931050Y-59772113D01*
X226931321Y-59739810D01*
X226933428Y-59718069D01*
X226934868Y-59710363D01*
X226934870Y-59710361D01*
X226955500Y-59600002D01*
X226955500Y-59034176D01*
X226945090Y-58955105D01*
X226911015Y-58827938D01*
X226911014Y-58827935D01*
X226880500Y-58754267D01*
X226880492Y-58754251D01*
X226814674Y-58640252D01*
X226814670Y-58640245D01*
X226814161Y-58639582D01*
X226810594Y-58634934D01*
X226766119Y-58576973D01*
X226766114Y-58576967D01*
X226766107Y-58576960D01*
X226723857Y-58534710D01*
X226673037Y-58483890D01*
X226673028Y-58483882D01*
X226673023Y-58483877D01*
X226609785Y-58435352D01*
X226609774Y-58435345D01*
X226609767Y-58435339D01*
X226609749Y-58435327D01*
X226609744Y-58435324D01*
X226609732Y-58435316D01*
X226495749Y-58369508D01*
X226495733Y-58369500D01*
X226429458Y-58342048D01*
X226429437Y-58342040D01*
X226422067Y-58338988D01*
X226422065Y-58338987D01*
X226422064Y-58338987D01*
X226415911Y-58337338D01*
X226415896Y-58337333D01*
X226302747Y-58307014D01*
X226295001Y-58304385D01*
X226286834Y-58303850D01*
X226215833Y-58294502D01*
X226215826Y-58294502D01*
X225584174Y-58294502D01*
X225584166Y-58294502D01*
X225505113Y-58304910D01*
X225505106Y-58304911D01*
X225377924Y-58338990D01*
X225304274Y-58369496D01*
X225304259Y-58369503D01*
X225304249Y-58369508D01*
X225190266Y-58435316D01*
X225190229Y-58435341D01*
X225190213Y-58435352D01*
X225126978Y-58483875D01*
X225126969Y-58483883D01*
X225033881Y-58576971D01*
X225033877Y-58576976D01*
X224994728Y-58627994D01*
X224981950Y-58642223D01*
X224960426Y-58662758D01*
X224904093Y-58693538D01*
X224896248Y-58695443D01*
X224893952Y-58696000D01*
X224864692Y-58699502D01*
X224146693Y-58699502D01*
X224111757Y-58694479D01*
X224094460Y-58689400D01*
X224080385Y-58680705D01*
X224066124Y-58677066D01*
X224038643Y-58654920D01*
X224026906Y-58642314D01*
X224018393Y-58632129D01*
X223932550Y-58517458D01*
X223932542Y-58517450D01*
X223822873Y-58435352D01*
X223817335Y-58431206D01*
X223817331Y-58431204D01*
X223817327Y-58431201D01*
X223817325Y-58431200D01*
X223692654Y-58384702D01*
X223692651Y-58384701D01*
X223682486Y-58380910D01*
X223682485Y-58380909D01*
X223682483Y-58380909D01*
X223669021Y-58379461D01*
X223669014Y-58379460D01*
X223622883Y-58374501D01*
X223622881Y-58374500D01*
X223622873Y-58374500D01*
X223622865Y-58374500D01*
X222977123Y-58374500D01*
X222975192Y-58374659D01*
X222973545Y-58374885D01*
X222917516Y-58380908D01*
X222782677Y-58431200D01*
X222782666Y-58431204D01*
X222782665Y-58431205D01*
X222667456Y-58517450D01*
X222667450Y-58517456D01*
X222581205Y-58632665D01*
X222581201Y-58632671D01*
X222581200Y-58632673D01*
X222532298Y-58763790D01*
X222532296Y-58763797D01*
X222530909Y-58767517D01*
X222530909Y-58767518D01*
X222530908Y-58767520D01*
X222527335Y-58800757D01*
X222524500Y-58827127D01*
X205186286Y-58827127D01*
X205186286Y-56991192D01*
X205191307Y-56956265D01*
X205193855Y-56947585D01*
X205194493Y-56945410D01*
X205232263Y-56886631D01*
X205295817Y-56857602D01*
X205364972Y-56867540D01*
X205371958Y-56870730D01*
X205408128Y-56895843D01*
X205430004Y-56917719D01*
X205430011Y-56917725D01*
X205430014Y-56917727D01*
X205430018Y-56917731D01*
X205592936Y-57042741D01*
X205627659Y-57069385D01*
X205843409Y-57193948D01*
X205843424Y-57193955D01*
X205843435Y-57193959D01*
X205843436Y-57193960D01*
X205938896Y-57233501D01*
X205938897Y-57233501D01*
X206073579Y-57289288D01*
X206314221Y-57353768D01*
X206561221Y-57386286D01*
X206561228Y-57386286D01*
X206810344Y-57386286D01*
X206810351Y-57386286D01*
X207057351Y-57353768D01*
X207297993Y-57289288D01*
X207528159Y-57193950D01*
X207743913Y-57069385D01*
X207941562Y-56917724D01*
X208117724Y-56741562D01*
X208269385Y-56543913D01*
X208393950Y-56328159D01*
X208489288Y-56097993D01*
X208553768Y-55857351D01*
X208586286Y-55610351D01*
X208586286Y-55376671D01*
X221000000Y-55376671D01*
X221000000Y-55650000D01*
X221544805Y-55650000D01*
X221611844Y-55669685D01*
X221657599Y-55722489D01*
X221667543Y-55791647D01*
X221664584Y-55806073D01*
X221650000Y-55860504D01*
X221650000Y-55939496D01*
X221664579Y-55993910D01*
X221662917Y-56063756D01*
X221623755Y-56121619D01*
X221559527Y-56149123D01*
X221544805Y-56150000D01*
X221000001Y-56150000D01*
X221000001Y-56423331D01*
X221010144Y-56522608D01*
X221063450Y-56683476D01*
X221063456Y-56683490D01*
X221063458Y-56683493D01*
X221152413Y-56827712D01*
X221152420Y-56827722D01*
X221152424Y-56827728D01*
X221152427Y-56827732D01*
X221152429Y-56827734D01*
X221152431Y-56827737D01*
X221272261Y-56947567D01*
X221272264Y-56947569D01*
X221272267Y-56947572D01*
X221272271Y-56947575D01*
X221272279Y-56947580D01*
X221272286Y-56947585D01*
X221314079Y-56973363D01*
X221416507Y-57036542D01*
X221416518Y-57036547D01*
X221577393Y-57089855D01*
X221676683Y-57099999D01*
X221700000Y-57099998D01*
X221700000Y-56305195D01*
X221719685Y-56238156D01*
X221772489Y-56192401D01*
X221841647Y-56182457D01*
X221856073Y-56185415D01*
X221910504Y-56200000D01*
X221989493Y-56200000D01*
X221989496Y-56200000D01*
X222043910Y-56185420D01*
X222113756Y-56187083D01*
X222171619Y-56226245D01*
X222199123Y-56290473D01*
X222200000Y-56305195D01*
X222200000Y-57099999D01*
X222223296Y-57099999D01*
X222223308Y-57099999D01*
X222223322Y-57099998D01*
X222322607Y-57089855D01*
X222483481Y-57036547D01*
X222483492Y-57036542D01*
X222627727Y-56947576D01*
X222713716Y-56861586D01*
X222741963Y-56840441D01*
X222755687Y-56832947D01*
X222763442Y-56831261D01*
X222823955Y-56818097D01*
X222837537Y-56819068D01*
X222876145Y-56828191D01*
X222975475Y-56869334D01*
X222979882Y-56871418D01*
X222981382Y-56871717D01*
X223126076Y-56900500D01*
X223273919Y-56900500D01*
X223273920Y-56900500D01*
X223326326Y-56890075D01*
X223378734Y-56879650D01*
X223418912Y-56871658D01*
X223555494Y-56815084D01*
X223678415Y-56732951D01*
X223724721Y-56686643D01*
X223752968Y-56665501D01*
X223766688Y-56658010D01*
X223834944Y-56643159D01*
X223836754Y-56643288D01*
X223894963Y-56662662D01*
X223901471Y-56666845D01*
X223922106Y-56683475D01*
X223971574Y-56732943D01*
X223971580Y-56732948D01*
X223971584Y-56732951D01*
X224094498Y-56815080D01*
X224094511Y-56815087D01*
X224231082Y-56871656D01*
X224231087Y-56871658D01*
X224231091Y-56871658D01*
X224231092Y-56871659D01*
X224231357Y-56871711D01*
X224231358Y-56871712D01*
X224231382Y-56871717D01*
X224376077Y-56900500D01*
X224523920Y-56900500D01*
X224523921Y-56900500D01*
X224576327Y-56890075D01*
X224628735Y-56879650D01*
X224668913Y-56871658D01*
X224805495Y-56815084D01*
X224928416Y-56732951D01*
X224974721Y-56686644D01*
X225002968Y-56665502D01*
X225016688Y-56658011D01*
X225084944Y-56643160D01*
X225086754Y-56643289D01*
X225144963Y-56662663D01*
X225151471Y-56666846D01*
X225172106Y-56683476D01*
X225221573Y-56732943D01*
X225221579Y-56732948D01*
X225221583Y-56732951D01*
X225344497Y-56815080D01*
X225344510Y-56815087D01*
X225481081Y-56871656D01*
X225481086Y-56871658D01*
X225481090Y-56871658D01*
X225481091Y-56871659D01*
X225481356Y-56871711D01*
X225481357Y-56871712D01*
X225481381Y-56871717D01*
X225626076Y-56900500D01*
X225773919Y-56900500D01*
X225773920Y-56900500D01*
X225826326Y-56890075D01*
X225878734Y-56879650D01*
X225918912Y-56871658D01*
X226055494Y-56815084D01*
X226178415Y-56732951D01*
X226224721Y-56686643D01*
X226252968Y-56665501D01*
X226266688Y-56658010D01*
X226334944Y-56643159D01*
X226336754Y-56643288D01*
X226394963Y-56662662D01*
X226401471Y-56666845D01*
X226422106Y-56683475D01*
X226471574Y-56732943D01*
X226471580Y-56732948D01*
X226471584Y-56732951D01*
X226594498Y-56815080D01*
X226594511Y-56815087D01*
X226731082Y-56871656D01*
X226731087Y-56871658D01*
X226731091Y-56871658D01*
X226731092Y-56871659D01*
X226731357Y-56871711D01*
X226731358Y-56871712D01*
X226731382Y-56871717D01*
X226876077Y-56900500D01*
X227023920Y-56900500D01*
X227023921Y-56900500D01*
X227076327Y-56890075D01*
X227128735Y-56879650D01*
X227168913Y-56871658D01*
X227305495Y-56815084D01*
X227428416Y-56732951D01*
X227474721Y-56686644D01*
X227502968Y-56665502D01*
X227516688Y-56658011D01*
X227584944Y-56643160D01*
X227586754Y-56643289D01*
X227644963Y-56662663D01*
X227651471Y-56666846D01*
X227672106Y-56683476D01*
X227721573Y-56732943D01*
X227721579Y-56732948D01*
X227721583Y-56732951D01*
X227844497Y-56815080D01*
X227844510Y-56815087D01*
X227981081Y-56871656D01*
X227981086Y-56871658D01*
X227981090Y-56871658D01*
X227981091Y-56871659D01*
X227981356Y-56871711D01*
X227981357Y-56871712D01*
X227981381Y-56871717D01*
X228126076Y-56900500D01*
X228273919Y-56900500D01*
X228273920Y-56900500D01*
X228326326Y-56890075D01*
X228378734Y-56879650D01*
X228418912Y-56871658D01*
X228555494Y-56815084D01*
X228678415Y-56732951D01*
X228724721Y-56686643D01*
X228752968Y-56665501D01*
X228766688Y-56658010D01*
X228834944Y-56643159D01*
X228836754Y-56643288D01*
X228894963Y-56662662D01*
X228901471Y-56666845D01*
X228922106Y-56683475D01*
X228971574Y-56732943D01*
X228971580Y-56732948D01*
X228971584Y-56732951D01*
X229094498Y-56815080D01*
X229094511Y-56815087D01*
X229231082Y-56871656D01*
X229231087Y-56871658D01*
X229231091Y-56871658D01*
X229231092Y-56871659D01*
X229231357Y-56871711D01*
X229231358Y-56871712D01*
X229231382Y-56871717D01*
X229376077Y-56900500D01*
X229523920Y-56900500D01*
X229523921Y-56900500D01*
X229576327Y-56890075D01*
X229628735Y-56879650D01*
X229668913Y-56871658D01*
X229805495Y-56815084D01*
X229928416Y-56732951D01*
X230032951Y-56628416D01*
X230115084Y-56505495D01*
X230171658Y-56368913D01*
X230177035Y-56341876D01*
X230181096Y-56321465D01*
X230181096Y-56321462D01*
X230200500Y-56223920D01*
X230200500Y-55576079D01*
X230200500Y-55576076D01*
X230171419Y-55429884D01*
X230169332Y-55425471D01*
X230149121Y-55376677D01*
X230115090Y-55294517D01*
X230115085Y-55294508D01*
X230115080Y-55294498D01*
X230032951Y-55171584D01*
X230032948Y-55171580D01*
X230032943Y-55171574D01*
X229928424Y-55067055D01*
X229928418Y-55067050D01*
X229928417Y-55067049D01*
X229811393Y-54988856D01*
X237514500Y-54988856D01*
X237514500Y-55571144D01*
X237519208Y-55610351D01*
X237524640Y-55655588D01*
X237555172Y-55733011D01*
X237577636Y-55789976D01*
X237664920Y-55905078D01*
X237730296Y-55954654D01*
X237780023Y-55992363D01*
X237780024Y-55992363D01*
X237780244Y-55992530D01*
X237782965Y-55993524D01*
X237853738Y-56021433D01*
X237914410Y-56045359D01*
X237998856Y-56055500D01*
X237998862Y-56055500D01*
X238531144Y-56055500D01*
X238531145Y-56055500D01*
X238552255Y-56052964D01*
X238615590Y-56045359D01*
X238615598Y-56045356D01*
X238663422Y-56026496D01*
X238697759Y-56018351D01*
X238711587Y-56017103D01*
X238780123Y-56030679D01*
X238830436Y-56079147D01*
X238833200Y-56083991D01*
X238845761Y-56131350D01*
X238848439Y-56130998D01*
X238849499Y-56139054D01*
X238872239Y-56223918D01*
X238890423Y-56291783D01*
X238890424Y-56291787D01*
X238890425Y-56291788D01*
X238890428Y-56291793D01*
X238966623Y-56423771D01*
X238966638Y-56423795D01*
X238969475Y-56428709D01*
X238969479Y-56428714D01*
X238969480Y-56428716D01*
X238970049Y-56429285D01*
X239081287Y-56540523D01*
X239081969Y-56541014D01*
X239084475Y-56542363D01*
X239218209Y-56619573D01*
X239218216Y-56619577D01*
X239370943Y-56660500D01*
X239370945Y-56660500D01*
X239529055Y-56660500D01*
X239529057Y-56660500D01*
X239681784Y-56619577D01*
X239818716Y-56540520D01*
X239930520Y-56428716D01*
X240009577Y-56291784D01*
X240050500Y-56139057D01*
X240050500Y-55980943D01*
X240009577Y-55828216D01*
X240009573Y-55828209D01*
X239930524Y-55691290D01*
X239930518Y-55691282D01*
X239930514Y-55691278D01*
X239930514Y-55691277D01*
X239897108Y-55657872D01*
X239879191Y-55635192D01*
X239867955Y-55616939D01*
X239853056Y-55575001D01*
X239852604Y-55575123D01*
X239851084Y-55569451D01*
X239850613Y-55568125D01*
X239850501Y-55567274D01*
X239849046Y-55561843D01*
X239823207Y-55465413D01*
X239805410Y-55434588D01*
X239770480Y-55374087D01*
X239695913Y-55299520D01*
X239695911Y-55299518D01*
X239355913Y-54959520D01*
X239345119Y-54953288D01*
X239310250Y-54933155D01*
X239310250Y-54933156D01*
X239264589Y-54906793D01*
X239213657Y-54893146D01*
X239213656Y-54893145D01*
X239162730Y-54879500D01*
X239162727Y-54879500D01*
X239162726Y-54879500D01*
X239097760Y-54879500D01*
X239097755Y-54879499D01*
X239097753Y-54879500D01*
X239062819Y-54874475D01*
X239047820Y-54870070D01*
X238989054Y-54832305D01*
X238985209Y-54827868D01*
X238980669Y-54822629D01*
X238959022Y-54786908D01*
X238953530Y-54772980D01*
X238952531Y-54770245D01*
X238865078Y-54654920D01*
X238749977Y-54567636D01*
X238615586Y-54514639D01*
X238572242Y-54509435D01*
X238572242Y-54509434D01*
X238544476Y-54506100D01*
X238531144Y-54504500D01*
X238531140Y-54504500D01*
X237998860Y-54504500D01*
X237998856Y-54504500D01*
X237988245Y-54505774D01*
X237960839Y-54509064D01*
X237960840Y-54509065D01*
X237914412Y-54514639D01*
X237780021Y-54567636D01*
X237664920Y-54654920D01*
X237577636Y-54770021D01*
X237524639Y-54904412D01*
X237519065Y-54950840D01*
X237519065Y-54950841D01*
X237514500Y-54988856D01*
X229811393Y-54988856D01*
X229805507Y-54984923D01*
X229805506Y-54984922D01*
X229805501Y-54984919D01*
X229805488Y-54984912D01*
X229805481Y-54984908D01*
X229668919Y-54928344D01*
X229668920Y-54928344D01*
X229668917Y-54928343D01*
X229668907Y-54928340D01*
X229668905Y-54928339D01*
X229668900Y-54928338D01*
X229523922Y-54899500D01*
X229523920Y-54899500D01*
X229523918Y-54899500D01*
X229376082Y-54899500D01*
X229376080Y-54899500D01*
X229376078Y-54899500D01*
X229231096Y-54928338D01*
X229231079Y-54928344D01*
X229094517Y-54984908D01*
X229094508Y-54984913D01*
X229094491Y-54984923D01*
X228971583Y-55067047D01*
X228925288Y-55113342D01*
X228925287Y-55113345D01*
X228897032Y-55134496D01*
X228883313Y-55141987D01*
X228815057Y-55156839D01*
X228815040Y-55156837D01*
X228815040Y-55156838D01*
X228815039Y-55156837D01*
X228813250Y-55156710D01*
X228755037Y-55137338D01*
X228748527Y-55133154D01*
X228727888Y-55116521D01*
X228678422Y-55067054D01*
X228678417Y-55067050D01*
X228678416Y-55067049D01*
X228555506Y-54984923D01*
X228555505Y-54984922D01*
X228555500Y-54984919D01*
X228555487Y-54984912D01*
X228555480Y-54984908D01*
X228418918Y-54928344D01*
X228418919Y-54928344D01*
X228418916Y-54928343D01*
X228418906Y-54928340D01*
X228418904Y-54928339D01*
X228418899Y-54928338D01*
X228273921Y-54899500D01*
X228273919Y-54899500D01*
X228273917Y-54899500D01*
X228126081Y-54899500D01*
X228126079Y-54899500D01*
X228126077Y-54899500D01*
X227981095Y-54928338D01*
X227981078Y-54928344D01*
X227844516Y-54984908D01*
X227844507Y-54984913D01*
X227844490Y-54984923D01*
X227721582Y-55067047D01*
X227675288Y-55113341D01*
X227675287Y-55113344D01*
X227647032Y-55134495D01*
X227633313Y-55141986D01*
X227565057Y-55156838D01*
X227565040Y-55156836D01*
X227565040Y-55156837D01*
X227565039Y-55156836D01*
X227563250Y-55156709D01*
X227505037Y-55137337D01*
X227498527Y-55133153D01*
X227477888Y-55116520D01*
X227428423Y-55067054D01*
X227428418Y-55067050D01*
X227428417Y-55067049D01*
X227305507Y-54984923D01*
X227305506Y-54984922D01*
X227305501Y-54984919D01*
X227305488Y-54984912D01*
X227305481Y-54984908D01*
X227168919Y-54928344D01*
X227168920Y-54928344D01*
X227168917Y-54928343D01*
X227168907Y-54928340D01*
X227168905Y-54928339D01*
X227168900Y-54928338D01*
X227023922Y-54899500D01*
X227023920Y-54899500D01*
X227023918Y-54899500D01*
X226876082Y-54899500D01*
X226876080Y-54899500D01*
X226876078Y-54899500D01*
X226731096Y-54928338D01*
X226731079Y-54928344D01*
X226594517Y-54984908D01*
X226594508Y-54984913D01*
X226594491Y-54984923D01*
X226471583Y-55067047D01*
X226425288Y-55113342D01*
X226425287Y-55113345D01*
X226397032Y-55134496D01*
X226383313Y-55141987D01*
X226315057Y-55156839D01*
X226315040Y-55156837D01*
X226315040Y-55156838D01*
X226315039Y-55156837D01*
X226313250Y-55156710D01*
X226255037Y-55137338D01*
X226248527Y-55133154D01*
X226227888Y-55116521D01*
X226178422Y-55067054D01*
X226178417Y-55067050D01*
X226178416Y-55067049D01*
X226055506Y-54984923D01*
X226055505Y-54984922D01*
X226055500Y-54984919D01*
X226055487Y-54984912D01*
X226055480Y-54984908D01*
X225918918Y-54928344D01*
X225918919Y-54928344D01*
X225918916Y-54928343D01*
X225918906Y-54928340D01*
X225918904Y-54928339D01*
X225918899Y-54928338D01*
X225773921Y-54899500D01*
X225773919Y-54899500D01*
X225773917Y-54899500D01*
X225626081Y-54899500D01*
X225626079Y-54899500D01*
X225626077Y-54899500D01*
X225481095Y-54928338D01*
X225481078Y-54928344D01*
X225344516Y-54984908D01*
X225344507Y-54984913D01*
X225344490Y-54984923D01*
X225221582Y-55067047D01*
X225175288Y-55113341D01*
X225175287Y-55113344D01*
X225147032Y-55134495D01*
X225133313Y-55141986D01*
X225065057Y-55156838D01*
X225065040Y-55156836D01*
X225065040Y-55156837D01*
X225065039Y-55156836D01*
X225063250Y-55156709D01*
X225005037Y-55137337D01*
X224998527Y-55133153D01*
X224977888Y-55116520D01*
X224928423Y-55067054D01*
X224928418Y-55067050D01*
X224928417Y-55067049D01*
X224805507Y-54984923D01*
X224805506Y-54984922D01*
X224805501Y-54984919D01*
X224805488Y-54984912D01*
X224805481Y-54984908D01*
X224668919Y-54928344D01*
X224668920Y-54928344D01*
X224668917Y-54928343D01*
X224668907Y-54928340D01*
X224668905Y-54928339D01*
X224668900Y-54928338D01*
X224523922Y-54899500D01*
X224523920Y-54899500D01*
X224523918Y-54899500D01*
X224376082Y-54899500D01*
X224376080Y-54899500D01*
X224376078Y-54899500D01*
X224231096Y-54928338D01*
X224231079Y-54928344D01*
X224094517Y-54984908D01*
X224094508Y-54984913D01*
X224094491Y-54984923D01*
X223971583Y-55067047D01*
X223925288Y-55113342D01*
X223925287Y-55113345D01*
X223897032Y-55134496D01*
X223883313Y-55141987D01*
X223815057Y-55156839D01*
X223815040Y-55156837D01*
X223815040Y-55156838D01*
X223815039Y-55156837D01*
X223813250Y-55156710D01*
X223755037Y-55137338D01*
X223748527Y-55133154D01*
X223727888Y-55116521D01*
X223678422Y-55067054D01*
X223678417Y-55067050D01*
X223678416Y-55067049D01*
X223555506Y-54984923D01*
X223555505Y-54984922D01*
X223555500Y-54984919D01*
X223555487Y-54984912D01*
X223555480Y-54984908D01*
X223418918Y-54928344D01*
X223418919Y-54928344D01*
X223418916Y-54928343D01*
X223418906Y-54928340D01*
X223418904Y-54928339D01*
X223418899Y-54928338D01*
X223273921Y-54899500D01*
X223273919Y-54899500D01*
X223273917Y-54899500D01*
X223126081Y-54899500D01*
X223126079Y-54899500D01*
X223126076Y-54899500D01*
X222981096Y-54928338D01*
X222981089Y-54928340D01*
X222981075Y-54928346D01*
X222877921Y-54971072D01*
X222843725Y-54979799D01*
X222828183Y-54981470D01*
X222759424Y-54969065D01*
X222747243Y-54962967D01*
X222715074Y-54939769D01*
X222627732Y-54852427D01*
X222627728Y-54852424D01*
X222627725Y-54852422D01*
X222627712Y-54852413D01*
X222498931Y-54772980D01*
X222483492Y-54763457D01*
X222483490Y-54763456D01*
X222483476Y-54763449D01*
X222322604Y-54710143D01*
X222223327Y-54700000D01*
X222223322Y-54700000D01*
X222200000Y-54700000D01*
X222200000Y-55494804D01*
X222180315Y-55561843D01*
X222127511Y-55607598D01*
X222058353Y-55617542D01*
X222043908Y-55614579D01*
X221989497Y-55600000D01*
X221989496Y-55600000D01*
X221910504Y-55600000D01*
X221910502Y-55600000D01*
X221856092Y-55614579D01*
X221786242Y-55612916D01*
X221728380Y-55573752D01*
X221700877Y-55509524D01*
X221700000Y-55494804D01*
X221700000Y-54699999D01*
X221676705Y-54699999D01*
X221676686Y-54700000D01*
X221676685Y-54700000D01*
X221676661Y-54700002D01*
X221577394Y-54710143D01*
X221577393Y-54710143D01*
X221416522Y-54763449D01*
X221416508Y-54763456D01*
X221416505Y-54763458D01*
X221272286Y-54852413D01*
X221272264Y-54852429D01*
X221272261Y-54852431D01*
X221152431Y-54972261D01*
X221152429Y-54972264D01*
X221152413Y-54972286D01*
X221063458Y-55116505D01*
X221063456Y-55116508D01*
X221063451Y-55116520D01*
X221010143Y-55277394D01*
X221000000Y-55376671D01*
X208586286Y-55376671D01*
X208586286Y-55361221D01*
X208553768Y-55114221D01*
X208489288Y-54873579D01*
X208417389Y-54699999D01*
X208393955Y-54643424D01*
X208393948Y-54643409D01*
X208269385Y-54427659D01*
X208117731Y-54230018D01*
X208117727Y-54230014D01*
X208117725Y-54230011D01*
X208117719Y-54230004D01*
X208098289Y-54210574D01*
X208077140Y-54182324D01*
X208071718Y-54172394D01*
X208056865Y-54104124D01*
X208081279Y-54038659D01*
X208137209Y-53996787D01*
X208141088Y-53995340D01*
X208144424Y-53994097D01*
X208187738Y-53986286D01*
X243280381Y-53986286D01*
X243315318Y-53991310D01*
G37*
%TD.AperFunction*%
%TA.AperFunction,Conductor*%
G36*
X221320127Y-81754927D02*
G01*
X221326621Y-81761653D01*
X221344800Y-81785778D01*
X221356050Y-81805262D01*
X221356051Y-81805265D01*
X221379521Y-81845915D01*
X222715496Y-83181888D01*
X223167018Y-83633410D01*
X223167020Y-83633413D01*
X223241587Y-83707980D01*
X223262391Y-83719991D01*
X223332912Y-83760707D01*
X223434773Y-83788001D01*
X223434776Y-83788001D01*
X223458171Y-83788001D01*
X223493106Y-83793024D01*
X223508104Y-83797428D01*
X223566855Y-83835173D01*
X223566879Y-83835201D01*
X223566882Y-83835203D01*
X223566883Y-83835205D01*
X223568042Y-83836542D01*
X223595518Y-83891403D01*
X223597163Y-83898961D01*
X223600000Y-83925332D01*
X223600000Y-84187308D01*
X223580315Y-84254347D01*
X223572800Y-84264387D01*
X223572842Y-84264418D01*
X223570184Y-84267968D01*
X223532424Y-84326725D01*
X223532417Y-84326738D01*
X223496296Y-84405835D01*
X223491898Y-84420813D01*
X223491894Y-84420826D01*
X223482629Y-84463424D01*
X223477608Y-84498349D01*
X223474499Y-84541823D01*
X223474499Y-85445614D01*
X223476224Y-85478041D01*
X223476225Y-85478052D01*
X223479017Y-85504209D01*
X223484174Y-85536270D01*
X223484176Y-85536278D01*
X223485772Y-85543668D01*
X223485773Y-85543673D01*
X223510904Y-85615337D01*
X223510907Y-85615343D01*
X223538173Y-85670111D01*
X223580213Y-85733369D01*
X223580218Y-85733375D01*
X223580219Y-85733376D01*
X223580219Y-85733377D01*
X223581451Y-85734806D01*
X223581458Y-85734814D01*
X223647008Y-85791938D01*
X223705673Y-85829875D01*
X223784657Y-85866218D01*
X223799643Y-85870665D01*
X223842203Y-85880052D01*
X223842210Y-85880053D01*
X223877117Y-85885175D01*
X223882913Y-85885606D01*
X223920580Y-85888410D01*
X224209175Y-85889248D01*
X229676360Y-85905141D01*
X229743342Y-85925020D01*
X229788944Y-85977957D01*
X229790323Y-85984341D01*
X229800000Y-85999998D01*
X229800000Y-85999999D01*
X229800000Y-86000000D01*
X230286460Y-86243230D01*
X230337618Y-86290816D01*
X230355005Y-86354289D01*
X230354115Y-87082375D01*
X230360727Y-87145967D01*
X230371410Y-87196473D01*
X230381684Y-87233413D01*
X230381685Y-87233416D01*
X230408489Y-87280351D01*
X230419001Y-87298760D01*
X230419592Y-87299794D01*
X230435743Y-87367771D01*
X230412579Y-87433690D01*
X230357455Y-87476620D01*
X230311913Y-87485286D01*
X217351163Y-87485286D01*
X217284124Y-87465601D01*
X217238369Y-87412797D01*
X217228425Y-87343639D01*
X217257450Y-87280083D01*
X217295679Y-87250392D01*
X217339139Y-87228647D01*
X217339138Y-87228647D01*
X217339141Y-87228646D01*
X217402199Y-87186581D01*
X217403679Y-87185302D01*
X217460709Y-87119662D01*
X217498560Y-87060936D01*
X217534785Y-86981892D01*
X217539208Y-86966903D01*
X217548531Y-86924326D01*
X217553601Y-86889398D01*
X217554120Y-86868647D01*
X217556225Y-86848794D01*
X217556769Y-86845907D01*
X217560331Y-84111839D01*
X217580103Y-84044826D01*
X217632967Y-83999140D01*
X217684331Y-83988001D01*
X219405308Y-83988001D01*
X219405310Y-83988001D01*
X219539045Y-83969990D01*
X219602318Y-83952632D01*
X219726521Y-83899882D01*
X219838553Y-83809603D01*
X219886164Y-83758466D01*
X219886164Y-83758465D01*
X219886164Y-83758464D01*
X219890617Y-83753682D01*
X219894404Y-83746597D01*
X219968223Y-83640280D01*
X220013662Y-83503763D01*
X220026068Y-83435004D01*
X220026072Y-83434978D01*
X220027964Y-83381927D01*
X220032500Y-83368296D01*
X220032500Y-82490814D01*
X220036352Y-82460148D01*
X220037162Y-82456975D01*
X220039157Y-82449158D01*
X220049713Y-82396084D01*
X220049712Y-82252204D01*
X220039768Y-82183046D01*
X220039027Y-82180524D01*
X220033435Y-82161478D01*
X220013015Y-82091934D01*
X220013015Y-82022066D01*
X220050789Y-81963288D01*
X220114344Y-81934262D01*
X220131992Y-81933000D01*
X220899850Y-81933000D01*
X220899864Y-81933000D01*
X220899879Y-81932998D01*
X220899882Y-81932998D01*
X220899888Y-81932997D01*
X220900019Y-81932988D01*
X220900736Y-81932898D01*
X220924987Y-81930087D01*
X220924987Y-81930086D01*
X220924990Y-81930086D01*
X220924991Y-81930086D01*
X220924991Y-81930085D01*
X220925102Y-81930073D01*
X220926862Y-81929259D01*
X221027765Y-81884707D01*
X221107206Y-81805266D01*
X221109169Y-81800818D01*
X221127873Y-81770891D01*
X221134041Y-81763588D01*
X221136190Y-81761044D01*
X221194485Y-81722530D01*
X221264349Y-81721647D01*
X221320127Y-81754927D01*
G37*
%TD.AperFunction*%
%TA.AperFunction,Conductor*%
G36*
X238581024Y-77002815D02*
G01*
X238597151Y-77004763D01*
X238598511Y-77005129D01*
X238612185Y-77009144D01*
X238618644Y-77010549D01*
X238621548Y-77011331D01*
X238676906Y-77043336D01*
X238676987Y-77043380D01*
X238676992Y-77043385D01*
X238754818Y-77121211D01*
X238775967Y-77149461D01*
X238781388Y-77159388D01*
X238796242Y-77227661D01*
X238771828Y-77293126D01*
X238715896Y-77334999D01*
X238715892Y-77335001D01*
X238708704Y-77337682D01*
X238665370Y-77345500D01*
X238524016Y-77345500D01*
X238335772Y-77382944D01*
X238335742Y-77382951D01*
X238158406Y-77456404D01*
X238148490Y-77463031D01*
X238148488Y-77463032D01*
X238022410Y-77547276D01*
X237998786Y-77563061D01*
X237998783Y-77563063D01*
X237863060Y-77698786D01*
X237763255Y-77848153D01*
X237763209Y-77848223D01*
X237761061Y-77851439D01*
X237756403Y-77858410D01*
X237682951Y-78035742D01*
X237682944Y-78035772D01*
X237645500Y-78224014D01*
X237645500Y-78371613D01*
X237640237Y-78389533D01*
X237682944Y-78604226D01*
X237682951Y-78604256D01*
X237756404Y-78781590D01*
X237756406Y-78781594D01*
X237756407Y-78781595D01*
X237756409Y-78781599D01*
X237773322Y-78806910D01*
X237773323Y-78806912D01*
X237863057Y-78941208D01*
X237863058Y-78941209D01*
X237863063Y-78941215D01*
X237998783Y-79076935D01*
X237998789Y-79076940D01*
X237998793Y-79076943D01*
X238158401Y-79183591D01*
X238158404Y-79183592D01*
X238158405Y-79183593D01*
X238161246Y-79184770D01*
X238161520Y-79184921D01*
X238162453Y-79185270D01*
X238181401Y-79193118D01*
X238274649Y-79231742D01*
X238335749Y-79257050D01*
X238353787Y-79260638D01*
X238362402Y-79262351D01*
X238362403Y-79262352D01*
X238524015Y-79294500D01*
X238715982Y-79294500D01*
X238715983Y-79294500D01*
X238736231Y-79290472D01*
X238810758Y-79275647D01*
X238904251Y-79257050D01*
X239081599Y-79183591D01*
X239191799Y-79109956D01*
X239223624Y-79094732D01*
X239232804Y-79091858D01*
X239236627Y-79090662D01*
X239306485Y-79089419D01*
X239365926Y-79126143D01*
X239394596Y-79181553D01*
X239396424Y-79189607D01*
X239399500Y-79217053D01*
X239399500Y-79252730D01*
X239400659Y-79257051D01*
X239400662Y-79257063D01*
X239426791Y-79354587D01*
X239453155Y-79400249D01*
X239457622Y-79407986D01*
X239479520Y-79445913D01*
X239479522Y-79445915D01*
X240005821Y-79972214D01*
X240026969Y-80000466D01*
X240033621Y-80012649D01*
X240048471Y-80080922D01*
X240024055Y-80146383D01*
X240015742Y-80157488D01*
X240002892Y-80170353D01*
X240003723Y-80171185D01*
X239997451Y-80177456D01*
X239911205Y-80292665D01*
X239911201Y-80292671D01*
X239911200Y-80292673D01*
X239860911Y-80427507D01*
X239860908Y-80427520D01*
X239854501Y-80487116D01*
X239854500Y-80487135D01*
X239854500Y-80982876D01*
X239854659Y-80984806D01*
X239854885Y-80986454D01*
X239860907Y-81042482D01*
X239866170Y-81056592D01*
X239911202Y-81177328D01*
X239911206Y-81177335D01*
X239949229Y-81228127D01*
X239997450Y-81292542D01*
X239997456Y-81292548D01*
X240000721Y-81294992D01*
X240112664Y-81378793D01*
X240112671Y-81378797D01*
X240143669Y-81390358D01*
X240143670Y-81390359D01*
X240143671Y-81390359D01*
X240247517Y-81429091D01*
X240307127Y-81435500D01*
X240952872Y-81435499D01*
X241012483Y-81429091D01*
X241147331Y-81378796D01*
X241262546Y-81292546D01*
X241290086Y-81255756D01*
X241315029Y-81230815D01*
X241326148Y-81222491D01*
X241391610Y-81198079D01*
X241459881Y-81212932D01*
X241459883Y-81212933D01*
X241459884Y-81212934D01*
X241466705Y-81216659D01*
X241506538Y-81251174D01*
X241539339Y-81294989D01*
X241539340Y-81294992D01*
X241539341Y-81294992D01*
X241566509Y-81331284D01*
X241566519Y-81331297D01*
X241566518Y-81331297D01*
X241567282Y-81332316D01*
X241567455Y-81332547D01*
X241682664Y-81418793D01*
X241682671Y-81418797D01*
X241696401Y-81423918D01*
X241752336Y-81465786D01*
X241776756Y-81531249D01*
X241761907Y-81599523D01*
X241712504Y-81648930D01*
X241691493Y-81657999D01*
X241678595Y-81662202D01*
X241678588Y-81662204D01*
X241617266Y-81695689D01*
X241547670Y-81747789D01*
X241547657Y-81747800D01*
X241420294Y-81875164D01*
X241398440Y-81899493D01*
X241381775Y-81920174D01*
X241377448Y-81925672D01*
X241377447Y-81925674D01*
X241326560Y-82025752D01*
X241306877Y-82092783D01*
X241306876Y-82092790D01*
X241295541Y-82171626D01*
X241294500Y-82178864D01*
X241294500Y-84348638D01*
X241296250Y-84381281D01*
X241296254Y-84381334D01*
X241299081Y-84407625D01*
X241299085Y-84407655D01*
X241299920Y-84414660D01*
X241302553Y-84422741D01*
X241334700Y-84521401D01*
X241334704Y-84521411D01*
X241368189Y-84582733D01*
X241420289Y-84652329D01*
X241420295Y-84652336D01*
X241420298Y-84652340D01*
X241547660Y-84779702D01*
X241571992Y-84801558D01*
X241592634Y-84818192D01*
X241592684Y-84818232D01*
X241597693Y-84822172D01*
X241598199Y-84822571D01*
X241598205Y-84822574D01*
X241603340Y-84825855D01*
X241603234Y-84826019D01*
X241608903Y-84829431D01*
X241618767Y-84836372D01*
X241623545Y-84839734D01*
X241672859Y-84860525D01*
X241698280Y-84873448D01*
X241700876Y-84874210D01*
X241701365Y-84872543D01*
X241726997Y-84883350D01*
X241742010Y-84886615D01*
X241750556Y-84888797D01*
X241765290Y-84893124D01*
X241851362Y-84905500D01*
X242175333Y-84905500D01*
X242175335Y-84905500D01*
X242234935Y-84899630D01*
X242282388Y-84890191D01*
X242339698Y-84872806D01*
X242635544Y-84750262D01*
X242688363Y-84722029D01*
X242688370Y-84722024D01*
X242688374Y-84722022D01*
X242716867Y-84702983D01*
X242728591Y-84695149D01*
X242774883Y-84657158D01*
X243193304Y-84238736D01*
X243219640Y-84208708D01*
X243228295Y-84197428D01*
X243238977Y-84185248D01*
X243285249Y-84138977D01*
X243297430Y-84128294D01*
X243308700Y-84119647D01*
X243338729Y-84093312D01*
X243356661Y-84075381D01*
X243390223Y-84041819D01*
X243451546Y-84008334D01*
X243477904Y-84005500D01*
X243976980Y-84005500D01*
X244044019Y-84025185D01*
X244089774Y-84077989D01*
X244099718Y-84147147D01*
X244070693Y-84210703D01*
X244024433Y-84244061D01*
X243943428Y-84277613D01*
X243943423Y-84277616D01*
X243943416Y-84277619D01*
X243943409Y-84277623D01*
X243943396Y-84277629D01*
X243943395Y-84277631D01*
X243727659Y-84402185D01*
X243530018Y-84553839D01*
X243530003Y-84553853D01*
X243529995Y-84553860D01*
X243353860Y-84729995D01*
X243353853Y-84730003D01*
X243353839Y-84730018D01*
X243202185Y-84927659D01*
X243180490Y-84965237D01*
X243077623Y-85143409D01*
X243077621Y-85143413D01*
X243077616Y-85143423D01*
X243077610Y-85143436D01*
X242982285Y-85373572D01*
X242917802Y-85614225D01*
X242885287Y-85861203D01*
X242885286Y-85861232D01*
X242885286Y-86110338D01*
X242885287Y-86110367D01*
X242917802Y-86357345D01*
X242982285Y-86597998D01*
X243077610Y-86828134D01*
X243077616Y-86828147D01*
X243077623Y-86828162D01*
X243096160Y-86860269D01*
X243202185Y-87043911D01*
X243353839Y-87241552D01*
X243353843Y-87241557D01*
X243353846Y-87241560D01*
X243353852Y-87241567D01*
X243353860Y-87241575D01*
X243373282Y-87260997D01*
X243391934Y-87285912D01*
X243394431Y-87289247D01*
X243399852Y-87299174D01*
X243414706Y-87367447D01*
X243390292Y-87432912D01*
X243334360Y-87474785D01*
X243334356Y-87474787D01*
X243327168Y-87477468D01*
X243283834Y-87485286D01*
X232338596Y-87485286D01*
X232271557Y-87465601D01*
X232225802Y-87412797D01*
X232215858Y-87343639D01*
X232227970Y-87305269D01*
X232231266Y-87298760D01*
X232257748Y-87246461D01*
X232277320Y-87179389D01*
X232289551Y-87093297D01*
X232287605Y-85936379D01*
X232297357Y-85902959D01*
X232307165Y-85869327D01*
X232307173Y-85869319D01*
X232307177Y-85869308D01*
X232334006Y-85845981D01*
X232359883Y-85823474D01*
X232359897Y-85823469D01*
X232359904Y-85823464D01*
X232393729Y-85813467D01*
X232396941Y-85812999D01*
X232396948Y-85812999D01*
X232396950Y-85812999D01*
X232432362Y-85807840D01*
X232449935Y-85805280D01*
X232467505Y-85802721D01*
X232467506Y-85802720D01*
X232467509Y-85802720D01*
X232576347Y-85749512D01*
X232662012Y-85663847D01*
X232715220Y-85555009D01*
X232725500Y-85484449D01*
X232725499Y-84843547D01*
X232730521Y-84808615D01*
X232731035Y-84806865D01*
X232733708Y-84797762D01*
X232771481Y-84738985D01*
X232835036Y-84709959D01*
X232904192Y-84719901D01*
X232911176Y-84723090D01*
X232947340Y-84748201D01*
X232948649Y-84749510D01*
X233057070Y-84802515D01*
X233057071Y-84802515D01*
X233057488Y-84802719D01*
X233058206Y-84803070D01*
X233061249Y-84803642D01*
X233066370Y-84804013D01*
X233128051Y-84813000D01*
X233896948Y-84812999D01*
X233959299Y-84803915D01*
X233976507Y-84802624D01*
X233982190Y-84802594D01*
X233988150Y-84804310D01*
X233994497Y-84804646D01*
X233994610Y-84803856D01*
X233996953Y-84804189D01*
X233996870Y-84804772D01*
X234009203Y-84805426D01*
X234015820Y-84806866D01*
X234017980Y-84807172D01*
X234031796Y-84812872D01*
X234043777Y-84813718D01*
X234074770Y-84830603D01*
X234075284Y-84830987D01*
X234088751Y-84842645D01*
X234100573Y-84854467D01*
X234121723Y-84882719D01*
X234134331Y-84905808D01*
X234149500Y-84965237D01*
X234149500Y-85360377D01*
X234149659Y-85362307D01*
X234149885Y-85363955D01*
X234155907Y-85419983D01*
X234165467Y-85445614D01*
X234206202Y-85554829D01*
X234206206Y-85554836D01*
X234249086Y-85612117D01*
X234292450Y-85670043D01*
X234292456Y-85670049D01*
X234321419Y-85691730D01*
X234407664Y-85756294D01*
X234407671Y-85756298D01*
X234452618Y-85773062D01*
X234542517Y-85806592D01*
X234602127Y-85813001D01*
X235247872Y-85813000D01*
X235307483Y-85806592D01*
X235345005Y-85792596D01*
X235414695Y-85787611D01*
X235476019Y-85821095D01*
X235509505Y-85882418D01*
X235512339Y-85908778D01*
X235512339Y-86228729D01*
X235512340Y-86228754D01*
X235518841Y-86291434D01*
X235529293Y-86341271D01*
X235539216Y-86377395D01*
X235594441Y-86475145D01*
X235639395Y-86528619D01*
X235639404Y-86528629D01*
X235683498Y-86571467D01*
X235683500Y-86571468D01*
X235683503Y-86571471D01*
X235782809Y-86623846D01*
X235849547Y-86644530D01*
X235849553Y-86644531D01*
X235849558Y-86644532D01*
X235922186Y-86656084D01*
X235935420Y-86658190D01*
X236368657Y-86664666D01*
X237235123Y-86677618D01*
X237235124Y-86677617D01*
X237235133Y-86677618D01*
X237300166Y-86671608D01*
X237351839Y-86661174D01*
X237390210Y-86650788D01*
X237487960Y-86595563D01*
X237541442Y-86550602D01*
X237584285Y-86506502D01*
X237636660Y-86407196D01*
X237657344Y-86340458D01*
X237671004Y-86254585D01*
X237716378Y-83218788D01*
X237737062Y-83152053D01*
X237790544Y-83107092D01*
X237859843Y-83098184D01*
X237914675Y-83121377D01*
X237976318Y-83167523D01*
X237976325Y-83167527D01*
X238021272Y-83184291D01*
X238111171Y-83217821D01*
X238170781Y-83224230D01*
X238816526Y-83224229D01*
X238876137Y-83217821D01*
X239010985Y-83167526D01*
X239126200Y-83081276D01*
X239212450Y-82966061D01*
X239262745Y-82831213D01*
X239269154Y-82771603D01*
X239269153Y-82275858D01*
X239262745Y-82216247D01*
X239262530Y-82215669D01*
X239249421Y-82180523D01*
X239249421Y-82180522D01*
X239212452Y-82081403D01*
X239212451Y-82081401D01*
X239212447Y-82081394D01*
X239133365Y-81975755D01*
X239126202Y-81966186D01*
X239126196Y-81966180D01*
X239057001Y-81914381D01*
X239010989Y-81879936D01*
X239010985Y-81879934D01*
X239010981Y-81879931D01*
X239010979Y-81879930D01*
X238886308Y-81833432D01*
X238886305Y-81833431D01*
X238876140Y-81829640D01*
X238876139Y-81829639D01*
X238876137Y-81829639D01*
X238862675Y-81828191D01*
X238862668Y-81828190D01*
X238816537Y-81823231D01*
X238816535Y-81823230D01*
X238816527Y-81823230D01*
X238816519Y-81823230D01*
X238170777Y-81823230D01*
X238167527Y-81823498D01*
X238167199Y-81823615D01*
X238111170Y-81829638D01*
X237976331Y-81879930D01*
X237976320Y-81879934D01*
X237976319Y-81879935D01*
X237861111Y-81966180D01*
X237854842Y-81972450D01*
X237853767Y-81971375D01*
X237805680Y-82007364D01*
X237735987Y-82012340D01*
X237674669Y-81978847D01*
X237655326Y-81953782D01*
X237637514Y-81923326D01*
X237591759Y-81870522D01*
X237547023Y-81828342D01*
X237446946Y-81777456D01*
X237446944Y-81777455D01*
X237446938Y-81777453D01*
X237379915Y-81757774D01*
X237379910Y-81757772D01*
X237379907Y-81757772D01*
X237379904Y-81757771D01*
X237379897Y-81757770D01*
X237293839Y-81745398D01*
X236541841Y-81745398D01*
X236541825Y-81745399D01*
X236476891Y-81752381D01*
X236476884Y-81752382D01*
X236425375Y-81763588D01*
X236387183Y-81774542D01*
X236387176Y-81774545D01*
X236290267Y-81831222D01*
X236290264Y-81831224D01*
X236237459Y-81876980D01*
X236237448Y-81876990D01*
X236195283Y-81921710D01*
X236195280Y-81921714D01*
X236144396Y-82021790D01*
X236144396Y-82021791D01*
X236131954Y-82064164D01*
X236094179Y-82122942D01*
X236030623Y-82151966D01*
X236012977Y-82153228D01*
X234431040Y-82153228D01*
X234329183Y-82180519D01*
X234237858Y-82233247D01*
X234237855Y-82233249D01*
X234051443Y-82419661D01*
X234051441Y-82419662D01*
X234051440Y-82419665D01*
X234023184Y-82440815D01*
X234003277Y-82451684D01*
X233948198Y-82466773D01*
X233944542Y-82466901D01*
X233944459Y-82466903D01*
X233935546Y-82466414D01*
X233935004Y-82466533D01*
X233934539Y-82466359D01*
X233922242Y-82465685D01*
X233896949Y-82462000D01*
X233896946Y-82462000D01*
X233367329Y-82462000D01*
X233367324Y-82461999D01*
X233367322Y-82462000D01*
X233332388Y-82456975D01*
X233317389Y-82452570D01*
X233258643Y-82414827D01*
X233258614Y-82414793D01*
X233258613Y-82414793D01*
X233258612Y-82414791D01*
X233257456Y-82413458D01*
X233229976Y-82358583D01*
X233228331Y-82351021D01*
X233225499Y-82324668D01*
X233225499Y-81801847D01*
X233228325Y-81775527D01*
X233228962Y-81772596D01*
X233232787Y-81755011D01*
X233234456Y-81747300D01*
X233250789Y-81717365D01*
X233267849Y-81686040D01*
X233346968Y-81606922D01*
X233375221Y-81585774D01*
X233398312Y-81573166D01*
X233457737Y-81557999D01*
X233871138Y-81557999D01*
X233871144Y-81557999D01*
X233955590Y-81547858D01*
X234089975Y-81494863D01*
X234205078Y-81407577D01*
X234292364Y-81292474D01*
X234345359Y-81158089D01*
X234355500Y-81073643D01*
X234355500Y-80491355D01*
X234351372Y-80456981D01*
X234352192Y-80421709D01*
X234354568Y-80407538D01*
X234385062Y-80344677D01*
X234443320Y-80308661D01*
X234455918Y-80305120D01*
X234489455Y-80300500D01*
X237627257Y-80300500D01*
X237662189Y-80305521D01*
X237675508Y-80309432D01*
X237690505Y-80319070D01*
X237707611Y-80324093D01*
X237719286Y-80337566D01*
X237734286Y-80347206D01*
X237741692Y-80363423D01*
X237753367Y-80376896D01*
X237763311Y-80410760D01*
X237764161Y-80416671D01*
X237757606Y-80477654D01*
X237745641Y-80509734D01*
X237724563Y-80566245D01*
X237724562Y-80566250D01*
X237718155Y-80625846D01*
X237718155Y-80625853D01*
X237718154Y-80625865D01*
X237718154Y-81121606D01*
X237718313Y-81123536D01*
X237718539Y-81125184D01*
X237724561Y-81181212D01*
X237750656Y-81251174D01*
X237774856Y-81316058D01*
X237774860Y-81316065D01*
X237787198Y-81332546D01*
X237861104Y-81431272D01*
X237861106Y-81431274D01*
X237861109Y-81431277D01*
X237976318Y-81517523D01*
X237976325Y-81517527D01*
X238002751Y-81527383D01*
X238111171Y-81567821D01*
X238170781Y-81574230D01*
X238816526Y-81574229D01*
X238876137Y-81567821D01*
X239010985Y-81517526D01*
X239126200Y-81431276D01*
X239212450Y-81316061D01*
X239262745Y-81181213D01*
X239269154Y-81121603D01*
X239269153Y-80625858D01*
X239262745Y-80566247D01*
X239262744Y-80566245D01*
X239241677Y-80509762D01*
X239241667Y-80509735D01*
X239212451Y-80431401D01*
X239212447Y-80431394D01*
X239142207Y-80337566D01*
X239126202Y-80316186D01*
X239126199Y-80316183D01*
X239126187Y-80316173D01*
X239010998Y-80229942D01*
X239010992Y-80229938D01*
X239010989Y-80229936D01*
X239010980Y-80229931D01*
X238876132Y-80179637D01*
X238876131Y-80179636D01*
X238875987Y-80179583D01*
X238858933Y-80171702D01*
X238826887Y-80153829D01*
X238799612Y-80133219D01*
X238245915Y-79579522D01*
X238245913Y-79579520D01*
X238228532Y-79569485D01*
X238200250Y-79553155D01*
X238200250Y-79553156D01*
X238154589Y-79526793D01*
X238103657Y-79513146D01*
X238103656Y-79513145D01*
X238052730Y-79499500D01*
X238052727Y-79499500D01*
X236418770Y-79499500D01*
X236418764Y-79499499D01*
X236418762Y-79499500D01*
X236383828Y-79494475D01*
X236377706Y-79492677D01*
X236318930Y-79454899D01*
X236289909Y-79391341D01*
X236299857Y-79322183D01*
X236345138Y-79269690D01*
X236355716Y-79262824D01*
X236375767Y-79252280D01*
X236436773Y-79227011D01*
X236541599Y-79183591D01*
X236701207Y-79076943D01*
X236836943Y-78941207D01*
X236943591Y-78781599D01*
X237017050Y-78604251D01*
X237017050Y-78604246D01*
X237017052Y-78604243D01*
X237041345Y-78482115D01*
X237041345Y-78482113D01*
X237054500Y-78415983D01*
X237054500Y-78224014D01*
X237031629Y-78109041D01*
X237017051Y-78035755D01*
X237017050Y-78035749D01*
X236970720Y-77923896D01*
X236945265Y-77862441D01*
X236943968Y-77858966D01*
X236943591Y-77858402D01*
X236943591Y-77858401D01*
X236836943Y-77698793D01*
X236836940Y-77698789D01*
X236836935Y-77698783D01*
X236701212Y-77563060D01*
X236701207Y-77563057D01*
X236677589Y-77547276D01*
X236648485Y-77527829D01*
X236541599Y-77456409D01*
X236541596Y-77456407D01*
X236541200Y-77456143D01*
X236541195Y-77456140D01*
X236540555Y-77455713D01*
X236535939Y-77454063D01*
X236364256Y-77382951D01*
X236364252Y-77382950D01*
X236364244Y-77382948D01*
X236364238Y-77382946D01*
X236364226Y-77382944D01*
X236175984Y-77345500D01*
X236175982Y-77345500D01*
X236175980Y-77345500D01*
X235984020Y-77345500D01*
X235984018Y-77345500D01*
X235984016Y-77345500D01*
X235795772Y-77382944D01*
X235795742Y-77382951D01*
X235618406Y-77456404D01*
X235608490Y-77463031D01*
X235608488Y-77463032D01*
X235482410Y-77547276D01*
X235458786Y-77563061D01*
X235458783Y-77563063D01*
X235323060Y-77698786D01*
X235223255Y-77848153D01*
X235223209Y-77848223D01*
X235221061Y-77851439D01*
X235216403Y-77858410D01*
X235142951Y-78035742D01*
X235142944Y-78035772D01*
X235105500Y-78224014D01*
X235105500Y-78371613D01*
X235100237Y-78389533D01*
X235142944Y-78604226D01*
X235142951Y-78604256D01*
X235216404Y-78781590D01*
X235216406Y-78781594D01*
X235216407Y-78781595D01*
X235216409Y-78781599D01*
X235233322Y-78806910D01*
X235233323Y-78806912D01*
X235323057Y-78941208D01*
X235323058Y-78941209D01*
X235323063Y-78941215D01*
X235458783Y-79076935D01*
X235458789Y-79076940D01*
X235458793Y-79076943D01*
X235618401Y-79183591D01*
X235618404Y-79183592D01*
X235618405Y-79183593D01*
X235621246Y-79184770D01*
X235621520Y-79184921D01*
X235622453Y-79185270D01*
X235641401Y-79193118D01*
X235734649Y-79231742D01*
X235783991Y-79252180D01*
X235804499Y-79263025D01*
X235815311Y-79270113D01*
X235835098Y-79293368D01*
X235838383Y-79296015D01*
X235839046Y-79298008D01*
X235860588Y-79323326D01*
X235869908Y-79392571D01*
X235840311Y-79455863D01*
X235781743Y-79492949D01*
X235775923Y-79494630D01*
X235741514Y-79499500D01*
X233878770Y-79499500D01*
X233878764Y-79499499D01*
X233878762Y-79499500D01*
X233843828Y-79494475D01*
X233837706Y-79492677D01*
X233778930Y-79454899D01*
X233749909Y-79391341D01*
X233759857Y-79322183D01*
X233805138Y-79269690D01*
X233815716Y-79262824D01*
X233835767Y-79252280D01*
X233896773Y-79227011D01*
X234001599Y-79183591D01*
X234161207Y-79076943D01*
X234296943Y-78941207D01*
X234403591Y-78781599D01*
X234477050Y-78604251D01*
X234477050Y-78604246D01*
X234477052Y-78604243D01*
X234501345Y-78482115D01*
X234501345Y-78482113D01*
X234514500Y-78415983D01*
X234514500Y-78224014D01*
X234491629Y-78109041D01*
X234477051Y-78035755D01*
X234477050Y-78035749D01*
X234430720Y-77923896D01*
X234405265Y-77862441D01*
X234403968Y-77858966D01*
X234403591Y-77858402D01*
X234403591Y-77858401D01*
X234296943Y-77698793D01*
X234296940Y-77698789D01*
X234296935Y-77698783D01*
X234161209Y-77563057D01*
X234147073Y-77553612D01*
X234131045Y-77539215D01*
X234120817Y-77530027D01*
X234111920Y-77519381D01*
X234084035Y-77455318D01*
X234095210Y-77386351D01*
X234097243Y-77382101D01*
X234099963Y-77376415D01*
X234124136Y-77342254D01*
X234416969Y-77049422D01*
X234445224Y-77028272D01*
X234468312Y-77015666D01*
X234527735Y-77000500D01*
X238564916Y-77000500D01*
X238581024Y-77002815D01*
G37*
%TD.AperFunction*%
%TA.AperFunction,Conductor*%
G36*
X231590723Y-82859985D02*
G01*
X231594369Y-82861055D01*
X231613911Y-82868636D01*
X231632491Y-82877720D01*
X231703051Y-82888000D01*
X231896948Y-82887999D01*
X231896950Y-82887999D01*
X231925172Y-82883887D01*
X231967509Y-82877720D01*
X231979522Y-82871846D01*
X232013109Y-82861016D01*
X232019432Y-82859936D01*
X232036128Y-82857085D01*
X232091928Y-82860335D01*
X232094370Y-82861052D01*
X232104866Y-82865125D01*
X232105522Y-82865202D01*
X232105932Y-82865538D01*
X232113896Y-82868629D01*
X232132491Y-82877720D01*
X232203051Y-82888000D01*
X232396948Y-82887999D01*
X232396950Y-82887999D01*
X232425172Y-82883887D01*
X232467509Y-82877720D01*
X232479520Y-82871847D01*
X232508964Y-82861796D01*
X232511016Y-82861373D01*
X232521717Y-82859546D01*
X232525028Y-82858486D01*
X232531496Y-82857154D01*
X232559962Y-82859505D01*
X232588526Y-82858805D01*
X232599025Y-82862732D01*
X232601129Y-82862906D01*
X232602693Y-82864104D01*
X232610978Y-82867203D01*
X232615914Y-82869616D01*
X232632488Y-82877718D01*
X232632488Y-82877719D01*
X232632489Y-82877719D01*
X232632491Y-82877720D01*
X232683050Y-82885085D01*
X232690748Y-82887807D01*
X232695773Y-82887625D01*
X232724927Y-82899890D01*
X232728388Y-82901114D01*
X232729070Y-82901518D01*
X232733811Y-82904406D01*
X232734397Y-82904675D01*
X232737563Y-82906551D01*
X232759491Y-82930077D01*
X232778828Y-82948977D01*
X232779869Y-82948311D01*
X232782614Y-82952600D01*
X232782905Y-82953293D01*
X232783598Y-82954530D01*
X232783457Y-82954608D01*
X232784358Y-82956757D01*
X232785202Y-82957662D01*
X232785553Y-82959604D01*
X232789920Y-82970011D01*
X232790703Y-82969631D01*
X232791772Y-82971830D01*
X232794764Y-82981552D01*
X232799039Y-82991739D01*
X232800048Y-82996141D01*
X232799306Y-82996311D01*
X232802956Y-83008170D01*
X232809778Y-83055007D01*
X232809779Y-83055008D01*
X232815652Y-83067022D01*
X232815652Y-83067024D01*
X232815654Y-83067026D01*
X232826484Y-83100617D01*
X232830414Y-83123639D01*
X232827155Y-83179454D01*
X232826440Y-83181888D01*
X232822367Y-83192381D01*
X232822291Y-83193035D01*
X232821955Y-83193443D01*
X232818869Y-83201396D01*
X232810024Y-83219490D01*
X232809784Y-83219973D01*
X232809779Y-83219988D01*
X232809162Y-83224225D01*
X232809162Y-83224230D01*
X232799500Y-83290551D01*
X232799500Y-83290554D01*
X232799500Y-83290556D01*
X232799500Y-83484451D01*
X232806994Y-83535895D01*
X232806995Y-83535898D01*
X232809779Y-83555007D01*
X232809779Y-83555008D01*
X232819575Y-83575047D01*
X232822307Y-83583548D01*
X232822420Y-83588012D01*
X232826484Y-83600617D01*
X232830414Y-83623639D01*
X232827155Y-83679454D01*
X232826440Y-83681888D01*
X232818874Y-83701386D01*
X232815951Y-83707366D01*
X232815119Y-83709069D01*
X232809780Y-83719991D01*
X232799500Y-83790551D01*
X232799500Y-83790555D01*
X232799500Y-83790556D01*
X232799500Y-83984451D01*
X232806994Y-84035895D01*
X232806995Y-84035898D01*
X232809779Y-84055007D01*
X232809779Y-84055008D01*
X232819575Y-84075047D01*
X232822307Y-84083548D01*
X232822420Y-84088014D01*
X232826484Y-84100619D01*
X232830537Y-84124363D01*
X232822413Y-84193758D01*
X232819707Y-84199684D01*
X232815296Y-84208708D01*
X232809780Y-84219991D01*
X232799500Y-84290551D01*
X232799500Y-84290556D01*
X232799500Y-84362455D01*
X232797009Y-84373620D01*
X232798044Y-84381401D01*
X232787743Y-84415155D01*
X232787082Y-84416565D01*
X232785307Y-84420346D01*
X232738995Y-84472662D01*
X232671751Y-84491636D01*
X232621550Y-84480436D01*
X232613823Y-84476907D01*
X232606247Y-84471646D01*
X232604924Y-84471243D01*
X232603861Y-84469990D01*
X232577656Y-84451795D01*
X232576349Y-84450488D01*
X232467512Y-84397280D01*
X232467507Y-84397279D01*
X232449871Y-84394710D01*
X232432229Y-84392140D01*
X232396949Y-84387000D01*
X232396945Y-84387000D01*
X232203048Y-84387000D01*
X232151599Y-84394495D01*
X232151596Y-84394495D01*
X232132492Y-84397279D01*
X232132491Y-84397279D01*
X232112460Y-84407071D01*
X232103950Y-84409806D01*
X232099489Y-84409918D01*
X232086887Y-84413982D01*
X232063864Y-84417913D01*
X232008059Y-84414659D01*
X232005620Y-84413942D01*
X231986104Y-84406370D01*
X231968000Y-84397520D01*
X231967523Y-84397284D01*
X231967503Y-84397278D01*
X231967405Y-84397264D01*
X231916943Y-84389913D01*
X231896949Y-84387000D01*
X231896946Y-84387000D01*
X231703048Y-84387000D01*
X231651599Y-84394495D01*
X231651596Y-84394495D01*
X231632492Y-84397279D01*
X231632491Y-84397279D01*
X231612460Y-84407071D01*
X231603950Y-84409806D01*
X231599488Y-84409918D01*
X231586886Y-84413982D01*
X231563141Y-84418036D01*
X231493745Y-84409915D01*
X231487833Y-84407215D01*
X231467509Y-84397280D01*
X231467506Y-84397279D01*
X231467504Y-84397279D01*
X231416950Y-84389913D01*
X231409246Y-84387189D01*
X231404219Y-84387371D01*
X231375046Y-84375096D01*
X231371605Y-84373880D01*
X231370921Y-84373475D01*
X231366189Y-84370592D01*
X231365606Y-84370324D01*
X231362425Y-84368439D01*
X231340549Y-84344964D01*
X231321181Y-84326018D01*
X231320131Y-84326691D01*
X231318176Y-84323636D01*
X231315939Y-84320141D01*
X231314953Y-84317498D01*
X231314791Y-84317324D01*
X231314699Y-84316815D01*
X231297675Y-84271170D01*
X231297209Y-84267968D01*
X231290220Y-84219991D01*
X231290219Y-84219988D01*
X231284346Y-84207975D01*
X231273516Y-84174388D01*
X231269585Y-84151370D01*
X231272844Y-84095542D01*
X231273560Y-84093105D01*
X231277626Y-84082628D01*
X231277703Y-84081974D01*
X231278039Y-84081564D01*
X231281134Y-84073592D01*
X231283249Y-84069267D01*
X231290220Y-84055009D01*
X231300500Y-83984449D01*
X231300499Y-83790552D01*
X231300306Y-83789228D01*
X231290220Y-83719991D01*
X231290219Y-83719988D01*
X231280210Y-83699516D01*
X231278129Y-83695260D01*
X231274938Y-83681467D01*
X231275069Y-83679206D01*
X231273516Y-83674388D01*
X231269585Y-83651370D01*
X231272844Y-83595542D01*
X231273560Y-83593105D01*
X231281134Y-83573592D01*
X231290220Y-83555009D01*
X231300500Y-83484449D01*
X231300499Y-83290552D01*
X231295207Y-83254228D01*
X231291492Y-83228722D01*
X231290220Y-83219991D01*
X231237012Y-83111153D01*
X231237010Y-83111151D01*
X231237010Y-83111150D01*
X231236768Y-83110908D01*
X231236402Y-83109956D01*
X231216996Y-83084034D01*
X231210820Y-83072723D01*
X231207557Y-83057723D01*
X231199659Y-83044560D01*
X231200282Y-83024278D01*
X231195970Y-83004452D01*
X231201335Y-82990067D01*
X231201807Y-82974723D01*
X231213296Y-82957998D01*
X231220387Y-82938988D01*
X231233263Y-82928934D01*
X231241370Y-82917134D01*
X231271629Y-82898977D01*
X231274729Y-82897675D01*
X231322749Y-82887999D01*
X231396949Y-82887999D01*
X231407228Y-82886501D01*
X231467509Y-82877720D01*
X231487762Y-82867818D01*
X231498717Y-82865177D01*
X231505106Y-82860903D01*
X231539943Y-82855238D01*
X231547781Y-82855093D01*
X231547784Y-82855094D01*
X231547786Y-82855093D01*
X231553523Y-82854988D01*
X231590723Y-82859985D01*
G37*
%TD.AperFunction*%
%TD*%
M02*
