M48
; DRILL file KiCad 10.0.1 date 2026-04-30T14:59:16
; FORMAT={-:-/ absolute / metric / decimal}
; #@! TF.CreationDate,2026-04-30T14:59:16+02:00
; #@! TF.GenerationSoftware,Kicad,Pcbnew,10.0.1
; #@! TF.FileFunction,Plated,1,4,PTH
FMAT,2
METRIC
; #@! TA.AperFunction,Plated,PTH,ViaDrill
T1C0.300
; #@! TA.AperFunction,Plated,PTH,ComponentDrill
T2C0.600
; #@! TA.AperFunction,Plated,PTH,ComponentDrill
T3C0.840
; #@! TA.AperFunction,Plated,PTH,ComponentDrill
T4C1.200
; #@! TA.AperFunction,Plated,PTH,ComponentDrill
T5C2.500
%
G90
G05
T1
X205.7Y-68.4
X205.7Y-83.8
X205.8Y-58.1
X205.8Y-65.5
X205.8Y-71.5
X205.8Y-77.3
X205.8Y-79.7
X207.0Y-71.6
X207.2Y-78.2
X207.7Y-81.7
X208.7Y-81.7
X208.8Y-54.8
X209.1Y-87.0
X209.7Y-81.7
X210.8Y-84.6
X212.2Y-67.1
X212.3Y-79.0
X212.5Y-54.9
X212.6Y-59.7
X212.7Y-74.9
X213.0Y-86.9
X216.1Y-62.4
X216.5Y-65.4
X216.5Y-69.8
X217.2Y-76.5
X217.8Y-54.9
X218.1Y-84.5
X218.1Y-86.9
X218.5Y-69.1
X219.835Y-79.082
X219.855Y-81.083
X220.1Y-75.9
X220.9Y-63.6
X221.1Y-60.4
X221.4Y-82.4
X222.2Y-83.7
X222.9Y-79.3
X222.9Y-81.7
X223.0Y-86.8
X223.2Y-74.2
X223.3Y-62.3
X225.9Y-59.1
X226.0Y-76.5
X228.0Y-74.3
X228.8Y-83.987
X229.2Y-67.3
X229.2Y-86.8
X230.3Y-80.05
X230.5Y-69.7
X230.7Y-55.6
X230.7Y-59.8
X231.1Y-80.8
X231.4Y-85.9
X232.05Y-83.638
X232.1Y-56.9
X232.4Y-75.4
X232.4Y-80.551
X232.6Y-54.5
X233.1Y-71.8
X233.605Y-80.782
X233.688Y-85.787
X233.7Y-82.0
X234.0Y-64.9
X234.927Y-83.301
X235.125Y-84.212
X235.43Y-55.47
X236.7Y-64.4
X238.188Y-86.888
X238.2Y-83.8
X239.0Y-79.9
X239.2Y-61.1
X239.45Y-56.06
X240.987Y-86.787
X241.1Y-60.4
X241.3Y-81.6
X242.2Y-79.5
X242.2Y-84.0
X242.4Y-54.5
X242.7Y-86.9
X243.4Y-84.3
X245.0Y-76.1
X245.1Y-65.3
X245.5Y-57.9
X245.7Y-83.4
X245.9Y-80.0
T2
X207.1Y-73.35
X207.1Y-74.6
X221.95Y-55.9
X223.2Y-55.9
X224.45Y-55.9
X225.7Y-55.9
X226.95Y-55.9
X228.2Y-55.9
X229.45Y-55.9
T3
X225.92Y-63.08
X225.92Y-78.32
X228.46Y-63.08
X228.46Y-78.32
X231.0Y-63.08
X231.0Y-78.32
X233.54Y-63.08
X233.54Y-78.32
X236.08Y-63.08
X236.08Y-78.32
X238.62Y-63.08
X238.62Y-78.32
X241.16Y-63.08
X241.16Y-78.32
X243.7Y-63.08
X243.7Y-78.32
T4
X215.655Y-85.583
X220.655Y-85.583
T5
X206.686Y-55.486
X206.686Y-85.986
X244.786Y-55.486
X244.786Y-85.986
M30
