%TF.GenerationSoftware,KiCad,Pcbnew,10.0.1*%
%TF.CreationDate,2026-04-30T14:59:30+02:00*%
%TF.ProjectId,Dive_Computer,44697665-5f43-46f6-9d70-757465722e6b,rev?*%
%TF.SameCoordinates,Original*%
%TF.FileFunction,Soldermask,Top*%
%TF.FilePolarity,Negative*%
%FSLAX46Y46*%
G04 Gerber Fmt 4.6, Leading zero omitted, Abs format (unit mm)*
G04 Created by KiCad (PCBNEW 10.0.1) date 2026-04-30 14:59:30*
%MOMM*%
%LPD*%
G01*
G04 APERTURE LIST*
G04 Aperture macros list*
%AMRoundRect*
0 Rectangle with rounded corners*
0 $1 Rounding radius*
0 $2 $3 $4 $5 $6 $7 $8 $9 X,Y pos of 4 corners*
0 Add a 4 corners polygon primitive as box body*
4,1,4,$2,$3,$4,$5,$6,$7,$8,$9,$2,$3,0*
0 Add four circle primitives for the rounded corners*
1,1,$1+$1,$2,$3*
1,1,$1+$1,$4,$5*
1,1,$1+$1,$6,$7*
1,1,$1+$1,$8,$9*
0 Add four rect primitives between the rounded corners*
20,1,$1+$1,$2,$3,$4,$5,0*
20,1,$1+$1,$4,$5,$6,$7,0*
20,1,$1+$1,$6,$7,$8,$9,0*
20,1,$1+$1,$8,$9,$2,$3,0*%
%AMFreePoly0*
4,1,23,0.500000,-0.750000,0.000000,-0.750000,0.000000,-0.745722,-0.065263,-0.745722,-0.191342,-0.711940,-0.304381,-0.646677,-0.396677,-0.554381,-0.461940,-0.441342,-0.495722,-0.315263,-0.495722,-0.250000,-0.500000,-0.250000,-0.500000,0.250000,-0.495722,0.250000,-0.495722,0.315263,-0.461940,0.441342,-0.396677,0.554381,-0.304381,0.646677,-0.191342,0.711940,-0.065263,0.745722,0.000000,0.745722,
0.000000,0.750000,0.500000,0.750000,0.500000,-0.750000,0.500000,-0.750000,$1*%
%AMFreePoly1*
4,1,23,0.000000,0.745722,0.065263,0.745722,0.191342,0.711940,0.304381,0.646677,0.396677,0.554381,0.461940,0.441342,0.495722,0.315263,0.495722,0.250000,0.500000,0.250000,0.500000,-0.250000,0.495722,-0.250000,0.495722,-0.315263,0.461940,-0.441342,0.396677,-0.554381,0.304381,-0.646677,0.191342,-0.711940,0.065263,-0.745722,0.000000,-0.745722,0.000000,-0.750000,-0.500000,-0.750000,
-0.500000,0.750000,0.000000,0.750000,0.000000,0.745722,0.000000,0.745722,$1*%
G04 Aperture macros list end*
%ADD10C,0.000000*%
%ADD11RoundRect,0.200000X0.275000X-0.200000X0.275000X0.200000X-0.275000X0.200000X-0.275000X-0.200000X0*%
%ADD12RoundRect,0.225000X0.475000X-0.225000X0.475000X0.225000X-0.475000X0.225000X-0.475000X-0.225000X0*%
%ADD13O,1.400000X0.900000*%
%ADD14RoundRect,0.225000X-0.225000X-0.250000X0.225000X-0.250000X0.225000X0.250000X-0.225000X0.250000X0*%
%ADD15R,2.000000X1.100000*%
%ADD16R,0.800000X0.800000*%
%ADD17RoundRect,0.200000X-0.200000X-0.275000X0.200000X-0.275000X0.200000X0.275000X-0.200000X0.275000X0*%
%ADD18C,2.000000*%
%ADD19RoundRect,0.250000X-0.325000X-1.100000X0.325000X-1.100000X0.325000X1.100000X-0.325000X1.100000X0*%
%ADD20RoundRect,0.162500X0.162500X-0.447500X0.162500X0.447500X-0.162500X0.447500X-0.162500X-0.447500X0*%
%ADD21RoundRect,0.200000X-0.275000X0.200000X-0.275000X-0.200000X0.275000X-0.200000X0.275000X0.200000X0*%
%ADD22RoundRect,0.225000X-0.250000X0.225000X-0.250000X-0.225000X0.250000X-0.225000X0.250000X0.225000X0*%
%ADD23RoundRect,0.150000X-0.150000X0.587500X-0.150000X-0.587500X0.150000X-0.587500X0.150000X0.587500X0*%
%ADD24RoundRect,0.062500X-0.062500X0.350000X-0.062500X-0.350000X0.062500X-0.350000X0.062500X0.350000X0*%
%ADD25RoundRect,0.062500X-0.350000X0.062500X-0.350000X-0.062500X0.350000X-0.062500X0.350000X0.062500X0*%
%ADD26R,1.700000X1.700000*%
%ADD27C,3.403200*%
%ADD28C,1.552000*%
%ADD29R,1.100000X2.000000*%
%ADD30RoundRect,0.250000X-1.600000X0.300000X-1.600000X-0.300000X1.600000X-0.300000X1.600000X0.300000X0*%
%ADD31RoundRect,0.225000X-0.225000X-0.475000X0.225000X-0.475000X0.225000X0.475000X-0.225000X0.475000X0*%
%ADD32O,0.900000X1.400000*%
%ADD33FreePoly0,90.000000*%
%ADD34FreePoly1,90.000000*%
%ADD35R,0.350000X0.375000*%
%ADD36R,0.375000X0.350000*%
G04 APERTURE END LIST*
D10*
%TO.C,JP1*%
G36*
X226650000Y-59900001D02*
G01*
X225150000Y-59900001D01*
X225150000Y-59600001D01*
X226650000Y-59600001D01*
X226650000Y-59900001D01*
G37*
%TD*%
D11*
%TO.C,R4*%
X238493654Y-82523730D03*
X238493654Y-80873730D03*
%TD*%
%TO.C,R1*%
X232650000Y-59770000D03*
X232650000Y-58120000D03*
%TD*%
D12*
%TO.C,BATTERIE1*%
X207100000Y-74600000D03*
D13*
X207100000Y-73350001D03*
%TD*%
D14*
%TO.C,C6*%
X231350000Y-86712500D03*
X232900000Y-86712500D03*
%TD*%
D15*
%TO.C,D3*%
X219855000Y-81082501D03*
D16*
X217955000Y-81082501D03*
%TD*%
D11*
%TO.C,R8*%
X228500000Y-60725000D03*
X228500000Y-59075000D03*
%TD*%
D17*
%TO.C,R10*%
X209674999Y-74700000D03*
X211324999Y-74700000D03*
%TD*%
D18*
%TO.C,Power_Inductor1*%
X220655000Y-85582501D03*
X215655000Y-85582501D03*
%TD*%
D14*
%TO.C,C4*%
X214704999Y-80782500D03*
X216254999Y-80782500D03*
%TD*%
D19*
%TO.C,C3*%
X236604998Y-84982501D03*
X239555000Y-84982501D03*
%TD*%
D20*
%TO.C,Q1*%
X208749999Y-79509999D03*
X210649999Y-79509999D03*
X209699999Y-76890000D03*
%TD*%
D21*
%TO.C,R5*%
X236893656Y-80903729D03*
X236893656Y-82553729D03*
%TD*%
D22*
%TO.C,C1*%
X215459153Y-70608837D03*
X215459153Y-72158837D03*
%TD*%
D23*
%TO.C,U2*%
X207950000Y-63162500D03*
X206050000Y-63162500D03*
X207000000Y-65037501D03*
%TD*%
D24*
%TO.C,IC1*%
X232800000Y-82175000D03*
X232300000Y-82175000D03*
X231800000Y-82175000D03*
X231300000Y-82175000D03*
D25*
X230587500Y-82887500D03*
X230587500Y-83387500D03*
X230587500Y-83887500D03*
X230587500Y-84387500D03*
D24*
X231300000Y-85100000D03*
X231800000Y-85100000D03*
X232300000Y-85100000D03*
X232800000Y-85100000D03*
D25*
X233512500Y-84387500D03*
X233512500Y-83887500D03*
X233512500Y-83387500D03*
X233512500Y-82887500D03*
D26*
X232050000Y-83637500D03*
%TD*%
D27*
%TO.C,*%
X206685786Y-55485786D03*
%TD*%
D11*
%TO.C,R7*%
X240630000Y-82385000D03*
X240630000Y-80735000D03*
%TD*%
D14*
%TO.C,C5*%
X214705000Y-79182501D03*
X216255000Y-79182501D03*
%TD*%
D22*
%TO.C,C2*%
X217559152Y-70708838D03*
X217559152Y-72258838D03*
%TD*%
D27*
%TO.C,*%
X244785786Y-55485786D03*
%TD*%
D28*
%TO.C,U1*%
X225920000Y-78320000D03*
X228460000Y-78320000D03*
X231000000Y-78320000D03*
X233540000Y-78320000D03*
X238620000Y-78320000D03*
X236080000Y-78320000D03*
X243700000Y-63080000D03*
X243700000Y-78320000D03*
X241160000Y-63080000D03*
X238620000Y-63080000D03*
X236080000Y-63080000D03*
X233540000Y-63080000D03*
X231000000Y-63080000D03*
X228460000Y-63080000D03*
X225920000Y-63080000D03*
X241160000Y-78320000D03*
%TD*%
D11*
%TO.C,R3*%
X234925000Y-86762501D03*
X234925000Y-85112501D03*
%TD*%
D15*
%TO.C,D1*%
X218527500Y-82882501D03*
D16*
X220427500Y-82882501D03*
%TD*%
D29*
%TO.C,D4*%
X244100000Y-81300000D03*
D16*
X244100000Y-83200000D03*
%TD*%
D30*
%TO.C,L1*%
X225679999Y-81982500D03*
X225679999Y-84982500D03*
%TD*%
D22*
%TO.C,C7*%
X228900000Y-80650000D03*
X228900000Y-82200000D03*
%TD*%
D21*
%TO.C,R9*%
X223300000Y-59075000D03*
X223300000Y-60725000D03*
%TD*%
D27*
%TO.C,*%
X206685786Y-85985786D03*
%TD*%
%TO.C,*%
X244785786Y-85985786D03*
%TD*%
D14*
%TO.C,C8*%
X233605000Y-80782499D03*
X235155000Y-80782499D03*
%TD*%
D21*
%TO.C,R6*%
X242200000Y-80775000D03*
X242200000Y-82425000D03*
%TD*%
D31*
%TO.C,J1*%
X221950000Y-55900000D03*
D32*
X223199999Y-55900000D03*
X224450000Y-55900000D03*
X225699999Y-55900000D03*
X226950000Y-55900000D03*
X228199999Y-55900000D03*
X229450000Y-55900000D03*
%TD*%
D11*
%TO.C,R2*%
X234400000Y-59800000D03*
X234400000Y-58150000D03*
%TD*%
D15*
%TO.C,D2*%
X219835003Y-79082500D03*
D16*
X217935003Y-79082500D03*
%TD*%
D33*
%TO.C,JP1*%
X225900000Y-60400000D03*
D34*
X225900000Y-59100002D03*
%TD*%
D14*
%TO.C,C9*%
X207201033Y-67075170D03*
X208751033Y-67075170D03*
%TD*%
%TO.C,C10*%
X236715000Y-55280000D03*
X238265000Y-55280000D03*
%TD*%
D35*
%TO.C,LIS12DUX1*%
X215059153Y-68383837D03*
X215559153Y-68383837D03*
X216059153Y-68383837D03*
X216559153Y-68383837D03*
D36*
X216571653Y-67871337D03*
X216571653Y-67371337D03*
D35*
X216559153Y-66858837D03*
X216059153Y-66858837D03*
X215559153Y-66858837D03*
X215059153Y-66858837D03*
D36*
X215046653Y-67371337D03*
X215046653Y-67871337D03*
%TD*%
M02*
