%TF.GenerationSoftware,KiCad,Pcbnew,10.0.1*%
%TF.CreationDate,2026-07-02T18:40:40+02:00*%
%TF.ProjectId,Chargeur,43686172-6765-4757-922e-6b696361645f,rev?*%
%TF.SameCoordinates,Original*%
%TF.FileFunction,Soldermask,Top*%
%TF.FilePolarity,Negative*%
%FSLAX46Y46*%
G04 Gerber Fmt 4.6, Leading zero omitted, Abs format (unit mm)*
G04 Created by KiCad (PCBNEW 10.0.1) date 2026-07-02 18:40:40*
%MOMM*%
%LPD*%
G01*
G04 APERTURE LIST*
G04 Aperture macros list*
%AMRoundRect*
0 Rectangle with rounded corners*
0 $1 Rounding radius*
0 $2 $3 $4 $5 $6 $7 $8 $9 X,Y pos of 4 corners*
0 Add a 4 corners polygon primitive as box body*
4,1,4,$2,$3,$4,$5,$6,$7,$8,$9,$2,$3,0*
0 Add four circle primitives for the rounded corners*
1,1,$1+$1,$2,$3*
1,1,$1+$1,$4,$5*
1,1,$1+$1,$6,$7*
1,1,$1+$1,$8,$9*
0 Add four rect primitives between the rounded corners*
20,1,$1+$1,$2,$3,$4,$5,0*
20,1,$1+$1,$4,$5,$6,$7,0*
20,1,$1+$1,$6,$7,$8,$9,0*
20,1,$1+$1,$8,$9,$2,$3,0*%
%AMFreePoly0*
4,1,9,0.240000,-1.625000,-0.240000,-1.625000,-0.240000,-0.250000,-0.615000,-0.250000,-0.615000,0.250000,-0.240000,0.250000,-0.240000,1.625000,0.240000,1.625000,0.240000,-1.625000,0.240000,-1.625000,$1*%
%AMFreePoly1*
4,1,9,0.240000,0.250000,0.615000,0.250000,0.615000,-0.250000,0.240000,-0.250000,0.240000,-1.625000,-0.240000,-1.625000,-0.240000,1.625000,0.240000,1.625000,0.240000,0.250000,0.240000,0.250000,$1*%
G04 Aperture macros list end*
%ADD10R,1.400000X1.400000*%
%ADD11C,1.400000*%
%ADD12R,1.800000X1.800000*%
%ADD13C,1.800000*%
%ADD14RoundRect,0.200000X0.275000X-0.200000X0.275000X0.200000X-0.275000X0.200000X-0.275000X-0.200000X0*%
%ADD15RoundRect,0.200000X-0.200000X-0.275000X0.200000X-0.275000X0.200000X0.275000X-0.200000X0.275000X0*%
%ADD16R,1.700000X0.900000*%
%ADD17RoundRect,0.225000X0.225000X0.250000X-0.225000X0.250000X-0.225000X-0.250000X0.225000X-0.250000X0*%
%ADD18RoundRect,0.062500X-0.062500X0.362500X-0.062500X-0.362500X0.062500X-0.362500X0.062500X0.362500X0*%
%ADD19RoundRect,0.062500X-0.362500X0.062500X-0.362500X-0.062500X0.362500X-0.062500X0.362500X0.062500X0*%
%ADD20R,3.650000X2.650000*%
%ADD21C,5.600000*%
%ADD22RoundRect,0.250000X-0.325000X-0.650000X0.325000X-0.650000X0.325000X0.650000X-0.325000X0.650000X0*%
%ADD23R,2.000000X1.100000*%
%ADD24R,0.800000X0.800000*%
%ADD25RoundRect,0.200000X0.200000X0.275000X-0.200000X0.275000X-0.200000X-0.275000X0.200000X-0.275000X0*%
%ADD26R,1.300000X3.250000*%
%ADD27FreePoly0,180.000000*%
%ADD28FreePoly1,180.000000*%
%ADD29RoundRect,0.200000X-0.275000X0.200000X-0.275000X-0.200000X0.275000X-0.200000X0.275000X0.200000X0*%
%ADD30RoundRect,0.150000X0.150000X0.200000X-0.150000X0.200000X-0.150000X-0.200000X0.150000X-0.200000X0*%
%ADD31RoundRect,0.175000X-0.425000X0.175000X-0.425000X-0.175000X0.425000X-0.175000X0.425000X0.175000X0*%
%ADD32RoundRect,0.190000X0.410000X-0.190000X0.410000X0.190000X-0.410000X0.190000X-0.410000X-0.190000X0*%
%ADD33RoundRect,0.200000X0.400000X-0.200000X0.400000X0.200000X-0.400000X0.200000X-0.400000X-0.200000X0*%
%ADD34RoundRect,0.175000X0.425000X-0.175000X0.425000X0.175000X-0.425000X0.175000X-0.425000X-0.175000X0*%
%ADD35RoundRect,0.190000X-0.410000X0.190000X-0.410000X-0.190000X0.410000X-0.190000X0.410000X0.190000X0*%
%ADD36RoundRect,0.200000X-0.400000X0.200000X-0.400000X-0.200000X0.400000X-0.200000X0.400000X0.200000X0*%
%ADD37O,1.700000X1.100000*%
G04 APERTURE END LIST*
D10*
%TO.C,C0*%
X147472045Y-91800000D03*
D11*
X154972045Y-91800000D03*
%TD*%
D12*
%TO.C,L1*%
X155000000Y-82500000D03*
D13*
X155000000Y-87500000D03*
%TD*%
D14*
%TO.C,R9*%
X127925000Y-82825000D03*
X127925000Y-81175000D03*
%TD*%
D15*
%TO.C,R3*%
X133650000Y-81000000D03*
X135300000Y-81000000D03*
%TD*%
D16*
%TO.C,R14*%
X141100000Y-73000000D03*
X141100000Y-76000000D03*
%TD*%
D17*
%TO.C,C1*%
X135275000Y-90500000D03*
X133725000Y-90500000D03*
%TD*%
D14*
%TO.C,R4*%
X130000000Y-82825000D03*
X130000000Y-81175000D03*
%TD*%
D15*
%TO.C,R7*%
X127925000Y-88250000D03*
X129575000Y-88250000D03*
%TD*%
%TO.C,R11*%
X117375000Y-72500000D03*
X119025000Y-72500000D03*
%TD*%
D18*
%TO.C,U1*%
X138700000Y-84550000D03*
X138200000Y-84550000D03*
X137700000Y-84550000D03*
X137200000Y-84550000D03*
X136700000Y-84550000D03*
X136200000Y-84550000D03*
D19*
X135000000Y-85750000D03*
X135000000Y-86250000D03*
X135000000Y-86750000D03*
X135000000Y-87250000D03*
D18*
X136200000Y-88450000D03*
X136700000Y-88450000D03*
X137200000Y-88450000D03*
X137700000Y-88450000D03*
X138200000Y-88450000D03*
X138700000Y-88450000D03*
D19*
X139900000Y-87250000D03*
X139900000Y-86750000D03*
X139900000Y-86250000D03*
X139900000Y-85750000D03*
D20*
X137450000Y-86500000D03*
%TD*%
D14*
%TO.C,R6*%
X136800000Y-81625000D03*
X136800000Y-79975000D03*
%TD*%
D15*
%TO.C,R8*%
X126275000Y-84500000D03*
X127925000Y-84500000D03*
%TD*%
D21*
%TO.C,H1*%
X155000000Y-75000000D03*
%TD*%
D22*
%TO.C,C9*%
X141425000Y-82900000D03*
X144375000Y-82900000D03*
%TD*%
D14*
%TO.C,R15*%
X119600000Y-88500000D03*
X119600000Y-86850000D03*
%TD*%
D15*
%TO.C,R2*%
X131425000Y-96750000D03*
X133075000Y-96750000D03*
%TD*%
D23*
%TO.C,D1*%
X139000000Y-90600000D03*
D24*
X137100000Y-90600000D03*
%TD*%
D17*
%TO.C,C2*%
X139725000Y-94500000D03*
X138175000Y-94500000D03*
%TD*%
D25*
%TO.C,R10*%
X129575000Y-86750000D03*
X127925000Y-86750000D03*
%TD*%
D14*
%TO.C,R12*%
X121600000Y-88500000D03*
X121600000Y-86850000D03*
%TD*%
D17*
%TO.C,C4*%
X135275000Y-94000000D03*
X133725000Y-94000000D03*
%TD*%
D26*
%TO.C,D3*%
X113300000Y-75500000D03*
D27*
X114685000Y-75500000D03*
D28*
X111915000Y-75500000D03*
%TD*%
D22*
%TO.C,C8*%
X141275000Y-90000000D03*
X144225000Y-90000000D03*
%TD*%
D29*
%TO.C,R5*%
X131500000Y-81175000D03*
X131500000Y-82825000D03*
%TD*%
D16*
%TO.C,R13*%
X137500000Y-76000000D03*
X137500000Y-73000000D03*
%TD*%
D22*
%TO.C,C7*%
X144025000Y-86500000D03*
X146975000Y-86500000D03*
%TD*%
D17*
%TO.C,C3*%
X134175000Y-78700000D03*
X132625000Y-78700000D03*
%TD*%
D30*
%TO.C,D2*%
X141250000Y-94500000D03*
X142650000Y-94500000D03*
%TD*%
D21*
%TO.C,H2*%
X115000000Y-95000000D03*
%TD*%
D31*
%TO.C,J1*%
X115530000Y-84500000D03*
D32*
X115530000Y-86520000D03*
D33*
X115530000Y-87750000D03*
D34*
X115530000Y-85500000D03*
D35*
X115530000Y-83480000D03*
D36*
X115530000Y-82250000D03*
D37*
X115450000Y-80680000D03*
X111650000Y-80680000D03*
X115450000Y-89320000D03*
X111650000Y-89320000D03*
%TD*%
D17*
%TO.C,C5*%
X135250000Y-82500000D03*
X133700000Y-82500000D03*
%TD*%
D15*
%TO.C,R1*%
X134500000Y-96750000D03*
X136150000Y-96750000D03*
%TD*%
D17*
%TO.C,C6*%
X139875000Y-81650000D03*
X138325000Y-81650000D03*
%TD*%
M02*
