M48
; DRILL file KiCad 10.0.1 date 2026-07-02T18:40:36
; FORMAT={-:-/ absolute / metric / decimal}
; #@! TF.CreationDate,2026-07-02T18:40:36+02:00
; #@! TF.GenerationSoftware,Kicad,Pcbnew,10.0.1
; #@! TF.FileFunction,Plated,1,2,PTH
FMAT,2
METRIC
; #@! TA.AperFunction,Plated,PTH,ViaDrill
T1C0.200
; #@! TA.AperFunction,Plated,PTH,ComponentDrill
T2C0.600
; #@! TA.AperFunction,Plated,PTH,ComponentDrill
T3C0.900
; #@! TA.AperFunction,Plated,PTH,ComponentDrill
T4C1.200
; #@! TA.AperFunction,Plated,PTH,ComponentDrill
T5C3.200
%
G90
G05
T1
X117.65Y-75.5
X121.3Y-72.5
X125.25Y-85.55
X127.9Y-80.2
X127.925Y-86.75
X130.0Y-80.2
X135.7Y-78.7
X136.45Y-93.45
X137.7Y-89.5
X139.2Y-83.15
X140.2Y-77.35
X140.2Y-79.3
X140.95Y-78.3
X141.3Y-86.05
X141.3Y-86.95
X141.75Y-77.35
X141.75Y-79.25
X141.95Y-85.6
X141.95Y-86.2
X141.95Y-86.8
X141.95Y-87.4
X142.5Y-85.6
X142.5Y-86.2
X142.5Y-86.8
X142.5Y-87.4
T3
X147.472Y-91.8
X154.972Y-91.8
T4
X155.0Y-82.5
X155.0Y-87.5
T5
X115.0Y-95.0
X155.0Y-75.0
T2
G00X111.95Y-80.68
M15
G01X111.35Y-80.68
M16
G05
G00X111.95Y-89.32
M15
G01X111.35Y-89.32
M16
G05
G00X115.75Y-80.68
M15
G01X115.15Y-80.68
M16
G05
G00X115.75Y-89.32
M15
G01X115.15Y-89.32
M16
G05
M30
