%TF.GenerationSoftware,KiCad,Pcbnew,10.0.1*%
%TF.CreationDate,2026-07-02T18:40:39+02:00*%
%TF.ProjectId,Chargeur,43686172-6765-4757-922e-6b696361645f,rev?*%
%TF.SameCoordinates,Original*%
%TF.FileFunction,Copper,L1,Top*%
%TF.FilePolarity,Positive*%
%FSLAX46Y46*%
G04 Gerber Fmt 4.6, Leading zero omitted, Abs format (unit mm)*
G04 Created by KiCad (PCBNEW 10.0.1) date 2026-07-02 18:40:39*
%MOMM*%
%LPD*%
G01*
G04 APERTURE LIST*
G04 Aperture macros list*
%AMRoundRect*
0 Rectangle with rounded corners*
0 $1 Rounding radius*
0 $2 $3 $4 $5 $6 $7 $8 $9 X,Y pos of 4 corners*
0 Add a 4 corners polygon primitive as box body*
4,1,4,$2,$3,$4,$5,$6,$7,$8,$9,$2,$3,0*
0 Add four circle primitives for the rounded corners*
1,1,$1+$1,$2,$3*
1,1,$1+$1,$4,$5*
1,1,$1+$1,$6,$7*
1,1,$1+$1,$8,$9*
0 Add four rect primitives between the rounded corners*
20,1,$1+$1,$2,$3,$4,$5,0*
20,1,$1+$1,$4,$5,$6,$7,0*
20,1,$1+$1,$6,$7,$8,$9,0*
20,1,$1+$1,$8,$9,$2,$3,0*%
%AMFreePoly0*
4,1,9,0.240000,-1.625000,-0.240000,-1.625000,-0.240000,-0.250000,-0.615000,-0.250000,-0.615000,0.250000,-0.240000,0.250000,-0.240000,1.625000,0.240000,1.625000,0.240000,-1.625000,0.240000,-1.625000,$1*%
%AMFreePoly1*
4,1,9,0.240000,0.250000,0.615000,0.250000,0.615000,-0.250000,0.240000,-0.250000,0.240000,-1.625000,-0.240000,-1.625000,-0.240000,1.625000,0.240000,1.625000,0.240000,0.250000,0.240000,0.250000,$1*%
G04 Aperture macros list end*
%TA.AperFunction,ComponentPad*%
%ADD10R,1.400000X1.400000*%
%TD*%
%TA.AperFunction,ComponentPad*%
%ADD11C,1.400000*%
%TD*%
%TA.AperFunction,ComponentPad*%
%ADD12R,1.800000X1.800000*%
%TD*%
%TA.AperFunction,ComponentPad*%
%ADD13C,1.800000*%
%TD*%
%TA.AperFunction,SMDPad,CuDef*%
%ADD14RoundRect,0.200000X0.275000X-0.200000X0.275000X0.200000X-0.275000X0.200000X-0.275000X-0.200000X0*%
%TD*%
%TA.AperFunction,SMDPad,CuDef*%
%ADD15RoundRect,0.200000X-0.200000X-0.275000X0.200000X-0.275000X0.200000X0.275000X-0.200000X0.275000X0*%
%TD*%
%TA.AperFunction,SMDPad,CuDef*%
%ADD16R,1.700000X0.900000*%
%TD*%
%TA.AperFunction,SMDPad,CuDef*%
%ADD17RoundRect,0.225000X0.225000X0.250000X-0.225000X0.250000X-0.225000X-0.250000X0.225000X-0.250000X0*%
%TD*%
%TA.AperFunction,SMDPad,CuDef*%
%ADD18RoundRect,0.062500X-0.062500X0.362500X-0.062500X-0.362500X0.062500X-0.362500X0.062500X0.362500X0*%
%TD*%
%TA.AperFunction,SMDPad,CuDef*%
%ADD19RoundRect,0.062500X-0.362500X0.062500X-0.362500X-0.062500X0.362500X-0.062500X0.362500X0.062500X0*%
%TD*%
%TA.AperFunction,HeatsinkPad*%
%ADD20R,3.650000X2.650000*%
%TD*%
%TA.AperFunction,ComponentPad*%
%ADD21C,5.600000*%
%TD*%
%TA.AperFunction,SMDPad,CuDef*%
%ADD22RoundRect,0.250000X-0.325000X-0.650000X0.325000X-0.650000X0.325000X0.650000X-0.325000X0.650000X0*%
%TD*%
%TA.AperFunction,SMDPad,CuDef*%
%ADD23R,2.000000X1.100000*%
%TD*%
%TA.AperFunction,SMDPad,CuDef*%
%ADD24R,0.800000X0.800000*%
%TD*%
%TA.AperFunction,SMDPad,CuDef*%
%ADD25RoundRect,0.200000X0.200000X0.275000X-0.200000X0.275000X-0.200000X-0.275000X0.200000X-0.275000X0*%
%TD*%
%TA.AperFunction,SMDPad,CuDef*%
%ADD26R,1.300000X3.250000*%
%TD*%
%TA.AperFunction,SMDPad,CuDef*%
%ADD27FreePoly0,180.000000*%
%TD*%
%TA.AperFunction,SMDPad,CuDef*%
%ADD28FreePoly1,180.000000*%
%TD*%
%TA.AperFunction,SMDPad,CuDef*%
%ADD29RoundRect,0.200000X-0.275000X0.200000X-0.275000X-0.200000X0.275000X-0.200000X0.275000X0.200000X0*%
%TD*%
%TA.AperFunction,SMDPad,CuDef*%
%ADD30RoundRect,0.150000X0.150000X0.200000X-0.150000X0.200000X-0.150000X-0.200000X0.150000X-0.200000X0*%
%TD*%
%TA.AperFunction,SMDPad,CuDef*%
%ADD31RoundRect,0.175000X-0.425000X0.175000X-0.425000X-0.175000X0.425000X-0.175000X0.425000X0.175000X0*%
%TD*%
%TA.AperFunction,SMDPad,CuDef*%
%ADD32RoundRect,0.190000X0.410000X-0.190000X0.410000X0.190000X-0.410000X0.190000X-0.410000X-0.190000X0*%
%TD*%
%TA.AperFunction,SMDPad,CuDef*%
%ADD33RoundRect,0.200000X0.400000X-0.200000X0.400000X0.200000X-0.400000X0.200000X-0.400000X-0.200000X0*%
%TD*%
%TA.AperFunction,SMDPad,CuDef*%
%ADD34RoundRect,0.175000X0.425000X-0.175000X0.425000X0.175000X-0.425000X0.175000X-0.425000X-0.175000X0*%
%TD*%
%TA.AperFunction,SMDPad,CuDef*%
%ADD35RoundRect,0.190000X-0.410000X0.190000X-0.410000X-0.190000X0.410000X-0.190000X0.410000X0.190000X0*%
%TD*%
%TA.AperFunction,SMDPad,CuDef*%
%ADD36RoundRect,0.200000X-0.400000X0.200000X-0.400000X-0.200000X0.400000X-0.200000X0.400000X0.200000X0*%
%TD*%
%TA.AperFunction,ComponentPad*%
%ADD37O,1.700000X1.100000*%
%TD*%
%TA.AperFunction,ViaPad*%
%ADD38C,0.400000*%
%TD*%
%TA.AperFunction,Conductor*%
%ADD39C,0.200000*%
%TD*%
%TA.AperFunction,Conductor*%
%ADD40C,1.000000*%
%TD*%
G04 APERTURE END LIST*
D10*
%TO.P,C0,1,1_1*%
%TO.N,Net-(U1-SW2)*%
X147472045Y-91800000D03*
D11*
%TO.P,C0,2,2_2*%
%TO.N,Net-(D2-A)*%
X154972045Y-91800000D03*
%TD*%
D12*
%TO.P,L1,1,1_1*%
%TO.N,Net-(U1-SW1)*%
X155000000Y-82500000D03*
D13*
%TO.P,L1,2,2_2*%
%TO.N,Net-(D2-A)*%
X155000000Y-87500000D03*
%TD*%
D14*
%TO.P,R9,1*%
%TO.N,Net-(U1-DTH)*%
X127925000Y-82825000D03*
%TO.P,R9,2*%
%TO.N,+5V*%
X127925000Y-81175000D03*
%TD*%
D15*
%TO.P,R3,1*%
%TO.N,GND*%
X133650000Y-81000000D03*
%TO.P,R3,2*%
%TO.N,Net-(U1-IMON)*%
X135300000Y-81000000D03*
%TD*%
D16*
%TO.P,R14,1*%
%TO.N,Net-(R13-Pad2)*%
X141100000Y-73000000D03*
%TO.P,R14,2*%
%TO.N,+5V*%
X141100000Y-76000000D03*
%TD*%
D17*
%TO.P,C1,1*%
%TO.N,Net-(D1-A)*%
X135275000Y-90500000D03*
%TO.P,C1,2*%
%TO.N,GND*%
X133725000Y-90500000D03*
%TD*%
D14*
%TO.P,R4,1*%
%TO.N,Net-(U1-NTC)*%
X130000000Y-82825000D03*
%TO.P,R4,2*%
%TO.N,+5V*%
X130000000Y-81175000D03*
%TD*%
D15*
%TO.P,R7,1*%
%TO.N,GND*%
X127925000Y-88250000D03*
%TO.P,R7,2*%
%TO.N,Net-(U1-FTH)*%
X129575000Y-88250000D03*
%TD*%
%TO.P,R11,1*%
%TO.N,Net-(D3-+)*%
X117375000Y-72500000D03*
%TO.P,R11,2*%
%TO.N,+5V*%
X119025000Y-72500000D03*
%TD*%
D18*
%TO.P,U1,1,IN_1*%
%TO.N,+5V*%
X138700000Y-84550000D03*
%TO.P,U1,2,CTS_2*%
%TO.N,Net-(U1-CTS)*%
X138200000Y-84550000D03*
%TO.P,U1,3,IS-_3*%
%TO.N,+5V*%
X137700000Y-84550000D03*
%TO.P,U1,4,IS+_4*%
%TO.N,Net-(U1-IS+)*%
X137200000Y-84550000D03*
%TO.P,U1,5,IMON_5*%
%TO.N,Net-(U1-IMON)*%
X136700000Y-84550000D03*
%TO.P,U1,6,NTC_6*%
%TO.N,Net-(U1-NTC)*%
X136200000Y-84550000D03*
D19*
%TO.P,U1,7,DTH_7*%
%TO.N,Net-(U1-DTH)*%
X135000000Y-85750000D03*
%TO.P,U1,8,STAT_8*%
%TO.N,Net-(D3--)*%
X135000000Y-86250000D03*
%TO.P,U1,9,FTH_9*%
%TO.N,Net-(U1-FTH)*%
X135000000Y-86750000D03*
%TO.P,U1,10,PTH2_10*%
%TO.N,unconnected-(U1-PTH2-Pad10)*%
X135000000Y-87250000D03*
D18*
%TO.P,U1,11,PTH1_11*%
%TO.N,unconnected-(U1-PTH1-Pad11)*%
X136200000Y-88450000D03*
%TO.P,U1,12,PTHM_12*%
%TO.N,GND*%
X136700000Y-88450000D03*
%TO.P,U1,13,FB_13*%
%TO.N,Net-(D1-A)*%
X137200000Y-88450000D03*
%TO.P,U1,14,CTD_14*%
%TO.N,Net-(U1-CTD)*%
X137700000Y-88450000D03*
%TO.P,U1,15,~{EN}_15*%
%TO.N,GND*%
X138200000Y-88450000D03*
%TO.P,U1,16,GND_16*%
X138700000Y-88450000D03*
D19*
%TO.P,U1,17,IN2_17*%
%TO.N,+5V*%
X139900000Y-87250000D03*
%TO.P,U1,18,SW2_18*%
%TO.N,Net-(U1-SW2)*%
X139900000Y-86750000D03*
%TO.P,U1,19,SW1_19*%
%TO.N,Net-(U1-SW1)*%
X139900000Y-86250000D03*
%TO.P,U1,20,IN1_20*%
%TO.N,+5V*%
X139900000Y-85750000D03*
D20*
%TO.P,U1,21,GND_21*%
%TO.N,GND*%
X137450000Y-86500000D03*
%TD*%
D14*
%TO.P,R6,1*%
%TO.N,Net-(U1-IS+)*%
X136800000Y-81625000D03*
%TO.P,R6,2*%
%TO.N,VCC*%
X136800000Y-79975000D03*
%TD*%
D15*
%TO.P,R8,1*%
%TO.N,GND*%
X126275000Y-84500000D03*
%TO.P,R8,2*%
%TO.N,Net-(U1-DTH)*%
X127925000Y-84500000D03*
%TD*%
D21*
%TO.P,H1,1,1_1*%
%TO.N,unconnected-(H1-Pad1)*%
X155000000Y-75000000D03*
%TD*%
D22*
%TO.P,C9,1*%
%TO.N,+5V*%
X141425000Y-82900000D03*
%TO.P,C9,2*%
%TO.N,GND*%
X144375000Y-82900000D03*
%TD*%
D14*
%TO.P,R15,1*%
%TO.N,GND*%
X119600000Y-88500000D03*
%TO.P,R15,2*%
%TO.N,Net-(J1-CC2)*%
X119600000Y-86850000D03*
%TD*%
D15*
%TO.P,R2,1*%
%TO.N,GND*%
X131425000Y-96750000D03*
%TO.P,R2,2*%
%TO.N,Net-(D1-A)*%
X133075000Y-96750000D03*
%TD*%
D23*
%TO.P,D1,1,K_1*%
%TO.N,+5V*%
X139000000Y-90600000D03*
D24*
%TO.P,D1,2,A_2*%
%TO.N,Net-(D1-A)*%
X137100000Y-90600000D03*
%TD*%
D17*
%TO.P,C2,1*%
%TO.N,Net-(D2-K)*%
X139725000Y-94500000D03*
%TO.P,C2,2*%
%TO.N,GND*%
X138175000Y-94500000D03*
%TD*%
D25*
%TO.P,R10,1*%
%TO.N,Net-(U1-FTH)*%
X129575000Y-86750000D03*
%TO.P,R10,2*%
%TO.N,+5V*%
X127925000Y-86750000D03*
%TD*%
D14*
%TO.P,R12,1*%
%TO.N,GND*%
X121600000Y-88500000D03*
%TO.P,R12,2*%
%TO.N,Net-(J1-CC1)*%
X121600000Y-86850000D03*
%TD*%
D17*
%TO.P,C4,1*%
%TO.N,Net-(U1-CTD)*%
X135275000Y-94000000D03*
%TO.P,C4,2*%
%TO.N,GND*%
X133725000Y-94000000D03*
%TD*%
D26*
%TO.P,D3,*%
%TO.N,*%
X113300000Y-75500000D03*
D27*
%TO.P,D3,1,-_1*%
%TO.N,Net-(D3--)*%
X114685000Y-75500000D03*
D28*
%TO.P,D3,2,+_2*%
%TO.N,Net-(D3-+)*%
X111915000Y-75500000D03*
%TD*%
D22*
%TO.P,C8,1*%
%TO.N,+5V*%
X141275000Y-90000000D03*
%TO.P,C8,2*%
%TO.N,GND*%
X144225000Y-90000000D03*
%TD*%
D29*
%TO.P,R5,1*%
%TO.N,GND*%
X131500000Y-81175000D03*
%TO.P,R5,2*%
%TO.N,Net-(U1-NTC)*%
X131500000Y-82825000D03*
%TD*%
D16*
%TO.P,R13,1*%
%TO.N,VCC*%
X137500000Y-76000000D03*
%TO.P,R13,2*%
%TO.N,Net-(R13-Pad2)*%
X137500000Y-73000000D03*
%TD*%
D22*
%TO.P,C7,1*%
%TO.N,+5V*%
X144025000Y-86500000D03*
%TO.P,C7,2*%
%TO.N,GND*%
X146975000Y-86500000D03*
%TD*%
D17*
%TO.P,C3,1*%
%TO.N,Net-(U1-CTS)*%
X134175000Y-78700000D03*
%TO.P,C3,2*%
%TO.N,GND*%
X132625000Y-78700000D03*
%TD*%
D30*
%TO.P,D2,1,K_1*%
%TO.N,Net-(D2-K)*%
X141250000Y-94500000D03*
%TO.P,D2,2,A_2*%
%TO.N,Net-(D2-A)*%
X142650000Y-94500000D03*
%TD*%
D21*
%TO.P,H2,1,1_1*%
%TO.N,unconnected-(H2-Pad1)*%
X115000000Y-95000000D03*
%TD*%
D31*
%TO.P,J1,A5,CC1_A5*%
%TO.N,Net-(J1-CC1)*%
X115530000Y-84500000D03*
D32*
%TO.P,J1,A9,VBUS_A9*%
%TO.N,VCC*%
X115530000Y-86520000D03*
D33*
%TO.P,J1,A12,GND_A12*%
%TO.N,GND*%
X115530000Y-87750000D03*
D34*
%TO.P,J1,B5,CC2_B5*%
%TO.N,Net-(J1-CC2)*%
X115530000Y-85500000D03*
D35*
%TO.P,J1,B9,VBUS_B9*%
%TO.N,VCC*%
X115530000Y-83480000D03*
D36*
%TO.P,J1,B12,GND_B12*%
%TO.N,GND*%
X115530000Y-82250000D03*
D37*
%TO.P,J1,SH,SHIELD_SH*%
X115450000Y-80680000D03*
X111650000Y-80680000D03*
X115450000Y-89320000D03*
X111650000Y-89320000D03*
%TD*%
D17*
%TO.P,C5,1*%
%TO.N,Net-(U1-IMON)*%
X135250000Y-82500000D03*
%TO.P,C5,2*%
%TO.N,GND*%
X133700000Y-82500000D03*
%TD*%
D15*
%TO.P,R1,1*%
%TO.N,Net-(D1-A)*%
X134500000Y-96750000D03*
%TO.P,R1,2*%
%TO.N,Net-(D2-K)*%
X136150000Y-96750000D03*
%TD*%
D17*
%TO.P,C6,1*%
%TO.N,+5V*%
X139875000Y-81650000D03*
%TO.P,C6,2*%
%TO.N,Net-(U1-IS+)*%
X138325000Y-81650000D03*
%TD*%
D38*
%TO.N,+5V*%
X127925000Y-86750000D03*
%TO.N,Net-(U1-SW2)*%
X141300000Y-86950000D03*
X141950000Y-87400000D03*
X142500000Y-87400000D03*
X141950000Y-86800000D03*
X142500000Y-86800000D03*
%TO.N,Net-(U1-SW1)*%
X141300000Y-86050000D03*
X141950000Y-86200000D03*
X141950000Y-85600000D03*
X142500000Y-85600000D03*
X142500000Y-86200000D03*
%TO.N,Net-(U1-CTD)*%
X136450000Y-93450000D03*
%TO.N,Net-(D3--)*%
X125250000Y-85550000D03*
%TO.N,+5V*%
X140950000Y-78300000D03*
X140200000Y-77350000D03*
X141750000Y-77350000D03*
X141750000Y-79250000D03*
X140200000Y-79300000D03*
%TO.N,Net-(U1-CTS)*%
X139200000Y-83150000D03*
X135700000Y-78700000D03*
%TO.N,+5V*%
X130000000Y-80200000D03*
X127900000Y-80200000D03*
%TO.N,Net-(D3--)*%
X117650000Y-75500000D03*
%TO.N,Net-(U1-CTD)*%
X137700000Y-89500000D03*
%TO.N,+5V*%
X121300000Y-72500000D03*
%TD*%
%TO.N,Net-(U1-IMON)*%
D39*
X135300000Y-82450000D02*
X135250000Y-82500000D01*
X135300000Y-81000000D02*
X135300000Y-82450000D01*
%TO.N,Net-(U1-NTC)*%
X131500000Y-82825000D02*
X130000000Y-82825000D01*
%TO.N,Net-(U1-IS+)*%
X136800000Y-82600000D02*
X136800000Y-81625000D01*
X137200000Y-83000000D02*
X136800000Y-82600000D01*
X137200000Y-84550000D02*
X137200000Y-83000000D01*
X136825000Y-81650000D02*
X136800000Y-81625000D01*
X138325000Y-81650000D02*
X136825000Y-81650000D01*
%TO.N,Net-(D3--)*%
X131350000Y-86250000D02*
X135000000Y-86250000D01*
X130650000Y-85550000D02*
X131350000Y-86250000D01*
X125250000Y-85550000D02*
X130650000Y-85550000D01*
%TO.N,Net-(D1-A)*%
X134500000Y-92600000D02*
X134500000Y-96750000D01*
X135250000Y-91850000D02*
X134500000Y-92600000D01*
X135250000Y-90525000D02*
X135250000Y-91850000D01*
X135275000Y-90500000D02*
X135250000Y-90525000D01*
%TO.N,Net-(U1-CTD)*%
X135900000Y-94000000D02*
X135275000Y-94000000D01*
X136450000Y-93450000D02*
X135900000Y-94000000D01*
X137700000Y-88450000D02*
X137700000Y-89450000D01*
%TO.N,+5V*%
X139500000Y-82050000D02*
X137700000Y-83850000D01*
X137700000Y-83850000D02*
X137700000Y-84550000D01*
X139500000Y-75150000D02*
X139500000Y-82050000D01*
X139900000Y-74750000D02*
X139500000Y-75150000D01*
X141100000Y-75250000D02*
X140600000Y-74750000D01*
X140600000Y-74750000D02*
X139900000Y-74750000D01*
X141100000Y-75950000D02*
X141100000Y-75250000D01*
%TO.N,VCC*%
X139100000Y-77000000D02*
X136800000Y-79300000D01*
X139100000Y-75200000D02*
X139100000Y-77000000D01*
X138700000Y-74800000D02*
X139100000Y-75200000D01*
X136800000Y-79300000D02*
X136800000Y-79975000D01*
X137500000Y-75300000D02*
X138000000Y-74800000D01*
X138000000Y-74800000D02*
X138700000Y-74800000D01*
X137500000Y-76000000D02*
X137500000Y-75300000D01*
%TO.N,Net-(U1-CTS)*%
X138200000Y-84550000D02*
X138200000Y-84150000D01*
X138200000Y-84150000D02*
X139200000Y-83150000D01*
%TO.N,+5V*%
X127900000Y-81150000D02*
X127925000Y-81175000D01*
X127900000Y-80200000D02*
X127900000Y-81150000D01*
X130000000Y-80200000D02*
X130000000Y-81175000D01*
X121300000Y-72500000D02*
X119025000Y-72500000D01*
%TO.N,VCC*%
D40*
X113300000Y-84300000D02*
X114120000Y-83480000D01*
X113300000Y-85600000D02*
X113300000Y-84300000D01*
X114120000Y-83480000D02*
X119520000Y-83480000D01*
X119520000Y-83480000D02*
X127000000Y-76000000D01*
X114220000Y-86520000D02*
X113300000Y-85600000D01*
X115330000Y-86520000D02*
X114220000Y-86520000D01*
%TO.N,Net-(D3-+)*%
D39*
X112600000Y-72500000D02*
X117375000Y-72500000D01*
X111915000Y-73185000D02*
X112600000Y-72500000D01*
X111915000Y-75500000D02*
X111915000Y-73185000D01*
%TO.N,Net-(D3--)*%
X117600000Y-75500000D02*
X114685000Y-75500000D01*
%TO.N,Net-(U1-CTS)*%
X134275000Y-78700000D02*
X134175000Y-78600000D01*
X135700000Y-78700000D02*
X134275000Y-78700000D01*
%TO.N,Net-(D2-A)*%
X155000000Y-91772045D02*
X154972045Y-91800000D01*
X142650000Y-94500000D02*
X152350000Y-94500000D01*
X152350000Y-94500000D02*
X154850000Y-92000000D01*
D40*
X155000000Y-87500000D02*
X155000000Y-91772045D01*
%TO.N,Net-(U1-DTH)*%
D39*
X132500000Y-85750000D02*
X131250000Y-84500000D01*
X135000000Y-85750000D02*
X132500000Y-85750000D01*
X131250000Y-84500000D02*
X128000000Y-84500000D01*
X127925000Y-84425000D02*
X128000000Y-84500000D01*
X127925000Y-82825000D02*
X127925000Y-84425000D01*
%TO.N,Net-(U1-IMON)*%
X136000000Y-82500000D02*
X135250000Y-82500000D01*
X136700000Y-84550000D02*
X136700000Y-83200000D01*
X136700000Y-83200000D02*
X136000000Y-82500000D01*
%TO.N,Net-(R13-Pad2)*%
D40*
X137500000Y-73000000D02*
X140000000Y-73000000D01*
%TO.N,Net-(D1-A)*%
D39*
X137000000Y-90500000D02*
X137100000Y-90600000D01*
%TO.N,Net-(U1-NTC)*%
X136200000Y-84550000D02*
X132550000Y-84550000D01*
X132550000Y-84550000D02*
X131500000Y-83500000D01*
X131500000Y-83500000D02*
X131500000Y-82825000D01*
%TO.N,Net-(U1-FTH)*%
X129575000Y-86750000D02*
X129575000Y-88250000D01*
X135000000Y-86750000D02*
X129575000Y-86750000D01*
%TO.N,VCC*%
X137275000Y-76225000D02*
X137500000Y-76000000D01*
%TO.N,Net-(J1-CC2)*%
X115330000Y-85500000D02*
X118700000Y-85500000D01*
X119600000Y-86400000D02*
X119600000Y-86850000D01*
X118700000Y-85500000D02*
X119600000Y-86400000D01*
%TO.N,Net-(D2-K)*%
X139725000Y-95375000D02*
X139725000Y-94500000D01*
X138350000Y-96750000D02*
X139725000Y-95375000D01*
X136150000Y-96750000D02*
X138350000Y-96750000D01*
%TO.N,Net-(J1-CC1)*%
X115330000Y-84500000D02*
X120100000Y-84500000D01*
X121600000Y-86000000D02*
X121600000Y-86850000D01*
X120100000Y-84500000D02*
X121600000Y-86000000D01*
%TO.N,VCC*%
D40*
X127000000Y-76000000D02*
X137500000Y-76000000D01*
%TD*%
%TA.AperFunction,Conductor*%
%TO.N,Net-(U1-SW2)*%
G36*
X139489219Y-86600499D02*
G01*
X139524000Y-86605500D01*
X141895403Y-86605500D01*
X141895407Y-86605500D01*
X141895706Y-86605460D01*
X141896024Y-86605419D01*
X141902416Y-86605000D01*
X141997584Y-86605000D01*
X142003976Y-86605419D01*
X142004429Y-86605478D01*
X142004593Y-86605500D01*
X142435344Y-86605500D01*
X142435349Y-86605500D01*
X142440499Y-86605331D01*
X142449592Y-86605034D01*
X142449592Y-86605056D01*
X142451315Y-86605000D01*
X142548685Y-86605000D01*
X142550407Y-86605056D01*
X142550408Y-86605034D01*
X142559500Y-86605331D01*
X142564651Y-86605500D01*
X142564656Y-86605500D01*
X142576000Y-86605500D01*
X142576008Y-86605500D01*
X142601996Y-86603640D01*
X142605246Y-86603408D01*
X142625479Y-86600498D01*
X142632452Y-86600000D01*
X142641253Y-86600000D01*
X142659999Y-86603727D01*
X142666893Y-86606583D01*
X142673788Y-86613476D01*
X142675901Y-86614352D01*
X142676775Y-86616463D01*
X142693413Y-86633098D01*
X142696271Y-86639999D01*
X142700000Y-86658747D01*
X142700000Y-87541252D01*
X142696271Y-87560003D01*
X142693416Y-87566896D01*
X142666898Y-87593414D01*
X142660003Y-87596270D01*
X142641253Y-87600000D01*
X141557616Y-87600000D01*
X141542122Y-87597485D01*
X141527808Y-87592714D01*
X141513905Y-87585429D01*
X141467999Y-87551000D01*
X140599999Y-86900000D01*
X139458747Y-86900000D01*
X139439999Y-86896271D01*
X139433101Y-86893414D01*
X139406585Y-86866898D01*
X139403727Y-86859997D01*
X139400000Y-86841252D01*
X139400000Y-86658747D01*
X139403727Y-86640002D01*
X139406583Y-86633106D01*
X139433094Y-86606588D01*
X139440002Y-86603726D01*
X139458747Y-86600000D01*
X139482245Y-86600000D01*
X139489219Y-86600499D01*
G37*
%TD.AperFunction*%
%TD*%
%TA.AperFunction,Conductor*%
%TO.N,Net-(D1-A)*%
G36*
X134943039Y-96119685D02*
G01*
X134988794Y-96172489D01*
X135000000Y-96224000D01*
X135000000Y-97176000D01*
X134980315Y-97243039D01*
X134927511Y-97288794D01*
X134876000Y-97300000D01*
X132724000Y-97300000D01*
X132656961Y-97280315D01*
X132611206Y-97227511D01*
X132600000Y-97176000D01*
X132600000Y-96224000D01*
X132619685Y-96156961D01*
X132672489Y-96111206D01*
X132724000Y-96100000D01*
X134876000Y-96100000D01*
X134943039Y-96119685D01*
G37*
%TD.AperFunction*%
%TD*%
%TA.AperFunction,Conductor*%
%TO.N,Net-(U1-SW1)*%
G36*
X142643039Y-85419685D02*
G01*
X142688794Y-85472489D01*
X142700000Y-85524000D01*
X142700000Y-86276000D01*
X142697449Y-86284685D01*
X142698738Y-86293647D01*
X142687759Y-86317687D01*
X142680315Y-86343039D01*
X142673474Y-86348966D01*
X142669713Y-86357203D01*
X142647478Y-86371492D01*
X142627511Y-86388794D01*
X142616996Y-86391081D01*
X142610935Y-86394977D01*
X142576000Y-86400000D01*
X142564651Y-86400000D01*
X142557022Y-86399500D01*
X142552727Y-86399500D01*
X142447273Y-86399500D01*
X142442978Y-86399500D01*
X142435349Y-86400000D01*
X142004593Y-86400000D01*
X142002727Y-86399500D01*
X141897273Y-86399500D01*
X141895407Y-86400000D01*
X139524000Y-86400000D01*
X139456961Y-86380315D01*
X139411206Y-86327511D01*
X139400000Y-86276000D01*
X139400000Y-86224000D01*
X139419685Y-86156961D01*
X139472489Y-86111206D01*
X139524000Y-86100000D01*
X140599999Y-86100000D01*
X140600000Y-86100000D01*
X141500266Y-85424799D01*
X141565708Y-85400324D01*
X141574666Y-85400000D01*
X142576000Y-85400000D01*
X142643039Y-85419685D01*
G37*
%TD.AperFunction*%
%TD*%
%TA.AperFunction,Conductor*%
%TO.N,Net-(D2-K)*%
G36*
X141743039Y-93919685D02*
G01*
X141788794Y-93972489D01*
X141800000Y-94024000D01*
X141800000Y-94976000D01*
X141780315Y-95043039D01*
X141727511Y-95088794D01*
X141676000Y-95100000D01*
X139524000Y-95100000D01*
X139456961Y-95080315D01*
X139411206Y-95027511D01*
X139400000Y-94976000D01*
X139400000Y-94024000D01*
X139419685Y-93956961D01*
X139472489Y-93911206D01*
X139524000Y-93900000D01*
X141676000Y-93900000D01*
X141743039Y-93919685D01*
G37*
%TD.AperFunction*%
%TD*%
%TA.AperFunction,Conductor*%
%TO.N,Net-(D1-A)*%
G36*
X137463653Y-88014352D02*
G01*
X137478005Y-88049000D01*
X137477064Y-88058559D01*
X137474500Y-88071450D01*
X137474500Y-88230233D01*
X137461083Y-88262623D01*
X137461496Y-88262940D01*
X137460313Y-88264480D01*
X137460148Y-88264881D01*
X137459541Y-88265488D01*
X137459540Y-88265488D01*
X137419979Y-88334008D01*
X137419979Y-88334010D01*
X137399500Y-88410436D01*
X137399500Y-89213811D01*
X137385148Y-89248459D01*
X137379521Y-89254086D01*
X137379520Y-89254086D01*
X137326793Y-89345410D01*
X137326792Y-89345414D01*
X137299500Y-89447269D01*
X137299500Y-89552730D01*
X137326792Y-89654585D01*
X137326793Y-89654589D01*
X137379520Y-89745913D01*
X137454087Y-89820480D01*
X137454090Y-89820481D01*
X137454093Y-89820484D01*
X137461050Y-89824500D01*
X137475498Y-89832842D01*
X137498330Y-89862593D01*
X137500000Y-89875277D01*
X137500000Y-91051000D01*
X137485648Y-91085648D01*
X137451000Y-91100000D01*
X134849000Y-91100000D01*
X134814352Y-91085648D01*
X134800000Y-91051000D01*
X134800000Y-89949000D01*
X134814352Y-89914352D01*
X134849000Y-89900000D01*
X136200000Y-89900000D01*
X136508684Y-89552730D01*
X137000000Y-89000000D01*
X137000000Y-88049000D01*
X137014352Y-88014352D01*
X137049000Y-88000000D01*
X137429005Y-88000000D01*
X137463653Y-88014352D01*
G37*
%TD.AperFunction*%
%TD*%
%TA.AperFunction,Conductor*%
%TO.N,GND*%
G36*
X154998612Y-70100529D02*
G01*
X155001315Y-70100587D01*
X155004022Y-70100674D01*
X155418936Y-70118790D01*
X155424305Y-70119141D01*
X155429710Y-70119615D01*
X155435036Y-70120199D01*
X155771383Y-70164479D01*
X155842756Y-70173876D01*
X155848051Y-70174690D01*
X155853412Y-70175635D01*
X155858674Y-70176681D01*
X156260202Y-70265698D01*
X156265435Y-70266979D01*
X156270600Y-70268363D01*
X156275800Y-70269878D01*
X156668013Y-70393543D01*
X156673140Y-70395284D01*
X156678170Y-70397115D01*
X156683208Y-70399074D01*
X157063144Y-70556449D01*
X157068064Y-70558614D01*
X157070830Y-70559904D01*
X157072997Y-70560915D01*
X157077831Y-70563300D01*
X157442541Y-70753155D01*
X157447261Y-70755744D01*
X157451965Y-70758459D01*
X157456587Y-70761264D01*
X157803394Y-70982204D01*
X157807894Y-70985211D01*
X157812314Y-70988306D01*
X157816675Y-70991504D01*
X158142904Y-71241828D01*
X158147132Y-71245222D01*
X158151269Y-71248694D01*
X158155328Y-71252254D01*
X158458482Y-71530043D01*
X158462390Y-71533784D01*
X158466214Y-71537608D01*
X158469944Y-71541504D01*
X158742869Y-71839350D01*
X158747749Y-71844675D01*
X158751297Y-71848720D01*
X158754775Y-71852864D01*
X158758160Y-71857081D01*
X158788756Y-71896954D01*
X159008510Y-72183343D01*
X159011705Y-72187701D01*
X159014799Y-72192121D01*
X159017795Y-72196605D01*
X159238734Y-72543411D01*
X159241539Y-72548033D01*
X159244240Y-72552711D01*
X159246843Y-72557457D01*
X159436698Y-72922165D01*
X159439094Y-72927023D01*
X159441387Y-72931941D01*
X159443563Y-72936887D01*
X159600916Y-73316769D01*
X159602877Y-73321811D01*
X159604722Y-73326880D01*
X159606458Y-73331994D01*
X159723896Y-73704459D01*
X159727011Y-73714336D01*
X159727011Y-73714337D01*
X159730111Y-73724169D01*
X159731626Y-73729367D01*
X159733025Y-73734589D01*
X159734310Y-73739840D01*
X159823309Y-74141289D01*
X159824365Y-74146601D01*
X159825304Y-74151928D01*
X159826126Y-74157269D01*
X159879795Y-74564922D01*
X159880384Y-74570296D01*
X159880856Y-74575689D01*
X159881210Y-74581091D01*
X159899322Y-74995924D01*
X159899410Y-74998625D01*
X159899470Y-75001372D01*
X159899500Y-75004080D01*
X159899500Y-94995918D01*
X159899470Y-94998622D01*
X159899470Y-94998626D01*
X159899410Y-95001373D01*
X159899322Y-95004074D01*
X159881210Y-95418907D01*
X159880856Y-95424309D01*
X159880384Y-95429702D01*
X159879795Y-95435076D01*
X159826126Y-95842729D01*
X159825304Y-95848070D01*
X159824365Y-95853397D01*
X159823309Y-95858709D01*
X159734310Y-96260158D01*
X159733026Y-96265406D01*
X159731629Y-96270621D01*
X159730113Y-96275823D01*
X159606463Y-96667990D01*
X159604725Y-96673109D01*
X159602878Y-96678184D01*
X159600916Y-96683230D01*
X159443563Y-97063111D01*
X159441387Y-97068057D01*
X159439094Y-97072975D01*
X159436698Y-97077833D01*
X159246843Y-97442541D01*
X159244240Y-97447287D01*
X159241539Y-97451965D01*
X159238734Y-97456587D01*
X159017792Y-97803397D01*
X159014791Y-97807888D01*
X159011698Y-97812306D01*
X159008494Y-97816677D01*
X158758176Y-98142897D01*
X158754787Y-98147119D01*
X158751302Y-98151272D01*
X158747737Y-98155336D01*
X158469955Y-98458482D01*
X158466214Y-98462390D01*
X158462390Y-98466214D01*
X158458482Y-98469955D01*
X158155336Y-98747737D01*
X158151272Y-98751302D01*
X158147119Y-98754787D01*
X158142897Y-98758176D01*
X157816677Y-99008494D01*
X157812306Y-99011698D01*
X157807888Y-99014791D01*
X157803397Y-99017792D01*
X157456587Y-99238734D01*
X157451965Y-99241539D01*
X157447287Y-99244240D01*
X157442541Y-99246843D01*
X157077833Y-99436698D01*
X157072975Y-99439094D01*
X157068057Y-99441387D01*
X157063111Y-99443563D01*
X156683230Y-99600916D01*
X156678184Y-99602878D01*
X156673109Y-99604725D01*
X156667990Y-99606463D01*
X156275823Y-99730113D01*
X156270621Y-99731629D01*
X156265406Y-99733026D01*
X156260158Y-99734310D01*
X155858709Y-99823309D01*
X155853397Y-99824365D01*
X155848070Y-99825304D01*
X155842729Y-99826126D01*
X155435076Y-99879795D01*
X155429702Y-99880384D01*
X155424309Y-99880856D01*
X155418907Y-99881210D01*
X155004075Y-99899322D01*
X155001374Y-99899410D01*
X154998627Y-99899470D01*
X154995919Y-99899500D01*
X115004081Y-99899500D01*
X115001374Y-99899470D01*
X114998626Y-99899410D01*
X114995924Y-99899322D01*
X114581091Y-99881210D01*
X114575689Y-99880856D01*
X114570296Y-99880384D01*
X114564922Y-99879795D01*
X114157269Y-99826126D01*
X114151928Y-99825304D01*
X114146601Y-99824365D01*
X114141289Y-99823309D01*
X113836064Y-99755643D01*
X113739812Y-99734304D01*
X113734560Y-99733018D01*
X113732818Y-99732551D01*
X113729367Y-99731626D01*
X113724189Y-99730117D01*
X113332003Y-99606461D01*
X113326880Y-99604722D01*
X113321811Y-99602877D01*
X113316769Y-99600916D01*
X112936887Y-99443563D01*
X112931941Y-99441387D01*
X112927023Y-99439094D01*
X112922165Y-99436698D01*
X112557457Y-99246843D01*
X112552721Y-99244245D01*
X112548033Y-99241539D01*
X112543411Y-99238734D01*
X112196605Y-99017795D01*
X112192121Y-99014799D01*
X112187701Y-99011705D01*
X112183343Y-99008510D01*
X111991126Y-98861017D01*
X111857081Y-98758160D01*
X111852864Y-98754775D01*
X111848720Y-98751297D01*
X111844675Y-98747749D01*
X111541516Y-98469955D01*
X111537608Y-98466214D01*
X111533784Y-98462390D01*
X111530043Y-98458482D01*
X111252254Y-98155328D01*
X111248694Y-98151269D01*
X111245222Y-98147132D01*
X111241828Y-98142904D01*
X110991504Y-97816675D01*
X110988315Y-97812326D01*
X110985215Y-97807900D01*
X110982219Y-97803419D01*
X110965049Y-97776467D01*
X110761246Y-97456560D01*
X110758457Y-97451962D01*
X110755746Y-97447265D01*
X110753159Y-97442548D01*
X110648149Y-97240825D01*
X110614401Y-97175996D01*
X110563287Y-97077806D01*
X110560897Y-97072960D01*
X110558606Y-97068045D01*
X110556435Y-97063110D01*
X110399074Y-96683208D01*
X110397115Y-96678170D01*
X110395284Y-96673140D01*
X110393543Y-96668013D01*
X110269878Y-96275800D01*
X110268363Y-96270600D01*
X110267689Y-96268084D01*
X110266972Y-96265406D01*
X110265697Y-96260196D01*
X110260478Y-96236654D01*
X110176681Y-95858674D01*
X110175632Y-95853397D01*
X110174690Y-95848051D01*
X110173876Y-95842756D01*
X110169712Y-95811129D01*
X110120198Y-95435027D01*
X110119613Y-95429683D01*
X110119143Y-95424309D01*
X110118789Y-95418914D01*
X110118267Y-95406947D01*
X110100672Y-95003945D01*
X110100588Y-95001371D01*
X110100529Y-94998622D01*
X110100500Y-94995962D01*
X110100500Y-94831486D01*
X111999500Y-94831486D01*
X111999500Y-95168512D01*
X112037231Y-95503391D01*
X112112223Y-95831952D01*
X112112227Y-95831968D01*
X112112234Y-95831989D01*
X112223529Y-96150047D01*
X112223535Y-96150061D01*
X112369751Y-96453681D01*
X112369955Y-96454039D01*
X112370641Y-96455098D01*
X112549055Y-96739041D01*
X112549056Y-96739043D01*
X112704927Y-96934499D01*
X112704937Y-96934511D01*
X112749553Y-96990458D01*
X112749555Y-96990460D01*
X112749554Y-96990460D01*
X112759176Y-97002524D01*
X112759179Y-97002528D01*
X112897672Y-97141020D01*
X112997477Y-97240825D01*
X113260961Y-97450946D01*
X113546314Y-97630246D01*
X113849949Y-97776469D01*
X114088848Y-97860063D01*
X114168034Y-97887772D01*
X114168046Y-97887776D01*
X114496606Y-97962767D01*
X114496611Y-97962767D01*
X114496613Y-97962768D01*
X114496612Y-97962768D01*
X114618264Y-97976474D01*
X114814095Y-97998538D01*
X114821698Y-98000500D01*
X115168507Y-98000500D01*
X115194005Y-98000500D01*
X115199139Y-97997696D01*
X115211608Y-97995642D01*
X115445768Y-97969259D01*
X115503387Y-97962768D01*
X115503388Y-97962767D01*
X115503394Y-97962767D01*
X115831954Y-97887776D01*
X116150051Y-97776469D01*
X116150056Y-97776466D01*
X116150058Y-97776466D01*
X116288154Y-97709961D01*
X116453686Y-97630246D01*
X116739039Y-97450946D01*
X117002523Y-97240825D01*
X117240825Y-97002523D01*
X117450946Y-96739039D01*
X117630246Y-96453686D01*
X117649752Y-96413181D01*
X117663417Y-96384807D01*
X117663418Y-96384805D01*
X117776464Y-96150062D01*
X117776465Y-96150059D01*
X117776469Y-96150051D01*
X117887776Y-95831954D01*
X117962767Y-95503394D01*
X118000500Y-95168504D01*
X118000500Y-94831496D01*
X117962767Y-94496606D01*
X117914328Y-94284378D01*
X117887777Y-94168050D01*
X117887771Y-94168034D01*
X117874449Y-94129961D01*
X117827847Y-93996780D01*
X117827846Y-93996778D01*
X117785645Y-93876173D01*
X117776469Y-93849949D01*
X117630246Y-93546314D01*
X117450946Y-93260961D01*
X117240825Y-92997477D01*
X117002523Y-92759175D01*
X116959005Y-92724471D01*
X116937982Y-92707706D01*
X116885729Y-92666035D01*
X116858789Y-92644551D01*
X116739039Y-92549054D01*
X116455098Y-92370641D01*
X116454039Y-92369955D01*
X116453681Y-92369751D01*
X116150061Y-92223535D01*
X116150047Y-92223529D01*
X115831989Y-92112234D01*
X115831968Y-92112227D01*
X115831956Y-92112224D01*
X115831953Y-92112223D01*
X115744630Y-92092292D01*
X115503391Y-92037231D01*
X115168512Y-91999500D01*
X115168508Y-91999500D01*
X115168504Y-91999500D01*
X114831496Y-91999500D01*
X114831491Y-91999500D01*
X114831486Y-91999500D01*
X114496607Y-92037231D01*
X114168046Y-92112223D01*
X114168030Y-92112227D01*
X114168009Y-92112234D01*
X113849951Y-92223529D01*
X113849937Y-92223535D01*
X113546318Y-92369750D01*
X113260959Y-92549054D01*
X113260957Y-92549055D01*
X112997483Y-92759167D01*
X112759167Y-92997483D01*
X112549055Y-93260957D01*
X112549054Y-93260959D01*
X112369750Y-93546318D01*
X112223535Y-93849937D01*
X112223529Y-93849951D01*
X112112234Y-94168009D01*
X112112227Y-94168030D01*
X112112223Y-94168046D01*
X112037231Y-94496607D01*
X111999500Y-94831486D01*
X110100500Y-94831486D01*
X110100500Y-85642547D01*
X112594237Y-85642547D01*
X112626092Y-85802684D01*
X112626418Y-85804322D01*
X112626421Y-85804332D01*
X112626423Y-85804336D01*
X112626426Y-85804347D01*
X112679220Y-85931803D01*
X112679224Y-85931810D01*
X112755887Y-86046545D01*
X112755888Y-86046546D01*
X113675886Y-86966542D01*
X113733845Y-87024501D01*
X113773455Y-87064112D01*
X113773458Y-87064114D01*
X113773459Y-87064115D01*
X113888182Y-87140771D01*
X113888191Y-87140776D01*
X113890938Y-87141914D01*
X113890944Y-87141917D01*
X113962239Y-87171448D01*
X113988955Y-87182514D01*
X114015671Y-87193580D01*
X114015674Y-87193580D01*
X114015679Y-87193582D01*
X114042545Y-87198925D01*
X114042551Y-87198926D01*
X114042591Y-87198934D01*
X114132932Y-87216904D01*
X114132936Y-87216906D01*
X114132937Y-87216905D01*
X114151006Y-87220500D01*
X115398995Y-87220500D01*
X115398996Y-87220500D01*
X115444518Y-87211444D01*
X115490041Y-87202389D01*
X115534328Y-87193580D01*
X115661811Y-87140775D01*
X115776542Y-87064114D01*
X115791237Y-87049418D01*
X115819484Y-87028274D01*
X115842577Y-87015665D01*
X115902000Y-87000499D01*
X115983366Y-87000499D01*
X115983372Y-87000499D01*
X116007662Y-86997682D01*
X116107016Y-86953813D01*
X116183813Y-86877016D01*
X116227682Y-86777662D01*
X116230500Y-86753373D01*
X116230499Y-86286628D01*
X116227916Y-86264352D01*
X116227682Y-86262337D01*
X116183813Y-86162984D01*
X116117709Y-86096880D01*
X116115390Y-86093783D01*
X116096557Y-86068624D01*
X116089065Y-86054903D01*
X116074212Y-85986662D01*
X116074279Y-85985722D01*
X116094532Y-85926145D01*
X116096205Y-85923615D01*
X116098625Y-85921184D01*
X116098632Y-85921166D01*
X116098676Y-85921132D01*
X116130741Y-85888913D01*
X116153624Y-85873624D01*
X116159927Y-85864189D01*
X116167192Y-85857112D01*
X116170007Y-85851086D01*
X116186706Y-85838104D01*
X116196875Y-85828200D01*
X116201543Y-85825255D01*
X116202670Y-85824678D01*
X116203320Y-85824134D01*
X116208063Y-85821143D01*
X116212052Y-85820008D01*
X116248951Y-85804623D01*
X116254213Y-85803527D01*
X116254216Y-85803528D01*
X116256270Y-85803100D01*
X116281530Y-85800500D01*
X118506337Y-85800500D01*
X118541269Y-85805521D01*
X118566513Y-85812934D01*
X118619259Y-85844230D01*
X118991530Y-86216501D01*
X119012681Y-86244756D01*
X119020173Y-86258477D01*
X119035025Y-86326737D01*
X119034896Y-86328543D01*
X119015523Y-86386752D01*
X119011344Y-86393254D01*
X119000947Y-86406156D01*
X118998230Y-86409897D01*
X118998229Y-86409896D01*
X118996951Y-86411655D01*
X118990272Y-86424765D01*
X118990271Y-86424767D01*
X118939352Y-86524696D01*
X118939350Y-86524703D01*
X118924500Y-86618469D01*
X118924500Y-87081517D01*
X118924499Y-87081517D01*
X118931533Y-87125925D01*
X118931534Y-87125927D01*
X118933886Y-87140776D01*
X118939354Y-87175304D01*
X118996950Y-87288342D01*
X118996952Y-87288344D01*
X118996954Y-87288347D01*
X119086652Y-87378045D01*
X119086653Y-87378045D01*
X119086657Y-87378049D01*
X119086664Y-87378054D01*
X119086883Y-87378165D01*
X119180291Y-87425759D01*
X119180295Y-87425760D01*
X119180296Y-87425761D01*
X119199698Y-87435647D01*
X119293220Y-87450458D01*
X119293457Y-87450497D01*
X119293466Y-87450497D01*
X119293475Y-87450499D01*
X119293481Y-87450500D01*
X119906518Y-87450499D01*
X120000304Y-87435646D01*
X120003824Y-87433852D01*
X120037227Y-87422468D01*
X120050866Y-87419907D01*
X120120386Y-87426879D01*
X120175102Y-87470329D01*
X120186504Y-87486504D01*
X120186507Y-87486507D01*
X120200000Y-87500000D01*
X120999999Y-87500000D01*
X121000000Y-87500000D01*
X121015067Y-87484932D01*
X121015069Y-87484923D01*
X121019124Y-87478091D01*
X121021089Y-87475742D01*
X121021557Y-87474159D01*
X121044704Y-87447526D01*
X121045115Y-87447170D01*
X121108516Y-87418271D01*
X121110746Y-87417950D01*
X121113556Y-87417546D01*
X121168700Y-87422084D01*
X121170591Y-87422684D01*
X121189390Y-87430395D01*
X121199695Y-87435646D01*
X121199696Y-87435646D01*
X121199698Y-87435647D01*
X121293220Y-87450458D01*
X121293457Y-87450497D01*
X121293466Y-87450497D01*
X121293475Y-87450499D01*
X121293481Y-87450500D01*
X121906518Y-87450499D01*
X122000304Y-87435646D01*
X122113342Y-87378050D01*
X122203050Y-87288342D01*
X122260646Y-87175304D01*
X122260646Y-87175302D01*
X122260647Y-87175301D01*
X122260649Y-87175285D01*
X122261785Y-87170559D01*
X122261789Y-87170539D01*
X122262173Y-87165667D01*
X122273508Y-87094099D01*
X122273508Y-87094093D01*
X122275500Y-87081519D01*
X122275499Y-86618482D01*
X122260646Y-86524696D01*
X122203050Y-86411658D01*
X122203046Y-86411654D01*
X122203045Y-86411652D01*
X122113347Y-86321954D01*
X122113344Y-86321952D01*
X122113342Y-86321950D01*
X122113340Y-86321949D01*
X122113339Y-86321948D01*
X122036516Y-86282804D01*
X122036506Y-86282799D01*
X122032360Y-86280686D01*
X122026731Y-86275368D01*
X121974863Y-86250778D01*
X121922720Y-86204273D01*
X121919233Y-86198673D01*
X121900500Y-86133137D01*
X121900500Y-85960439D01*
X121898456Y-85952812D01*
X121897484Y-85949184D01*
X121880021Y-85884011D01*
X121875453Y-85876099D01*
X121852775Y-85836819D01*
X121840468Y-85815501D01*
X121840460Y-85815489D01*
X121840453Y-85815481D01*
X121522245Y-85497273D01*
X124849500Y-85497273D01*
X124849500Y-85602727D01*
X124876793Y-85704587D01*
X124929520Y-85795913D01*
X125004087Y-85870480D01*
X125095413Y-85923207D01*
X125197273Y-85950500D01*
X125197275Y-85950500D01*
X125302725Y-85950500D01*
X125302727Y-85950500D01*
X125404587Y-85923207D01*
X125487613Y-85875271D01*
X125517512Y-85862888D01*
X125547978Y-85854725D01*
X125580070Y-85850500D01*
X127534147Y-85850500D01*
X127569083Y-85855523D01*
X127579337Y-85858534D01*
X127638115Y-85896310D01*
X127667139Y-85959866D01*
X127657195Y-86029024D01*
X127620815Y-86075168D01*
X127617712Y-86077596D01*
X127597590Y-86090425D01*
X127591021Y-86093771D01*
X127591002Y-86093783D01*
X127486651Y-86146953D01*
X127396954Y-86236650D01*
X127396950Y-86236658D01*
X127385656Y-86258825D01*
X127383867Y-86262336D01*
X127383866Y-86262337D01*
X127339352Y-86349696D01*
X127339350Y-86349703D01*
X127324500Y-86443469D01*
X127324500Y-86443475D01*
X127324500Y-87056517D01*
X127332114Y-87104589D01*
X127339354Y-87150304D01*
X127396950Y-87263342D01*
X127396952Y-87263344D01*
X127396954Y-87263347D01*
X127486652Y-87353045D01*
X127486654Y-87353046D01*
X127486658Y-87353050D01*
X127599694Y-87410645D01*
X127599698Y-87410647D01*
X127693220Y-87425458D01*
X127693457Y-87425497D01*
X127693466Y-87425497D01*
X127693475Y-87425499D01*
X127693481Y-87425500D01*
X128156518Y-87425499D01*
X128250304Y-87410646D01*
X128363342Y-87353050D01*
X128453050Y-87263342D01*
X128510646Y-87150304D01*
X128510646Y-87150302D01*
X128510647Y-87150301D01*
X128510650Y-87150281D01*
X128511784Y-87145560D01*
X128511786Y-87145554D01*
X128511789Y-87145539D01*
X128512173Y-87140668D01*
X128522169Y-87077553D01*
X128522934Y-87072719D01*
X128525500Y-87056519D01*
X128525499Y-86443482D01*
X128510646Y-86349696D01*
X128453050Y-86236658D01*
X128453046Y-86236654D01*
X128453045Y-86236652D01*
X128363347Y-86146954D01*
X128363345Y-86146953D01*
X128363343Y-86146951D01*
X128363342Y-86146950D01*
X128258968Y-86093769D01*
X128258909Y-86093738D01*
X128257528Y-86093033D01*
X128257503Y-86093009D01*
X128228775Y-86072750D01*
X128225845Y-86069983D01*
X128221004Y-86065411D01*
X128211973Y-86049942D01*
X128206769Y-86045020D01*
X128205062Y-86038105D01*
X128185778Y-86005075D01*
X128188763Y-85935269D01*
X128229015Y-85878159D01*
X128282395Y-85853551D01*
X128286270Y-85852795D01*
X128310014Y-85850500D01*
X129184147Y-85850500D01*
X129189012Y-85851928D01*
X129193977Y-85850890D01*
X129219083Y-85855523D01*
X129229337Y-85858534D01*
X129244335Y-85868173D01*
X129251186Y-85870185D01*
X129255861Y-85875581D01*
X129288115Y-85896310D01*
X129317139Y-85959866D01*
X129307195Y-86029024D01*
X129270815Y-86075168D01*
X129267712Y-86077596D01*
X129247590Y-86090425D01*
X129241021Y-86093771D01*
X129241002Y-86093783D01*
X129136651Y-86146953D01*
X129046954Y-86236650D01*
X129046950Y-86236658D01*
X129035656Y-86258825D01*
X129033867Y-86262336D01*
X129033866Y-86262337D01*
X128989352Y-86349696D01*
X128989350Y-86349703D01*
X128974500Y-86443469D01*
X128974500Y-86443475D01*
X128974500Y-87056517D01*
X128982114Y-87104589D01*
X128989354Y-87150304D01*
X129046950Y-87263342D01*
X129046952Y-87263344D01*
X129046954Y-87263347D01*
X129136652Y-87353045D01*
X129136654Y-87353046D01*
X129136658Y-87353050D01*
X129190913Y-87380694D01*
X129212980Y-87395078D01*
X129216474Y-87397927D01*
X129217859Y-87399235D01*
X129218356Y-87399462D01*
X129223512Y-87403666D01*
X129240194Y-87427992D01*
X129259025Y-87450691D01*
X129259730Y-87456478D01*
X129263029Y-87461288D01*
X129263911Y-87490774D01*
X129267480Y-87520047D01*
X129264944Y-87525297D01*
X129265119Y-87531126D01*
X129249924Y-87556401D01*
X129237097Y-87582964D01*
X129229222Y-87590837D01*
X129229120Y-87591008D01*
X129228985Y-87591074D01*
X129228340Y-87591720D01*
X129219012Y-87600159D01*
X129192119Y-87618690D01*
X129136655Y-87646951D01*
X129046952Y-87736653D01*
X129036230Y-87757697D01*
X128989352Y-87849695D01*
X128989350Y-87849703D01*
X128974500Y-87943469D01*
X128974500Y-88556520D01*
X128982838Y-88609167D01*
X128982839Y-88609169D01*
X128985292Y-88624657D01*
X128989354Y-88650304D01*
X129046950Y-88763342D01*
X129046952Y-88763344D01*
X129046954Y-88763347D01*
X129136652Y-88853045D01*
X129136654Y-88853046D01*
X129136658Y-88853050D01*
X129249694Y-88910645D01*
X129249698Y-88910647D01*
X129343220Y-88925458D01*
X129343457Y-88925497D01*
X129343466Y-88925497D01*
X129343475Y-88925499D01*
X129343481Y-88925500D01*
X129806518Y-88925499D01*
X129900304Y-88910646D01*
X130013342Y-88853050D01*
X130064287Y-88802105D01*
X135969237Y-88802105D01*
X135983956Y-88876096D01*
X135983957Y-88876097D01*
X135983959Y-88876101D01*
X136019983Y-88930015D01*
X136019984Y-88930016D01*
X136073901Y-88966042D01*
X136073902Y-88966042D01*
X136073904Y-88966043D01*
X136073907Y-88966043D01*
X136079724Y-88967808D01*
X136079734Y-88967811D01*
X136079776Y-88967823D01*
X136085877Y-88968424D01*
X136098038Y-88970843D01*
X136121444Y-88975500D01*
X136278554Y-88975500D01*
X136278555Y-88975500D01*
X136314121Y-88968425D01*
X136317222Y-88967808D01*
X136326095Y-88966043D01*
X136326095Y-88966042D01*
X136326098Y-88966042D01*
X136326099Y-88966042D01*
X136326099Y-88966041D01*
X136331244Y-88965018D01*
X136341383Y-88955829D01*
X136380016Y-88930016D01*
X136416042Y-88876099D01*
X136420627Y-88853050D01*
X136425500Y-88828554D01*
X136425500Y-88071445D01*
X136417838Y-88032930D01*
X136417642Y-88031943D01*
X136416043Y-88023904D01*
X136416042Y-88023902D01*
X136416042Y-88023901D01*
X136380016Y-87969984D01*
X136340353Y-87943482D01*
X136326101Y-87933959D01*
X136326095Y-87933956D01*
X136326096Y-87933956D01*
X136293008Y-87927375D01*
X136278554Y-87924500D01*
X136278553Y-87924500D01*
X136121447Y-87924500D01*
X136121446Y-87924500D01*
X136106991Y-87927375D01*
X136073902Y-87933956D01*
X136073901Y-87933957D01*
X136019983Y-87969983D01*
X135983957Y-88023901D01*
X135983956Y-88023902D01*
X135981574Y-88035878D01*
X135974501Y-88071443D01*
X135974500Y-88071446D01*
X135974500Y-88784185D01*
X135969237Y-88802105D01*
X130064287Y-88802105D01*
X130103050Y-88763342D01*
X130160646Y-88650304D01*
X130160646Y-88650302D01*
X130160647Y-88650301D01*
X130160647Y-88650295D01*
X130160966Y-88649671D01*
X130161785Y-88645558D01*
X130161789Y-88645539D01*
X130162173Y-88640668D01*
X130175111Y-88558979D01*
X130175437Y-88557154D01*
X130175499Y-88556523D01*
X130175500Y-88556519D01*
X130175499Y-87943482D01*
X130160646Y-87849696D01*
X130103050Y-87736658D01*
X130103046Y-87736654D01*
X130103045Y-87736652D01*
X130013347Y-87646954D01*
X130013343Y-87646951D01*
X130013342Y-87646950D01*
X130011307Y-87645913D01*
X129956363Y-87617917D01*
X129953692Y-87616385D01*
X129951076Y-87613658D01*
X129940696Y-87606340D01*
X129940611Y-87606467D01*
X129935598Y-87603092D01*
X129934905Y-87602257D01*
X129930245Y-87598972D01*
X129924723Y-87593757D01*
X129926388Y-87591993D01*
X129890981Y-87549323D01*
X129882516Y-87479968D01*
X129912891Y-87417046D01*
X129921635Y-87408300D01*
X129930990Y-87399836D01*
X129957879Y-87381309D01*
X130013342Y-87353050D01*
X130103050Y-87263342D01*
X130144402Y-87182182D01*
X130144715Y-87181576D01*
X130165449Y-87141600D01*
X130166174Y-87141836D01*
X130175184Y-87122831D01*
X130176191Y-87120891D01*
X130198890Y-87097201D01*
X130220722Y-87072723D01*
X130226343Y-87069224D01*
X130291863Y-87050500D01*
X134332670Y-87050500D01*
X134367606Y-87055523D01*
X134382604Y-87059927D01*
X134397594Y-87069557D01*
X134414675Y-87074567D01*
X134441355Y-87097672D01*
X134442542Y-87099041D01*
X134470018Y-87153902D01*
X134471663Y-87161460D01*
X134474500Y-87187831D01*
X134474500Y-87284185D01*
X134469237Y-87302105D01*
X134483956Y-87376096D01*
X134483965Y-87376111D01*
X134505017Y-87407617D01*
X134517141Y-87425761D01*
X134519984Y-87430016D01*
X134573901Y-87466042D01*
X134573902Y-87466042D01*
X134573904Y-87466043D01*
X134606111Y-87472449D01*
X134621444Y-87475500D01*
X135378554Y-87475500D01*
X135378555Y-87475500D01*
X135414121Y-87468425D01*
X135416067Y-87468037D01*
X135426095Y-87466043D01*
X135426095Y-87466042D01*
X135426098Y-87466042D01*
X135426099Y-87466042D01*
X135426099Y-87466041D01*
X135431244Y-87465018D01*
X135441383Y-87455829D01*
X135480016Y-87430016D01*
X135516042Y-87376099D01*
X135520627Y-87353050D01*
X135525500Y-87328554D01*
X135525500Y-87171445D01*
X135522010Y-87153902D01*
X135518425Y-87135878D01*
X135518425Y-87135877D01*
X135517018Y-87128805D01*
X135516043Y-87123904D01*
X135516042Y-87123902D01*
X135516042Y-87123901D01*
X135516042Y-87123900D01*
X135489190Y-87083713D01*
X135489188Y-87083711D01*
X135473956Y-87051873D01*
X135473190Y-87049428D01*
X135469285Y-87036954D01*
X135468039Y-86967100D01*
X135471640Y-86953973D01*
X135488117Y-86917890D01*
X135516042Y-86876099D01*
X135520691Y-86852727D01*
X135525500Y-86828554D01*
X135525500Y-86671445D01*
X135523340Y-86660588D01*
X135518425Y-86635878D01*
X135518425Y-86635877D01*
X135516042Y-86623900D01*
X135489190Y-86583713D01*
X135489188Y-86583711D01*
X135473956Y-86551873D01*
X135469285Y-86536954D01*
X135468039Y-86467101D01*
X135471641Y-86453968D01*
X135488120Y-86417887D01*
X135492283Y-86411657D01*
X135516042Y-86376099D01*
X135517018Y-86371195D01*
X135517162Y-86370474D01*
X135525500Y-86328556D01*
X135525500Y-86171443D01*
X135518425Y-86135878D01*
X135518425Y-86135877D01*
X135516042Y-86123900D01*
X135489190Y-86083713D01*
X135489188Y-86083711D01*
X135473956Y-86051873D01*
X135473418Y-86050156D01*
X135469285Y-86036954D01*
X135468039Y-85967101D01*
X135471641Y-85953968D01*
X135488120Y-85917887D01*
X135491265Y-85913181D01*
X135516042Y-85876099D01*
X135516043Y-85876095D01*
X135525500Y-85828554D01*
X135525500Y-85671445D01*
X135525012Y-85668994D01*
X135518425Y-85635878D01*
X135518425Y-85635877D01*
X135517642Y-85631943D01*
X135516043Y-85623904D01*
X135516042Y-85623902D01*
X135516042Y-85623901D01*
X135480016Y-85569984D01*
X135480015Y-85569983D01*
X135426101Y-85533959D01*
X135426097Y-85533957D01*
X135426096Y-85533956D01*
X135402324Y-85529228D01*
X135378554Y-85524500D01*
X135378553Y-85524500D01*
X135259974Y-85524500D01*
X135227878Y-85520274D01*
X135197412Y-85512110D01*
X135167508Y-85499723D01*
X135115991Y-85469980D01*
X135115990Y-85469979D01*
X135115989Y-85469978D01*
X135115988Y-85469978D01*
X135090511Y-85463151D01*
X135090511Y-85463150D01*
X135039563Y-85449500D01*
X135039562Y-85449500D01*
X135039560Y-85449500D01*
X132693663Y-85449500D01*
X132693662Y-85449499D01*
X132693662Y-85449500D01*
X132658727Y-85444477D01*
X132633485Y-85437065D01*
X132580740Y-85405769D01*
X131434520Y-84259548D01*
X131434509Y-84259538D01*
X131431264Y-84257665D01*
X131431259Y-84257661D01*
X131365993Y-84219980D01*
X131365994Y-84219980D01*
X131359387Y-84218209D01*
X131334730Y-84211603D01*
X131334727Y-84211602D01*
X131289562Y-84199500D01*
X131289560Y-84199500D01*
X128650190Y-84199500D01*
X128650185Y-84199499D01*
X128650183Y-84199500D01*
X128615249Y-84194475D01*
X128600250Y-84190070D01*
X128541485Y-84152306D01*
X128536929Y-84147049D01*
X128511913Y-84101632D01*
X128507191Y-84085970D01*
X128500550Y-84079575D01*
X128497757Y-84074401D01*
X128453050Y-83986658D01*
X128453046Y-83986654D01*
X128453045Y-83986652D01*
X128363347Y-83896954D01*
X128363343Y-83896951D01*
X128363342Y-83896950D01*
X128359099Y-83894788D01*
X128309086Y-83869304D01*
X128290684Y-83856331D01*
X128290599Y-83856459D01*
X128284723Y-83852502D01*
X128282854Y-83850811D01*
X128280245Y-83848972D01*
X128274723Y-83843757D01*
X128274876Y-83843594D01*
X128258565Y-83828838D01*
X128255516Y-83825164D01*
X128237603Y-83796288D01*
X128236352Y-83793470D01*
X128226939Y-83760736D01*
X128226752Y-83759434D01*
X128225500Y-83741858D01*
X128225500Y-83550188D01*
X128228174Y-83531593D01*
X128230523Y-83515252D01*
X128234927Y-83500254D01*
X128272699Y-83441479D01*
X128277952Y-83436927D01*
X128323373Y-83411914D01*
X128339028Y-83407195D01*
X128345485Y-83400510D01*
X128350476Y-83397820D01*
X128438342Y-83353050D01*
X128528050Y-83263342D01*
X128585646Y-83150304D01*
X128585646Y-83150302D01*
X128585647Y-83150301D01*
X128585648Y-83150294D01*
X128586785Y-83145560D01*
X128586785Y-83145558D01*
X128586789Y-83145539D01*
X128587173Y-83140668D01*
X128600111Y-83058979D01*
X128600437Y-83057154D01*
X128600499Y-83056523D01*
X128600500Y-83056519D01*
X128600499Y-82593482D01*
X128585646Y-82499696D01*
X128528050Y-82386658D01*
X128528046Y-82386654D01*
X128528045Y-82386652D01*
X128438347Y-82296954D01*
X128438344Y-82296952D01*
X128438342Y-82296950D01*
X128438341Y-82296949D01*
X128343304Y-82248525D01*
X128343303Y-82248525D01*
X128325300Y-82239351D01*
X128325296Y-82239350D01*
X128231530Y-82224500D01*
X128231524Y-82224500D01*
X127618482Y-82224500D01*
X127618478Y-82224500D01*
X127553846Y-82234736D01*
X127553842Y-82234737D01*
X127537519Y-82237323D01*
X127524696Y-82239354D01*
X127411658Y-82296950D01*
X127411657Y-82296951D01*
X127411652Y-82296954D01*
X127408652Y-82299953D01*
X127408649Y-82299955D01*
X127321955Y-82386649D01*
X127321952Y-82386653D01*
X127316181Y-82397982D01*
X127316177Y-82397989D01*
X127264352Y-82499696D01*
X127264350Y-82499703D01*
X127249500Y-82593469D01*
X127249500Y-82593475D01*
X127249500Y-83056517D01*
X127256153Y-83098523D01*
X127264354Y-83150304D01*
X127321950Y-83263342D01*
X127321952Y-83263344D01*
X127321954Y-83263347D01*
X127411652Y-83353045D01*
X127411653Y-83353045D01*
X127411657Y-83353049D01*
X127411662Y-83353053D01*
X127411853Y-83353149D01*
X127415483Y-83354999D01*
X127492616Y-83394301D01*
X127493411Y-83394709D01*
X127533398Y-83415448D01*
X127533162Y-83416177D01*
X127550676Y-83424476D01*
X127551751Y-83424967D01*
X127554142Y-83426207D01*
X127573397Y-83444658D01*
X127601356Y-83469228D01*
X127602835Y-83471528D01*
X127604805Y-83474594D01*
X127624500Y-83541630D01*
X127624500Y-83732898D01*
X127619476Y-83767835D01*
X127614666Y-83784215D01*
X127605574Y-83798699D01*
X127601418Y-83814067D01*
X127578882Y-83841229D01*
X127569014Y-83850157D01*
X127542119Y-83868690D01*
X127486655Y-83896951D01*
X127396951Y-83986654D01*
X127389898Y-84000498D01*
X127389897Y-84000500D01*
X127339353Y-84099695D01*
X127339350Y-84099703D01*
X127324500Y-84193469D01*
X127324500Y-84806520D01*
X127330473Y-84844230D01*
X127333363Y-84862477D01*
X127339354Y-84900304D01*
X127396950Y-85013342D01*
X127396952Y-85013344D01*
X127396954Y-85013347D01*
X127408819Y-85025212D01*
X127418481Y-85038119D01*
X127429970Y-85053466D01*
X127435390Y-85063392D01*
X127450242Y-85131665D01*
X127425825Y-85197129D01*
X127369892Y-85239001D01*
X127362704Y-85241682D01*
X127319370Y-85249500D01*
X125580070Y-85249500D01*
X125547974Y-85245274D01*
X125517508Y-85237110D01*
X125487604Y-85224723D01*
X125486923Y-85224330D01*
X125404965Y-85177011D01*
X125404589Y-85176794D01*
X125404588Y-85176793D01*
X125404587Y-85176793D01*
X125302727Y-85149500D01*
X125302726Y-85149500D01*
X125197273Y-85149500D01*
X125095413Y-85176792D01*
X125095408Y-85176795D01*
X125004088Y-85229518D01*
X125004082Y-85229523D01*
X124929523Y-85304082D01*
X124929518Y-85304088D01*
X124876795Y-85395408D01*
X124876792Y-85395413D01*
X124856813Y-85469979D01*
X124849500Y-85497273D01*
X121522245Y-85497273D01*
X120284520Y-84259548D01*
X120284509Y-84259538D01*
X120279141Y-84256439D01*
X120279076Y-84256402D01*
X120267121Y-84249500D01*
X120267118Y-84249498D01*
X120215992Y-84219980D01*
X120215993Y-84219980D01*
X120190619Y-84213181D01*
X120139562Y-84199500D01*
X120139560Y-84199500D01*
X120100007Y-84199500D01*
X120089474Y-84197207D01*
X120082327Y-84198233D01*
X120064919Y-84191862D01*
X120049105Y-84188420D01*
X120049061Y-84188520D01*
X120048587Y-84188307D01*
X120048466Y-84188281D01*
X120044698Y-84186559D01*
X120040512Y-84182930D01*
X120034287Y-84180652D01*
X120034111Y-84180542D01*
X120035392Y-84178491D01*
X120018613Y-84163944D01*
X119992366Y-84141501D01*
X119992238Y-84141078D01*
X119991906Y-84140790D01*
X119982182Y-84107644D01*
X119972242Y-84074592D01*
X119972363Y-84074168D01*
X119972239Y-84073745D01*
X119981995Y-84040549D01*
X119987878Y-84020016D01*
X119985546Y-84018951D01*
X119987882Y-84013835D01*
X119990891Y-84009500D01*
X119991486Y-84007425D01*
X119991488Y-84007422D01*
X119993593Y-84004099D01*
X119994321Y-84004560D01*
X120012996Y-83977661D01*
X123047188Y-80943469D01*
X127249500Y-80943469D01*
X127249500Y-80943475D01*
X127249500Y-81406517D01*
X127257250Y-81455447D01*
X127264354Y-81500304D01*
X127321950Y-81613342D01*
X127321952Y-81613344D01*
X127321954Y-81613347D01*
X127411652Y-81703045D01*
X127411654Y-81703046D01*
X127411658Y-81703050D01*
X127524224Y-81760405D01*
X127524228Y-81760409D01*
X127524229Y-81760409D01*
X127524695Y-81760646D01*
X127524696Y-81760646D01*
X127524698Y-81760647D01*
X127618220Y-81775458D01*
X127618457Y-81775497D01*
X127618466Y-81775497D01*
X127618475Y-81775499D01*
X127618481Y-81775500D01*
X128231518Y-81775499D01*
X128325304Y-81760646D01*
X128438342Y-81703050D01*
X128528050Y-81613342D01*
X128585646Y-81500304D01*
X128585646Y-81500302D01*
X128585647Y-81500301D01*
X128585649Y-81500285D01*
X128586785Y-81495559D01*
X128586789Y-81495539D01*
X128587173Y-81490666D01*
X128599770Y-81411131D01*
X128599772Y-81411131D01*
X128599772Y-81411113D01*
X128600500Y-81406519D01*
X128600499Y-80943482D01*
X128600497Y-80943469D01*
X129324500Y-80943469D01*
X129324500Y-80943475D01*
X129324500Y-81406517D01*
X129332250Y-81455447D01*
X129339354Y-81500304D01*
X129396950Y-81613342D01*
X129396952Y-81613344D01*
X129396954Y-81613347D01*
X129486652Y-81703045D01*
X129486654Y-81703046D01*
X129486658Y-81703050D01*
X129599224Y-81760405D01*
X129599228Y-81760409D01*
X129599229Y-81760409D01*
X129599695Y-81760646D01*
X129599696Y-81760646D01*
X129599698Y-81760647D01*
X129693220Y-81775458D01*
X129693457Y-81775497D01*
X129693466Y-81775497D01*
X129693475Y-81775499D01*
X129693481Y-81775500D01*
X130306518Y-81775499D01*
X130400304Y-81760646D01*
X130513342Y-81703050D01*
X130603050Y-81613342D01*
X130660646Y-81500304D01*
X130660646Y-81500302D01*
X130660647Y-81500301D01*
X130660649Y-81500285D01*
X130661785Y-81495559D01*
X130661789Y-81495539D01*
X130662173Y-81490666D01*
X130674770Y-81411131D01*
X130674772Y-81411131D01*
X130674772Y-81411113D01*
X130675500Y-81406519D01*
X130675499Y-80943482D01*
X130660646Y-80849696D01*
X130603050Y-80736658D01*
X130603046Y-80736654D01*
X130603045Y-80736652D01*
X130513347Y-80646954D01*
X130513346Y-80646953D01*
X130513341Y-80646949D01*
X130425150Y-80602013D01*
X130411400Y-80593850D01*
X130387351Y-80577386D01*
X130382758Y-80574242D01*
X130338560Y-80520130D01*
X130330633Y-80450711D01*
X130332423Y-80440399D01*
X130347206Y-80399619D01*
X130373207Y-80354587D01*
X130400500Y-80252727D01*
X130400500Y-80147273D01*
X130373207Y-80045413D01*
X130320480Y-79954087D01*
X130245913Y-79879520D01*
X130179059Y-79840922D01*
X130154589Y-79826794D01*
X130154588Y-79826793D01*
X130154587Y-79826793D01*
X130052727Y-79799500D01*
X130052726Y-79799500D01*
X129947273Y-79799500D01*
X129845413Y-79826792D01*
X129845408Y-79826795D01*
X129754088Y-79879518D01*
X129754082Y-79879523D01*
X129679523Y-79954082D01*
X129679518Y-79954088D01*
X129626795Y-80045408D01*
X129626792Y-80045413D01*
X129603821Y-80131146D01*
X129599500Y-80147273D01*
X129599500Y-80252727D01*
X129622712Y-80339354D01*
X129626793Y-80354586D01*
X129626794Y-80354589D01*
X129653840Y-80401435D01*
X129656109Y-80406287D01*
X129656817Y-80410918D01*
X129664284Y-80429569D01*
X129666913Y-80440405D01*
X129667557Y-80443059D01*
X129666172Y-80472096D01*
X129666671Y-80475354D01*
X129665939Y-80476994D01*
X129664230Y-80512850D01*
X129623704Y-80569760D01*
X129606661Y-80583163D01*
X129586304Y-80596177D01*
X129486651Y-80646953D01*
X129396955Y-80736649D01*
X129396946Y-80736664D01*
X129339353Y-80849695D01*
X129339350Y-80849703D01*
X129324500Y-80943469D01*
X128600497Y-80943469D01*
X128585646Y-80849696D01*
X128528050Y-80736658D01*
X128528046Y-80736654D01*
X128528045Y-80736652D01*
X128438347Y-80646954D01*
X128438344Y-80646952D01*
X128438342Y-80646950D01*
X128438340Y-80646949D01*
X128438339Y-80646948D01*
X128361516Y-80607804D01*
X128361512Y-80607802D01*
X128357756Y-80605888D01*
X128351091Y-80599593D01*
X128302936Y-80576766D01*
X128250789Y-80530263D01*
X128232063Y-80462954D01*
X128232145Y-80457190D01*
X128250461Y-80397939D01*
X128248748Y-80396950D01*
X128273207Y-80354587D01*
X128300500Y-80252727D01*
X128300500Y-80147273D01*
X128273207Y-80045413D01*
X128220480Y-79954087D01*
X128145913Y-79879520D01*
X128079059Y-79840922D01*
X128054589Y-79826794D01*
X128054588Y-79826793D01*
X128054587Y-79826793D01*
X127952727Y-79799500D01*
X127952726Y-79799500D01*
X127847273Y-79799500D01*
X127745413Y-79826792D01*
X127745408Y-79826795D01*
X127654088Y-79879518D01*
X127654082Y-79879523D01*
X127579523Y-79954082D01*
X127579518Y-79954088D01*
X127526795Y-80045408D01*
X127526792Y-80045413D01*
X127503821Y-80131146D01*
X127499500Y-80147273D01*
X127499500Y-80252727D01*
X127508070Y-80284709D01*
X127519741Y-80328269D01*
X127519742Y-80328272D01*
X127522712Y-80339354D01*
X127526793Y-80354586D01*
X127526794Y-80354589D01*
X127559193Y-80410706D01*
X127561265Y-80415035D01*
X127561994Y-80419534D01*
X127569917Y-80439325D01*
X127572679Y-80450708D01*
X127573603Y-80454514D01*
X127572255Y-80482810D01*
X127572449Y-80484003D01*
X127572168Y-80484648D01*
X127570280Y-80524304D01*
X127569911Y-80525355D01*
X127569885Y-80525428D01*
X127534060Y-80577723D01*
X127525973Y-80584698D01*
X127501282Y-80601283D01*
X127411652Y-80646952D01*
X127321955Y-80736649D01*
X127321946Y-80736664D01*
X127264353Y-80849695D01*
X127264350Y-80849703D01*
X127249500Y-80943469D01*
X123047188Y-80943469D01*
X123139729Y-80850928D01*
X125574155Y-78416501D01*
X133524500Y-78416501D01*
X133524500Y-78983497D01*
X133540278Y-79083120D01*
X133540279Y-79083121D01*
X133540280Y-79083124D01*
X133540281Y-79083126D01*
X133591685Y-79184011D01*
X133601472Y-79203220D01*
X133601477Y-79203227D01*
X133686554Y-79288304D01*
X133686556Y-79288305D01*
X133696774Y-79298523D01*
X133696778Y-79298526D01*
X133696780Y-79298528D01*
X133816874Y-79359719D01*
X133816876Y-79359719D01*
X133816878Y-79359720D01*
X133825046Y-79361013D01*
X133825308Y-79361151D01*
X133826508Y-79361246D01*
X133916506Y-79375500D01*
X133916507Y-79375500D01*
X133916512Y-79375500D01*
X134433492Y-79375500D01*
X134433493Y-79375500D01*
X134469565Y-79369786D01*
X134523488Y-79361246D01*
X134527979Y-79360534D01*
X134533121Y-79359720D01*
X134533121Y-79359719D01*
X134537916Y-79358960D01*
X134537938Y-79358956D01*
X134542850Y-79358178D01*
X134555093Y-79348526D01*
X134653220Y-79298528D01*
X134748528Y-79203220D01*
X134802900Y-79096508D01*
X134811024Y-79082818D01*
X134816085Y-79075417D01*
X134827612Y-79058560D01*
X134881696Y-79014335D01*
X134891302Y-79010276D01*
X134939561Y-79000500D01*
X135369930Y-79000500D01*
X135402023Y-79004725D01*
X135432488Y-79012888D01*
X135462388Y-79025272D01*
X135545413Y-79073207D01*
X135647273Y-79100500D01*
X135647275Y-79100500D01*
X135752725Y-79100500D01*
X135752727Y-79100500D01*
X135854587Y-79073207D01*
X135945913Y-79020480D01*
X136020480Y-78945913D01*
X136073207Y-78854587D01*
X136100500Y-78752727D01*
X136100500Y-78647273D01*
X136073207Y-78545413D01*
X136020480Y-78454087D01*
X135945913Y-78379520D01*
X135854587Y-78326793D01*
X135752727Y-78299500D01*
X135752726Y-78299500D01*
X135647273Y-78299500D01*
X135545413Y-78326792D01*
X135545405Y-78326796D01*
X135500495Y-78352726D01*
X135500492Y-78352728D01*
X135468219Y-78371360D01*
X135468206Y-78371365D01*
X135462386Y-78374726D01*
X135432484Y-78387112D01*
X135402027Y-78395274D01*
X135369930Y-78399500D01*
X134944487Y-78399500D01*
X134944482Y-78399499D01*
X134944480Y-78399500D01*
X134909546Y-78394475D01*
X134894547Y-78390070D01*
X134835779Y-78352302D01*
X134826250Y-78341306D01*
X134809474Y-78316394D01*
X134800866Y-78299500D01*
X134748528Y-78196780D01*
X134748524Y-78196776D01*
X134748523Y-78196774D01*
X134653225Y-78101476D01*
X134653221Y-78101473D01*
X134653220Y-78101472D01*
X134533126Y-78040281D01*
X134533124Y-78040280D01*
X134533121Y-78040279D01*
X134533119Y-78040278D01*
X134533120Y-78040278D01*
X134433497Y-78024500D01*
X134433493Y-78024500D01*
X134433488Y-78024500D01*
X133916512Y-78024500D01*
X133916507Y-78024500D01*
X133916501Y-78024500D01*
X133816882Y-78040277D01*
X133816878Y-78040278D01*
X133696786Y-78101468D01*
X133696771Y-78101477D01*
X133601477Y-78196771D01*
X133601468Y-78196786D01*
X133540278Y-78316878D01*
X133540277Y-78316881D01*
X133524500Y-78416501D01*
X125574155Y-78416501D01*
X125666697Y-78323959D01*
X127241237Y-76749418D01*
X127269482Y-76728275D01*
X127292574Y-76715667D01*
X127351999Y-76700500D01*
X137568996Y-76700500D01*
X137595394Y-76695248D01*
X137660041Y-76682389D01*
X137704328Y-76673580D01*
X137732924Y-76661733D01*
X137740173Y-76659716D01*
X137742031Y-76659742D01*
X137749242Y-76657555D01*
X137772739Y-76652882D01*
X137796926Y-76650500D01*
X138373873Y-76650500D01*
X138381732Y-76648116D01*
X138401381Y-76644208D01*
X138416258Y-76641249D01*
X138422354Y-76640648D01*
X138422386Y-76640639D01*
X138433311Y-76637902D01*
X138443515Y-76628654D01*
X138494552Y-76594552D01*
X138538867Y-76528231D01*
X138538867Y-76528229D01*
X138538868Y-76528229D01*
X138541030Y-76517355D01*
X138541166Y-76517090D01*
X138541249Y-76516256D01*
X138550068Y-76471917D01*
X138550500Y-76469931D01*
X138550500Y-75532295D01*
X138550500Y-75530249D01*
X138550499Y-75530247D01*
X138538868Y-75471770D01*
X138538867Y-75471769D01*
X138522499Y-75447273D01*
X138515264Y-75436445D01*
X138494552Y-75405447D01*
X138450232Y-75375833D01*
X138438385Y-75367917D01*
X138436334Y-75365463D01*
X138428230Y-75361132D01*
X138428229Y-75361131D01*
X138369752Y-75349500D01*
X138369750Y-75349500D01*
X138192662Y-75349500D01*
X138157721Y-75344475D01*
X138154316Y-75343475D01*
X138095540Y-75305698D01*
X138066518Y-75242140D01*
X138076465Y-75172982D01*
X138122223Y-75120181D01*
X138189257Y-75100500D01*
X138506337Y-75100500D01*
X138541269Y-75105521D01*
X138566513Y-75112934D01*
X138614601Y-75141466D01*
X138618692Y-75143666D01*
X138618880Y-75144005D01*
X138619259Y-75144230D01*
X138750573Y-75275544D01*
X138771723Y-75303796D01*
X138783756Y-75325833D01*
X138784331Y-75326885D01*
X138799500Y-75386314D01*
X138799500Y-76806337D01*
X138794476Y-76841274D01*
X138787064Y-76866515D01*
X138755769Y-76919259D01*
X136559545Y-79115481D01*
X136559544Y-79115483D01*
X136559526Y-79115508D01*
X136527941Y-79170214D01*
X136527938Y-79170222D01*
X136519982Y-79184004D01*
X136519979Y-79184009D01*
X136499500Y-79260439D01*
X136499500Y-79267562D01*
X136495121Y-79282551D01*
X136495100Y-79282583D01*
X136495072Y-79282717D01*
X136490070Y-79299749D01*
X136452312Y-79358509D01*
X136447058Y-79363063D01*
X136401630Y-79388085D01*
X136385970Y-79392805D01*
X136379558Y-79399460D01*
X136374422Y-79402231D01*
X136344295Y-79417581D01*
X136344294Y-79417580D01*
X136286653Y-79446952D01*
X136286650Y-79446954D01*
X136196953Y-79536651D01*
X136192236Y-79545911D01*
X136192234Y-79545914D01*
X136139352Y-79649695D01*
X136139350Y-79649703D01*
X136124500Y-79743469D01*
X136124500Y-80206517D01*
X136131818Y-80252722D01*
X136131817Y-80252724D01*
X136131819Y-80252724D01*
X136131819Y-80252725D01*
X136139354Y-80300304D01*
X136196950Y-80413342D01*
X136196952Y-80413344D01*
X136196954Y-80413347D01*
X136286652Y-80503045D01*
X136286654Y-80503046D01*
X136286658Y-80503050D01*
X136399694Y-80560645D01*
X136399698Y-80560647D01*
X136493033Y-80575429D01*
X136493118Y-80575469D01*
X136493463Y-80575497D01*
X136493475Y-80575499D01*
X136493481Y-80575500D01*
X137106518Y-80575499D01*
X137200304Y-80560646D01*
X137313342Y-80503050D01*
X137403050Y-80413342D01*
X137460646Y-80300304D01*
X137460646Y-80300302D01*
X137460647Y-80300301D01*
X137460648Y-80300294D01*
X137461785Y-80295560D01*
X137461785Y-80295558D01*
X137461789Y-80295539D01*
X137462173Y-80290668D01*
X137475111Y-80208979D01*
X137475437Y-80207154D01*
X137475499Y-80206523D01*
X137475500Y-80206519D01*
X137475499Y-79743482D01*
X137460646Y-79649696D01*
X137403050Y-79536658D01*
X137403048Y-79536656D01*
X137403047Y-79536654D01*
X137313349Y-79446956D01*
X137313347Y-79446954D01*
X137313338Y-79446947D01*
X137313336Y-79446946D01*
X137308695Y-79443337D01*
X137309013Y-79442927D01*
X137299333Y-79435382D01*
X137286466Y-79423229D01*
X137251245Y-79362886D01*
X137251624Y-79354049D01*
X137254238Y-79293083D01*
X137255867Y-79288304D01*
X137256494Y-79286463D01*
X137286182Y-79238786D01*
X138975215Y-77549753D01*
X139003466Y-77528605D01*
X139013396Y-77523183D01*
X139030806Y-77519396D01*
X139046445Y-77510855D01*
X139064237Y-77512125D01*
X139081668Y-77508334D01*
X139098363Y-77514561D01*
X139116137Y-77515831D01*
X139130419Y-77526519D01*
X139147132Y-77532754D01*
X139157812Y-77547020D01*
X139172076Y-77557695D01*
X139188994Y-77588670D01*
X139191676Y-77595858D01*
X139199500Y-77639206D01*
X139199500Y-81204109D01*
X139194473Y-81239059D01*
X139192513Y-81245731D01*
X139154731Y-81304504D01*
X139091171Y-81333521D01*
X139022014Y-81323569D01*
X138970198Y-81279311D01*
X138956239Y-81258261D01*
X138949096Y-81246026D01*
X138948946Y-81245731D01*
X138898528Y-81146780D01*
X138898526Y-81146778D01*
X138898523Y-81146774D01*
X138803225Y-81051476D01*
X138803221Y-81051473D01*
X138803220Y-81051472D01*
X138683126Y-80990281D01*
X138683124Y-80990280D01*
X138683121Y-80990279D01*
X138683119Y-80990278D01*
X138683120Y-80990278D01*
X138583497Y-80974500D01*
X138583493Y-80974500D01*
X138583488Y-80974500D01*
X138066512Y-80974500D01*
X138066507Y-80974500D01*
X138066501Y-80974500D01*
X137966882Y-80990277D01*
X137966878Y-80990278D01*
X137846786Y-81051468D01*
X137846773Y-81051476D01*
X137751471Y-81146779D01*
X137751464Y-81146789D01*
X137751342Y-81147032D01*
X137731154Y-81186656D01*
X137731152Y-81186660D01*
X137697109Y-81253472D01*
X137689771Y-81266001D01*
X137684011Y-81274631D01*
X137683914Y-81274582D01*
X137677323Y-81284221D01*
X137676692Y-81285601D01*
X137673159Y-81290897D01*
X137649753Y-81310482D01*
X137627869Y-81331747D01*
X137627779Y-81331795D01*
X137627118Y-81332143D01*
X137622838Y-81333006D01*
X137619576Y-81335736D01*
X137592098Y-81339205D01*
X137558628Y-81345955D01*
X137550602Y-81344444D01*
X137550256Y-81344488D01*
X137549879Y-81344308D01*
X137534423Y-81341399D01*
X137528530Y-81339669D01*
X137491463Y-81316406D01*
X137487209Y-81314374D01*
X137486563Y-81313331D01*
X137471508Y-81303882D01*
X137462580Y-81294014D01*
X137444048Y-81267120D01*
X137421027Y-81221939D01*
X137403050Y-81186658D01*
X137403049Y-81186657D01*
X137403048Y-81186655D01*
X137403045Y-81186651D01*
X137313354Y-81096960D01*
X137313341Y-81096949D01*
X137224086Y-81051471D01*
X137224085Y-81051471D01*
X137200302Y-81039352D01*
X137200295Y-81039350D01*
X137106530Y-81024500D01*
X137106524Y-81024500D01*
X136493482Y-81024500D01*
X136493478Y-81024500D01*
X136428711Y-81034758D01*
X136412519Y-81037323D01*
X136399721Y-81039350D01*
X136399696Y-81039354D01*
X136286652Y-81096953D01*
X136196950Y-81186656D01*
X136141732Y-81295026D01*
X136141729Y-81295032D01*
X136134984Y-81308270D01*
X136087010Y-81359066D01*
X136082645Y-81360146D01*
X136115397Y-81401390D01*
X136124500Y-81448023D01*
X136124500Y-81856521D01*
X136139352Y-81950300D01*
X136139353Y-81950301D01*
X136139353Y-81950302D01*
X136139354Y-81950304D01*
X136149484Y-81970185D01*
X136167646Y-82005831D01*
X136174469Y-82025854D01*
X136179029Y-82039235D01*
X136181591Y-82052876D01*
X136174620Y-82122397D01*
X136131169Y-82177111D01*
X136131137Y-82177134D01*
X136131137Y-82177135D01*
X136129560Y-82178246D01*
X136063419Y-82200764D01*
X136041965Y-82199816D01*
X136039564Y-82199500D01*
X136039562Y-82199500D01*
X136017385Y-82199500D01*
X136014190Y-82198976D01*
X136012492Y-82199403D01*
X135977783Y-82193006D01*
X135964956Y-82188683D01*
X135910845Y-82152380D01*
X135901245Y-82141301D01*
X135884472Y-82116390D01*
X135871222Y-82090384D01*
X135871222Y-82090385D01*
X135823528Y-81996780D01*
X135823526Y-81996778D01*
X135823525Y-81996776D01*
X135728224Y-81901475D01*
X135728216Y-81901469D01*
X135684091Y-81878986D01*
X135662652Y-81865111D01*
X135658818Y-81862026D01*
X135657142Y-81860443D01*
X135656467Y-81860135D01*
X135651249Y-81855936D01*
X135648577Y-81852094D01*
X135633544Y-81838493D01*
X135631919Y-81836534D01*
X135622409Y-81814465D01*
X135611358Y-81798574D01*
X135610969Y-81787917D01*
X135604269Y-81772368D01*
X135608381Y-81722433D01*
X135610333Y-81715785D01*
X135646112Y-81658774D01*
X135655988Y-81649837D01*
X135682879Y-81631309D01*
X135738342Y-81603050D01*
X135828050Y-81513342D01*
X135885646Y-81400304D01*
X135885646Y-81400301D01*
X135890015Y-81391728D01*
X135937990Y-81340932D01*
X135942353Y-81339851D01*
X135909602Y-81298610D01*
X135900499Y-81251980D01*
X135900499Y-80693482D01*
X135885646Y-80599696D01*
X135828050Y-80486658D01*
X135828046Y-80486654D01*
X135828045Y-80486652D01*
X135738347Y-80396954D01*
X135738344Y-80396952D01*
X135738342Y-80396950D01*
X135738341Y-80396949D01*
X135655199Y-80354586D01*
X135655198Y-80354586D01*
X135625300Y-80339351D01*
X135625296Y-80339350D01*
X135531530Y-80324500D01*
X135531524Y-80324500D01*
X135068482Y-80324500D01*
X135068478Y-80324500D01*
X135003846Y-80334736D01*
X135003842Y-80334737D01*
X134987519Y-80337323D01*
X134974696Y-80339354D01*
X134861658Y-80396950D01*
X134861657Y-80396951D01*
X134861652Y-80396954D01*
X134858652Y-80399953D01*
X134858649Y-80399955D01*
X134771952Y-80486652D01*
X134763601Y-80503044D01*
X134763599Y-80503048D01*
X134714352Y-80599696D01*
X134714350Y-80599703D01*
X134699500Y-80693469D01*
X134699500Y-80693475D01*
X134699500Y-81306517D01*
X134705544Y-81344677D01*
X134714354Y-81400304D01*
X134771950Y-81513342D01*
X134771952Y-81513344D01*
X134771954Y-81513347D01*
X134777795Y-81519188D01*
X134777796Y-81519190D01*
X134861643Y-81603037D01*
X134861648Y-81603041D01*
X134861652Y-81603045D01*
X134861655Y-81603047D01*
X134861658Y-81603050D01*
X134876841Y-81610786D01*
X134903866Y-81629838D01*
X134905685Y-81631120D01*
X134915098Y-81640010D01*
X134950321Y-81700352D01*
X134947329Y-81770157D01*
X134911163Y-81823870D01*
X134904208Y-81829897D01*
X134879186Y-81846728D01*
X134860843Y-81856050D01*
X134860745Y-81856141D01*
X134771773Y-81901475D01*
X134676477Y-81996771D01*
X134676468Y-81996786D01*
X134615278Y-82116878D01*
X134615277Y-82116881D01*
X134599500Y-82216501D01*
X134599500Y-82783497D01*
X134615278Y-82883119D01*
X134615279Y-82883121D01*
X134615280Y-82883124D01*
X134615281Y-82883126D01*
X134615306Y-82883175D01*
X134676469Y-83003215D01*
X134676476Y-83003226D01*
X134761554Y-83088304D01*
X134761556Y-83088305D01*
X134771774Y-83098523D01*
X134771778Y-83098526D01*
X134771780Y-83098528D01*
X134891874Y-83159719D01*
X134891876Y-83159719D01*
X134891878Y-83159720D01*
X134900046Y-83161013D01*
X134900308Y-83161151D01*
X134901508Y-83161246D01*
X134991506Y-83175500D01*
X134991507Y-83175500D01*
X134991512Y-83175500D01*
X135508492Y-83175500D01*
X135508493Y-83175500D01*
X135553970Y-83168297D01*
X135598488Y-83161246D01*
X135602979Y-83160534D01*
X135608121Y-83159720D01*
X135608121Y-83159719D01*
X135612916Y-83158960D01*
X135612938Y-83158956D01*
X135617850Y-83158178D01*
X135630093Y-83148526D01*
X135728220Y-83098528D01*
X135823528Y-83003220D01*
X135823935Y-83002420D01*
X135844264Y-82973584D01*
X135853796Y-82963491D01*
X135914138Y-82928271D01*
X135983941Y-82931264D01*
X135983945Y-82931266D01*
X135990556Y-82933519D01*
X136038238Y-82963209D01*
X136350573Y-83275544D01*
X136371723Y-83303796D01*
X136384331Y-83326885D01*
X136399500Y-83386314D01*
X136399500Y-83882670D01*
X136399499Y-83882676D01*
X136399500Y-83882679D01*
X136394475Y-83917614D01*
X136390070Y-83932612D01*
X136352327Y-83991355D01*
X136352292Y-83991385D01*
X136352291Y-83991387D01*
X136352289Y-83991387D01*
X136350958Y-83992542D01*
X136296097Y-84020018D01*
X136288539Y-84021663D01*
X136262168Y-84024500D01*
X136121446Y-84024500D01*
X136105598Y-84027652D01*
X136073902Y-84033956D01*
X136073901Y-84033957D01*
X136019983Y-84069983D01*
X135983958Y-84123899D01*
X135983956Y-84123903D01*
X135982303Y-84132213D01*
X135972577Y-84159780D01*
X135970564Y-84165486D01*
X135963318Y-84179339D01*
X135914813Y-84229613D01*
X135914803Y-84229618D01*
X135914803Y-84229619D01*
X135914802Y-84229619D01*
X135908433Y-84233247D01*
X135847061Y-84249500D01*
X132743663Y-84249500D01*
X132708727Y-84244477D01*
X132683485Y-84237065D01*
X132630740Y-84205769D01*
X131990742Y-83565771D01*
X131990737Y-83565766D01*
X131969591Y-83537519D01*
X131962936Y-83525331D01*
X131948085Y-83457061D01*
X131972499Y-83391600D01*
X131976693Y-83385998D01*
X132006806Y-83360659D01*
X132005446Y-83358786D01*
X132013338Y-83353051D01*
X132013342Y-83353050D01*
X132103050Y-83263342D01*
X132160646Y-83150304D01*
X132160646Y-83150302D01*
X132160647Y-83150301D01*
X132160648Y-83150294D01*
X132161785Y-83145560D01*
X132161785Y-83145558D01*
X132161789Y-83145539D01*
X132162173Y-83140668D01*
X132175111Y-83058979D01*
X132175437Y-83057154D01*
X132175499Y-83056523D01*
X132175500Y-83056519D01*
X132175499Y-82593482D01*
X132160646Y-82499696D01*
X132103050Y-82386658D01*
X132103046Y-82386654D01*
X132103045Y-82386652D01*
X132013347Y-82296954D01*
X132013344Y-82296952D01*
X132013342Y-82296950D01*
X132013341Y-82296949D01*
X131918304Y-82248525D01*
X131918303Y-82248525D01*
X131900300Y-82239351D01*
X131900296Y-82239350D01*
X131806530Y-82224500D01*
X131806524Y-82224500D01*
X131193482Y-82224500D01*
X131193478Y-82224500D01*
X131128846Y-82234736D01*
X131128842Y-82234737D01*
X131112519Y-82237323D01*
X131099696Y-82239354D01*
X130986658Y-82296950D01*
X130986657Y-82296951D01*
X130986652Y-82296954D01*
X130983652Y-82299953D01*
X130983649Y-82299955D01*
X130896953Y-82386651D01*
X130869305Y-82440912D01*
X130854920Y-82462979D01*
X130852057Y-82466489D01*
X130850764Y-82467859D01*
X130850539Y-82468351D01*
X130846330Y-82473513D01*
X130822005Y-82490193D01*
X130799302Y-82509026D01*
X130793515Y-82509731D01*
X130788708Y-82513028D01*
X130759224Y-82513909D01*
X130729945Y-82517478D01*
X130724695Y-82514942D01*
X130718869Y-82515117D01*
X130693594Y-82499921D01*
X130667029Y-82487092D01*
X130659158Y-82479219D01*
X130658988Y-82479117D01*
X130658921Y-82478983D01*
X130658288Y-82478349D01*
X130649837Y-82469008D01*
X130631309Y-82442118D01*
X130608823Y-82397988D01*
X130608821Y-82397984D01*
X130603052Y-82386661D01*
X130603043Y-82386649D01*
X130513354Y-82296960D01*
X130513341Y-82296949D01*
X130418304Y-82248525D01*
X130418303Y-82248525D01*
X130400300Y-82239351D01*
X130400296Y-82239350D01*
X130306530Y-82224500D01*
X130306524Y-82224500D01*
X129693482Y-82224500D01*
X129693478Y-82224500D01*
X129628846Y-82234736D01*
X129628842Y-82234737D01*
X129612519Y-82237323D01*
X129599696Y-82239354D01*
X129486658Y-82296950D01*
X129486657Y-82296951D01*
X129486652Y-82296954D01*
X129483652Y-82299953D01*
X129483649Y-82299955D01*
X129396955Y-82386649D01*
X129396952Y-82386653D01*
X129391181Y-82397982D01*
X129391177Y-82397989D01*
X129339352Y-82499696D01*
X129339350Y-82499703D01*
X129324500Y-82593469D01*
X129324500Y-82593475D01*
X129324500Y-83056517D01*
X129331153Y-83098523D01*
X129339354Y-83150304D01*
X129396950Y-83263342D01*
X129396952Y-83263344D01*
X129396954Y-83263347D01*
X129486652Y-83353045D01*
X129486653Y-83353045D01*
X129486657Y-83353049D01*
X129486662Y-83353053D01*
X129486853Y-83353149D01*
X129502850Y-83361300D01*
X129574492Y-83397804D01*
X129577776Y-83399477D01*
X129599698Y-83410647D01*
X129693220Y-83425458D01*
X129693457Y-83425497D01*
X129693466Y-83425497D01*
X129693475Y-83425499D01*
X129693481Y-83425500D01*
X130306518Y-83425499D01*
X130400304Y-83410646D01*
X130513342Y-83353050D01*
X130603050Y-83263342D01*
X130630695Y-83209083D01*
X130645074Y-83187024D01*
X130647926Y-83183525D01*
X130649235Y-83182140D01*
X130649462Y-83181641D01*
X130653662Y-83176491D01*
X130656238Y-83174723D01*
X130656246Y-83174716D01*
X130656247Y-83174717D01*
X130677975Y-83159815D01*
X130700663Y-83140985D01*
X130706462Y-83140276D01*
X130711281Y-83136972D01*
X130740753Y-83136088D01*
X130770018Y-83132514D01*
X130775279Y-83135053D01*
X130781120Y-83134878D01*
X130806392Y-83150069D01*
X130832942Y-83162883D01*
X130840832Y-83170771D01*
X130841003Y-83170874D01*
X130841069Y-83171008D01*
X130841712Y-83171651D01*
X130850157Y-83180985D01*
X130868691Y-83207882D01*
X130896949Y-83263341D01*
X130896951Y-83263344D01*
X130986653Y-83353046D01*
X130986656Y-83353048D01*
X130986658Y-83353050D01*
X131067786Y-83394387D01*
X131068312Y-83394657D01*
X131108411Y-83415409D01*
X131108162Y-83416177D01*
X131128713Y-83425915D01*
X131130621Y-83426903D01*
X131147000Y-83442569D01*
X131177098Y-83468693D01*
X131178971Y-83471530D01*
X131179676Y-83473823D01*
X131181113Y-83475198D01*
X131184800Y-83490502D01*
X131197437Y-83531634D01*
X131198439Y-83531503D01*
X131199220Y-83537439D01*
X131199490Y-83538316D01*
X131199497Y-83539545D01*
X131199499Y-83539559D01*
X131212712Y-83588868D01*
X131219979Y-83615989D01*
X131248558Y-83665489D01*
X131248562Y-83665496D01*
X131251614Y-83670783D01*
X131251627Y-83670808D01*
X131259535Y-83684504D01*
X131259544Y-83684516D01*
X131784674Y-84209645D01*
X132309540Y-84734511D01*
X132365489Y-84790460D01*
X132365491Y-84790461D01*
X132365495Y-84790464D01*
X132416974Y-84820185D01*
X132434011Y-84830021D01*
X132510438Y-84850500D01*
X132589562Y-84850500D01*
X135839381Y-84850500D01*
X135874316Y-84855523D01*
X135889314Y-84859927D01*
X135948090Y-84897700D01*
X135952901Y-84903252D01*
X135980805Y-84960259D01*
X135983955Y-84976091D01*
X135983955Y-84976094D01*
X135983958Y-84976099D01*
X135983959Y-84976101D01*
X136019983Y-85030015D01*
X136019984Y-85030016D01*
X136073901Y-85066042D01*
X136073902Y-85066042D01*
X136073904Y-85066043D01*
X136073907Y-85066043D01*
X136079724Y-85067808D01*
X136079734Y-85067811D01*
X136079776Y-85067823D01*
X136085877Y-85068424D01*
X136098038Y-85070843D01*
X136121444Y-85075500D01*
X136278554Y-85075500D01*
X136278555Y-85075500D01*
X136314121Y-85068425D01*
X136315694Y-85068111D01*
X136326095Y-85066043D01*
X136326095Y-85066042D01*
X136326097Y-85066042D01*
X136326099Y-85066042D01*
X136326099Y-85066041D01*
X136331243Y-85065018D01*
X136341379Y-85055831D01*
X136366294Y-85039184D01*
X136398124Y-85023957D01*
X136406175Y-85021436D01*
X136413047Y-85019285D01*
X136482898Y-85018039D01*
X136496029Y-85021641D01*
X136532110Y-85038119D01*
X136563751Y-85059260D01*
X136568488Y-85063148D01*
X136568526Y-85063168D01*
X136572724Y-85065684D01*
X136573898Y-85066040D01*
X136573901Y-85066042D01*
X136573903Y-85066042D01*
X136573904Y-85066043D01*
X136573913Y-85066044D01*
X136579735Y-85067811D01*
X136579736Y-85067812D01*
X136579744Y-85067814D01*
X136579778Y-85067824D01*
X136585876Y-85068425D01*
X136621443Y-85075500D01*
X136778554Y-85075500D01*
X136778555Y-85075500D01*
X136814121Y-85068425D01*
X136815694Y-85068111D01*
X136826095Y-85066043D01*
X136826095Y-85066042D01*
X136826097Y-85066042D01*
X136826099Y-85066042D01*
X136826099Y-85066041D01*
X136831243Y-85065018D01*
X136841379Y-85055831D01*
X136866294Y-85039184D01*
X136898124Y-85023957D01*
X136906175Y-85021436D01*
X136913047Y-85019285D01*
X136982898Y-85018039D01*
X136996029Y-85021641D01*
X137032110Y-85038119D01*
X137063751Y-85059260D01*
X137068488Y-85063148D01*
X137068526Y-85063168D01*
X137072724Y-85065684D01*
X137073898Y-85066040D01*
X137073901Y-85066042D01*
X137073903Y-85066042D01*
X137073904Y-85066043D01*
X137073913Y-85066044D01*
X137079735Y-85067811D01*
X137079736Y-85067812D01*
X137079744Y-85067814D01*
X137079778Y-85067824D01*
X137085876Y-85068425D01*
X137121443Y-85075500D01*
X137278554Y-85075500D01*
X137278555Y-85075500D01*
X137314121Y-85068425D01*
X137315694Y-85068111D01*
X137326095Y-85066043D01*
X137326095Y-85066042D01*
X137326097Y-85066042D01*
X137326099Y-85066042D01*
X137326099Y-85066041D01*
X137331243Y-85065018D01*
X137341379Y-85055831D01*
X137366294Y-85039184D01*
X137398124Y-85023957D01*
X137406175Y-85021436D01*
X137413047Y-85019285D01*
X137482898Y-85018039D01*
X137496029Y-85021641D01*
X137532110Y-85038119D01*
X137563751Y-85059260D01*
X137568488Y-85063148D01*
X137568526Y-85063168D01*
X137572724Y-85065684D01*
X137573898Y-85066040D01*
X137573901Y-85066042D01*
X137573903Y-85066042D01*
X137573904Y-85066043D01*
X137573913Y-85066044D01*
X137579735Y-85067811D01*
X137579736Y-85067812D01*
X137579744Y-85067814D01*
X137579778Y-85067824D01*
X137585876Y-85068425D01*
X137621443Y-85075500D01*
X137778554Y-85075500D01*
X137778555Y-85075500D01*
X137814121Y-85068425D01*
X137815694Y-85068111D01*
X137826095Y-85066043D01*
X137826095Y-85066042D01*
X137826097Y-85066042D01*
X137826099Y-85066042D01*
X137826099Y-85066041D01*
X137831243Y-85065018D01*
X137841379Y-85055831D01*
X137866294Y-85039184D01*
X137898124Y-85023957D01*
X137906175Y-85021436D01*
X137913047Y-85019285D01*
X137982898Y-85018039D01*
X137996029Y-85021641D01*
X138032110Y-85038119D01*
X138063751Y-85059260D01*
X138068488Y-85063148D01*
X138068526Y-85063168D01*
X138072724Y-85065684D01*
X138073898Y-85066040D01*
X138073901Y-85066042D01*
X138073903Y-85066042D01*
X138073904Y-85066043D01*
X138073913Y-85066044D01*
X138079735Y-85067811D01*
X138079736Y-85067812D01*
X138079744Y-85067814D01*
X138079778Y-85067824D01*
X138085876Y-85068425D01*
X138121443Y-85075500D01*
X138248929Y-85075500D01*
X138315968Y-85095185D01*
X138348921Y-85126170D01*
X138361622Y-85143489D01*
X138361628Y-85143496D01*
X138361629Y-85143497D01*
X138374381Y-85157721D01*
X138374384Y-85157724D01*
X138374386Y-85157726D01*
X138404097Y-85184948D01*
X138456607Y-85224330D01*
X138470163Y-85232887D01*
X138482326Y-85240565D01*
X138484527Y-85241954D01*
X138488720Y-85244151D01*
X138498423Y-85249236D01*
X138498440Y-85249244D01*
X138528812Y-85262163D01*
X138528824Y-85262168D01*
X138543137Y-85266939D01*
X138543148Y-85266941D01*
X138543155Y-85266944D01*
X138575191Y-85274829D01*
X138575197Y-85274830D01*
X138590671Y-85277342D01*
X138590686Y-85277343D01*
X138590693Y-85277345D01*
X138623617Y-85280000D01*
X139045999Y-85280000D01*
X139113038Y-85299685D01*
X139158793Y-85352489D01*
X139169999Y-85404000D01*
X139169999Y-85861193D01*
X139171176Y-85883150D01*
X139171180Y-85883204D01*
X139172293Y-85893550D01*
X139172296Y-85893579D01*
X139172297Y-85893580D01*
X139173681Y-85903958D01*
X139173681Y-85903960D01*
X139173682Y-85903961D01*
X139207810Y-85988798D01*
X139211121Y-85994936D01*
X139209714Y-85995694D01*
X139229124Y-86054016D01*
X139224180Y-86093375D01*
X139202826Y-86166094D01*
X139202825Y-86166102D01*
X139195099Y-86219840D01*
X139194500Y-86224003D01*
X139194500Y-86276007D01*
X139199197Y-86319686D01*
X139210397Y-86371174D01*
X139211601Y-86376099D01*
X139212890Y-86381373D01*
X139231004Y-86415365D01*
X139245158Y-86483786D01*
X139224683Y-86542556D01*
X139216723Y-86554472D01*
X139213865Y-86561373D01*
X139202169Y-86599938D01*
X139198447Y-86618654D01*
X139198444Y-86618678D01*
X139194500Y-86658740D01*
X139194500Y-86841258D01*
X139198444Y-86881320D01*
X139198447Y-86881344D01*
X139202169Y-86900059D01*
X139202173Y-86900079D01*
X139213222Y-86936512D01*
X139213839Y-87006379D01*
X139203090Y-87032469D01*
X139199996Y-87038067D01*
X139185646Y-87072708D01*
X139185641Y-87072722D01*
X139169999Y-87151360D01*
X139169999Y-87802446D01*
X139167858Y-87824181D01*
X139167950Y-87824195D01*
X139167673Y-87826056D01*
X139167617Y-87826633D01*
X139167504Y-87827196D01*
X139163555Y-87867182D01*
X139163555Y-87867196D01*
X139163544Y-87886247D01*
X139163545Y-87886266D01*
X139167451Y-87926234D01*
X139167454Y-87926259D01*
X139170398Y-87941138D01*
X139170401Y-87941149D01*
X139182056Y-87979715D01*
X139182057Y-87979719D01*
X139182058Y-87979720D01*
X139189353Y-87997383D01*
X139208302Y-88032923D01*
X139208306Y-88032930D01*
X139323921Y-88206351D01*
X139459980Y-88410439D01*
X139473674Y-88430979D01*
X139494482Y-88497678D01*
X139494500Y-88499762D01*
X139494500Y-89725500D01*
X139474815Y-89792539D01*
X139422011Y-89838294D01*
X139370500Y-89849500D01*
X138193278Y-89849500D01*
X138193275Y-89849499D01*
X138193274Y-89849500D01*
X138158339Y-89844476D01*
X138145021Y-89840565D01*
X138086244Y-89802789D01*
X138057222Y-89739232D01*
X138057217Y-89739200D01*
X138056986Y-89737590D01*
X138062542Y-89679442D01*
X138064185Y-89674695D01*
X138071620Y-89658416D01*
X138073202Y-89654594D01*
X138073207Y-89654587D01*
X138100500Y-89552727D01*
X138100500Y-89447273D01*
X138073207Y-89345413D01*
X138025270Y-89262385D01*
X138012888Y-89232492D01*
X138004723Y-89202019D01*
X138000500Y-89169930D01*
X138000500Y-88411703D01*
X138000500Y-88410439D01*
X137999633Y-88407204D01*
X137980021Y-88334011D01*
X137945813Y-88274762D01*
X137942505Y-88266476D01*
X137942168Y-88262917D01*
X137937887Y-88252581D01*
X137929725Y-88222118D01*
X137925500Y-88190026D01*
X137925500Y-88071443D01*
X137918425Y-88035878D01*
X137918425Y-88035877D01*
X137917642Y-88031943D01*
X137916043Y-88023904D01*
X137916042Y-88023902D01*
X137916042Y-88023901D01*
X137880016Y-87969984D01*
X137840353Y-87943482D01*
X137826101Y-87933959D01*
X137826095Y-87933956D01*
X137826096Y-87933956D01*
X137793008Y-87927375D01*
X137778554Y-87924500D01*
X137778553Y-87924500D01*
X137714807Y-87924500D01*
X137647768Y-87904815D01*
X137624700Y-87885687D01*
X137616886Y-87877422D01*
X137616884Y-87877419D01*
X137577816Y-87849698D01*
X137542297Y-87824495D01*
X137507648Y-87810143D01*
X137507640Y-87810141D01*
X137429009Y-87794500D01*
X137429005Y-87794500D01*
X137049000Y-87794500D01*
X137048995Y-87794500D01*
X136970364Y-87810141D01*
X136970360Y-87810142D01*
X136970358Y-87810142D01*
X136970357Y-87810143D01*
X136935709Y-87824495D01*
X136935707Y-87824496D01*
X136877418Y-87861121D01*
X136824495Y-87935707D01*
X136810143Y-87970356D01*
X136810141Y-87970364D01*
X136794500Y-88048995D01*
X136794500Y-88874723D01*
X136774815Y-88941762D01*
X136763178Y-88957104D01*
X136233737Y-89552727D01*
X136144711Y-89652881D01*
X136085460Y-89689909D01*
X136052032Y-89694500D01*
X134848995Y-89694500D01*
X134770364Y-89710141D01*
X134770360Y-89710142D01*
X134770358Y-89710142D01*
X134770357Y-89710143D01*
X134735709Y-89724495D01*
X134735707Y-89724496D01*
X134677418Y-89761121D01*
X134624495Y-89835707D01*
X134610143Y-89870356D01*
X134610141Y-89870364D01*
X134594500Y-89948995D01*
X134594500Y-91051004D01*
X134610141Y-91129635D01*
X134610143Y-91129643D01*
X134624495Y-91164291D01*
X134642949Y-91193660D01*
X134661121Y-91222581D01*
X134735707Y-91275504D01*
X134735708Y-91275504D01*
X134735709Y-91275505D01*
X134770357Y-91289857D01*
X134849000Y-91305500D01*
X134849006Y-91305500D01*
X134849690Y-91305636D01*
X134877821Y-91320351D01*
X134906703Y-91333541D01*
X134908559Y-91336430D01*
X134911601Y-91338021D01*
X134927309Y-91365604D01*
X134944477Y-91392319D01*
X134945137Y-91396912D01*
X134946176Y-91398736D01*
X134949500Y-91427254D01*
X134949500Y-91656337D01*
X134944476Y-91691274D01*
X134937064Y-91716515D01*
X134905769Y-91769259D01*
X134259545Y-92415481D01*
X134259544Y-92415483D01*
X134259526Y-92415508D01*
X134226641Y-92472466D01*
X134226637Y-92472475D01*
X134219982Y-92484004D01*
X134219979Y-92484009D01*
X134210402Y-92519752D01*
X134209374Y-92523585D01*
X134209373Y-92523591D01*
X134202552Y-92549050D01*
X134202551Y-92549055D01*
X134199500Y-92560439D01*
X134199500Y-95770500D01*
X134179815Y-95837539D01*
X134127011Y-95883294D01*
X134075500Y-95894500D01*
X132723992Y-95894500D01*
X132680313Y-95899197D01*
X132628825Y-95910397D01*
X132618627Y-95912890D01*
X132618624Y-95912891D01*
X132537916Y-95955899D01*
X132537913Y-95955901D01*
X132485104Y-96001660D01*
X132467160Y-96019242D01*
X132467154Y-96019249D01*
X132422511Y-96099059D01*
X132422509Y-96099064D01*
X132402826Y-96166096D01*
X132402825Y-96166101D01*
X132402825Y-96166102D01*
X132394502Y-96223992D01*
X132394500Y-96224003D01*
X132394500Y-97176007D01*
X132399197Y-97219686D01*
X132410397Y-97271174D01*
X132412890Y-97281372D01*
X132412891Y-97281375D01*
X132455899Y-97362083D01*
X132455901Y-97362086D01*
X132501660Y-97414895D01*
X132512050Y-97425499D01*
X132519246Y-97432843D01*
X132519247Y-97432844D01*
X132519249Y-97432845D01*
X132599059Y-97477488D01*
X132599063Y-97477490D01*
X132666102Y-97497175D01*
X132724000Y-97505500D01*
X134875991Y-97505500D01*
X134876000Y-97505500D01*
X134919684Y-97500803D01*
X134948875Y-97494452D01*
X134971174Y-97489602D01*
X134971190Y-97489598D01*
X134971195Y-97489597D01*
X134981373Y-97487110D01*
X135062085Y-97444100D01*
X135114889Y-97398345D01*
X135132843Y-97380754D01*
X135177490Y-97300937D01*
X135197175Y-97233898D01*
X135205500Y-97176000D01*
X135205500Y-96443469D01*
X135549500Y-96443469D01*
X135549500Y-97056519D01*
X135552998Y-97078608D01*
X135552999Y-97078611D01*
X135555114Y-97091963D01*
X135564354Y-97150304D01*
X135621950Y-97263342D01*
X135621952Y-97263344D01*
X135621954Y-97263347D01*
X135711652Y-97353045D01*
X135711654Y-97353046D01*
X135711658Y-97353050D01*
X135824694Y-97410645D01*
X135824698Y-97410647D01*
X135918220Y-97425458D01*
X135918457Y-97425497D01*
X135918466Y-97425497D01*
X135918475Y-97425499D01*
X135918481Y-97425500D01*
X136381518Y-97425499D01*
X136475304Y-97410646D01*
X136588342Y-97353050D01*
X136678050Y-97263342D01*
X136719402Y-97182182D01*
X136719715Y-97181576D01*
X136740449Y-97141600D01*
X136741174Y-97141836D01*
X136750184Y-97122831D01*
X136751191Y-97120891D01*
X136773890Y-97097201D01*
X136795722Y-97072723D01*
X136801343Y-97069224D01*
X136866863Y-97050500D01*
X138389560Y-97050500D01*
X138389562Y-97050500D01*
X138465989Y-97030021D01*
X138534511Y-96990460D01*
X138590460Y-96934511D01*
X139965460Y-95559511D01*
X140005022Y-95490988D01*
X140025500Y-95414562D01*
X140025500Y-95414560D01*
X140025664Y-95413315D01*
X140026094Y-95412341D01*
X140027603Y-95406712D01*
X140028480Y-95406947D01*
X140053930Y-95349418D01*
X140112255Y-95310947D01*
X140148603Y-95305500D01*
X141675991Y-95305500D01*
X141676000Y-95305500D01*
X141719684Y-95300803D01*
X141748875Y-95294452D01*
X141771174Y-95289602D01*
X141771190Y-95289598D01*
X141771195Y-95289597D01*
X141781373Y-95287110D01*
X141862085Y-95244100D01*
X141914889Y-95198345D01*
X141932843Y-95180754D01*
X141977490Y-95100937D01*
X141997175Y-95033898D01*
X142004792Y-94980923D01*
X142009066Y-94971563D01*
X142009272Y-94961273D01*
X142023336Y-94940319D01*
X142033817Y-94917371D01*
X142042473Y-94911807D01*
X142048211Y-94903260D01*
X142071371Y-94893236D01*
X142092595Y-94879597D01*
X142102887Y-94879597D01*
X142112333Y-94875509D01*
X142137232Y-94879597D01*
X142162465Y-94879597D01*
X142172956Y-94885462D01*
X142181280Y-94886829D01*
X142203171Y-94902354D01*
X142210585Y-94906499D01*
X142212953Y-94908635D01*
X142293514Y-94989196D01*
X142293515Y-94989196D01*
X142293517Y-94989198D01*
X142398607Y-95040573D01*
X142417277Y-95043293D01*
X142432438Y-95045502D01*
X142432440Y-95045502D01*
X142432673Y-95045536D01*
X142466739Y-95050500D01*
X142466740Y-95050500D01*
X142466741Y-95050500D01*
X142833261Y-95050500D01*
X142833262Y-95050500D01*
X142837803Y-95049838D01*
X142855971Y-95047191D01*
X142901393Y-95040573D01*
X143006483Y-94989198D01*
X143089198Y-94906483D01*
X143095673Y-94893236D01*
X143096462Y-94891623D01*
X143096464Y-94891616D01*
X143099195Y-94886031D01*
X143119032Y-94856885D01*
X143130180Y-94844684D01*
X143145734Y-94835117D01*
X143146332Y-94834463D01*
X143147150Y-94834246D01*
X143188361Y-94808896D01*
X143202055Y-94805070D01*
X143235411Y-94800500D01*
X152389560Y-94800500D01*
X152389562Y-94800500D01*
X152465989Y-94780021D01*
X152534511Y-94740460D01*
X152590460Y-94684511D01*
X154567271Y-92707698D01*
X154595518Y-92686555D01*
X154609238Y-92679064D01*
X154677504Y-92664214D01*
X154677507Y-92664214D01*
X154702972Y-92666035D01*
X154702972Y-92666034D01*
X154706343Y-92666276D01*
X154721690Y-92668342D01*
X154856217Y-92695102D01*
X154875720Y-92698981D01*
X154878446Y-92699704D01*
X154883351Y-92700500D01*
X155060738Y-92700500D01*
X155064859Y-92700500D01*
X155072706Y-92698118D01*
X155122813Y-92688152D01*
X155234703Y-92665896D01*
X155234705Y-92665894D01*
X155234707Y-92665894D01*
X155234711Y-92665894D01*
X155237899Y-92664573D01*
X155245880Y-92661273D01*
X155245921Y-92661251D01*
X155398585Y-92598016D01*
X155398585Y-92598015D01*
X155398592Y-92598013D01*
X155546080Y-92499464D01*
X155671509Y-92374035D01*
X155770058Y-92226547D01*
X155837939Y-92062666D01*
X155842999Y-92037231D01*
X155872544Y-91888695D01*
X155872545Y-91888693D01*
X155872545Y-91711306D01*
X155872544Y-91711304D01*
X155837941Y-91537341D01*
X155837938Y-91537332D01*
X155824753Y-91505500D01*
X155771738Y-91377508D01*
X155771736Y-91377504D01*
X155770061Y-91373460D01*
X155770060Y-91373459D01*
X155770058Y-91373453D01*
X155770053Y-91373446D01*
X155731304Y-91315453D01*
X155731303Y-91315452D01*
X155716071Y-91283614D01*
X155706165Y-91251977D01*
X155700500Y-91214925D01*
X155700500Y-88425033D01*
X155705522Y-88390100D01*
X155712934Y-88364855D01*
X155744229Y-88312112D01*
X155787992Y-88268350D01*
X155839414Y-88216928D01*
X155941232Y-88076788D01*
X156019873Y-87922445D01*
X156073402Y-87757701D01*
X156076699Y-87736889D01*
X156098022Y-87602257D01*
X156100500Y-87586611D01*
X156100500Y-87413389D01*
X156073402Y-87242299D01*
X156019873Y-87077555D01*
X156017410Y-87072722D01*
X155982055Y-87003333D01*
X155941232Y-86923212D01*
X155839414Y-86783072D01*
X155716928Y-86660586D01*
X155576788Y-86558768D01*
X155422449Y-86480128D01*
X155271227Y-86430992D01*
X155271216Y-86430989D01*
X155257701Y-86426598D01*
X155257699Y-86426597D01*
X155257698Y-86426597D01*
X155243296Y-86424316D01*
X155243292Y-86424315D01*
X155117990Y-86404470D01*
X155104327Y-86402306D01*
X155086611Y-86399500D01*
X155086610Y-86399500D01*
X154913390Y-86399500D01*
X154913389Y-86399500D01*
X154882010Y-86404470D01*
X154882009Y-86404470D01*
X154742302Y-86426596D01*
X154742301Y-86426596D01*
X154577547Y-86480129D01*
X154423210Y-86558768D01*
X154388878Y-86583713D01*
X154356294Y-86607387D01*
X154341023Y-86618482D01*
X154294941Y-86651962D01*
X154287563Y-86656093D01*
X154156078Y-86787578D01*
X154151917Y-86795004D01*
X154151621Y-86795409D01*
X154151622Y-86795410D01*
X154058768Y-86923210D01*
X153980129Y-87077547D01*
X153926598Y-87242297D01*
X153926596Y-87242305D01*
X153905407Y-87376093D01*
X153905407Y-87376094D01*
X153899500Y-87413389D01*
X153899500Y-87586611D01*
X153903395Y-87611209D01*
X153908892Y-87645911D01*
X153908892Y-87645913D01*
X153923301Y-87736889D01*
X153926598Y-87757701D01*
X153980127Y-87922445D01*
X154058768Y-88076788D01*
X154160586Y-88216928D01*
X154160588Y-88216930D01*
X154250574Y-88306916D01*
X154271723Y-88335167D01*
X154284331Y-88358256D01*
X154299500Y-88417685D01*
X154299500Y-91130965D01*
X154294476Y-91165902D01*
X154285520Y-91196401D01*
X154269646Y-91230355D01*
X154174039Y-91373439D01*
X154174030Y-91373454D01*
X154174022Y-91373472D01*
X154106154Y-91537322D01*
X154106146Y-91537345D01*
X154106144Y-91537352D01*
X154071545Y-91711299D01*
X154071545Y-91888699D01*
X154106144Y-92062646D01*
X154106146Y-92062653D01*
X154106154Y-92062676D01*
X154142661Y-92150812D01*
X154142663Y-92150815D01*
X154151391Y-92185013D01*
X154153062Y-92200554D01*
X154140658Y-92269313D01*
X154140656Y-92269315D01*
X154134561Y-92281491D01*
X154111359Y-92313667D01*
X152274455Y-94150573D01*
X152246204Y-94171722D01*
X152223116Y-94184330D01*
X152163686Y-94199500D01*
X143236245Y-94199500D01*
X143236243Y-94199499D01*
X143236243Y-94199500D01*
X143201308Y-94194476D01*
X143185459Y-94189822D01*
X143127759Y-94153274D01*
X143118313Y-94142658D01*
X143099551Y-94114693D01*
X143089198Y-94093516D01*
X143006485Y-94010803D01*
X142977794Y-93996777D01*
X142901391Y-93959426D01*
X142833261Y-93949500D01*
X142833260Y-93949500D01*
X142833255Y-93949500D01*
X142466745Y-93949500D01*
X142466740Y-93949500D01*
X142466739Y-93949500D01*
X142408341Y-93958008D01*
X142398607Y-93959426D01*
X142293513Y-94010803D01*
X142215442Y-94088874D01*
X142154118Y-94122358D01*
X142084427Y-94117374D01*
X142028493Y-94075502D01*
X142004473Y-94014450D01*
X142000803Y-93980316D01*
X142000801Y-93980306D01*
X141989602Y-93928825D01*
X141989348Y-93927789D01*
X141987110Y-93918627D01*
X141944100Y-93837915D01*
X141898345Y-93785111D01*
X141898339Y-93785104D01*
X141880757Y-93767160D01*
X141880756Y-93767159D01*
X141880754Y-93767157D01*
X141880752Y-93767156D01*
X141880750Y-93767154D01*
X141800940Y-93722511D01*
X141800935Y-93722509D01*
X141733903Y-93702826D01*
X141733899Y-93702825D01*
X141733898Y-93702825D01*
X141676000Y-93694500D01*
X141675996Y-93694500D01*
X139523992Y-93694500D01*
X139480313Y-93699197D01*
X139428825Y-93710397D01*
X139418627Y-93712890D01*
X139418624Y-93712891D01*
X139337916Y-93755899D01*
X139337913Y-93755901D01*
X139285104Y-93801660D01*
X139267160Y-93819242D01*
X139267156Y-93819247D01*
X139222509Y-93899064D01*
X139220334Y-93906471D01*
X139189044Y-93959203D01*
X139151481Y-93996768D01*
X139151477Y-93996772D01*
X139151476Y-93996774D01*
X139151473Y-93996778D01*
X139151472Y-93996780D01*
X139090278Y-94116878D01*
X139090277Y-94116881D01*
X139074500Y-94216501D01*
X139074500Y-94783497D01*
X139090278Y-94883119D01*
X139090279Y-94883121D01*
X139090280Y-94883124D01*
X139090281Y-94883126D01*
X139151472Y-95003220D01*
X139151473Y-95003221D01*
X139151476Y-95003225D01*
X139183835Y-95035584D01*
X139209114Y-95074592D01*
X139209241Y-95074525D01*
X139210028Y-95076001D01*
X139212004Y-95079051D01*
X139212890Y-95081373D01*
X139255900Y-95162085D01*
X139287314Y-95198339D01*
X139299627Y-95212548D01*
X139328652Y-95276104D01*
X139318708Y-95345262D01*
X139293595Y-95381432D01*
X138274455Y-96400573D01*
X138257613Y-96413181D01*
X138246204Y-96421722D01*
X138223116Y-96434330D01*
X138163686Y-96449500D01*
X136875190Y-96449500D01*
X136840249Y-96444475D01*
X136825250Y-96440070D01*
X136766485Y-96402306D01*
X136761929Y-96397049D01*
X136736913Y-96351632D01*
X136732191Y-96335970D01*
X136725550Y-96329575D01*
X136722757Y-96324401D01*
X136678050Y-96236658D01*
X136678046Y-96236654D01*
X136678045Y-96236652D01*
X136588347Y-96146954D01*
X136588344Y-96146952D01*
X136588342Y-96146950D01*
X136588340Y-96146949D01*
X136588339Y-96146948D01*
X136511519Y-96107805D01*
X136511519Y-96107806D01*
X136510258Y-96107163D01*
X136475301Y-96089352D01*
X136475299Y-96089351D01*
X136475298Y-96089351D01*
X136475296Y-96089350D01*
X136381530Y-96074500D01*
X136381524Y-96074500D01*
X135918482Y-96074500D01*
X135918478Y-96074500D01*
X135853846Y-96084736D01*
X135853842Y-96084737D01*
X135837519Y-96087323D01*
X135824696Y-96089354D01*
X135711658Y-96146950D01*
X135711657Y-96146951D01*
X135711652Y-96146954D01*
X135708652Y-96149953D01*
X135708649Y-96149955D01*
X135621953Y-96236651D01*
X135605939Y-96268082D01*
X135605938Y-96268084D01*
X135564351Y-96349699D01*
X135549500Y-96443469D01*
X135205500Y-96443469D01*
X135205500Y-96224000D01*
X135200803Y-96180316D01*
X135196897Y-96162364D01*
X135189602Y-96128825D01*
X135189348Y-96127789D01*
X135187110Y-96118627D01*
X135144100Y-96037915D01*
X135098345Y-95985111D01*
X135098339Y-95985104D01*
X135080757Y-95967160D01*
X135080756Y-95967159D01*
X135080754Y-95967157D01*
X135080752Y-95967156D01*
X135080750Y-95967154D01*
X135000940Y-95922511D01*
X135000935Y-95922509D01*
X134933897Y-95902824D01*
X134906849Y-95898935D01*
X134843294Y-95869908D01*
X134805522Y-95811129D01*
X134800500Y-95776198D01*
X134800500Y-94804301D01*
X134805522Y-94769368D01*
X134809433Y-94756049D01*
X134847206Y-94697272D01*
X134910758Y-94668247D01*
X134923647Y-94666394D01*
X134960687Y-94666657D01*
X134967753Y-94667777D01*
X135016508Y-94675500D01*
X135016512Y-94675500D01*
X135533492Y-94675500D01*
X135533493Y-94675500D01*
X135589318Y-94666658D01*
X135623488Y-94661246D01*
X135627979Y-94660534D01*
X135633121Y-94659720D01*
X135633121Y-94659719D01*
X135637916Y-94658960D01*
X135637938Y-94658956D01*
X135642850Y-94658178D01*
X135655093Y-94648526D01*
X135753220Y-94598528D01*
X135848528Y-94503220D01*
X135893852Y-94414266D01*
X135894561Y-94412898D01*
X135911413Y-94380868D01*
X135912026Y-94379328D01*
X135914374Y-94374374D01*
X135923794Y-94354497D01*
X135935658Y-94341191D01*
X135943295Y-94325079D01*
X135970285Y-94302353D01*
X135983068Y-94294392D01*
X136008560Y-94283334D01*
X136008477Y-94283133D01*
X136015991Y-94280020D01*
X136084504Y-94240464D01*
X136084503Y-94240464D01*
X136084511Y-94240460D01*
X136140460Y-94184511D01*
X136429097Y-93895872D01*
X136454769Y-93876174D01*
X136482085Y-93860403D01*
X136511983Y-93848019D01*
X136604587Y-93823207D01*
X136695913Y-93770480D01*
X136770480Y-93695913D01*
X136823207Y-93604587D01*
X136850500Y-93502727D01*
X136850500Y-93397273D01*
X136823207Y-93295413D01*
X136770480Y-93204087D01*
X136695913Y-93129520D01*
X136629059Y-93090922D01*
X136604589Y-93076794D01*
X136604588Y-93076793D01*
X136604587Y-93076793D01*
X136502727Y-93049500D01*
X136502726Y-93049500D01*
X136397273Y-93049500D01*
X136295413Y-93076792D01*
X136295408Y-93076795D01*
X136204088Y-93129518D01*
X136204082Y-93129523D01*
X136129523Y-93204082D01*
X136129517Y-93204091D01*
X136091274Y-93270327D01*
X136091271Y-93270334D01*
X136076794Y-93295410D01*
X136076793Y-93295411D01*
X136051044Y-93391505D01*
X136049891Y-93394981D01*
X136047906Y-93397843D01*
X136040314Y-93416172D01*
X136038870Y-93419908D01*
X136037137Y-93422165D01*
X136034936Y-93425979D01*
X136034433Y-93425688D01*
X135996332Y-93475336D01*
X135982648Y-93484015D01*
X135971707Y-93489990D01*
X135954286Y-93493780D01*
X135938639Y-93502326D01*
X135903435Y-93504845D01*
X135903435Y-93504846D01*
X135901628Y-93504716D01*
X135843423Y-93485343D01*
X135836915Y-93481160D01*
X135816280Y-93464530D01*
X135753228Y-93401478D01*
X135753221Y-93401473D01*
X135753220Y-93401472D01*
X135633126Y-93340281D01*
X135633124Y-93340280D01*
X135633121Y-93340279D01*
X135633119Y-93340278D01*
X135633120Y-93340278D01*
X135533497Y-93324500D01*
X135533493Y-93324500D01*
X135533488Y-93324500D01*
X135016512Y-93324500D01*
X135016507Y-93324500D01*
X135016500Y-93324500D01*
X134961512Y-93333208D01*
X134961512Y-93333209D01*
X134961511Y-93333209D01*
X134961505Y-93333210D01*
X134926222Y-93333715D01*
X134912458Y-93331937D01*
X134848493Y-93303826D01*
X134809881Y-93245598D01*
X134806031Y-93233145D01*
X134800500Y-93196525D01*
X134800500Y-92793662D01*
X134805522Y-92758729D01*
X134812934Y-92733484D01*
X134844228Y-92680742D01*
X135155219Y-92369752D01*
X135490460Y-92034511D01*
X135530021Y-91965989D01*
X135550500Y-91889562D01*
X135550500Y-91429500D01*
X135570185Y-91362461D01*
X135622989Y-91316706D01*
X135674500Y-91305500D01*
X137451001Y-91305500D01*
X137451002Y-91305499D01*
X137529643Y-91289857D01*
X137564291Y-91275505D01*
X137622581Y-91238879D01*
X137622581Y-91238877D01*
X137622583Y-91238877D01*
X137631456Y-91230489D01*
X137633358Y-91232500D01*
X137673986Y-91200429D01*
X137743527Y-91193660D01*
X137805689Y-91225562D01*
X137806976Y-91226803D01*
X137816214Y-91235836D01*
X137855447Y-91294552D01*
X137921181Y-91338474D01*
X137921359Y-91338648D01*
X137921770Y-91338868D01*
X137972612Y-91348981D01*
X137975337Y-91349703D01*
X137980249Y-91350500D01*
X137980250Y-91350500D01*
X137980252Y-91350500D01*
X139453764Y-91350500D01*
X139457533Y-91351606D01*
X139461365Y-91350733D01*
X139490793Y-91361373D01*
X139520803Y-91370185D01*
X139524442Y-91373539D01*
X139527072Y-91374490D01*
X139539065Y-91387017D01*
X139552278Y-91399195D01*
X139554679Y-91402336D01*
X139561275Y-91412208D01*
X139565307Y-91416240D01*
X139565311Y-91416245D01*
X139576401Y-91427335D01*
X139576402Y-91427335D01*
X139576402Y-91427336D01*
X139587766Y-91438703D01*
X139587769Y-91438705D01*
X139587773Y-91438709D01*
X139587978Y-91438882D01*
X139589305Y-91439795D01*
X139643933Y-91478561D01*
X139643935Y-91478562D01*
X139650485Y-91481493D01*
X139652233Y-91482350D01*
X139661360Y-91486130D01*
X139661363Y-91486131D01*
X139699910Y-91497823D01*
X139718658Y-91501552D01*
X139718666Y-91501552D01*
X139718674Y-91501554D01*
X139751198Y-91504756D01*
X139758747Y-91505500D01*
X142141248Y-91505500D01*
X142141253Y-91505500D01*
X142181348Y-91501551D01*
X142200098Y-91497821D01*
X142238644Y-91486127D01*
X142245539Y-91483271D01*
X142312208Y-91438724D01*
X142338726Y-91412206D01*
X142383275Y-91345533D01*
X142386130Y-91338640D01*
X142397824Y-91300086D01*
X142401553Y-91281335D01*
X142405500Y-91241252D01*
X142405500Y-91080247D01*
X146571545Y-91080247D01*
X146571545Y-92519752D01*
X146583176Y-92578229D01*
X146583177Y-92578230D01*
X146583177Y-92578231D01*
X146583179Y-92578233D01*
X146627492Y-92644552D01*
X146693810Y-92688864D01*
X146693812Y-92688866D01*
X146693815Y-92688868D01*
X146744657Y-92698981D01*
X146747382Y-92699703D01*
X146752294Y-92700500D01*
X148191795Y-92700500D01*
X148195918Y-92700500D01*
X148203777Y-92698116D01*
X148223426Y-92694208D01*
X148238303Y-92691249D01*
X148244399Y-92690648D01*
X148244431Y-92690639D01*
X148255356Y-92687902D01*
X148265560Y-92678654D01*
X148316597Y-92644552D01*
X148360912Y-92578231D01*
X148360912Y-92578229D01*
X148360913Y-92578229D01*
X148363075Y-92567355D01*
X148363211Y-92567090D01*
X148363294Y-92566256D01*
X148366716Y-92549055D01*
X148372117Y-92521896D01*
X148372545Y-92519931D01*
X148372545Y-91082295D01*
X148372545Y-91080249D01*
X148372544Y-91080247D01*
X148360913Y-91021770D01*
X148360912Y-91021769D01*
X148316597Y-90955447D01*
X148280191Y-90931121D01*
X148260430Y-90917917D01*
X148255686Y-90914024D01*
X148250275Y-90911132D01*
X148250274Y-90911131D01*
X148191797Y-90899500D01*
X148191795Y-90899500D01*
X146752294Y-90899500D01*
X146752292Y-90899500D01*
X146693815Y-90911131D01*
X146693814Y-90911131D01*
X146693813Y-90911132D01*
X146688400Y-90914024D01*
X146683659Y-90917916D01*
X146627492Y-90955446D01*
X146627491Y-90955447D01*
X146600317Y-90996114D01*
X146600315Y-90996119D01*
X146583177Y-91021769D01*
X146583176Y-91021770D01*
X146571545Y-91080247D01*
X142405500Y-91080247D01*
X142405500Y-89580324D01*
X142425185Y-89513285D01*
X142462655Y-89475883D01*
X144782696Y-87991058D01*
X144829482Y-87949897D01*
X144848338Y-87927377D01*
X144880634Y-87874091D01*
X144886128Y-87860827D01*
X144897821Y-87822280D01*
X144901551Y-87803529D01*
X144905500Y-87763436D01*
X144905500Y-85132261D01*
X144897555Y-85075673D01*
X144890125Y-85049734D01*
X144866916Y-84997539D01*
X144858985Y-84984828D01*
X144858983Y-84984825D01*
X144834415Y-84952908D01*
X144834412Y-84952905D01*
X144834410Y-84952902D01*
X144821321Y-84938970D01*
X144803041Y-84922989D01*
X144790998Y-84912460D01*
X144782501Y-84906391D01*
X143921599Y-84291460D01*
X142694756Y-83415143D01*
X142651646Y-83360159D01*
X142642873Y-83317502D01*
X142642696Y-83310792D01*
X142619805Y-82440912D01*
X142597156Y-81580247D01*
X153899500Y-81580247D01*
X153899500Y-83419752D01*
X153911131Y-83478229D01*
X153911132Y-83478230D01*
X153911132Y-83478231D01*
X153911134Y-83478233D01*
X153955447Y-83544552D01*
X154021765Y-83588864D01*
X154021767Y-83588866D01*
X154021770Y-83588868D01*
X154072612Y-83598981D01*
X154075337Y-83599703D01*
X154080249Y-83600500D01*
X155919750Y-83600500D01*
X155923873Y-83600500D01*
X155931732Y-83598116D01*
X155934568Y-83597552D01*
X155966258Y-83591249D01*
X155972354Y-83590648D01*
X155972386Y-83590639D01*
X155983311Y-83587902D01*
X155993515Y-83578654D01*
X156044552Y-83544552D01*
X156088867Y-83478231D01*
X156088867Y-83478229D01*
X156088868Y-83478229D01*
X156091030Y-83467355D01*
X156091167Y-83467088D01*
X156091250Y-83466255D01*
X156099357Y-83425498D01*
X156099358Y-83425498D01*
X156099358Y-83425488D01*
X156100500Y-83419748D01*
X156100500Y-81580252D01*
X156100500Y-81580249D01*
X156100499Y-81580247D01*
X156088868Y-81521770D01*
X156088867Y-81521769D01*
X156044552Y-81455447D01*
X156008146Y-81431121D01*
X155988385Y-81417917D01*
X155983641Y-81414024D01*
X155978230Y-81411132D01*
X155978229Y-81411131D01*
X155919752Y-81399500D01*
X155919750Y-81399500D01*
X154080249Y-81399500D01*
X154080247Y-81399500D01*
X154021770Y-81411131D01*
X154021769Y-81411131D01*
X154021768Y-81411132D01*
X154016355Y-81414024D01*
X154011614Y-81417916D01*
X153955447Y-81455446D01*
X153955446Y-81455447D01*
X153928272Y-81496114D01*
X153928270Y-81496119D01*
X153911132Y-81521769D01*
X153911131Y-81521770D01*
X153899500Y-81580247D01*
X142597156Y-81580247D01*
X142597082Y-81577418D01*
X142574957Y-80736664D01*
X142564107Y-80324375D01*
X142559175Y-80284710D01*
X142555014Y-80266200D01*
X142542491Y-80228229D01*
X142535260Y-80211861D01*
X142527521Y-80198136D01*
X142515634Y-80177052D01*
X142515630Y-80177046D01*
X142515629Y-80177045D01*
X142515626Y-80177039D01*
X142504747Y-80161501D01*
X142492563Y-80147275D01*
X142478750Y-80131146D01*
X142243612Y-79905344D01*
X142208892Y-79844711D01*
X142205500Y-79815905D01*
X142205500Y-75558747D01*
X142201554Y-75518674D01*
X142201552Y-75518666D01*
X142201552Y-75518658D01*
X142197823Y-75499910D01*
X142186133Y-75461369D01*
X142183275Y-75454468D01*
X142138710Y-75387774D01*
X142138706Y-75387770D01*
X142138704Y-75387767D01*
X142115633Y-75364700D01*
X142112211Y-75361278D01*
X142112208Y-75361275D01*
X142099503Y-75352785D01*
X142045549Y-75316732D01*
X142038651Y-75313874D01*
X142038646Y-75313872D01*
X142000074Y-75302172D01*
X142000070Y-75302171D01*
X141985051Y-75299185D01*
X141981325Y-75298445D01*
X141974601Y-75297783D01*
X141941260Y-75294500D01*
X141941253Y-75294500D01*
X141518173Y-75294500D01*
X141491455Y-75286654D01*
X141463993Y-75282037D01*
X141458393Y-75276946D01*
X141451134Y-75274815D01*
X141432902Y-75253774D01*
X141412292Y-75235039D01*
X141408016Y-75225055D01*
X141405379Y-75222011D01*
X141398399Y-75202595D01*
X141393420Y-75184014D01*
X141393419Y-75184012D01*
X141393417Y-75184004D01*
X141380022Y-75134012D01*
X141340460Y-75065489D01*
X141106457Y-74831486D01*
X151999500Y-74831486D01*
X151999500Y-75168512D01*
X152037231Y-75503391D01*
X152071741Y-75654587D01*
X152110249Y-75823306D01*
X152112223Y-75831952D01*
X152112227Y-75831968D01*
X152112234Y-75831989D01*
X152223529Y-76150047D01*
X152223535Y-76150061D01*
X152369751Y-76453681D01*
X152369955Y-76454039D01*
X152370641Y-76455098D01*
X152416593Y-76528229D01*
X152549054Y-76739039D01*
X152759175Y-77002523D01*
X152997477Y-77240825D01*
X153260961Y-77450946D01*
X153546314Y-77630246D01*
X153849949Y-77776469D01*
X154088848Y-77860063D01*
X154168034Y-77887772D01*
X154168046Y-77887776D01*
X154496606Y-77962767D01*
X154496611Y-77962767D01*
X154496613Y-77962768D01*
X154496612Y-77962768D01*
X154618264Y-77976474D01*
X154814095Y-77998538D01*
X154821698Y-78000500D01*
X155168507Y-78000500D01*
X155194005Y-78000500D01*
X155199139Y-77997696D01*
X155211608Y-77995642D01*
X155445768Y-77969259D01*
X155503387Y-77962768D01*
X155503388Y-77962767D01*
X155503394Y-77962767D01*
X155831954Y-77887776D01*
X156150051Y-77776469D01*
X156453686Y-77630246D01*
X156739039Y-77450946D01*
X157002523Y-77240825D01*
X157240825Y-77002523D01*
X157450946Y-76739039D01*
X157630246Y-76453686D01*
X157776469Y-76150051D01*
X157887776Y-75831954D01*
X157962767Y-75503394D01*
X158000500Y-75168504D01*
X158000500Y-74831496D01*
X157962767Y-74496606D01*
X157887776Y-74168046D01*
X157879337Y-74143930D01*
X157878418Y-74141305D01*
X157860063Y-74088848D01*
X157776469Y-73849949D01*
X157630246Y-73546314D01*
X157450946Y-73260961D01*
X157240825Y-72997477D01*
X157002523Y-72759175D01*
X156739039Y-72549054D01*
X156510491Y-72405447D01*
X156453683Y-72369752D01*
X156453680Y-72369750D01*
X156150061Y-72223535D01*
X156150047Y-72223529D01*
X155831989Y-72112234D01*
X155831968Y-72112227D01*
X155831956Y-72112224D01*
X155831953Y-72112223D01*
X155716930Y-72085970D01*
X155503391Y-72037231D01*
X155168512Y-71999500D01*
X155168508Y-71999500D01*
X155168504Y-71999500D01*
X154831496Y-71999500D01*
X154831491Y-71999500D01*
X154831486Y-71999500D01*
X154496607Y-72037231D01*
X154168046Y-72112223D01*
X154168030Y-72112227D01*
X154168009Y-72112234D01*
X153849951Y-72223529D01*
X153849937Y-72223535D01*
X153546318Y-72369750D01*
X153260959Y-72549054D01*
X153260957Y-72549055D01*
X152997483Y-72759167D01*
X152759167Y-72997483D01*
X152549055Y-73260957D01*
X152549054Y-73260959D01*
X152369750Y-73546318D01*
X152223535Y-73849937D01*
X152223533Y-73849943D01*
X152112234Y-74168009D01*
X152112227Y-74168030D01*
X152112223Y-74168046D01*
X152037231Y-74496607D01*
X151999500Y-74831486D01*
X141106457Y-74831486D01*
X140784511Y-74509540D01*
X140784510Y-74509539D01*
X140784507Y-74509537D01*
X140774951Y-74504020D01*
X140769114Y-74499666D01*
X140766766Y-74496541D01*
X140755577Y-74487955D01*
X140749479Y-74481857D01*
X140723766Y-74472440D01*
X140723498Y-74473089D01*
X140715984Y-74469976D01*
X140690515Y-74463151D01*
X140690515Y-74463152D01*
X140639563Y-74449500D01*
X140639562Y-74449500D01*
X139860438Y-74449500D01*
X139822224Y-74459739D01*
X139822221Y-74459739D01*
X139784020Y-74469976D01*
X139784009Y-74469979D01*
X139761651Y-74482887D01*
X139761650Y-74482888D01*
X139718742Y-74507659D01*
X139718741Y-74507661D01*
X139715497Y-74509533D01*
X139715485Y-74509542D01*
X139375288Y-74849740D01*
X139375287Y-74849741D01*
X139347032Y-74870892D01*
X139333311Y-74878384D01*
X139265051Y-74893236D01*
X139263245Y-74893107D01*
X139205044Y-74873739D01*
X139198529Y-74869552D01*
X139177893Y-74852922D01*
X138884516Y-74559544D01*
X138884512Y-74559541D01*
X138884504Y-74559535D01*
X138859164Y-74544905D01*
X138816872Y-74520488D01*
X138816050Y-74520004D01*
X138815995Y-74519981D01*
X138815991Y-74519980D01*
X138815990Y-74519979D01*
X138790513Y-74513152D01*
X138790509Y-74513150D01*
X138739563Y-74499500D01*
X138739562Y-74499500D01*
X138039562Y-74499500D01*
X137960438Y-74499500D01*
X137960436Y-74499500D01*
X137884011Y-74519977D01*
X137884008Y-74519978D01*
X137815499Y-74559533D01*
X137815485Y-74559542D01*
X137815480Y-74559546D01*
X137259545Y-75115481D01*
X137259544Y-75115483D01*
X137259541Y-75115486D01*
X137259541Y-75115487D01*
X137259535Y-75115495D01*
X137259532Y-75115499D01*
X137259530Y-75115503D01*
X137219984Y-75183998D01*
X137219982Y-75184002D01*
X137219973Y-75184029D01*
X137218273Y-75190376D01*
X137209763Y-75210246D01*
X137204379Y-75222819D01*
X137196241Y-75236169D01*
X137144544Y-75283162D01*
X137136567Y-75287037D01*
X137082389Y-75299500D01*
X126930998Y-75299500D01*
X126834612Y-75318672D01*
X126834596Y-75318676D01*
X126822590Y-75321065D01*
X126822589Y-75321065D01*
X126806379Y-75324289D01*
X126795669Y-75326420D01*
X126763943Y-75339562D01*
X126758356Y-75341875D01*
X126758353Y-75341877D01*
X126668198Y-75379219D01*
X126668180Y-75379229D01*
X126545900Y-75460933D01*
X126545000Y-75463164D01*
X126535445Y-75473896D01*
X119278769Y-82730573D01*
X119256836Y-82746992D01*
X119250518Y-82751722D01*
X119227430Y-82764330D01*
X119168000Y-82779500D01*
X114051000Y-82779500D01*
X113915683Y-82806416D01*
X113915677Y-82806418D01*
X113915667Y-82806421D01*
X113915664Y-82806422D01*
X113915651Y-82806426D01*
X113788195Y-82859220D01*
X113788188Y-82859224D01*
X113673451Y-82935888D01*
X112755888Y-83853451D01*
X112679224Y-83968188D01*
X112679218Y-83968199D01*
X112626421Y-84095665D01*
X112626414Y-84095696D01*
X112600523Y-84225855D01*
X112600506Y-84225947D01*
X112599500Y-84231006D01*
X112599500Y-85624627D01*
X112594237Y-85642547D01*
X110100500Y-85642547D01*
X110100500Y-75249994D01*
X111094500Y-75249994D01*
X111094500Y-75750001D01*
X111099651Y-75795729D01*
X111131146Y-75861126D01*
X111139333Y-75878126D01*
X111139334Y-75878127D01*
X111210837Y-75935149D01*
X111277428Y-75950348D01*
X111299995Y-75955499D01*
X111300000Y-75955500D01*
X111334231Y-75955500D01*
X111340759Y-75956193D01*
X111345181Y-75958017D01*
X111362606Y-75960523D01*
X111377604Y-75964927D01*
X111436355Y-76002672D01*
X111437542Y-76004041D01*
X111465018Y-76058902D01*
X111466663Y-76066460D01*
X111469500Y-76092831D01*
X111469500Y-77125001D01*
X111474651Y-77170729D01*
X111505678Y-77235155D01*
X111514333Y-77253126D01*
X111514334Y-77253127D01*
X111585837Y-77310149D01*
X111653093Y-77325499D01*
X111653095Y-77325501D01*
X111674968Y-77330494D01*
X111674999Y-77330500D01*
X112155003Y-77330500D01*
X112169823Y-77330500D01*
X112173621Y-77328401D01*
X112200728Y-77325348D01*
X112283127Y-77285666D01*
X112304166Y-77259283D01*
X112330115Y-77241068D01*
X112396292Y-77218665D01*
X112464079Y-77235597D01*
X112470230Y-77239204D01*
X112495077Y-77262639D01*
X112496807Y-77260910D01*
X112505447Y-77269552D01*
X112561613Y-77307081D01*
X112566358Y-77310975D01*
X112571770Y-77313868D01*
X112622612Y-77323981D01*
X112625337Y-77324703D01*
X112630249Y-77325500D01*
X113969750Y-77325500D01*
X113973873Y-77325500D01*
X113981732Y-77323116D01*
X114003131Y-77318860D01*
X114016258Y-77316249D01*
X114022354Y-77315648D01*
X114022386Y-77315639D01*
X114033184Y-77312934D01*
X114043517Y-77303653D01*
X114071511Y-77284947D01*
X114081142Y-77281931D01*
X114104597Y-77262326D01*
X114104598Y-77262327D01*
X114117105Y-77251872D01*
X114181165Y-77223984D01*
X114250133Y-77235154D01*
X114266534Y-77243000D01*
X114290332Y-77257910D01*
X114355837Y-77310149D01*
X114423093Y-77325499D01*
X114423095Y-77325501D01*
X114444968Y-77330494D01*
X114444999Y-77330500D01*
X114925003Y-77330500D01*
X114950503Y-77330500D01*
X114955633Y-77327698D01*
X114968123Y-77325641D01*
X114970728Y-77325348D01*
X115053127Y-77285666D01*
X115110149Y-77214163D01*
X115130500Y-77125000D01*
X115130500Y-76097329D01*
X115134085Y-76072398D01*
X115135523Y-76062393D01*
X115139927Y-76047395D01*
X115177672Y-75988644D01*
X115177700Y-75988619D01*
X115177699Y-75988619D01*
X115179041Y-75987456D01*
X115233920Y-75959977D01*
X115241479Y-75958333D01*
X115267832Y-75955500D01*
X115325503Y-75955500D01*
X115330633Y-75952698D01*
X115343123Y-75950641D01*
X115345728Y-75950348D01*
X115428127Y-75910666D01*
X115467634Y-75861124D01*
X115493340Y-75836945D01*
X115512775Y-75823304D01*
X115563902Y-75802442D01*
X115565741Y-75802139D01*
X115578335Y-75801111D01*
X115578953Y-75800903D01*
X115579431Y-75801022D01*
X115585837Y-75800500D01*
X117319930Y-75800500D01*
X117352023Y-75804725D01*
X117382488Y-75812888D01*
X117412388Y-75825272D01*
X117495413Y-75873207D01*
X117597273Y-75900500D01*
X117597275Y-75900500D01*
X117702725Y-75900500D01*
X117702727Y-75900500D01*
X117804587Y-75873207D01*
X117895913Y-75820480D01*
X117970480Y-75745913D01*
X118023207Y-75654587D01*
X118050500Y-75552727D01*
X118050500Y-75447273D01*
X118023207Y-75345413D01*
X117970480Y-75254087D01*
X117895913Y-75179520D01*
X117895912Y-75179519D01*
X117895909Y-75179517D01*
X117825765Y-75139020D01*
X117825763Y-75139019D01*
X117817087Y-75134010D01*
X117804589Y-75126794D01*
X117804588Y-75126793D01*
X117804587Y-75126793D01*
X117780970Y-75120465D01*
X117780968Y-75120464D01*
X117735147Y-75108186D01*
X117702727Y-75099500D01*
X117702726Y-75099500D01*
X117597273Y-75099500D01*
X117495413Y-75126792D01*
X117495410Y-75126794D01*
X117478047Y-75136819D01*
X117466188Y-75143666D01*
X117418220Y-75171360D01*
X117418202Y-75171367D01*
X117412386Y-75174726D01*
X117382484Y-75187112D01*
X117352027Y-75195274D01*
X117319930Y-75199500D01*
X115593794Y-75199500D01*
X115593793Y-75199499D01*
X115593793Y-75199500D01*
X115558858Y-75194477D01*
X115543199Y-75189879D01*
X115485256Y-75153056D01*
X115475626Y-75142169D01*
X115467459Y-75129878D01*
X115466719Y-75130404D01*
X115460668Y-75121877D01*
X115460667Y-75121874D01*
X115460666Y-75121873D01*
X115460664Y-75121871D01*
X115389164Y-75064851D01*
X115389161Y-75064850D01*
X115300004Y-75044500D01*
X115300000Y-75044500D01*
X115272330Y-75044500D01*
X115272325Y-75044499D01*
X115272323Y-75044500D01*
X115237389Y-75039475D01*
X115222390Y-75035070D01*
X115163644Y-74997327D01*
X115163615Y-74997293D01*
X115163614Y-74997293D01*
X115163613Y-74997291D01*
X115162457Y-74995958D01*
X115134977Y-74941083D01*
X115133332Y-74933521D01*
X115130500Y-74907168D01*
X115130500Y-73877381D01*
X115130500Y-73874997D01*
X115130499Y-73874995D01*
X115127677Y-73849949D01*
X115125348Y-73829272D01*
X115104430Y-73785837D01*
X115085666Y-73746873D01*
X115045301Y-73714683D01*
X115014164Y-73689851D01*
X115014161Y-73689850D01*
X114925004Y-73669500D01*
X114925000Y-73669500D01*
X114445000Y-73669500D01*
X114444995Y-73669500D01*
X114432248Y-73670936D01*
X114399273Y-73674650D01*
X114399270Y-73674651D01*
X114316143Y-73714683D01*
X114312524Y-73719785D01*
X114306947Y-73726778D01*
X114281241Y-73750957D01*
X114269882Y-73758930D01*
X114252990Y-73764647D01*
X114249758Y-73766917D01*
X114245812Y-73767077D01*
X114203702Y-73781333D01*
X114135916Y-73764400D01*
X114129754Y-73760786D01*
X114104908Y-73737355D01*
X114103184Y-73739080D01*
X114094553Y-73730450D01*
X114094551Y-73730447D01*
X114092781Y-73729264D01*
X114038384Y-73692916D01*
X114033641Y-73689024D01*
X114028230Y-73686132D01*
X114028229Y-73686131D01*
X113969752Y-73674500D01*
X113969750Y-73674500D01*
X112630249Y-73674500D01*
X112630247Y-73674500D01*
X112571770Y-73686131D01*
X112571769Y-73686131D01*
X112571768Y-73686132D01*
X112566357Y-73689024D01*
X112561614Y-73692917D01*
X112528488Y-73715051D01*
X112518870Y-73718062D01*
X112481982Y-73748886D01*
X112417916Y-73776767D01*
X112352206Y-73767086D01*
X112341569Y-73762369D01*
X112314522Y-73745961D01*
X112306820Y-73739819D01*
X112281699Y-73719785D01*
X112276079Y-73715303D01*
X112276041Y-73715262D01*
X112276015Y-73715252D01*
X112258610Y-73696718D01*
X112251851Y-73689527D01*
X112251832Y-73689500D01*
X112242240Y-73675807D01*
X112238258Y-73670133D01*
X112238161Y-73669847D01*
X112217439Y-73619055D01*
X112217139Y-73617228D01*
X112216104Y-73604541D01*
X112215900Y-73603937D01*
X112216016Y-73603470D01*
X112215500Y-73597136D01*
X112215500Y-73378662D01*
X112220522Y-73343729D01*
X112223968Y-73331994D01*
X112227934Y-73318484D01*
X112259228Y-73265742D01*
X112675552Y-72849418D01*
X112703797Y-72828275D01*
X112726889Y-72815667D01*
X112786314Y-72800500D01*
X116649810Y-72800500D01*
X116684746Y-72805523D01*
X116699744Y-72809927D01*
X116758509Y-72847687D01*
X116760683Y-72850195D01*
X116763064Y-72852943D01*
X116788084Y-72898366D01*
X116792807Y-72914033D01*
X116799491Y-72920488D01*
X116802195Y-72925507D01*
X116846948Y-73013339D01*
X116846950Y-73013342D01*
X116846952Y-73013344D01*
X116846954Y-73013347D01*
X116936652Y-73103045D01*
X116936654Y-73103046D01*
X116936658Y-73103050D01*
X117049694Y-73160645D01*
X117049698Y-73160647D01*
X117143220Y-73175458D01*
X117143457Y-73175497D01*
X117143466Y-73175497D01*
X117143475Y-73175499D01*
X117143481Y-73175500D01*
X117606518Y-73175499D01*
X117700304Y-73160646D01*
X117813342Y-73103050D01*
X117903050Y-73013342D01*
X117960646Y-72900304D01*
X117960646Y-72900302D01*
X117960647Y-72900301D01*
X117960648Y-72900294D01*
X117961785Y-72895560D01*
X117961785Y-72895558D01*
X117961789Y-72895539D01*
X117962173Y-72890667D01*
X117973289Y-72820481D01*
X117973289Y-72820478D01*
X117975500Y-72806519D01*
X117975499Y-72193482D01*
X117975497Y-72193469D01*
X118424500Y-72193469D01*
X118424500Y-72806519D01*
X118426665Y-72820185D01*
X118430114Y-72841963D01*
X118439354Y-72900304D01*
X118496950Y-73013342D01*
X118496952Y-73013344D01*
X118496954Y-73013347D01*
X118586652Y-73103045D01*
X118586654Y-73103046D01*
X118586658Y-73103050D01*
X118699694Y-73160645D01*
X118699698Y-73160647D01*
X118793220Y-73175458D01*
X118793457Y-73175497D01*
X118793466Y-73175497D01*
X118793475Y-73175499D01*
X118793481Y-73175500D01*
X119256518Y-73175499D01*
X119350304Y-73160646D01*
X119463342Y-73103050D01*
X119553050Y-73013342D01*
X119594402Y-72932182D01*
X119594715Y-72931576D01*
X119615449Y-72891600D01*
X119616174Y-72891836D01*
X119625184Y-72872831D01*
X119626191Y-72870891D01*
X119648890Y-72847201D01*
X119670722Y-72822723D01*
X119676343Y-72819224D01*
X119741863Y-72800500D01*
X120969930Y-72800500D01*
X121002023Y-72804725D01*
X121032488Y-72812888D01*
X121062388Y-72825272D01*
X121145413Y-72873207D01*
X121247273Y-72900500D01*
X121247275Y-72900500D01*
X121352725Y-72900500D01*
X121352727Y-72900500D01*
X121454587Y-72873207D01*
X121545913Y-72820480D01*
X121620480Y-72745913D01*
X121673207Y-72654587D01*
X121700500Y-72552727D01*
X121700500Y-72530247D01*
X136449500Y-72530247D01*
X136449500Y-73469752D01*
X136461131Y-73528229D01*
X136461132Y-73528230D01*
X136461132Y-73528231D01*
X136461134Y-73528233D01*
X136505447Y-73594552D01*
X136571765Y-73638864D01*
X136571767Y-73638866D01*
X136571770Y-73638868D01*
X136622612Y-73648981D01*
X136625337Y-73649703D01*
X136630249Y-73650500D01*
X136630250Y-73650500D01*
X136630252Y-73650500D01*
X137203074Y-73650500D01*
X137227261Y-73652882D01*
X137250758Y-73657555D01*
X137274015Y-73664609D01*
X137290076Y-73671262D01*
X137294473Y-73673341D01*
X137295669Y-73673579D01*
X137295672Y-73673580D01*
X137295674Y-73673580D01*
X137295676Y-73673580D01*
X137295677Y-73673581D01*
X137356884Y-73685756D01*
X137431001Y-73700500D01*
X140068995Y-73700500D01*
X140068996Y-73700500D01*
X140098871Y-73694557D01*
X140160041Y-73682389D01*
X140204328Y-73673580D01*
X140232924Y-73661733D01*
X140240173Y-73659716D01*
X140242031Y-73659742D01*
X140249242Y-73657555D01*
X140272739Y-73652882D01*
X140296926Y-73650500D01*
X141973873Y-73650500D01*
X141981728Y-73648116D01*
X141988475Y-73646775D01*
X142016260Y-73641248D01*
X142022358Y-73640648D01*
X142022392Y-73640638D01*
X142033313Y-73637901D01*
X142043519Y-73628651D01*
X142094552Y-73594552D01*
X142138867Y-73528231D01*
X142138867Y-73528229D01*
X142138868Y-73528229D01*
X142141030Y-73517355D01*
X142141166Y-73517090D01*
X142141249Y-73516256D01*
X142150068Y-73471917D01*
X142150500Y-73469931D01*
X142150500Y-72532295D01*
X142150500Y-72530249D01*
X142150499Y-72530247D01*
X142138868Y-72471770D01*
X142138867Y-72471769D01*
X142122499Y-72447273D01*
X142115264Y-72436445D01*
X142094552Y-72405447D01*
X142041128Y-72369750D01*
X142038385Y-72367917D01*
X142033641Y-72364024D01*
X142028230Y-72361132D01*
X142028229Y-72361131D01*
X141969752Y-72349500D01*
X141969750Y-72349500D01*
X140296924Y-72349500D01*
X140272733Y-72347117D01*
X140249239Y-72342443D01*
X140225979Y-72335388D01*
X140204337Y-72326423D01*
X140204317Y-72326416D01*
X140204310Y-72326414D01*
X140068999Y-72299500D01*
X140068995Y-72299500D01*
X140068993Y-72299500D01*
X137431007Y-72299500D01*
X137431005Y-72299500D01*
X137431000Y-72299500D01*
X137295688Y-72326414D01*
X137295681Y-72326416D01*
X137295659Y-72326424D01*
X137274019Y-72335388D01*
X137250765Y-72342442D01*
X137227272Y-72347116D01*
X137203076Y-72349500D01*
X136630247Y-72349500D01*
X136571770Y-72361131D01*
X136571769Y-72361131D01*
X136571768Y-72361132D01*
X136566355Y-72364024D01*
X136561614Y-72367916D01*
X136505447Y-72405446D01*
X136505446Y-72405447D01*
X136478272Y-72446114D01*
X136478270Y-72446119D01*
X136461132Y-72471769D01*
X136461131Y-72471770D01*
X136449500Y-72530247D01*
X121700500Y-72530247D01*
X121700500Y-72447273D01*
X121673207Y-72345413D01*
X121620480Y-72254087D01*
X121545913Y-72179520D01*
X121454587Y-72126793D01*
X121352727Y-72099500D01*
X121352726Y-72099500D01*
X121247273Y-72099500D01*
X121145413Y-72126792D01*
X121145405Y-72126796D01*
X121091298Y-72158036D01*
X121091294Y-72158039D01*
X121068218Y-72171361D01*
X121068201Y-72171368D01*
X121062386Y-72174726D01*
X121032484Y-72187112D01*
X121002027Y-72195274D01*
X120969930Y-72199500D01*
X119750190Y-72199500D01*
X119750185Y-72199499D01*
X119750183Y-72199500D01*
X119715249Y-72194475D01*
X119700250Y-72190070D01*
X119641485Y-72152306D01*
X119636929Y-72147049D01*
X119611913Y-72101632D01*
X119607191Y-72085970D01*
X119600550Y-72079575D01*
X119597757Y-72074401D01*
X119594707Y-72068415D01*
X119553050Y-71986658D01*
X119553046Y-71986654D01*
X119553045Y-71986652D01*
X119463347Y-71896954D01*
X119463344Y-71896952D01*
X119463342Y-71896950D01*
X119463341Y-71896949D01*
X119364656Y-71846666D01*
X119364655Y-71846666D01*
X119350302Y-71839352D01*
X119350295Y-71839350D01*
X119256530Y-71824500D01*
X119256524Y-71824500D01*
X118793482Y-71824500D01*
X118793478Y-71824500D01*
X118728846Y-71834736D01*
X118728842Y-71834737D01*
X118712519Y-71837323D01*
X118699696Y-71839354D01*
X118586658Y-71896950D01*
X118586657Y-71896951D01*
X118586652Y-71896954D01*
X118583652Y-71899953D01*
X118583649Y-71899955D01*
X118496955Y-71986649D01*
X118496946Y-71986664D01*
X118439353Y-72099695D01*
X118439350Y-72099703D01*
X118424500Y-72193469D01*
X117975497Y-72193469D01*
X117960646Y-72099696D01*
X117903050Y-71986658D01*
X117903046Y-71986654D01*
X117903045Y-71986652D01*
X117813347Y-71896954D01*
X117813344Y-71896952D01*
X117813342Y-71896950D01*
X117813341Y-71896949D01*
X117714656Y-71846666D01*
X117714655Y-71846666D01*
X117700302Y-71839352D01*
X117700295Y-71839350D01*
X117606530Y-71824500D01*
X117606524Y-71824500D01*
X117143482Y-71824500D01*
X117143478Y-71824500D01*
X117078846Y-71834736D01*
X117078842Y-71834737D01*
X117062519Y-71837323D01*
X117049696Y-71839354D01*
X116936658Y-71896950D01*
X116936657Y-71896951D01*
X116936652Y-71896954D01*
X116933652Y-71899953D01*
X116933649Y-71899955D01*
X116846955Y-71986649D01*
X116846949Y-71986658D01*
X116805698Y-72067617D01*
X116805287Y-72068415D01*
X116784547Y-72108398D01*
X116783825Y-72108163D01*
X116774846Y-72127100D01*
X116773804Y-72129111D01*
X116751157Y-72152743D01*
X116729285Y-72177271D01*
X116723691Y-72180755D01*
X116658137Y-72199500D01*
X112560438Y-72199500D01*
X112537968Y-72205520D01*
X112509481Y-72213153D01*
X112509480Y-72213152D01*
X112484014Y-72219977D01*
X112484003Y-72219982D01*
X112461387Y-72233039D01*
X112424933Y-72254086D01*
X112415492Y-72259537D01*
X112415487Y-72259540D01*
X112415487Y-72259541D01*
X112415478Y-72259548D01*
X111674545Y-73000481D01*
X111674544Y-73000483D01*
X111674526Y-73000508D01*
X111635485Y-73068130D01*
X111635010Y-73068936D01*
X111634977Y-73069014D01*
X111614500Y-73145437D01*
X111614500Y-73586022D01*
X111614499Y-73586024D01*
X111614500Y-73586025D01*
X111609476Y-73620960D01*
X111604878Y-73636618D01*
X111568059Y-73694557D01*
X111538179Y-73720987D01*
X111534947Y-73729264D01*
X111533780Y-73730749D01*
X111489853Y-73785831D01*
X111489850Y-73785837D01*
X111469500Y-73874994D01*
X111469500Y-74902670D01*
X111469499Y-74902676D01*
X111469500Y-74902679D01*
X111464475Y-74937614D01*
X111460070Y-74952612D01*
X111422327Y-75011355D01*
X111422292Y-75011385D01*
X111422291Y-75011387D01*
X111422289Y-75011387D01*
X111420958Y-75012542D01*
X111366097Y-75040018D01*
X111358539Y-75041663D01*
X111332168Y-75044500D01*
X111299995Y-75044500D01*
X111287385Y-75045920D01*
X111254272Y-75049650D01*
X111171872Y-75089333D01*
X111114851Y-75160834D01*
X111114850Y-75160837D01*
X111094500Y-75249994D01*
X110100500Y-75249994D01*
X110100500Y-75004036D01*
X110100529Y-75001376D01*
X110100529Y-75001372D01*
X110100589Y-74998624D01*
X110100672Y-74996059D01*
X110103971Y-74920500D01*
X110118791Y-74581025D01*
X110119142Y-74575689D01*
X110119615Y-74570287D01*
X110120200Y-74564954D01*
X110120205Y-74564922D01*
X110173877Y-74157233D01*
X110174697Y-74151910D01*
X110175630Y-74146617D01*
X110176686Y-74141305D01*
X110188316Y-74088848D01*
X110265696Y-73739806D01*
X110266980Y-73734561D01*
X110267588Y-73732292D01*
X110268372Y-73729367D01*
X110269880Y-73724194D01*
X110270892Y-73720987D01*
X110393543Y-73331982D01*
X110395274Y-73326884D01*
X110397126Y-73321795D01*
X110399055Y-73316834D01*
X110556450Y-72936850D01*
X110558617Y-72931926D01*
X110560911Y-72927005D01*
X110563272Y-72922219D01*
X110753169Y-72557429D01*
X110755751Y-72552724D01*
X110755919Y-72552431D01*
X110758459Y-72548033D01*
X110761247Y-72543437D01*
X110889296Y-72342442D01*
X110982214Y-72196590D01*
X110985207Y-72192109D01*
X110988312Y-72187674D01*
X110991446Y-72183398D01*
X111241882Y-71857024D01*
X111245202Y-71852888D01*
X111248707Y-71848711D01*
X111252240Y-71844685D01*
X111530075Y-71541481D01*
X111533784Y-71537608D01*
X111537619Y-71533772D01*
X111541481Y-71530075D01*
X111844695Y-71252230D01*
X111848711Y-71248707D01*
X111852888Y-71245202D01*
X111857024Y-71241882D01*
X112183398Y-70991446D01*
X112187683Y-70988306D01*
X112192115Y-70985202D01*
X112196590Y-70982214D01*
X112543411Y-70761264D01*
X112543437Y-70761247D01*
X112548035Y-70758457D01*
X112552724Y-70755751D01*
X112557429Y-70753169D01*
X112922219Y-70563272D01*
X112927005Y-70560911D01*
X112931941Y-70558610D01*
X112936850Y-70556450D01*
X113316834Y-70399055D01*
X113321795Y-70397126D01*
X113326902Y-70395267D01*
X113331982Y-70393543D01*
X113724211Y-70269874D01*
X113729385Y-70268367D01*
X113734561Y-70266980D01*
X113739806Y-70265696D01*
X114141326Y-70176681D01*
X114146610Y-70175631D01*
X114151911Y-70174696D01*
X114157233Y-70173877D01*
X114564973Y-70120197D01*
X114570300Y-70119614D01*
X114575679Y-70119143D01*
X114581065Y-70118790D01*
X114984694Y-70101168D01*
X114993233Y-70100795D01*
X114995973Y-70100676D01*
X114998583Y-70100589D01*
X115001414Y-70100528D01*
X115004036Y-70100500D01*
X154995952Y-70100500D01*
X154998612Y-70100529D01*
G37*
%TD.AperFunction*%
%TD*%
%TA.AperFunction,Conductor*%
%TO.N,+5V*%
G36*
X141959999Y-75503727D02*
G01*
X141966898Y-75506585D01*
X141982804Y-75522491D01*
X141993413Y-75533098D01*
X141996271Y-75539999D01*
X142000000Y-75558747D01*
X142000000Y-79956317D01*
X142336407Y-80279365D01*
X142347286Y-80294903D01*
X142354517Y-80311271D01*
X142358678Y-80329781D01*
X142441762Y-83486973D01*
X142441763Y-83486974D01*
X144535400Y-84982429D01*
X144671550Y-85079679D01*
X144684639Y-85093611D01*
X144692570Y-85106322D01*
X144700000Y-85132261D01*
X144700000Y-87763436D01*
X144696270Y-87782187D01*
X144690776Y-87795451D01*
X144671920Y-87817971D01*
X142200000Y-89400000D01*
X142200000Y-91241252D01*
X142196271Y-91260003D01*
X142193416Y-91266896D01*
X142166898Y-91293414D01*
X142160003Y-91296270D01*
X142141253Y-91300000D01*
X139758747Y-91300000D01*
X139739999Y-91296271D01*
X139733101Y-91293414D01*
X139733099Y-91293412D01*
X139733096Y-91293412D01*
X139721732Y-91282045D01*
X139706585Y-91266898D01*
X139703727Y-91259997D01*
X139700000Y-91241252D01*
X139700000Y-88400000D01*
X139699998Y-88399995D01*
X139379291Y-87918937D01*
X139371994Y-87901269D01*
X139369045Y-87886362D01*
X139369055Y-87867296D01*
X139369668Y-87864214D01*
X139369669Y-87864213D01*
X139375500Y-87834899D01*
X139375499Y-87151363D01*
X139389851Y-87116716D01*
X139424499Y-87102364D01*
X139429297Y-87102599D01*
X139458747Y-87105500D01*
X140515166Y-87105500D01*
X140544565Y-87115299D01*
X141390605Y-87749829D01*
X141418526Y-87767454D01*
X141432429Y-87774739D01*
X141462827Y-87787670D01*
X141462831Y-87787671D01*
X141462835Y-87787673D01*
X141466411Y-87788864D01*
X141477141Y-87792441D01*
X141477158Y-87792445D01*
X141477164Y-87792447D01*
X141509178Y-87800326D01*
X141509187Y-87800327D01*
X141509196Y-87800330D01*
X141524690Y-87802845D01*
X141557616Y-87805500D01*
X141557620Y-87805500D01*
X142641253Y-87805500D01*
X142641254Y-87805500D01*
X142646980Y-87804935D01*
X142681348Y-87801551D01*
X142681361Y-87801548D01*
X142681364Y-87801548D01*
X142700080Y-87797825D01*
X142700084Y-87797823D01*
X142700098Y-87797821D01*
X142738644Y-87786127D01*
X142745539Y-87783271D01*
X142812208Y-87738724D01*
X142838726Y-87712206D01*
X142883275Y-87645533D01*
X142886130Y-87638640D01*
X142897824Y-87600086D01*
X142901553Y-87581335D01*
X142905500Y-87541252D01*
X142905500Y-86658747D01*
X142901552Y-86618658D01*
X142897823Y-86599910D01*
X142886133Y-86561369D01*
X142883275Y-86554468D01*
X142850425Y-86505306D01*
X142843107Y-86468524D01*
X142848067Y-86454769D01*
X142849896Y-86451387D01*
X142856648Y-86442557D01*
X142860409Y-86434320D01*
X142859381Y-86433850D01*
X142868126Y-86417685D01*
X142868171Y-86417648D01*
X142868462Y-86417075D01*
X142877491Y-86400935D01*
X142879808Y-86393039D01*
X142882249Y-86386496D01*
X142885666Y-86379017D01*
X142894695Y-86355543D01*
X142895780Y-86342254D01*
X142897015Y-86335681D01*
X142896797Y-86335634D01*
X142897169Y-86333922D01*
X142897169Y-86333919D01*
X142897171Y-86333914D01*
X142905500Y-86276000D01*
X142905500Y-85524000D01*
X142900803Y-85480316D01*
X142889597Y-85428805D01*
X142887110Y-85418627D01*
X142844100Y-85337915D01*
X142844098Y-85337913D01*
X142844098Y-85337912D01*
X142798348Y-85285115D01*
X142798345Y-85285111D01*
X142790010Y-85276604D01*
X142780756Y-85267158D01*
X142780752Y-85267156D01*
X142700940Y-85222511D01*
X142700932Y-85222508D01*
X142633897Y-85202824D01*
X142576002Y-85194500D01*
X142576000Y-85194500D01*
X141574666Y-85194500D01*
X141574665Y-85194500D01*
X141567237Y-85194634D01*
X141558282Y-85194957D01*
X141558281Y-85194957D01*
X141493722Y-85207844D01*
X141493719Y-85207845D01*
X141428289Y-85232316D01*
X141428282Y-85232319D01*
X141428280Y-85232320D01*
X141428276Y-85232321D01*
X141428270Y-85232325D01*
X141376972Y-85260394D01*
X141376964Y-85260400D01*
X141152425Y-85428805D01*
X140575910Y-85861193D01*
X140544567Y-85884700D01*
X140515167Y-85894500D01*
X139524000Y-85894500D01*
X139510355Y-85895967D01*
X139480328Y-85899195D01*
X139480302Y-85899199D01*
X139434914Y-85909073D01*
X139398007Y-85902414D01*
X139376619Y-85871608D01*
X139375499Y-85861193D01*
X139375499Y-85165105D01*
X139375499Y-85165102D01*
X139369669Y-85135787D01*
X139369667Y-85135784D01*
X139369667Y-85135783D01*
X139347457Y-85102543D01*
X139347455Y-85102541D01*
X139347454Y-85102540D01*
X139314211Y-85080329D01*
X139284907Y-85074500D01*
X139284904Y-85074500D01*
X139284899Y-85074500D01*
X138623617Y-85074500D01*
X138608122Y-85071985D01*
X138593809Y-85067214D01*
X138579906Y-85059929D01*
X138527396Y-85020547D01*
X138514632Y-85006310D01*
X138506836Y-84993142D01*
X138500000Y-84968179D01*
X138500000Y-84598171D01*
X138500104Y-84594981D01*
X138500315Y-84591762D01*
X138500435Y-84590549D01*
X138500500Y-84589557D01*
X138500500Y-84304514D01*
X138504229Y-84285764D01*
X138511123Y-84269120D01*
X138521741Y-84253229D01*
X139203229Y-83571741D01*
X139219120Y-83561123D01*
X139235765Y-83554228D01*
X139254514Y-83550500D01*
X139259523Y-83550500D01*
X139265407Y-83547102D01*
X139354587Y-83523207D01*
X139445913Y-83470480D01*
X139520480Y-83395913D01*
X139573207Y-83304587D01*
X139597102Y-83215407D01*
X139600500Y-83209523D01*
X139600500Y-83096619D01*
X139599669Y-83094173D01*
X139573307Y-82995788D01*
X139573214Y-82995432D01*
X139573207Y-82995414D01*
X139573206Y-82995410D01*
X139520479Y-82904086D01*
X139445913Y-82829520D01*
X139445909Y-82829518D01*
X139445907Y-82829516D01*
X139354589Y-82776793D01*
X139354561Y-82776781D01*
X139354165Y-82776679D01*
X139252733Y-82749500D01*
X139252730Y-82749500D01*
X139252727Y-82749500D01*
X139147273Y-82749500D01*
X139147270Y-82749500D01*
X139147267Y-82749500D01*
X139045833Y-82776679D01*
X139045439Y-82776781D01*
X139045409Y-82776793D01*
X138952180Y-82830620D01*
X138949522Y-82834084D01*
X138884084Y-82899522D01*
X138880620Y-82902180D01*
X138826793Y-82995409D01*
X138826781Y-82995439D01*
X138826679Y-82995833D01*
X138799500Y-83097265D01*
X138799081Y-83100450D01*
X138798526Y-83100377D01*
X138795770Y-83114238D01*
X138788877Y-83130878D01*
X138778255Y-83146773D01*
X138590540Y-83334488D01*
X138574644Y-83345110D01*
X138569770Y-83347129D01*
X138532267Y-83347130D01*
X138505749Y-83320612D01*
X138503727Y-83315730D01*
X138500000Y-83296985D01*
X138500000Y-82728258D01*
X138503334Y-82710493D01*
X138509548Y-82694519D01*
X138519094Y-82679173D01*
X139900000Y-81172755D01*
X139900000Y-80667596D01*
X139900000Y-75558747D01*
X139903727Y-75540002D01*
X139906583Y-75533106D01*
X139933094Y-75506588D01*
X139940002Y-75503726D01*
X139958747Y-75500000D01*
X141941253Y-75500000D01*
X141959999Y-75503727D01*
G37*
%TD.AperFunction*%
%TD*%
M02*
