%TF.GenerationSoftware,KiCad,Pcbnew,10.0.1*%
%TF.CreationDate,2026-07-02T18:40:39+02:00*%
%TF.ProjectId,Chargeur,43686172-6765-4757-922e-6b696361645f,rev?*%
%TF.SameCoordinates,Original*%
%TF.FileFunction,Legend,Top*%
%TF.FilePolarity,Positive*%
%FSLAX46Y46*%
G04 Gerber Fmt 4.6, Leading zero omitted, Abs format (unit mm)*
G04 Created by KiCad (PCBNEW 10.0.1) date 2026-07-02 18:40:39*
%MOMM*%
%LPD*%
G01*
G04 APERTURE LIST*
%ADD10C,0.120000*%
G04 APERTURE END LIST*
%TO.C,L1*%
D10*
X226110000Y-85000000D02*
G75*
G02*
X194890000Y-85000000I-15610000J0D01*
G01*
X194890000Y-85000000D02*
G75*
G02*
X226110000Y-85000000I15610000J0D01*
G01*
%TO.C,R9*%
X127402500Y-82237258D02*
X127402500Y-81762742D01*
X128447500Y-82237258D02*
X128447500Y-81762742D01*
%TO.C,R3*%
X134237742Y-80477500D02*
X134712258Y-80477500D01*
X134237742Y-81522500D02*
X134712258Y-81522500D01*
%TO.C,R14*%
X139990000Y-72900000D02*
X139990000Y-76100000D01*
X142210000Y-72900000D02*
X142210000Y-76100000D01*
%TO.C,C1*%
X134640580Y-89990000D02*
X134359420Y-89990000D01*
X134640580Y-91010000D02*
X134359420Y-91010000D01*
%TO.C,R4*%
X129477500Y-82237258D02*
X129477500Y-81762742D01*
X130522500Y-82237258D02*
X130522500Y-81762742D01*
%TO.C,R7*%
X128512742Y-87727500D02*
X128987258Y-87727500D01*
X128512742Y-88772500D02*
X128987258Y-88772500D01*
%TO.C,R11*%
X117962742Y-73022500D02*
X118437258Y-73022500D01*
X117962742Y-71977500D02*
X118437258Y-71977500D01*
%TO.C,U1*%
X134840000Y-84390000D02*
X135815000Y-84390000D01*
X134840000Y-85365000D02*
X134840000Y-84390000D01*
X134840000Y-88610000D02*
X134840000Y-87635000D01*
X135815000Y-88610000D02*
X134840000Y-88610000D01*
X139085000Y-84390000D02*
X140060000Y-84390000D01*
X140060000Y-84390000D02*
X140060000Y-85365000D01*
X140060000Y-87635000D02*
X140060000Y-88610000D01*
X140060000Y-88610000D02*
X139085000Y-88610000D01*
X138700000Y-83860000D02*
X138460000Y-83530000D01*
X138940000Y-83530000D01*
X138700000Y-83860000D01*
G36*
X138700000Y-83860000D02*
G01*
X138460000Y-83530000D01*
X138940000Y-83530000D01*
X138700000Y-83860000D01*
G37*
%TO.C,R6*%
X136277500Y-81037258D02*
X136277500Y-80562742D01*
X137322500Y-81037258D02*
X137322500Y-80562742D01*
%TO.C,R8*%
X126862742Y-83977500D02*
X127337258Y-83977500D01*
X126862742Y-85022500D02*
X127337258Y-85022500D01*
%TO.C,C9*%
X142188748Y-81990000D02*
X143611252Y-81990000D01*
X142188748Y-83810000D02*
X143611252Y-83810000D01*
%TO.C,R15*%
X119077500Y-87912258D02*
X119077500Y-87437742D01*
X120122500Y-87912258D02*
X120122500Y-87437742D01*
%TO.C,R2*%
X132012742Y-96227500D02*
X132487258Y-96227500D01*
X132012742Y-97272500D02*
X132487258Y-97272500D01*
%TO.C,D1*%
X140260000Y-89790000D02*
X137020000Y-89790000D01*
X140260000Y-91410000D02*
X137020000Y-91410000D01*
X140260000Y-91410000D02*
X140260000Y-89790000D01*
%TO.C,C2*%
X139090580Y-93990000D02*
X138809420Y-93990000D01*
X139090580Y-95010000D02*
X138809420Y-95010000D01*
%TO.C,R10*%
X128987258Y-86227500D02*
X128512742Y-86227500D01*
X128987258Y-87272500D02*
X128512742Y-87272500D01*
%TO.C,R12*%
X121077500Y-87912258D02*
X121077500Y-87437742D01*
X122122500Y-87912258D02*
X122122500Y-87437742D01*
%TO.C,C4*%
X134640580Y-93490000D02*
X134359420Y-93490000D01*
X134640580Y-94510000D02*
X134359420Y-94510000D01*
%TO.C,D3*%
X115000000Y-73615000D02*
X111600000Y-73615000D01*
X111200000Y-76300000D02*
X110900000Y-76300000D01*
X111050000Y-76450000D02*
X111050000Y-76150000D01*
X115000000Y-77385000D02*
X111600000Y-77385000D01*
%TO.C,C8*%
X142038748Y-89090000D02*
X143461252Y-89090000D01*
X142038748Y-90910000D02*
X143461252Y-90910000D01*
%TO.C,R5*%
X130977500Y-81762742D02*
X130977500Y-82237258D01*
X132022500Y-81762742D02*
X132022500Y-82237258D01*
%TO.C,R13*%
X136390000Y-76100000D02*
X136390000Y-72900000D01*
X138610000Y-76100000D02*
X138610000Y-72900000D01*
%TO.C,C7*%
X144788748Y-85590000D02*
X146211252Y-85590000D01*
X144788748Y-87410000D02*
X146211252Y-87410000D01*
%TO.C,C3*%
X133540580Y-79210000D02*
X133259420Y-79210000D01*
X133540580Y-78190000D02*
X133259420Y-78190000D01*
%TO.C,D2*%
X140690000Y-93900000D02*
X140690000Y-95100000D01*
X142650000Y-93900000D02*
X140690000Y-93900000D01*
X142650000Y-95100000D02*
X140690000Y-95100000D01*
%TO.C,J1*%
X112700000Y-80330000D02*
X114400000Y-80330000D01*
X112700000Y-89670000D02*
X114400000Y-89670000D01*
%TO.C,C5*%
X134615580Y-81990000D02*
X134334420Y-81990000D01*
X134615580Y-83010000D02*
X134334420Y-83010000D01*
%TO.C,R1*%
X135087742Y-96227500D02*
X135562258Y-96227500D01*
X135087742Y-97272500D02*
X135562258Y-97272500D01*
%TO.C,C6*%
X139240580Y-81140000D02*
X138959420Y-81140000D01*
X139240580Y-82160000D02*
X138959420Y-82160000D01*
%TD*%
M02*
