%TF.GenerationSoftware,KiCad,Pcbnew,10.0.1*%
%TF.CreationDate,2026-07-02T18:40:39+02:00*%
%TF.ProjectId,Chargeur,43686172-6765-4757-922e-6b696361645f,rev?*%
%TF.SameCoordinates,Original*%
%TF.FileFunction,Legend,Bot*%
%TF.FilePolarity,Positive*%
%FSLAX46Y46*%
G04 Gerber Fmt 4.6, Leading zero omitted, Abs format (unit mm)*
G04 Created by KiCad (PCBNEW 10.0.1) date 2026-07-02 18:40:39*
%MOMM*%
%LPD*%
G01*
G04 APERTURE LIST*
%ADD10C,0.000000*%
G04 APERTURE END LIST*
D10*
%TO.C,G\u002A\u002A\u002A*%
G36*
X139319302Y-94853525D02*
G01*
X139400001Y-94907190D01*
X139430000Y-95013271D01*
X139419237Y-95025358D01*
X139350760Y-95042536D01*
X139240000Y-95048727D01*
X139189989Y-95048101D01*
X139106873Y-95042260D01*
X139087477Y-95026116D01*
X139120000Y-94994318D01*
X139161225Y-94954220D01*
X139190000Y-94895590D01*
X139212655Y-94866220D01*
X139285721Y-94850000D01*
X139319302Y-94853525D01*
G37*
G36*
X131686688Y-82197053D02*
G01*
X131611034Y-82308709D01*
X131480000Y-82447659D01*
X131328239Y-82599107D01*
X131157058Y-82773416D01*
X131009174Y-82927786D01*
X130893057Y-83053211D01*
X130817176Y-83140689D01*
X130790000Y-83181215D01*
X130789796Y-83183281D01*
X130758320Y-83231576D01*
X130687966Y-83307635D01*
X130599907Y-83390141D01*
X130515315Y-83457775D01*
X130500593Y-83468655D01*
X130419966Y-83536346D01*
X130308507Y-83637324D01*
X130179032Y-83759096D01*
X130044358Y-83889172D01*
X129917301Y-84015059D01*
X129810679Y-84124266D01*
X129737306Y-84204302D01*
X129710000Y-84242675D01*
X129706051Y-84252441D01*
X129653724Y-84295086D01*
X129560000Y-84344467D01*
X129446948Y-84398079D01*
X129244382Y-84508507D01*
X129059990Y-84625374D01*
X128922155Y-84731461D01*
X128909010Y-84743180D01*
X128793106Y-84839382D01*
X128671811Y-84931461D01*
X128654401Y-84944195D01*
X128536880Y-85041818D01*
X128438326Y-85140000D01*
X128426494Y-85153193D01*
X128349326Y-85221974D01*
X128289516Y-85250000D01*
X128234689Y-85260811D01*
X128116993Y-85311372D01*
X127968199Y-85394112D01*
X127802729Y-85498864D01*
X127635005Y-85615462D01*
X127479448Y-85733738D01*
X127350481Y-85843524D01*
X127262524Y-85934653D01*
X127230000Y-85996958D01*
X127231300Y-86003112D01*
X127270730Y-86059202D01*
X127353748Y-86148184D01*
X127464937Y-86255603D01*
X127588881Y-86367002D01*
X127710160Y-86467926D01*
X127813359Y-86543920D01*
X127864849Y-86578423D01*
X128044616Y-86712574D01*
X128161525Y-86828846D01*
X128225074Y-86936290D01*
X128234693Y-86962030D01*
X128244522Y-87001484D01*
X128238646Y-87040429D01*
X128209532Y-87087593D01*
X128149644Y-87151707D01*
X128051449Y-87241498D01*
X127907413Y-87365697D01*
X127710000Y-87533030D01*
X127568049Y-87653561D01*
X127393128Y-87802952D01*
X127234966Y-87938891D01*
X127115778Y-88042337D01*
X126996946Y-88141474D01*
X126876839Y-88232679D01*
X126788707Y-88290000D01*
X126761575Y-88307214D01*
X126674105Y-88383300D01*
X126575852Y-88488178D01*
X126484175Y-88601052D01*
X126464581Y-88630000D01*
X126416438Y-88701125D01*
X126390000Y-88767600D01*
X126391544Y-88779245D01*
X126430000Y-88810000D01*
X126444731Y-88806488D01*
X126470613Y-88760000D01*
X126477785Y-88737368D01*
X126510542Y-88770000D01*
X126530848Y-88829714D01*
X126530435Y-88930000D01*
X126529987Y-88932810D01*
X126528465Y-88942347D01*
X126545522Y-89045804D01*
X126626345Y-89168416D01*
X126741678Y-89306833D01*
X126830484Y-89117906D01*
X126865113Y-89047889D01*
X126918608Y-88953411D01*
X126954645Y-88907129D01*
X126973869Y-88882684D01*
X126990000Y-88807639D01*
X126996294Y-88763440D01*
X127025148Y-88730000D01*
X127063305Y-88697611D01*
X127106326Y-88618870D01*
X127135958Y-88568034D01*
X127221535Y-88467264D01*
X127330832Y-88368870D01*
X127401979Y-88308217D01*
X127489116Y-88216056D01*
X127532841Y-88144578D01*
X127560658Y-88091142D01*
X127628091Y-88077910D01*
X127651301Y-88077838D01*
X127724221Y-88036704D01*
X127801738Y-87956032D01*
X127863528Y-87859671D01*
X127889263Y-87771470D01*
X127904515Y-87733968D01*
X127970000Y-87696636D01*
X127986061Y-87692395D01*
X128082577Y-87644874D01*
X128215410Y-87558504D01*
X128366959Y-87446157D01*
X128519625Y-87320709D01*
X128655806Y-87195031D01*
X128717073Y-87134451D01*
X128853381Y-87001502D01*
X128975806Y-86884095D01*
X128989814Y-86870724D01*
X129140742Y-86716719D01*
X129335424Y-86503439D01*
X129570000Y-86235103D01*
X129629816Y-86163195D01*
X129760032Y-85995927D01*
X129900021Y-85805517D01*
X130034687Y-85613241D01*
X130148936Y-85440372D01*
X130227672Y-85308187D01*
X130298761Y-85189083D01*
X130364859Y-85102680D01*
X130410621Y-85069525D01*
X130456774Y-85044688D01*
X130540718Y-84973509D01*
X130644875Y-84872469D01*
X130753496Y-84758182D01*
X130850829Y-84647264D01*
X130921126Y-84556327D01*
X130948636Y-84501987D01*
X130953468Y-84479891D01*
X131000117Y-84421987D01*
X131038066Y-84387620D01*
X131112408Y-84295105D01*
X131191571Y-84178152D01*
X131256957Y-84064899D01*
X131289969Y-83983479D01*
X131297137Y-83942251D01*
X131309751Y-83850000D01*
X131320969Y-83822720D01*
X131346234Y-83868262D01*
X131366509Y-83897983D01*
X131396709Y-83884977D01*
X131444650Y-83818074D01*
X131518980Y-83688262D01*
X131652968Y-83448242D01*
X131838658Y-83130273D01*
X131994991Y-82883058D01*
X132123109Y-82704824D01*
X132224153Y-82593800D01*
X132281003Y-82519079D01*
X132310000Y-82421439D01*
X132319828Y-82363535D01*
X132350339Y-82350209D01*
X132379689Y-82350764D01*
X132420339Y-82301661D01*
X132436057Y-82269201D01*
X132489359Y-82172386D01*
X132567571Y-82037612D01*
X132660000Y-81883536D01*
X132720034Y-81783551D01*
X132797354Y-81649579D01*
X132850340Y-81551001D01*
X132870000Y-81504066D01*
X132887564Y-81471388D01*
X132950000Y-81419282D01*
X132999634Y-81379060D01*
X133030000Y-81326837D01*
X133049640Y-81283501D01*
X133109270Y-81196565D01*
X133194931Y-81088754D01*
X133270750Y-80995067D01*
X133322766Y-80912602D01*
X133355565Y-80822142D01*
X133377697Y-80699772D01*
X133397711Y-80521578D01*
X133406296Y-80428711D01*
X133421889Y-80171208D01*
X133426495Y-79919342D01*
X133420710Y-79687905D01*
X133405132Y-79491689D01*
X133380357Y-79345487D01*
X133346982Y-79264092D01*
X133308971Y-79202955D01*
X133279440Y-79099626D01*
X133253994Y-79004214D01*
X133198318Y-78899626D01*
X133191863Y-78889970D01*
X133134326Y-78769086D01*
X133097445Y-78634264D01*
X133094233Y-78616371D01*
X133052340Y-78489807D01*
X132991585Y-78391686D01*
X132936595Y-78310250D01*
X132910000Y-78217730D01*
X132909399Y-78208085D01*
X132873758Y-78120890D01*
X132800000Y-78032428D01*
X132747847Y-77980873D01*
X132648948Y-77842949D01*
X132565519Y-77658183D01*
X132489286Y-77410000D01*
X132475231Y-77358345D01*
X132354966Y-77005951D01*
X132186117Y-76644553D01*
X132170864Y-76614422D01*
X132127450Y-76514760D01*
X132110000Y-76450598D01*
X132109920Y-76447724D01*
X132093395Y-76376094D01*
X132056833Y-76276045D01*
X132030008Y-76210474D01*
X131945086Y-75968570D01*
X131889764Y-75750594D01*
X131870000Y-75578775D01*
X131878390Y-75477434D01*
X131919474Y-75388074D01*
X132011392Y-75294143D01*
X132056181Y-75256481D01*
X132141124Y-75194484D01*
X132192800Y-75169999D01*
X132216005Y-75174230D01*
X132310823Y-75220157D01*
X132449129Y-75311143D01*
X132620174Y-75440387D01*
X132655219Y-75467868D01*
X132741861Y-75528068D01*
X132789823Y-75541144D01*
X132814453Y-75512819D01*
X132842657Y-75472575D01*
X132910335Y-75451938D01*
X132971083Y-75491752D01*
X132977506Y-75522850D01*
X132949570Y-75590518D01*
X132936084Y-75608142D01*
X132925557Y-75638707D01*
X132938306Y-75679325D01*
X132981916Y-75742328D01*
X133063969Y-75840046D01*
X133192050Y-75984811D01*
X133199905Y-75993628D01*
X133299653Y-76105719D01*
X133424735Y-76246442D01*
X133550000Y-76387500D01*
X133554090Y-76392104D01*
X133726250Y-76579254D01*
X133869010Y-76721143D01*
X133977279Y-76813426D01*
X134045972Y-76851755D01*
X134070000Y-76831783D01*
X134076376Y-76799812D01*
X134110000Y-76789999D01*
X134131755Y-76816103D01*
X134150000Y-76892903D01*
X134150316Y-76904837D01*
X134176465Y-77005007D01*
X134250336Y-77126079D01*
X134380000Y-77281694D01*
X134420425Y-77329568D01*
X134484663Y-77423144D01*
X134510000Y-77488194D01*
X134526895Y-77537085D01*
X134590001Y-77600717D01*
X134639000Y-77644708D01*
X134670001Y-77714164D01*
X134691231Y-77789764D01*
X134742898Y-77883825D01*
X134763762Y-77915842D01*
X134825743Y-78024156D01*
X134886109Y-78143837D01*
X134931861Y-78248121D01*
X134950000Y-78310244D01*
X134959562Y-78335357D01*
X135003435Y-78412751D01*
X135070861Y-78517479D01*
X135110120Y-78577278D01*
X135197944Y-78720280D01*
X135266977Y-78844074D01*
X135299587Y-78893386D01*
X135381805Y-78991763D01*
X135494034Y-79112112D01*
X135622303Y-79240903D01*
X135752644Y-79364607D01*
X135871088Y-79469695D01*
X135963665Y-79542637D01*
X136016408Y-79569905D01*
X136041496Y-79563193D01*
X136129178Y-79530668D01*
X136261335Y-79477287D01*
X136420644Y-79409905D01*
X136456712Y-79394356D01*
X136601211Y-79333736D01*
X136715432Y-79293023D01*
X136821430Y-79268256D01*
X136941261Y-79255472D01*
X137096980Y-79250707D01*
X137310644Y-79249999D01*
X137348560Y-79249921D01*
X137536900Y-79247015D01*
X137689827Y-79240545D01*
X137792480Y-79231358D01*
X137830000Y-79220306D01*
X137820824Y-79192625D01*
X137782396Y-79104605D01*
X137720918Y-78973494D01*
X137643906Y-78815639D01*
X137608566Y-78744617D01*
X137536447Y-78603670D01*
X137488191Y-78521701D01*
X137455817Y-78489278D01*
X137431346Y-78496966D01*
X137406798Y-78535332D01*
X137379991Y-78581918D01*
X137352268Y-78602172D01*
X137328042Y-78558510D01*
X137323529Y-78499359D01*
X137375149Y-78402666D01*
X137380701Y-78396332D01*
X137421759Y-78331938D01*
X137400000Y-78300822D01*
X137370147Y-78273316D01*
X137349397Y-78196666D01*
X137349356Y-78194088D01*
X137330919Y-78093844D01*
X137284406Y-77949678D01*
X137217640Y-77778638D01*
X137138446Y-77597774D01*
X137054649Y-77424132D01*
X136974072Y-77274761D01*
X136904541Y-77166708D01*
X136853880Y-77117023D01*
X136839696Y-77109846D01*
X136811128Y-77057284D01*
X136817780Y-76949810D01*
X136827130Y-76865722D01*
X136811233Y-76809637D01*
X136755604Y-76783055D01*
X136698246Y-76759184D01*
X136671375Y-76717521D01*
X136713561Y-76682146D01*
X136722096Y-76674505D01*
X136714439Y-76611346D01*
X136660579Y-76490138D01*
X136562460Y-76314832D01*
X136422024Y-76089378D01*
X136413477Y-76076056D01*
X136265627Y-75805196D01*
X136178951Y-75555822D01*
X136155274Y-75335522D01*
X136196421Y-75151882D01*
X136213421Y-75117399D01*
X136240956Y-75084919D01*
X136287941Y-75065020D01*
X136369511Y-75054621D01*
X136500807Y-75050641D01*
X136696964Y-75050000D01*
X136858090Y-75052322D01*
X137026735Y-75060238D01*
X137153985Y-75072444D01*
X137220543Y-75087555D01*
X137226443Y-75090726D01*
X137351538Y-75152131D01*
X137497680Y-75216036D01*
X137641573Y-75273166D01*
X137759925Y-75314245D01*
X137829440Y-75330000D01*
X137902419Y-75349422D01*
X137994606Y-75402469D01*
X138031985Y-75429312D01*
X138144120Y-75502707D01*
X138270000Y-75578752D01*
X138343873Y-75625254D01*
X138491979Y-75733025D01*
X138626656Y-75846282D01*
X138709398Y-75918460D01*
X138797785Y-75984521D01*
X138850457Y-76010000D01*
X138899055Y-76029519D01*
X138969147Y-76089056D01*
X139026329Y-76136624D01*
X139075346Y-76146696D01*
X139093587Y-76145228D01*
X139110001Y-76190325D01*
X139127477Y-76242818D01*
X139192804Y-76329180D01*
X139284220Y-76414560D01*
X139377790Y-76477404D01*
X139449578Y-76496154D01*
X139485509Y-76495338D01*
X139494660Y-76522460D01*
X139485767Y-76567691D01*
X139515247Y-76655843D01*
X139593393Y-76780087D01*
X139722698Y-76943526D01*
X139905659Y-77149257D01*
X140144770Y-77400382D01*
X140442527Y-77700000D01*
X140504011Y-77760547D01*
X140688697Y-77936026D01*
X140825991Y-78054112D01*
X140919540Y-78117403D01*
X140972993Y-78128499D01*
X140990000Y-78090000D01*
X140990969Y-78080597D01*
X141024500Y-78050000D01*
X141044946Y-78080550D01*
X141046924Y-78160000D01*
X141056898Y-78257933D01*
X141112945Y-78356918D01*
X141198636Y-78423423D01*
X141294568Y-78443366D01*
X141381334Y-78402666D01*
X141409955Y-78383075D01*
X141459334Y-78388142D01*
X141467673Y-78404259D01*
X141440000Y-78438809D01*
X141400865Y-78471079D01*
X141394289Y-78550658D01*
X141439193Y-78655770D01*
X141531064Y-78770000D01*
X141576310Y-78815340D01*
X141664006Y-78904917D01*
X141720861Y-78965302D01*
X141745542Y-78992152D01*
X141838217Y-79087835D01*
X141970489Y-79220381D01*
X142129563Y-79377040D01*
X142302642Y-79545059D01*
X142310520Y-79552696D01*
X142512814Y-79779279D01*
X142695693Y-80039488D01*
X142847864Y-80313112D01*
X142958035Y-80579943D01*
X143014914Y-80819772D01*
X143020346Y-80856696D01*
X143049695Y-80973348D01*
X143086840Y-81049828D01*
X143140425Y-81126999D01*
X143198220Y-81230000D01*
X143202876Y-81239164D01*
X143257682Y-81338825D01*
X143337409Y-81475792D01*
X143426503Y-81623273D01*
X143447437Y-81657373D01*
X143517461Y-81777670D01*
X143562474Y-81877467D01*
X143589530Y-81981874D01*
X143605683Y-82115999D01*
X143613719Y-82239435D01*
X143617984Y-82304950D01*
X143623182Y-82669433D01*
X143606957Y-82826285D01*
X143584685Y-83041585D01*
X143493802Y-83379333D01*
X143345565Y-83700339D01*
X143135006Y-84022266D01*
X143091565Y-84082196D01*
X142976712Y-84252059D01*
X142875757Y-84416246D01*
X142806579Y-84546234D01*
X142723987Y-84685152D01*
X142594739Y-84853679D01*
X142437541Y-85031034D01*
X142270280Y-85198240D01*
X142110841Y-85336320D01*
X141977109Y-85426298D01*
X141942539Y-85445029D01*
X141862129Y-85496712D01*
X141830000Y-85531111D01*
X141806506Y-85554274D01*
X141723970Y-85594449D01*
X141602308Y-85640869D01*
X141462896Y-85686615D01*
X141327112Y-85724768D01*
X141216331Y-85748407D01*
X141151930Y-85750612D01*
X141147131Y-85749380D01*
X141060744Y-85763004D01*
X140913111Y-85825908D01*
X140705409Y-85937521D01*
X140438811Y-86097272D01*
X140427890Y-86103669D01*
X140313984Y-86153095D01*
X140145796Y-86208841D01*
X139944773Y-86264860D01*
X139732359Y-86315104D01*
X139530000Y-86353527D01*
X139450752Y-86366272D01*
X139222873Y-86403943D01*
X139042137Y-86436859D01*
X138883828Y-86470616D01*
X138723232Y-86510810D01*
X138535634Y-86563039D01*
X138296320Y-86632899D01*
X138194148Y-86664341D01*
X138020982Y-86729100D01*
X137891666Y-86799762D01*
X137782105Y-86888298D01*
X137744597Y-86923218D01*
X137686586Y-86980794D01*
X137656828Y-87031270D01*
X137657469Y-87090037D01*
X137690657Y-87172487D01*
X137758540Y-87294011D01*
X137863265Y-87470000D01*
X137950299Y-87613582D01*
X138032003Y-87737338D01*
X138088951Y-87804538D01*
X138128164Y-87823101D01*
X138156660Y-87800945D01*
X138178660Y-87790157D01*
X138181401Y-87853713D01*
X138189609Y-87912166D01*
X138237093Y-88035300D01*
X138316806Y-88186086D01*
X138417743Y-88344370D01*
X138528897Y-88490000D01*
X138600375Y-88586563D01*
X138671910Y-88706799D01*
X138695512Y-88748429D01*
X138774835Y-88861971D01*
X138870000Y-88976583D01*
X138903585Y-89013340D01*
X139087834Y-89217938D01*
X139226112Y-89377909D01*
X139327330Y-89503833D01*
X139400398Y-89606288D01*
X139423607Y-89641501D01*
X139511398Y-89773842D01*
X139599880Y-89906288D01*
X139627909Y-89949471D01*
X139709085Y-90087584D01*
X139770850Y-90210000D01*
X139778057Y-90226311D01*
X139829573Y-90334017D01*
X139871966Y-90410000D01*
X139884459Y-90430219D01*
X139933579Y-90520392D01*
X139990531Y-90634715D01*
X140011943Y-90677117D01*
X140076494Y-90784241D01*
X140132458Y-90852039D01*
X140143760Y-90862536D01*
X140206555Y-90942912D01*
X140270000Y-91050000D01*
X140282954Y-91074436D01*
X140348356Y-91178644D01*
X140407077Y-91247573D01*
X140443453Y-91294475D01*
X140470001Y-91390000D01*
X140481354Y-91451690D01*
X140530967Y-91530802D01*
X140562685Y-91563675D01*
X140572681Y-91600652D01*
X140572507Y-91600831D01*
X140575186Y-91648265D01*
X140611298Y-91733468D01*
X140666230Y-91830583D01*
X140725371Y-91913750D01*
X140774107Y-91957110D01*
X140801597Y-91975731D01*
X140814501Y-92032695D01*
X140812349Y-92067220D01*
X140834493Y-92159967D01*
X140879821Y-92280078D01*
X140938490Y-92406951D01*
X141000656Y-92519984D01*
X141056476Y-92598575D01*
X141096108Y-92622121D01*
X141126835Y-92620787D01*
X141150000Y-92670000D01*
X141140624Y-92708854D01*
X141090000Y-92715534D01*
X141045533Y-92720519D01*
X141031686Y-92783354D01*
X141053710Y-92895117D01*
X141110879Y-93044368D01*
X141133899Y-93098036D01*
X141174093Y-93210757D01*
X141190001Y-93286368D01*
X141195717Y-93323394D01*
X141240000Y-93404010D01*
X141260617Y-93455797D01*
X141278366Y-93574240D01*
X141290095Y-93738934D01*
X141295849Y-93932044D01*
X141295675Y-94135737D01*
X141289620Y-94332177D01*
X141277729Y-94503530D01*
X141260050Y-94631960D01*
X141236628Y-94699635D01*
X141224941Y-94713275D01*
X141183838Y-94745418D01*
X141133047Y-94737104D01*
X141044131Y-94686372D01*
X141012684Y-94668106D01*
X140939318Y-94637407D01*
X140910000Y-94645330D01*
X140892800Y-94680230D01*
X140828869Y-94730605D01*
X140798468Y-94744299D01*
X140728292Y-94744470D01*
X140640692Y-94689824D01*
X140533647Y-94605622D01*
X140466078Y-94695199D01*
X140460807Y-94702175D01*
X140412215Y-94756116D01*
X140366102Y-94758435D01*
X140288144Y-94712461D01*
X140278712Y-94706291D01*
X140205073Y-94664712D01*
X140159645Y-94672343D01*
X140107599Y-94733184D01*
X140071861Y-94776369D01*
X140017793Y-94803748D01*
X139943710Y-94776527D01*
X139847235Y-94724418D01*
X139729619Y-94654900D01*
X139659582Y-94601409D01*
X139621247Y-94552938D01*
X139615652Y-94543309D01*
X139565279Y-94494487D01*
X139517608Y-94522936D01*
X139470000Y-94630000D01*
X139436841Y-94711831D01*
X139384861Y-94759324D01*
X139293011Y-94770000D01*
X139191871Y-94754275D01*
X139126113Y-94692394D01*
X139082601Y-94627018D01*
X138999921Y-94525720D01*
X138896866Y-94411970D01*
X138775328Y-94296669D01*
X138688705Y-94242157D01*
X138641954Y-94251644D01*
X138637856Y-94326052D01*
X138622587Y-94377107D01*
X138551011Y-94471001D01*
X138429770Y-94589036D01*
X138417439Y-94599958D01*
X138310356Y-94697923D01*
X138231221Y-94775727D01*
X138196387Y-94817369D01*
X138151712Y-94872139D01*
X138028022Y-94926644D01*
X137836517Y-94957227D01*
X137582475Y-94962638D01*
X137445176Y-94960461D01*
X137307194Y-94964967D01*
X137228754Y-94979681D01*
X137198022Y-95005936D01*
X137179308Y-95038334D01*
X137148303Y-95007252D01*
X137124255Y-94983030D01*
X137065525Y-94976908D01*
X136956767Y-95003246D01*
X136946576Y-95005251D01*
X136863235Y-95011720D01*
X136709184Y-95017728D01*
X136490702Y-95023266D01*
X136214069Y-95028328D01*
X135885564Y-95032908D01*
X135511467Y-95036999D01*
X135098057Y-95040593D01*
X134651614Y-95043685D01*
X134178418Y-95046267D01*
X133684747Y-95048333D01*
X133176881Y-95049876D01*
X132661100Y-95050889D01*
X132143684Y-95051366D01*
X131630911Y-95051299D01*
X131129061Y-95050683D01*
X130644414Y-95049509D01*
X130183249Y-95047772D01*
X129751846Y-95045464D01*
X129356484Y-95042580D01*
X129003443Y-95039112D01*
X128699001Y-95035053D01*
X128449440Y-95030397D01*
X128261037Y-95025136D01*
X128140073Y-95019265D01*
X128092827Y-95012777D01*
X128044068Y-94987811D01*
X127950000Y-94963832D01*
X127938495Y-94961820D01*
X127860817Y-94916124D01*
X127829942Y-94840702D01*
X127849146Y-94764298D01*
X127921706Y-94715656D01*
X127937695Y-94711141D01*
X128001480Y-94665771D01*
X128021216Y-94570771D01*
X128019756Y-94510172D01*
X127992828Y-94460891D01*
X127916733Y-94450000D01*
X127903239Y-94450505D01*
X127789922Y-94474913D01*
X127669408Y-94524666D01*
X127658763Y-94530257D01*
X127526233Y-94588271D01*
X127400239Y-94627792D01*
X127395327Y-94628903D01*
X127297727Y-94664666D01*
X127240239Y-94709863D01*
X127185238Y-94750961D01*
X127089617Y-94777120D01*
X126984277Y-94810181D01*
X126879617Y-94880383D01*
X126769385Y-94956018D01*
X126666429Y-94956574D01*
X126578767Y-94880000D01*
X126517777Y-94790000D01*
X126432330Y-94880000D01*
X126336598Y-94947955D01*
X126205359Y-94967833D01*
X126078166Y-94919854D01*
X125974680Y-94807149D01*
X125957172Y-94779708D01*
X125873719Y-94703322D01*
X125785406Y-94706719D01*
X125693892Y-94790000D01*
X125629587Y-94852245D01*
X125504934Y-94890000D01*
X125451315Y-94885389D01*
X125385537Y-94846466D01*
X125332578Y-94750000D01*
X125321818Y-94725442D01*
X125276569Y-94643332D01*
X125242042Y-94610388D01*
X125213571Y-94622781D01*
X125136117Y-94673656D01*
X125034371Y-94750388D01*
X124960020Y-94803806D01*
X124848083Y-94865834D01*
X124765293Y-94890000D01*
X124724534Y-94883030D01*
X124635176Y-94822823D01*
X124571828Y-94724897D01*
X124557058Y-94618660D01*
X124555091Y-94561508D01*
X124509006Y-94538375D01*
X124403726Y-94555149D01*
X124337245Y-94559285D01*
X124233726Y-94531993D01*
X124200353Y-94503394D01*
X124158208Y-94399302D01*
X124150031Y-94246593D01*
X124154094Y-94217345D01*
X124405923Y-94217345D01*
X124455608Y-94242772D01*
X124555312Y-94207157D01*
X124625597Y-94188791D01*
X124724273Y-94217772D01*
X124799848Y-94297335D01*
X124830000Y-94410922D01*
X124832112Y-94448895D01*
X124862995Y-94519007D01*
X124925680Y-94518421D01*
X125013707Y-94445904D01*
X125107556Y-94362101D01*
X125229468Y-94291785D01*
X125346754Y-94256049D01*
X125440365Y-94260314D01*
X125491256Y-94310000D01*
X125500368Y-94339087D01*
X125530395Y-94434298D01*
X125534121Y-94444153D01*
X125561163Y-94462531D01*
X125615391Y-94434608D01*
X125710510Y-94354298D01*
X125774771Y-94298696D01*
X125858129Y-94234859D01*
X125905218Y-94210000D01*
X125965734Y-94243406D01*
X126031846Y-94349856D01*
X126103756Y-94532651D01*
X126136823Y-94620838D01*
X126181987Y-94716188D01*
X126215652Y-94758550D01*
X126215916Y-94758632D01*
X126249288Y-94730339D01*
X126298366Y-94644998D01*
X126352625Y-94520874D01*
X126395792Y-94414982D01*
X126444053Y-94323605D01*
X126490850Y-94280693D01*
X126548893Y-94270000D01*
X126557466Y-94270087D01*
X126617857Y-94283708D01*
X126652818Y-94335194D01*
X126677751Y-94445523D01*
X126703714Y-94574583D01*
X126732176Y-94634650D01*
X126773967Y-94633491D01*
X126840158Y-94580292D01*
X126889965Y-94544219D01*
X127010148Y-94482858D01*
X127150000Y-94431099D01*
X127153112Y-94430163D01*
X127303606Y-94377964D01*
X127485694Y-94305311D01*
X127660662Y-94227631D01*
X127696003Y-94211079D01*
X127835170Y-94149480D01*
X127945068Y-94106286D01*
X128004463Y-94090000D01*
X128020885Y-94088308D01*
X128099975Y-94040804D01*
X128163778Y-93949798D01*
X128190000Y-93844759D01*
X128190086Y-93841848D01*
X128209497Y-93764831D01*
X128258075Y-93635259D01*
X128328814Y-93470496D01*
X128414706Y-93287909D01*
X128502132Y-93103746D01*
X128592152Y-92901952D01*
X128666561Y-92722582D01*
X128714880Y-92590000D01*
X128724305Y-92560045D01*
X128757959Y-92455002D01*
X128788091Y-92368793D01*
X128822331Y-92283227D01*
X128868313Y-92180117D01*
X128933670Y-92041273D01*
X129026035Y-91848506D01*
X129065184Y-91765491D01*
X129129296Y-91621987D01*
X129173517Y-91512570D01*
X129190000Y-91456022D01*
X129190072Y-91452846D01*
X129204788Y-91374608D01*
X129238421Y-91255095D01*
X129281301Y-91124004D01*
X129323757Y-91011034D01*
X129356117Y-90945886D01*
X129359988Y-90939145D01*
X129379558Y-90866053D01*
X129399184Y-90740729D01*
X129415144Y-90585886D01*
X129436043Y-90414568D01*
X129471204Y-90247512D01*
X129512972Y-90130000D01*
X129554622Y-90046544D01*
X129623501Y-89901766D01*
X129692941Y-89750000D01*
X129747301Y-89628664D01*
X129834531Y-89434703D01*
X129915100Y-89256271D01*
X129915286Y-89255860D01*
X129973076Y-89120505D01*
X130014284Y-89009295D01*
X130030000Y-88946271D01*
X130033020Y-88922256D01*
X130061376Y-88890000D01*
X130065411Y-88889215D01*
X130108466Y-88849762D01*
X130164177Y-88769086D01*
X130185619Y-88735367D01*
X130288172Y-88620751D01*
X130399633Y-88553513D01*
X130500066Y-88546846D01*
X130501104Y-88547184D01*
X130569735Y-88605254D01*
X130623680Y-88709040D01*
X130650451Y-88824772D01*
X130637561Y-88918682D01*
X130620388Y-88969119D01*
X130596443Y-89084952D01*
X130577750Y-89225697D01*
X130563811Y-89330303D01*
X130538878Y-89443135D01*
X130512303Y-89503697D01*
X130502128Y-89518974D01*
X130479167Y-89602758D01*
X130470000Y-89719407D01*
X130468833Y-89753784D01*
X130446452Y-89888323D01*
X130404582Y-89992655D01*
X130365839Y-90070430D01*
X130364391Y-90117723D01*
X130367552Y-90126742D01*
X130347362Y-90185449D01*
X130291672Y-90271363D01*
X130264957Y-90310884D01*
X130196371Y-90448023D01*
X130146942Y-90594888D01*
X130132341Y-90649715D01*
X130081369Y-90799338D01*
X130026115Y-90920529D01*
X130003979Y-90966766D01*
X129958992Y-91106798D01*
X129931900Y-91256913D01*
X129930184Y-91271769D01*
X129898543Y-91416669D01*
X129841841Y-91593086D01*
X129771015Y-91766384D01*
X129756370Y-91798567D01*
X129689527Y-91961010D01*
X129638654Y-92109353D01*
X129613795Y-92214940D01*
X129583609Y-92352897D01*
X129533644Y-92482953D01*
X129530695Y-92488727D01*
X129487729Y-92592483D01*
X129470000Y-92673089D01*
X129468495Y-92685001D01*
X129440524Y-92765157D01*
X129384508Y-92887259D01*
X129310000Y-93030000D01*
X129227715Y-93195368D01*
X129170905Y-93343626D01*
X129150000Y-93448752D01*
X129135437Y-93563644D01*
X129094686Y-93683828D01*
X129064149Y-93742778D01*
X129000472Y-93866504D01*
X128930576Y-94002964D01*
X128881314Y-94088031D01*
X128729596Y-94286082D01*
X128542130Y-94472292D01*
X128345724Y-94618448D01*
X128293380Y-94653036D01*
X128238749Y-94714700D01*
X128260315Y-94771146D01*
X128358818Y-94834559D01*
X128387209Y-94848198D01*
X128452302Y-94869995D01*
X128535638Y-94882184D01*
X128652588Y-94885525D01*
X128818524Y-94880779D01*
X129048818Y-94868707D01*
X129266005Y-94858163D01*
X129542904Y-94847907D01*
X129851964Y-94838843D01*
X130169043Y-94831677D01*
X130470000Y-94827117D01*
X130525572Y-94826529D01*
X131252546Y-94819184D01*
X131901749Y-94813323D01*
X132475248Y-94808948D01*
X132975108Y-94806057D01*
X133403397Y-94804652D01*
X133762180Y-94804732D01*
X134053524Y-94806298D01*
X134279495Y-94809350D01*
X134442159Y-94813887D01*
X134543583Y-94819910D01*
X134585832Y-94827419D01*
X134612333Y-94834220D01*
X134711392Y-94843912D01*
X134868203Y-94852029D01*
X135069080Y-94858447D01*
X135300337Y-94863040D01*
X135548289Y-94865685D01*
X135799250Y-94866258D01*
X136039534Y-94864634D01*
X136255455Y-94860689D01*
X136433329Y-94854299D01*
X136559469Y-94845339D01*
X136656601Y-94830880D01*
X136780249Y-94800108D01*
X136855887Y-94765339D01*
X136908247Y-94740397D01*
X137004850Y-94724631D01*
X137156461Y-94718301D01*
X137375410Y-94720337D01*
X137531449Y-94723577D01*
X137678642Y-94723671D01*
X137777054Y-94716124D01*
X137844380Y-94697750D01*
X137898316Y-94665368D01*
X137956557Y-94615794D01*
X138085132Y-94500912D01*
X137994538Y-94452428D01*
X137923067Y-94406678D01*
X137826973Y-94326972D01*
X137765603Y-94275790D01*
X137710000Y-94250000D01*
X137687314Y-94236308D01*
X137670000Y-94172903D01*
X137646338Y-94101771D01*
X137580000Y-94022903D01*
X137571079Y-94015298D01*
X137490611Y-93923463D01*
X137419438Y-93810000D01*
X137417554Y-93806268D01*
X137322712Y-93628469D01*
X137222599Y-93456973D01*
X137130576Y-93313688D01*
X137060000Y-93220525D01*
X137014012Y-93164286D01*
X136990000Y-93120415D01*
X136988344Y-93113307D01*
X136963339Y-93049856D01*
X136914532Y-92938616D01*
X136850000Y-92798179D01*
X136834733Y-92764868D01*
X136771333Y-92609455D01*
X136726808Y-92472362D01*
X136710000Y-92380008D01*
X136688169Y-92270615D01*
X136630000Y-92159085D01*
X136629263Y-92158145D01*
X136573258Y-92070314D01*
X136550000Y-92001336D01*
X136537390Y-91950400D01*
X136490649Y-91867645D01*
X136484807Y-91859578D01*
X136433315Y-91762163D01*
X136389681Y-91642129D01*
X136358079Y-91553275D01*
X136294222Y-91409275D01*
X136218440Y-91262129D01*
X136158693Y-91142627D01*
X136102399Y-90999679D01*
X136075540Y-90890000D01*
X136065153Y-90817016D01*
X135986626Y-90574927D01*
X135848763Y-90344821D01*
X135832100Y-90321714D01*
X135773628Y-90215291D01*
X135750000Y-90127390D01*
X135749787Y-90120470D01*
X135725550Y-90023341D01*
X135673359Y-89914721D01*
X135670925Y-89910708D01*
X135609949Y-89779569D01*
X135568825Y-89639558D01*
X135563748Y-89614488D01*
X135535183Y-89517602D01*
X135505466Y-89467197D01*
X135490413Y-89447247D01*
X135473345Y-89364092D01*
X135472613Y-89248045D01*
X135487414Y-89129129D01*
X135516946Y-89037370D01*
X135553401Y-88951972D01*
X135587975Y-88832990D01*
X135616979Y-88747321D01*
X135654902Y-88701699D01*
X135655870Y-88701427D01*
X135696037Y-88729437D01*
X135754659Y-88814941D01*
X135823806Y-88940609D01*
X135895546Y-89089108D01*
X135961951Y-89243110D01*
X136015090Y-89385283D01*
X136047033Y-89498296D01*
X136049849Y-89564819D01*
X136057235Y-89624088D01*
X136099854Y-89728196D01*
X136168595Y-89852963D01*
X136239072Y-89971199D01*
X136290402Y-90065252D01*
X136310000Y-90112334D01*
X136328858Y-90151456D01*
X136385019Y-90236521D01*
X136465438Y-90346305D01*
X136534717Y-90441904D01*
X136632363Y-90590644D01*
X136704867Y-90717286D01*
X136731180Y-90767254D01*
X136788265Y-90861051D01*
X136829429Y-90909646D01*
X136844508Y-90922990D01*
X136870000Y-90990584D01*
X136888543Y-91051285D01*
X136947172Y-91162453D01*
X137035353Y-91301457D01*
X137142242Y-91450000D01*
X137154645Y-91466705D01*
X137218364Y-91564329D01*
X137281598Y-91676007D01*
X137333971Y-91781201D01*
X137365102Y-91859377D01*
X137364614Y-91890000D01*
X137361296Y-91906504D01*
X137397213Y-91960000D01*
X137398505Y-91961533D01*
X137455330Y-92049331D01*
X137508658Y-92160947D01*
X137513044Y-92171744D01*
X137561158Y-92266260D01*
X137605633Y-92320947D01*
X137637741Y-92362912D01*
X137688452Y-92460842D01*
X137743167Y-92590000D01*
X137789240Y-92706688D01*
X137839131Y-92826418D01*
X137872780Y-92899457D01*
X137892552Y-92942547D01*
X137910000Y-93009182D01*
X137910559Y-93020565D01*
X137937975Y-93118416D01*
X137994115Y-93234119D01*
X138061558Y-93336237D01*
X138122882Y-93393334D01*
X138129746Y-93396826D01*
X138203413Y-93461930D01*
X138271067Y-93559555D01*
X138291623Y-93597842D01*
X138357185Y-93703299D01*
X138430053Y-93779595D01*
X138532592Y-93846255D01*
X138687165Y-93922801D01*
X138902987Y-94049008D01*
X139070967Y-94205218D01*
X139123394Y-94267924D01*
X139192173Y-94341373D01*
X139230274Y-94370000D01*
X139260696Y-94343278D01*
X139302722Y-94270000D01*
X139338052Y-94216250D01*
X139428669Y-94172736D01*
X139546762Y-94197467D01*
X139683889Y-94290000D01*
X139732441Y-94330036D01*
X139849442Y-94397646D01*
X139932757Y-94396317D01*
X139979534Y-94325705D01*
X139995779Y-94283705D01*
X140042016Y-94256317D01*
X140137879Y-94263529D01*
X140150399Y-94265459D01*
X140251004Y-94266309D01*
X140296370Y-94227824D01*
X140323973Y-94190764D01*
X140400097Y-94170767D01*
X140490110Y-94198621D01*
X140566322Y-94270000D01*
X140621552Y-94339972D01*
X140664502Y-94370000D01*
X140698745Y-94343397D01*
X140742722Y-94270000D01*
X140788325Y-94205137D01*
X140885959Y-94170000D01*
X140939887Y-94163496D01*
X140972676Y-94131795D01*
X140993083Y-94056696D01*
X141010148Y-93920000D01*
X141015292Y-93865729D01*
X141019026Y-93742261D01*
X141005910Y-93621702D01*
X140971994Y-93478189D01*
X140913332Y-93285862D01*
X140881132Y-93181969D01*
X140834239Y-93015268D01*
X140801994Y-92879962D01*
X140790000Y-92798207D01*
X140774837Y-92728496D01*
X140729987Y-92602466D01*
X140662598Y-92440953D01*
X140579880Y-92262345D01*
X140505142Y-92107026D01*
X140412767Y-91911256D01*
X140332536Y-91737253D01*
X140276083Y-91610000D01*
X140270478Y-91597098D01*
X140196579Y-91448940D01*
X140097472Y-91274908D01*
X139992971Y-91110000D01*
X139957260Y-91056125D01*
X139841621Y-90871964D01*
X139718428Y-90664781D01*
X139608938Y-90470000D01*
X139580547Y-90417653D01*
X139435404Y-90157999D01*
X139306865Y-89946227D01*
X139180692Y-89761226D01*
X139042644Y-89581886D01*
X138878483Y-89387098D01*
X138806533Y-89302795D01*
X138668564Y-89134341D01*
X138543603Y-88973876D01*
X138451948Y-88847098D01*
X138366631Y-88720588D01*
X138248422Y-88545744D01*
X138137904Y-88382669D01*
X137930882Y-88068476D01*
X137663937Y-87636648D01*
X137427347Y-87223061D01*
X137426502Y-87221496D01*
X137395026Y-87084405D01*
X137424902Y-86929744D01*
X137506345Y-86776056D01*
X137629569Y-86641883D01*
X137784788Y-86545770D01*
X137957513Y-86479377D01*
X138208771Y-86395508D01*
X138484241Y-86313562D01*
X138754469Y-86242229D01*
X138990000Y-86190200D01*
X139046632Y-86179404D01*
X139407449Y-86106375D01*
X139706293Y-86036386D01*
X139958566Y-85964629D01*
X140179673Y-85886293D01*
X140385017Y-85796570D01*
X140590000Y-85690651D01*
X140745612Y-85607523D01*
X140936525Y-85517108D01*
X141090800Y-85462172D01*
X141225396Y-85435916D01*
X141235289Y-85434748D01*
X141415294Y-85392131D01*
X141623635Y-85312823D01*
X141829132Y-85210399D01*
X142000609Y-85098432D01*
X142136556Y-84979416D01*
X142316216Y-84788846D01*
X142477734Y-84583629D01*
X142596588Y-84392802D01*
X142628460Y-84333073D01*
X142721155Y-84171270D01*
X142833120Y-83986599D01*
X142946745Y-83808444D01*
X143000033Y-83724192D01*
X143136763Y-83470963D01*
X143236908Y-83225732D01*
X143294389Y-83005255D01*
X143303126Y-82826285D01*
X143293948Y-82779961D01*
X143246310Y-82710179D01*
X143141503Y-82656567D01*
X143115471Y-82647399D01*
X143006109Y-82622341D01*
X142929526Y-82624647D01*
X142914300Y-82631564D01*
X142893841Y-82660553D01*
X142910520Y-82718042D01*
X142968023Y-82823017D01*
X143029239Y-82947808D01*
X143061291Y-83081130D01*
X143070000Y-83255456D01*
X143069985Y-83272972D01*
X143065802Y-83411328D01*
X143046371Y-83503662D01*
X143000365Y-83580828D01*
X142916459Y-83673675D01*
X142860033Y-83727562D01*
X142674334Y-83848921D01*
X142479908Y-83902232D01*
X142289756Y-83885495D01*
X142116880Y-83796708D01*
X142098006Y-83780003D01*
X142014775Y-83664739D01*
X141941706Y-83504279D01*
X141889823Y-83327012D01*
X141870150Y-83161329D01*
X141870371Y-83139529D01*
X141902069Y-82924065D01*
X141991757Y-82755212D01*
X142145659Y-82625055D01*
X142370000Y-82525679D01*
X142409152Y-82512569D01*
X142501231Y-82480351D01*
X142545324Y-82462696D01*
X142542428Y-82449765D01*
X142502751Y-82391765D01*
X142431157Y-82305205D01*
X142416158Y-82288032D01*
X142352877Y-82207408D01*
X142320811Y-82134185D01*
X142312246Y-82041823D01*
X142565016Y-82041823D01*
X142571568Y-82132460D01*
X142601372Y-82195561D01*
X142661451Y-82258463D01*
X142662366Y-82259308D01*
X142778731Y-82343300D01*
X142905969Y-82404557D01*
X142970083Y-82425652D01*
X143045706Y-82443461D01*
X143103303Y-82435456D01*
X143180000Y-82401180D01*
X143244165Y-82347652D01*
X143270000Y-82239435D01*
X143269941Y-82222799D01*
X143261597Y-82154639D01*
X143222481Y-82134695D01*
X143128936Y-82147560D01*
X143033807Y-82156744D01*
X142955944Y-82130227D01*
X142866924Y-82053076D01*
X142866557Y-82052710D01*
X142789879Y-81964623D01*
X142763078Y-81886906D01*
X142772840Y-81781064D01*
X142777256Y-81758027D01*
X142805266Y-81653916D01*
X142834852Y-81591999D01*
X142849401Y-81573115D01*
X142871626Y-81499043D01*
X142853906Y-81436509D01*
X142802166Y-81417197D01*
X142734993Y-81455247D01*
X142661385Y-81562156D01*
X142605026Y-81720542D01*
X142573151Y-81914691D01*
X142565016Y-82041823D01*
X142312246Y-82041823D01*
X142312016Y-82039343D01*
X142318546Y-81893862D01*
X142339460Y-81714989D01*
X142384149Y-81572512D01*
X142465922Y-81424456D01*
X142506468Y-81354512D01*
X142579127Y-81190214D01*
X142616414Y-81044456D01*
X142620720Y-81011080D01*
X142646598Y-80871730D01*
X142678094Y-80759913D01*
X142685030Y-80735896D01*
X142681777Y-80604815D01*
X142631220Y-80438586D01*
X142540208Y-80255146D01*
X142415589Y-80072428D01*
X142368810Y-80017893D01*
X142264461Y-79904615D01*
X142118668Y-79751161D01*
X141940249Y-79566417D01*
X141738022Y-79359270D01*
X141520804Y-79138605D01*
X141297413Y-78913307D01*
X141076666Y-78692264D01*
X140867381Y-78484359D01*
X140678376Y-78298481D01*
X140518468Y-78143513D01*
X140396476Y-78028343D01*
X140321216Y-77961855D01*
X140301155Y-77945261D01*
X140180509Y-77832618D01*
X140026117Y-77673491D01*
X139850474Y-77481768D01*
X139666077Y-77271342D01*
X139485420Y-77056104D01*
X139320999Y-76849944D01*
X139295101Y-76816698D01*
X139161929Y-76658124D01*
X139066636Y-76569522D01*
X139008894Y-76550647D01*
X138988375Y-76601255D01*
X138981466Y-76644824D01*
X138913858Y-76761003D01*
X138784736Y-76878761D01*
X138606990Y-76992322D01*
X138393508Y-77095911D01*
X138157179Y-77183754D01*
X137910892Y-77250074D01*
X137667536Y-77289097D01*
X137440000Y-77295047D01*
X137429675Y-77294561D01*
X137344817Y-77301148D01*
X137310000Y-77323769D01*
X137319704Y-77361524D01*
X137354691Y-77455399D01*
X137406398Y-77578016D01*
X137422750Y-77615859D01*
X137486836Y-77773744D01*
X137559711Y-77963830D01*
X137628576Y-78152993D01*
X137642374Y-78191285D01*
X137726960Y-78403938D01*
X137825045Y-78624185D01*
X137918111Y-78810000D01*
X137930977Y-78833561D01*
X138036640Y-79027070D01*
X138109485Y-79163749D01*
X138153806Y-79256120D01*
X138173896Y-79316707D01*
X138174048Y-79358033D01*
X138158557Y-79392621D01*
X138131717Y-79432994D01*
X138066130Y-79533092D01*
X137413620Y-79521546D01*
X136761111Y-79510000D01*
X136474040Y-79659769D01*
X136452453Y-79670881D01*
X136294122Y-79744710D01*
X136146301Y-79802211D01*
X136038484Y-79831738D01*
X135980288Y-79838073D01*
X135923771Y-79832008D01*
X135863265Y-79803882D01*
X135785515Y-79745178D01*
X135677267Y-79647379D01*
X135525267Y-79501969D01*
X135295298Y-79261174D01*
X135040642Y-78941660D01*
X134834580Y-78618625D01*
X134689509Y-78309754D01*
X134639379Y-78194626D01*
X134553460Y-78029288D01*
X134459759Y-77873081D01*
X134378274Y-77744902D01*
X134291836Y-77601295D01*
X134230286Y-77490558D01*
X134225570Y-77481573D01*
X134155872Y-77375468D01*
X134061652Y-77260785D01*
X133960588Y-77155997D01*
X133870361Y-77079578D01*
X133808650Y-77049999D01*
X133791573Y-77052634D01*
X133714516Y-77103224D01*
X133627488Y-77203143D01*
X133545703Y-77332602D01*
X133484374Y-77471810D01*
X133428520Y-77614914D01*
X133354083Y-77756747D01*
X133280204Y-77854079D01*
X133217277Y-77890612D01*
X133192004Y-77894180D01*
X133115017Y-77926053D01*
X133094422Y-77953959D01*
X133098826Y-78010849D01*
X133134613Y-78109311D01*
X133205582Y-78263490D01*
X133321129Y-78516896D01*
X133434306Y-78789806D01*
X133534661Y-79055864D01*
X133614142Y-79293706D01*
X133664701Y-79481968D01*
X133688138Y-79618348D01*
X133709849Y-79912742D01*
X133701686Y-80224824D01*
X133665863Y-80530874D01*
X133604598Y-80807172D01*
X133520105Y-81030000D01*
X133485625Y-81087790D01*
X133400922Y-81204438D01*
X133301062Y-81322994D01*
X133245433Y-81389047D01*
X133132846Y-81547984D01*
X133044688Y-81702994D01*
X132979510Y-81830956D01*
X132884832Y-82001797D01*
X132788272Y-82164016D01*
X132775178Y-82185092D01*
X132701546Y-82306197D01*
X132649642Y-82395942D01*
X132630000Y-82436210D01*
X132629992Y-82436444D01*
X132607442Y-82478156D01*
X132549838Y-82566224D01*
X132469483Y-82683045D01*
X132378681Y-82811016D01*
X132289737Y-82932535D01*
X132214954Y-83030000D01*
X132157685Y-83110303D01*
X132073277Y-83244785D01*
X131990891Y-83390000D01*
X131862583Y-83621767D01*
X131650857Y-83966595D01*
X131417164Y-84299778D01*
X131147356Y-84641013D01*
X130827287Y-85010000D01*
X130757500Y-85089233D01*
X130550547Y-85338014D01*
X130331823Y-85617514D01*
X130122615Y-85900060D01*
X129944210Y-86157978D01*
X129913994Y-86201793D01*
X129783911Y-86368317D01*
X129611654Y-86566923D01*
X129410504Y-86784197D01*
X129193741Y-87006727D01*
X128974646Y-87221098D01*
X128766497Y-87413898D01*
X128582577Y-87571714D01*
X128436164Y-87681132D01*
X128415625Y-87695170D01*
X128292553Y-87797040D01*
X128190000Y-87906540D01*
X128128230Y-87974916D01*
X128015721Y-88084368D01*
X127872836Y-88214399D01*
X127716262Y-88349411D01*
X127571560Y-88475631D01*
X127441292Y-88598973D01*
X127345327Y-88700559D01*
X127297782Y-88766323D01*
X127265447Y-88837304D01*
X127179692Y-89007350D01*
X127074428Y-89200474D01*
X126960708Y-89397749D01*
X126849588Y-89580247D01*
X126752122Y-89729040D01*
X126679365Y-89825199D01*
X126631972Y-89882948D01*
X126528254Y-90033415D01*
X126443348Y-90185199D01*
X126283091Y-90500697D01*
X126110537Y-90787366D01*
X125942107Y-91008391D01*
X125933891Y-91017898D01*
X125832441Y-91155706D01*
X125718366Y-91338857D01*
X125606580Y-91540578D01*
X125511997Y-91734098D01*
X125449530Y-91892643D01*
X125433471Y-91939010D01*
X125371495Y-92089324D01*
X125287342Y-92271784D01*
X125193834Y-92460186D01*
X125103792Y-92628326D01*
X125030037Y-92750000D01*
X124938209Y-92895658D01*
X124810218Y-93131831D01*
X124697843Y-93374868D01*
X124618132Y-93590000D01*
X124597295Y-93654841D01*
X124544849Y-93798507D01*
X124496349Y-93910000D01*
X124457929Y-93989978D01*
X124406588Y-94132530D01*
X124405923Y-94217345D01*
X124154094Y-94217345D01*
X124175784Y-94061186D01*
X124235427Y-93859000D01*
X124272339Y-93759598D01*
X124343029Y-93567712D01*
X124407920Y-93390000D01*
X124495785Y-93167849D01*
X124637942Y-92883780D01*
X124820999Y-92597994D01*
X124891324Y-92491223D01*
X124982048Y-92336588D01*
X125047330Y-92205728D01*
X125081259Y-92126358D01*
X125174144Y-91916807D01*
X125247135Y-91767361D01*
X125306103Y-91666595D01*
X125356917Y-91603083D01*
X125403915Y-91544347D01*
X125430128Y-91480000D01*
X125430241Y-91477984D01*
X125454001Y-91418053D01*
X125511125Y-91315036D01*
X125590000Y-91190000D01*
X125595616Y-91181530D01*
X125673500Y-91056626D01*
X125728803Y-90954453D01*
X125749873Y-90896411D01*
X125774073Y-90840415D01*
X125839653Y-90770227D01*
X125893033Y-90722735D01*
X125904276Y-90679582D01*
X125859653Y-90620665D01*
X125814086Y-90563472D01*
X125790000Y-90515799D01*
X125788478Y-90507525D01*
X125753402Y-90444469D01*
X125682442Y-90347216D01*
X125589604Y-90232112D01*
X125488895Y-90115506D01*
X125394322Y-90013742D01*
X125319890Y-89943168D01*
X125279608Y-89920130D01*
X125255272Y-89921115D01*
X125251853Y-89879595D01*
X125246399Y-89833261D01*
X125210597Y-89728385D01*
X125149543Y-89584177D01*
X125069814Y-89417336D01*
X125062248Y-89402332D01*
X124959174Y-89204186D01*
X124881215Y-89066899D01*
X124830409Y-88993446D01*
X124808791Y-88986803D01*
X124818396Y-89049944D01*
X124822165Y-89098338D01*
X124794666Y-89130000D01*
X124780965Y-89127949D01*
X124750000Y-89087639D01*
X124746860Y-89073171D01*
X124710000Y-89070000D01*
X124694481Y-89076188D01*
X124665000Y-89052360D01*
X124664507Y-89048183D01*
X124655000Y-88968541D01*
X124648335Y-88948598D01*
X124598583Y-88895304D01*
X124569773Y-88862215D01*
X124566532Y-88854051D01*
X124682905Y-88854051D01*
X124702632Y-88931243D01*
X124736983Y-89024100D01*
X124759736Y-88937090D01*
X124760787Y-88932810D01*
X124758955Y-88859450D01*
X124728666Y-88813100D01*
X124686480Y-88820187D01*
X124682905Y-88854051D01*
X124566532Y-88854051D01*
X124537103Y-88779917D01*
X124518821Y-88683158D01*
X124519435Y-88630000D01*
X124630000Y-88630000D01*
X124650000Y-88650000D01*
X124670000Y-88630000D01*
X124650000Y-88610000D01*
X124630000Y-88630000D01*
X124519435Y-88630000D01*
X124519763Y-88601623D01*
X124544767Y-88565000D01*
X124552738Y-88564109D01*
X124629230Y-88555000D01*
X124675224Y-88524588D01*
X124736145Y-88453365D01*
X124740451Y-88447144D01*
X124771637Y-88391561D01*
X124760272Y-88383651D01*
X124701487Y-88390945D01*
X124609010Y-88369623D01*
X124566543Y-88351784D01*
X124527807Y-88316610D01*
X124550551Y-88269337D01*
X124597948Y-88228763D01*
X124688914Y-88217099D01*
X124772923Y-88280000D01*
X124796308Y-88307403D01*
X124831630Y-88317641D01*
X124882603Y-88282804D01*
X124967333Y-88194972D01*
X125022158Y-88133418D01*
X125092388Y-88038926D01*
X125104192Y-87986222D01*
X125060000Y-87969387D01*
X125035096Y-87962887D01*
X125066373Y-87933088D01*
X125097899Y-87919128D01*
X125176373Y-87917980D01*
X125201461Y-87922429D01*
X125230000Y-87894279D01*
X125233548Y-87877897D01*
X125280000Y-87849401D01*
X125285755Y-87848410D01*
X125345919Y-87811981D01*
X125443013Y-87733308D01*
X125562312Y-87626389D01*
X125689090Y-87505224D01*
X125808624Y-87383810D01*
X125906188Y-87276147D01*
X125967058Y-87196232D01*
X126013592Y-87075380D01*
X126001745Y-86990620D01*
X126493951Y-86990620D01*
X126551256Y-87010000D01*
X126596786Y-86998887D01*
X126630000Y-86950000D01*
X126623574Y-86922111D01*
X126574280Y-86890000D01*
X126545899Y-86896839D01*
X126495535Y-86950000D01*
X126493951Y-86990620D01*
X126001745Y-86990620D01*
X125995025Y-86942542D01*
X125900966Y-86800189D01*
X125824189Y-86712164D01*
X125713162Y-86580862D01*
X125650005Y-86498699D01*
X125630000Y-86459751D01*
X125625564Y-86439903D01*
X125579248Y-86378328D01*
X125509795Y-86327480D01*
X125451345Y-86315018D01*
X125417531Y-86308189D01*
X125418731Y-86237740D01*
X125420433Y-86226554D01*
X125409565Y-86152095D01*
X125355272Y-86058118D01*
X125248720Y-85928558D01*
X125195209Y-85866452D01*
X125054140Y-85670919D01*
X125035825Y-85629798D01*
X125917795Y-85629798D01*
X125922004Y-85703786D01*
X125953734Y-85808447D01*
X126014665Y-85965344D01*
X126065319Y-86081821D01*
X126130119Y-86199528D01*
X126215028Y-86319146D01*
X126332745Y-86458336D01*
X126495964Y-86634756D01*
X126537626Y-86683596D01*
X126622643Y-86812856D01*
X126685474Y-86946479D01*
X126686285Y-86950000D01*
X126710000Y-87052967D01*
X126735877Y-87107947D01*
X126834822Y-87151058D01*
X126869975Y-87162137D01*
X126983439Y-87224638D01*
X127091487Y-87314237D01*
X127133917Y-87355284D01*
X127218915Y-87422725D01*
X127276666Y-87448834D01*
X127322511Y-87431983D01*
X127414793Y-87376513D01*
X127530603Y-87295682D01*
X127651865Y-87203346D01*
X127760498Y-87113362D01*
X127838426Y-87039590D01*
X127867570Y-86995885D01*
X127850740Y-86964582D01*
X127785020Y-86894255D01*
X127687043Y-86810000D01*
X127430424Y-86602468D01*
X127227007Y-86422281D01*
X127082131Y-86270464D01*
X126990959Y-86140049D01*
X126948656Y-86024068D01*
X126950387Y-85915555D01*
X126991316Y-85807541D01*
X127001428Y-85792489D01*
X127073635Y-85719054D01*
X127195020Y-85616411D01*
X127351488Y-85494960D01*
X127528943Y-85365103D01*
X127713290Y-85237239D01*
X127890435Y-85121770D01*
X128046281Y-85029096D01*
X128205510Y-84933136D01*
X128393803Y-84805616D01*
X128553598Y-84683820D01*
X128599469Y-84646433D01*
X128757825Y-84523905D01*
X128940774Y-84389126D01*
X129117317Y-84265120D01*
X129124307Y-84260339D01*
X129286584Y-84140926D01*
X129480809Y-83985843D01*
X129683206Y-83814623D01*
X129870000Y-83646796D01*
X129919278Y-83600862D01*
X130074328Y-83456931D01*
X130210820Y-83331083D01*
X130315480Y-83235521D01*
X130375035Y-83182451D01*
X130384742Y-83174022D01*
X130471905Y-83090591D01*
X130586463Y-82971837D01*
X130718151Y-82829470D01*
X130856704Y-82675199D01*
X130991856Y-82520734D01*
X131113344Y-82377783D01*
X131210901Y-82258058D01*
X131274263Y-82173267D01*
X131293165Y-82135120D01*
X131253024Y-82104955D01*
X131167586Y-82072968D01*
X131125060Y-82057189D01*
X131015506Y-82003538D01*
X130871248Y-81923988D01*
X130712178Y-81829188D01*
X130608426Y-81765813D01*
X130463463Y-81680047D01*
X130349544Y-81615991D01*
X130284970Y-81584142D01*
X130205460Y-81546027D01*
X130106038Y-81485066D01*
X130066119Y-81460637D01*
X129943698Y-81400932D01*
X129806038Y-81347382D01*
X129782307Y-81339115D01*
X129640404Y-81283136D01*
X129466774Y-81207386D01*
X129293655Y-81125807D01*
X129230920Y-81095231D01*
X129094451Y-81031125D01*
X128992567Y-80986648D01*
X128943687Y-80970000D01*
X128927870Y-80965964D01*
X128850851Y-80935107D01*
X128728952Y-80880473D01*
X128580203Y-80810000D01*
X128505203Y-80773964D01*
X128368764Y-80710359D01*
X128268773Y-80666405D01*
X128222867Y-80650000D01*
X128204610Y-80660986D01*
X128172931Y-80720000D01*
X128161161Y-80742907D01*
X128102288Y-80823613D01*
X128008021Y-80936133D01*
X127892192Y-81063539D01*
X127769380Y-81203078D01*
X127641646Y-81377491D01*
X127565288Y-81523539D01*
X127542744Y-81580776D01*
X127484925Y-81704333D01*
X127432613Y-81790000D01*
X127387753Y-81847305D01*
X127226315Y-82087362D01*
X127109036Y-82332446D01*
X127027837Y-82538449D01*
X127324162Y-82828120D01*
X127413190Y-82913479D01*
X127534770Y-83024485D01*
X127630545Y-83105306D01*
X127685244Y-83142639D01*
X127728400Y-83184645D01*
X127750000Y-83285154D01*
X127741338Y-83344746D01*
X127695711Y-83465990D01*
X127625073Y-83591790D01*
X127545547Y-83695123D01*
X127473256Y-83748966D01*
X127426700Y-83786727D01*
X127354223Y-83872756D01*
X127273906Y-83983827D01*
X127202162Y-84097167D01*
X127155405Y-84190000D01*
X127110071Y-84272188D01*
X127018339Y-84399055D01*
X126899932Y-84543233D01*
X126771849Y-84685103D01*
X126651086Y-84805047D01*
X126554639Y-84883446D01*
X126480847Y-84933599D01*
X126300862Y-85082401D01*
X126140323Y-85263281D01*
X125978286Y-85498592D01*
X125939427Y-85564922D01*
X125917795Y-85629798D01*
X125035825Y-85629798D01*
X124974825Y-85492839D01*
X124950000Y-85317352D01*
X124955387Y-85253794D01*
X124985314Y-85179638D01*
X125053262Y-85096910D01*
X125172347Y-84986068D01*
X125299173Y-84878527D01*
X125443358Y-84764034D01*
X125561711Y-84677753D01*
X125605680Y-84646420D01*
X125734328Y-84539216D01*
X125837896Y-84433068D01*
X125846583Y-84422471D01*
X125909112Y-84334321D01*
X125924653Y-84265258D01*
X125901911Y-84181006D01*
X125881263Y-84107268D01*
X125885388Y-84012404D01*
X125927769Y-83885692D01*
X125936972Y-83862930D01*
X125993233Y-83723187D01*
X126023178Y-83643585D01*
X126029677Y-83611526D01*
X126015597Y-83614415D01*
X125983809Y-83639652D01*
X125939108Y-83665841D01*
X125888151Y-83649860D01*
X125870000Y-83563333D01*
X125875397Y-83520615D01*
X125912912Y-83492655D01*
X125980305Y-83536304D01*
X125994545Y-83547869D01*
X126059428Y-83551131D01*
X126122443Y-83491202D01*
X126168870Y-83380262D01*
X126194007Y-83306804D01*
X126250448Y-83173925D01*
X126329209Y-83004009D01*
X126423264Y-82810745D01*
X126525581Y-82607818D01*
X126629132Y-82408915D01*
X126726889Y-82227722D01*
X126811821Y-82077927D01*
X126876899Y-81973215D01*
X126915095Y-81927273D01*
X126968985Y-81876972D01*
X127015318Y-81783056D01*
X127048037Y-81701941D01*
X127118396Y-81601604D01*
X127127030Y-81592681D01*
X127174026Y-81509351D01*
X127167404Y-81398178D01*
X127154237Y-81328089D01*
X127161197Y-81297717D01*
X127199740Y-81321484D01*
X127242760Y-81339896D01*
X127295584Y-81311098D01*
X127356757Y-81220298D01*
X127432965Y-81059999D01*
X127439938Y-81044785D01*
X127492259Y-80963242D01*
X127541020Y-80929999D01*
X127572676Y-80919086D01*
X127619018Y-80859999D01*
X127649411Y-80800138D01*
X127714498Y-80722439D01*
X127777143Y-80689687D01*
X127808849Y-80664703D01*
X127854261Y-80591553D01*
X127893370Y-80501518D01*
X127910000Y-80426625D01*
X127927578Y-80389402D01*
X127992945Y-80327282D01*
X128077591Y-80273152D01*
X128150244Y-80250000D01*
X128167666Y-80253953D01*
X128247997Y-80285171D01*
X128372187Y-80340725D01*
X128521652Y-80412483D01*
X128573346Y-80437756D01*
X128747561Y-80519184D01*
X128909601Y-80590004D01*
X129030000Y-80637191D01*
X129086766Y-80658154D01*
X129183839Y-80701474D01*
X129232090Y-80734268D01*
X129244038Y-80744712D01*
X129315878Y-80785455D01*
X129434195Y-80843188D01*
X129579620Y-80909434D01*
X129732779Y-80975716D01*
X129874303Y-81033555D01*
X129984821Y-81074476D01*
X130044960Y-81089999D01*
X130087468Y-81104311D01*
X130179546Y-81155113D01*
X130292832Y-81229999D01*
X130384748Y-81290619D01*
X130489631Y-81347883D01*
X130556796Y-81369999D01*
X130574599Y-81372976D01*
X130653627Y-81414714D01*
X130743847Y-81490000D01*
X130771080Y-81515354D01*
X130867390Y-81582901D01*
X130946924Y-81610000D01*
X130996325Y-81616840D01*
X131030000Y-81644666D01*
X131043977Y-81664062D01*
X131112881Y-81711090D01*
X131220000Y-81766062D01*
X131362934Y-81833105D01*
X131545086Y-81930717D01*
X131657343Y-82017571D01*
X131703334Y-82103178D01*
X131697670Y-82135120D01*
X131686688Y-82197053D01*
G37*
G36*
X125879250Y-94851537D02*
G01*
X125910000Y-94890000D01*
X125909542Y-94899052D01*
X125892361Y-94930000D01*
X125885945Y-94928159D01*
X125850000Y-94890000D01*
X125843750Y-94874505D01*
X125867640Y-94850000D01*
X125879250Y-94851537D01*
G37*
G36*
X141430000Y-93990000D02*
G01*
X141410000Y-94010000D01*
X141390000Y-93990000D01*
X141410000Y-93970000D01*
X141430000Y-93990000D01*
G37*
G36*
X125251730Y-89995343D02*
G01*
X125281708Y-90050449D01*
X125287757Y-90098056D01*
X125270535Y-90130000D01*
X125230524Y-90100953D01*
X125210543Y-90039203D01*
X125227200Y-89991730D01*
X125251730Y-89995343D01*
G37*
G36*
X139750000Y-89830000D02*
G01*
X139730000Y-89850000D01*
X139710000Y-89830000D01*
X139730000Y-89810000D01*
X139750000Y-89830000D01*
G37*
G36*
X139230000Y-89190000D02*
G01*
X139210000Y-89210000D01*
X139190000Y-89190000D01*
X139210000Y-89170000D01*
X139230000Y-89190000D01*
G37*
G36*
X126790000Y-88630000D02*
G01*
X126770000Y-88650000D01*
X126750000Y-88630000D01*
X126770000Y-88610000D01*
X126790000Y-88630000D01*
G37*
G36*
X124510000Y-88450000D02*
G01*
X124507114Y-88471175D01*
X124483334Y-88476666D01*
X124478547Y-88470803D01*
X124483334Y-88423333D01*
X124495365Y-88417075D01*
X124510000Y-88450000D01*
G37*
G36*
X127470000Y-88030000D02*
G01*
X127450000Y-88050000D01*
X127430000Y-88030000D01*
X127450000Y-88010000D01*
X127470000Y-88030000D01*
G37*
G36*
X127293820Y-88003819D02*
G01*
X127288506Y-88011962D01*
X127248984Y-88048801D01*
X127230000Y-88032360D01*
X127233576Y-88023363D01*
X127276181Y-87986180D01*
X127298535Y-87976447D01*
X127293820Y-88003819D01*
G37*
G36*
X124990000Y-87990000D02*
G01*
X124970000Y-88010000D01*
X124950000Y-87990000D01*
X124970000Y-87970000D01*
X124990000Y-87990000D01*
G37*
G36*
X127430000Y-87870000D02*
G01*
X127410000Y-87890000D01*
X127390000Y-87870000D01*
X127410000Y-87850000D01*
X127430000Y-87870000D01*
G37*
G36*
X138170000Y-87610000D02*
G01*
X138203547Y-87640223D01*
X138230000Y-87673642D01*
X138222070Y-87677457D01*
X138170000Y-87664465D01*
X138141951Y-87648958D01*
X138110000Y-87600822D01*
X138121273Y-87585660D01*
X138170000Y-87610000D01*
G37*
G36*
X125764443Y-87293238D02*
G01*
X125757457Y-87335444D01*
X125707194Y-87403797D01*
X125707082Y-87403917D01*
X125638205Y-87459130D01*
X125587616Y-87468526D01*
X125556741Y-87439105D01*
X125561005Y-87391713D01*
X125626667Y-87370000D01*
X125671408Y-87361847D01*
X125721191Y-87320000D01*
X125731154Y-87300956D01*
X125764102Y-87292910D01*
X125764443Y-87293238D01*
G37*
G36*
X128221479Y-87325798D02*
G01*
X128276458Y-87370571D01*
X128288760Y-87412006D01*
X128248439Y-87443955D01*
X128176426Y-87440875D01*
X128123804Y-87388274D01*
X128115059Y-87355780D01*
X128121633Y-87305034D01*
X128157233Y-87299071D01*
X128221479Y-87325798D01*
G37*
G36*
X128390000Y-87107639D02*
G01*
X128389218Y-87127834D01*
X128370323Y-87168232D01*
X128331709Y-87132763D01*
X128326273Y-87118341D01*
X128349348Y-87070403D01*
X128370320Y-87066441D01*
X128390000Y-87107639D01*
G37*
G36*
X129477602Y-86014512D02*
G01*
X129510000Y-86050000D01*
X129503231Y-86068401D01*
X129450000Y-86090000D01*
X129422399Y-86085487D01*
X129390000Y-86050000D01*
X129396770Y-86031598D01*
X129450000Y-86010000D01*
X129477602Y-86014512D01*
G37*
G36*
X141950000Y-85670000D02*
G01*
X141930000Y-85690000D01*
X141910000Y-85670000D01*
X141930000Y-85650000D01*
X141950000Y-85670000D01*
G37*
G36*
X142070000Y-85510000D02*
G01*
X142050000Y-85530000D01*
X142030000Y-85510000D01*
X142050000Y-85490000D01*
X142070000Y-85510000D01*
G37*
G36*
X129190000Y-84710000D02*
G01*
X129170000Y-84730000D01*
X129150000Y-84710000D01*
X129170000Y-84690000D01*
X129190000Y-84710000D01*
G37*
G36*
X132430000Y-81790000D02*
G01*
X132410000Y-81810000D01*
X132390000Y-81790000D01*
X132410000Y-81770000D01*
X132430000Y-81790000D01*
G37*
G36*
X132590000Y-81710000D02*
G01*
X132570000Y-81730000D01*
X132550000Y-81710000D01*
X132570000Y-81690000D01*
X132590000Y-81710000D01*
G37*
G36*
X132550000Y-81630000D02*
G01*
X132530000Y-81650000D01*
X132510000Y-81630000D01*
X132530000Y-81610000D01*
X132550000Y-81630000D01*
G37*
G36*
X130310000Y-81150000D02*
G01*
X130290000Y-81170000D01*
X130270000Y-81150000D01*
X130290000Y-81130000D01*
X130310000Y-81150000D01*
G37*
G36*
X129990000Y-80927639D02*
G01*
X129988463Y-80939249D01*
X129950000Y-80970000D01*
X129940948Y-80969541D01*
X129910000Y-80952360D01*
X129911841Y-80945944D01*
X129950000Y-80910000D01*
X129965495Y-80903749D01*
X129990000Y-80927639D01*
G37*
G36*
X127470000Y-80750000D02*
G01*
X127450000Y-80770000D01*
X127430000Y-80750000D01*
X127450000Y-80730000D01*
X127470000Y-80750000D01*
G37*
G36*
X142710000Y-79830000D02*
G01*
X142690000Y-79850000D01*
X142670000Y-79830000D01*
X142690000Y-79810000D01*
X142710000Y-79830000D01*
G37*
G36*
X135976667Y-79423333D02*
G01*
X135982925Y-79435364D01*
X135950000Y-79450000D01*
X135928825Y-79447113D01*
X135923334Y-79423333D01*
X135929197Y-79418546D01*
X135976667Y-79423333D01*
G37*
G36*
X135070000Y-78210000D02*
G01*
X135067114Y-78231175D01*
X135043334Y-78236666D01*
X135038547Y-78230803D01*
X135043334Y-78183333D01*
X135055365Y-78177075D01*
X135070000Y-78210000D01*
G37*
G36*
X134990000Y-78070000D02*
G01*
X134970000Y-78090000D01*
X134950000Y-78070000D01*
X134970000Y-78050000D01*
X134990000Y-78070000D01*
G37*
G36*
X136814942Y-77141608D02*
G01*
X136823523Y-77167748D01*
X136808752Y-77238274D01*
X136797040Y-77264580D01*
X136776806Y-77288214D01*
X136760274Y-77236869D01*
X136755393Y-77180711D01*
X136775394Y-77132719D01*
X136814942Y-77141608D01*
G37*
G36*
X132870000Y-75390000D02*
G01*
X132850000Y-75410000D01*
X132830000Y-75390000D01*
X132850000Y-75370000D01*
X132870000Y-75390000D01*
G37*
G36*
X132759562Y-75291162D02*
G01*
X132790000Y-75330000D01*
X132788838Y-75339561D01*
X132750000Y-75370000D01*
X132740439Y-75368837D01*
X132710000Y-75330000D01*
X132711163Y-75320438D01*
X132750000Y-75290000D01*
X132759562Y-75291162D01*
G37*
G36*
X136030000Y-75310000D02*
G01*
X136010000Y-75330000D01*
X135990000Y-75310000D01*
X136010000Y-75290000D01*
X136030000Y-75310000D01*
G37*
G36*
X136089117Y-75177632D02*
G01*
X136110000Y-75232360D01*
X136104245Y-75260932D01*
X136070000Y-75270000D01*
X136059076Y-75261812D01*
X136030000Y-75207639D01*
X136031145Y-75198709D01*
X136070000Y-75170000D01*
X136089117Y-75177632D01*
G37*
G36*
X136394510Y-83672605D02*
G01*
X136470523Y-83679472D01*
X136637340Y-83698455D01*
X136749957Y-83723540D01*
X136827275Y-83763086D01*
X136888196Y-83825452D01*
X136951623Y-83919000D01*
X137001154Y-84002346D01*
X137044911Y-84106582D01*
X137064857Y-84223992D01*
X137069342Y-84387831D01*
X137066596Y-84491566D01*
X137034597Y-84705496D01*
X136958221Y-84869805D01*
X136826884Y-85002135D01*
X136630000Y-85120131D01*
X136542463Y-85162434D01*
X136406148Y-85215780D01*
X136285449Y-85238218D01*
X136146363Y-85238039D01*
X136127524Y-85236811D01*
X135907186Y-85186113D01*
X135734526Y-85071694D01*
X135610282Y-84894578D01*
X135535194Y-84655788D01*
X135510000Y-84356349D01*
X135510906Y-84214735D01*
X135518768Y-84104768D01*
X135541452Y-84030306D01*
X135586822Y-83967452D01*
X135662743Y-83892312D01*
X135722886Y-83839420D01*
X135911246Y-83726194D01*
X136129637Y-83672236D01*
X136394510Y-83672605D01*
G37*
G36*
X140883043Y-84012246D02*
G01*
X141052261Y-84080959D01*
X141188217Y-84190023D01*
X141302014Y-84342712D01*
X141386840Y-84523840D01*
X141427944Y-84715262D01*
X141419115Y-84889521D01*
X141361297Y-85030784D01*
X141255437Y-85123216D01*
X141212817Y-85133669D01*
X141094884Y-85146510D01*
X140920722Y-85156901D01*
X140704082Y-85164082D01*
X140458716Y-85167292D01*
X140178925Y-85166274D01*
X139934340Y-85158671D01*
X139750759Y-85142174D01*
X139618249Y-85114634D01*
X139526879Y-85073904D01*
X139466714Y-85017834D01*
X139427825Y-84944276D01*
X139422357Y-84928134D01*
X139404293Y-84785832D01*
X139416190Y-84610459D01*
X139453637Y-84435879D01*
X139512227Y-84295953D01*
X139557702Y-84229162D01*
X139646366Y-84141846D01*
X139764237Y-84080429D01*
X139928229Y-84037251D01*
X140155255Y-84004650D01*
X140400400Y-83982779D01*
X140669457Y-83980611D01*
X140883043Y-84012246D01*
G37*
G36*
X137326772Y-82155252D02*
G01*
X137501571Y-82220321D01*
X137625745Y-82273307D01*
X137707945Y-82319136D01*
X137756819Y-82362736D01*
X137781020Y-82409033D01*
X137789197Y-82462952D01*
X137790000Y-82529421D01*
X137788512Y-82563461D01*
X137781660Y-82603204D01*
X137762045Y-82716982D01*
X137710971Y-82894575D01*
X137646400Y-83061708D01*
X137579444Y-83183850D01*
X137566363Y-83198572D01*
X137482622Y-83257645D01*
X137369471Y-83309701D01*
X137336215Y-83320870D01*
X137057379Y-83369888D01*
X136761308Y-83352091D01*
X136466898Y-83270400D01*
X136193042Y-83127738D01*
X136056846Y-83027883D01*
X135863699Y-82852504D01*
X136480243Y-82852504D01*
X136487466Y-82918823D01*
X136572604Y-82970990D01*
X136648513Y-82995483D01*
X136702604Y-83003598D01*
X136703752Y-83003340D01*
X136761993Y-82994062D01*
X136859480Y-82981102D01*
X136893721Y-82975203D01*
X137014794Y-82912706D01*
X137086429Y-82789399D01*
X137110000Y-82603204D01*
X137109996Y-82592113D01*
X137105904Y-82487957D01*
X137082260Y-82423182D01*
X137021664Y-82372871D01*
X136906714Y-82312104D01*
X136821752Y-82273277D01*
X136694321Y-82227746D01*
X136602049Y-82210000D01*
X136566339Y-82211253D01*
X136519467Y-82233371D01*
X136525877Y-82300000D01*
X136530337Y-82316154D01*
X136573946Y-82528234D01*
X136575350Y-82684861D01*
X136534438Y-82779848D01*
X136480243Y-82852504D01*
X135863699Y-82852504D01*
X135844199Y-82834798D01*
X135660909Y-82622445D01*
X135517259Y-82405102D01*
X135423529Y-82197045D01*
X135400762Y-82071768D01*
X135724436Y-82071768D01*
X135752544Y-82203351D01*
X135829459Y-82396459D01*
X135836369Y-82411720D01*
X135907558Y-82551347D01*
X135977525Y-82662391D01*
X136032047Y-82721995D01*
X136049359Y-82732582D01*
X136089476Y-82747624D01*
X136099249Y-82714159D01*
X136086500Y-82617120D01*
X136082527Y-82588201D01*
X136088828Y-82446908D01*
X136147176Y-82295535D01*
X136232525Y-82128239D01*
X136044253Y-82047536D01*
X135954104Y-82011804D01*
X135823101Y-81979430D01*
X135747250Y-81998273D01*
X135724436Y-82071768D01*
X135400762Y-82071768D01*
X135390000Y-82012553D01*
X135390052Y-81999933D01*
X135400916Y-81896035D01*
X135444353Y-81824984D01*
X135540000Y-81752767D01*
X135690000Y-81654400D01*
X136110000Y-81766935D01*
X136215345Y-81795783D01*
X136439376Y-81860248D01*
X136655941Y-81926048D01*
X136830000Y-81982683D01*
X137092697Y-82073173D01*
X137249736Y-82128239D01*
X137326772Y-82155252D01*
G37*
%TD*%
M02*
