%TF.GenerationSoftware,KiCad,Pcbnew,10.0.1*%
%TF.CreationDate,2026-04-30T14:59:29+02:00*%
%TF.ProjectId,Dive_Computer,44697665-5f43-46f6-9d70-757465722e6b,rev?*%
%TF.SameCoordinates,Original*%
%TF.FileFunction,Copper,L3,Inr*%
%TF.FilePolarity,Positive*%
%FSLAX46Y46*%
G04 Gerber Fmt 4.6, Leading zero omitted, Abs format (unit mm)*
G04 Created by KiCad (PCBNEW 10.0.1) date 2026-04-30 14:59:29*
%MOMM*%
%LPD*%
G01*
G04 APERTURE LIST*
G04 Aperture macros list*
%AMRoundRect*
0 Rectangle with rounded corners*
0 $1 Rounding radius*
0 $2 $3 $4 $5 $6 $7 $8 $9 X,Y pos of 4 corners*
0 Add a 4 corners polygon primitive as box body*
4,1,4,$2,$3,$4,$5,$6,$7,$8,$9,$2,$3,0*
0 Add four circle primitives for the rounded corners*
1,1,$1+$1,$2,$3*
1,1,$1+$1,$4,$5*
1,1,$1+$1,$6,$7*
1,1,$1+$1,$8,$9*
0 Add four rect primitives between the rounded corners*
20,1,$1+$1,$2,$3,$4,$5,0*
20,1,$1+$1,$4,$5,$6,$7,0*
20,1,$1+$1,$6,$7,$8,$9,0*
20,1,$1+$1,$8,$9,$2,$3,0*%
G04 Aperture macros list end*
%TA.AperFunction,ComponentPad*%
%ADD10RoundRect,0.225000X0.475000X-0.225000X0.475000X0.225000X-0.475000X0.225000X-0.475000X-0.225000X0*%
%TD*%
%TA.AperFunction,ComponentPad*%
%ADD11O,1.400000X0.900000*%
%TD*%
%TA.AperFunction,ComponentPad*%
%ADD12C,2.000000*%
%TD*%
%TA.AperFunction,ComponentPad*%
%ADD13C,3.200000*%
%TD*%
%TA.AperFunction,ComponentPad*%
%ADD14C,1.348000*%
%TD*%
%TA.AperFunction,ComponentPad*%
%ADD15RoundRect,0.225000X-0.225000X-0.475000X0.225000X-0.475000X0.225000X0.475000X-0.225000X0.475000X0*%
%TD*%
%TA.AperFunction,ComponentPad*%
%ADD16O,0.900000X1.400000*%
%TD*%
%TA.AperFunction,ViaPad*%
%ADD17C,0.600000*%
%TD*%
%TA.AperFunction,ViaPad*%
%ADD18C,0.500000*%
%TD*%
%TA.AperFunction,Conductor*%
%ADD19C,0.500000*%
%TD*%
%TA.AperFunction,Conductor*%
%ADD20C,0.200000*%
%TD*%
G04 APERTURE END LIST*
D10*
%TO.N,/BAT+*%
%TO.C,BATTERIE1*%
X207100000Y-74600000D03*
D11*
%TO.N,GND*%
X207100000Y-73350001D03*
%TD*%
D12*
%TO.N,GND*%
%TO.C,Power_Inductor1*%
X220655000Y-85582501D03*
%TO.N,Net-(C4-Pad1)*%
X215655000Y-85582501D03*
%TD*%
D13*
%TO.N,N/C*%
%TO.C,*%
X206685786Y-55485786D03*
%TD*%
%TO.N,N/C*%
%TO.C,*%
X244785786Y-55485786D03*
%TD*%
D14*
%TO.N,/INT1*%
%TO.C,U1*%
X225920000Y-78320000D03*
%TO.N,/INT2*%
X228460000Y-78320000D03*
%TO.N,unconnected-(U1-GPIO2-Pad2)*%
X231000000Y-78320000D03*
%TO.N,Net-(U1-GPIO3)*%
X233540000Y-78320000D03*
%TO.N,+3.3V*%
X238620000Y-78320000D03*
%TO.N,/SPI_CLK*%
X236080000Y-78320000D03*
%TO.N,/MISO*%
X243700000Y-63080000D03*
%TO.N,Net-(D4-K)*%
X243700000Y-78320000D03*
%TO.N,/MOSI*%
X241160000Y-63080000D03*
%TO.N,/CS*%
X238620000Y-63080000D03*
%TO.N,/SDA*%
X236080000Y-63080000D03*
%TO.N,/SCL*%
X233540000Y-63080000D03*
%TO.N,/Data{slash}Command*%
X231000000Y-63080000D03*
%TO.N,/~{CHRG}*%
X228460000Y-63080000D03*
%TO.N,Net-(JP1-A)*%
X225920000Y-63080000D03*
%TO.N,GND*%
X241160000Y-78320000D03*
%TD*%
D13*
%TO.N,N/C*%
%TO.C,*%
X206685786Y-85985786D03*
%TD*%
%TO.N,N/C*%
%TO.C,*%
X244785786Y-85985786D03*
%TD*%
D15*
%TO.N,GND*%
%TO.C,J1*%
X221950000Y-55900000D03*
D16*
%TO.N,VCC*%
X223199999Y-55900000D03*
%TO.N,/Data{slash}Command*%
X224450000Y-55900000D03*
%TO.N,/SPI_CLK*%
X225699999Y-55900000D03*
%TO.N,/CS*%
X226950000Y-55900000D03*
%TO.N,/MISO*%
X228199999Y-55900000D03*
%TO.N,/MOSI*%
X229450000Y-55900000D03*
%TD*%
D17*
%TO.N,GND*%
X205700000Y-68400000D03*
X205800000Y-65500000D03*
%TO.N,Net-(D2-K)*%
X219835003Y-79082500D03*
X231100000Y-80800000D03*
X219855000Y-81082501D03*
%TO.N,+3.3V*%
X232100000Y-56900000D03*
X239450000Y-56060000D03*
X216500000Y-69800000D03*
X223300000Y-62300000D03*
%TO.N,GND*%
X217800000Y-54900000D03*
X208800000Y-54800000D03*
X236700000Y-64400000D03*
X222900000Y-81700000D03*
X207200000Y-78200000D03*
X220900000Y-63600000D03*
X230700000Y-59800000D03*
X242700000Y-86900000D03*
X205700000Y-83800000D03*
X220100000Y-75900000D03*
X229200000Y-67300000D03*
X239000000Y-79900000D03*
X245500000Y-57900000D03*
X212700000Y-74900000D03*
X238187500Y-86887500D03*
X241100000Y-60400000D03*
X229200000Y-86800000D03*
X232400000Y-75400000D03*
X216500000Y-65400000D03*
X223000000Y-86800000D03*
X233100000Y-71800000D03*
X245700000Y-83400000D03*
X212600000Y-59700000D03*
X245100000Y-65300000D03*
X233687500Y-85787500D03*
X235430000Y-55470000D03*
X223200000Y-74200000D03*
X217200000Y-76500000D03*
X242400000Y-54500000D03*
X245000000Y-76100000D03*
X222900000Y-79300000D03*
X207000000Y-71600000D03*
X213000000Y-86900000D03*
X210800000Y-84600000D03*
X241300000Y-81600000D03*
X233700000Y-82000000D03*
X205800000Y-71500000D03*
X228000000Y-74300000D03*
X230700000Y-55600000D03*
X226000000Y-76500000D03*
X240987500Y-86787500D03*
X205800000Y-77300000D03*
X221100000Y-60400000D03*
X218500000Y-69100000D03*
X205800000Y-79700000D03*
X245900000Y-80000000D03*
X239200000Y-61100000D03*
X242200000Y-79500000D03*
X232050000Y-83637500D03*
X212500000Y-54900000D03*
X212300000Y-79000000D03*
X222200000Y-83700000D03*
X232600000Y-54500000D03*
X218100000Y-86900000D03*
X243400000Y-84300000D03*
X209100000Y-87000000D03*
X234000000Y-64900000D03*
X216100000Y-62400000D03*
X238200000Y-83800000D03*
X212200000Y-67100000D03*
X221400000Y-82400000D03*
X230500000Y-69700000D03*
X205800000Y-58100000D03*
X218100000Y-84500000D03*
%TO.N,VCC*%
X208700000Y-81700000D03*
X231400000Y-85900000D03*
X242200000Y-84000000D03*
X209700000Y-81700000D03*
X207700000Y-81700000D03*
D18*
%TO.N,/~{CHRG}*%
X235125000Y-84212500D03*
D17*
%TO.N,Net-(IC1-FREQ)*%
X233605000Y-80782499D03*
X228800000Y-83987500D03*
%TO.N,Net-(IC1-BOOST)*%
X230300000Y-80050000D03*
X232400000Y-80551472D03*
%TO.N,/~{FLT}*%
X225900000Y-59100000D03*
D18*
X234927458Y-83301195D03*
%TD*%
%TO.N,Net-(D2-K)*%
D19*
X231100000Y-80800000D02*
X221300000Y-80800000D01*
%TO.N,VCC*%
D20*
X242200000Y-84100000D02*
X241112500Y-85187500D01*
X232112500Y-85187500D02*
X231400000Y-85900000D01*
X242200000Y-84000000D02*
X242200000Y-84100000D01*
X241112500Y-85187500D02*
X232112500Y-85187500D01*
%TO.N,/~{CHRG}*%
X235125000Y-84212500D02*
X235800000Y-83537500D01*
X235100000Y-69720000D02*
X228460000Y-63080000D01*
X235800000Y-83537500D02*
X235800000Y-82500000D01*
X235100000Y-81800000D02*
X235100000Y-69720000D01*
X235800000Y-82500000D02*
X235100000Y-81800000D01*
%TO.N,Net-(IC1-FREQ)*%
X229812500Y-83987500D02*
X228800000Y-83987500D01*
X233000000Y-80800000D02*
X229812500Y-83987500D01*
X233317501Y-80782499D02*
X233300000Y-80800000D01*
X233605000Y-80782499D02*
X233317501Y-80782499D01*
X233300000Y-80800000D02*
X233000000Y-80800000D01*
%TO.N,Net-(IC1-BOOST)*%
X230450000Y-80200000D02*
X232048528Y-80200000D01*
X230300000Y-80050000D02*
X230450000Y-80200000D01*
X232048528Y-80200000D02*
X232400000Y-80551472D01*
%TO.N,/~{FLT}*%
X234927458Y-83301195D02*
X234700000Y-83073737D01*
X234700000Y-83073737D02*
X234700000Y-70900000D01*
X227300000Y-63500000D02*
X227300000Y-60500000D01*
X234700000Y-70900000D02*
X227300000Y-63500000D01*
X227300000Y-60500000D02*
X225900000Y-59100000D01*
%TO.N,/SPI_CLK*%
X232300000Y-62750001D02*
X232300000Y-65110000D01*
X232300000Y-65110000D02*
X236080000Y-68890000D01*
X236080000Y-68890000D02*
X236080000Y-78320000D01*
X225699999Y-55900000D02*
X225699999Y-56150000D01*
X225699999Y-56150000D02*
X232300000Y-62750001D01*
%TO.N,/MISO*%
X228199999Y-55900000D02*
X228199999Y-55650000D01*
X239640000Y-57560000D02*
X243700000Y-61620000D01*
X231520000Y-54770000D02*
X234310000Y-57560000D01*
X243700000Y-61620000D02*
X243700000Y-63080000D01*
X228199999Y-55650000D02*
X229079999Y-54770000D01*
X229079999Y-54770000D02*
X231520000Y-54770000D01*
X234310000Y-57560000D02*
X239640000Y-57560000D01*
%TO.N,/MOSI*%
X241160000Y-63080000D02*
X241160000Y-61870000D01*
X231440000Y-58660000D02*
X229450000Y-56670000D01*
X229450000Y-56670000D02*
X229450000Y-55900000D01*
X241160000Y-61870000D02*
X237950000Y-58660000D01*
X237950000Y-58660000D02*
X231440000Y-58660000D01*
%TO.N,/CS*%
X238620000Y-61870000D02*
X238620000Y-63080000D01*
X236930000Y-60180000D02*
X238620000Y-61870000D01*
X227449999Y-55900000D02*
X227449999Y-56460660D01*
X228189339Y-57200000D02*
X229100000Y-57200000D01*
X226950000Y-55900000D02*
X227449999Y-55900000D01*
X232080000Y-60180000D02*
X236930000Y-60180000D01*
X227449999Y-56460660D02*
X228189339Y-57200000D01*
X229100000Y-57200000D02*
X232080000Y-60180000D01*
%TO.N,/Data{slash}Command*%
X231000000Y-62390000D02*
X231000000Y-63080000D01*
X224450000Y-56800000D02*
X225770000Y-58120000D01*
X225770000Y-58120000D02*
X226730000Y-58120000D01*
X224450000Y-55900000D02*
X224450000Y-56800000D01*
X226730000Y-58120000D02*
X231000000Y-62390000D01*
%TD*%
%TA.AperFunction,Conductor*%
%TO.N,GND*%
G36*
X243315306Y-53991307D02*
G01*
X243326159Y-53994493D01*
X243341161Y-54004132D01*
X243358272Y-54009157D01*
X243369943Y-54022627D01*
X243384940Y-54032263D01*
X243392349Y-54048485D01*
X243404027Y-54061962D01*
X243406563Y-54079603D01*
X243413969Y-54095817D01*
X243411432Y-54113468D01*
X243413970Y-54131120D01*
X243404031Y-54164966D01*
X243404030Y-54164976D01*
X243404026Y-54164985D01*
X243400841Y-54171959D01*
X243375730Y-54208125D01*
X243353861Y-54229993D01*
X243353849Y-54230007D01*
X243353841Y-54230016D01*
X243202185Y-54427659D01*
X243077631Y-54643395D01*
X243077623Y-54643409D01*
X243077621Y-54643413D01*
X243077616Y-54643423D01*
X243077610Y-54643436D01*
X242982285Y-54873572D01*
X242917802Y-55114225D01*
X242885287Y-55361203D01*
X242885286Y-55361232D01*
X242885286Y-55610338D01*
X242885287Y-55610367D01*
X242917802Y-55857345D01*
X242982285Y-56097998D01*
X243077610Y-56328134D01*
X243077616Y-56328147D01*
X243077623Y-56328162D01*
X243130346Y-56419481D01*
X243202185Y-56543911D01*
X243353839Y-56741552D01*
X243353843Y-56741557D01*
X243353846Y-56741560D01*
X243353852Y-56741567D01*
X243530004Y-56917719D01*
X243530011Y-56917725D01*
X243530014Y-56917727D01*
X243530018Y-56917731D01*
X243697072Y-57045915D01*
X243727659Y-57069385D01*
X243943409Y-57193948D01*
X243943424Y-57193955D01*
X244042611Y-57235039D01*
X244173579Y-57289288D01*
X244414221Y-57353768D01*
X244661221Y-57386286D01*
X244661228Y-57386286D01*
X244910344Y-57386286D01*
X244910351Y-57386286D01*
X245157351Y-57353768D01*
X245397993Y-57289288D01*
X245628159Y-57193950D01*
X245843913Y-57069385D01*
X246041562Y-56917724D01*
X246055758Y-56903528D01*
X246061009Y-56898277D01*
X246061027Y-56898267D01*
X246089246Y-56877140D01*
X246099181Y-56871716D01*
X246116606Y-56867925D01*
X246122332Y-56864800D01*
X246128834Y-56865265D01*
X246167451Y-56856865D01*
X246232915Y-56881282D01*
X246274787Y-56937215D01*
X246277468Y-56944403D01*
X246285286Y-56987737D01*
X246285286Y-84480379D01*
X246285285Y-84480381D01*
X246285286Y-84480382D01*
X246281044Y-84509878D01*
X246280262Y-84515317D01*
X246277075Y-84526170D01*
X246239300Y-84584947D01*
X246175743Y-84613970D01*
X246106593Y-84604029D01*
X246099615Y-84600842D01*
X246063443Y-84575728D01*
X246041575Y-84553860D01*
X246041567Y-84553852D01*
X246041560Y-84553846D01*
X246041557Y-84553843D01*
X246041552Y-84553839D01*
X245843911Y-84402185D01*
X245744489Y-84344784D01*
X245628162Y-84277623D01*
X245628147Y-84277616D01*
X245628134Y-84277610D01*
X245397997Y-84182285D01*
X245397999Y-84182285D01*
X245157345Y-84117802D01*
X244914451Y-84085825D01*
X244912435Y-84085491D01*
X244910361Y-84085286D01*
X244910356Y-84085286D01*
X244910351Y-84085286D01*
X244661221Y-84085286D01*
X244661215Y-84085286D01*
X244661210Y-84085286D01*
X244659133Y-84085491D01*
X244657119Y-84085825D01*
X244414225Y-84117802D01*
X244173572Y-84182285D01*
X243943436Y-84277610D01*
X243943423Y-84277616D01*
X243943416Y-84277619D01*
X243943409Y-84277623D01*
X243943396Y-84277629D01*
X243943395Y-84277631D01*
X243727659Y-84402185D01*
X243530018Y-84553839D01*
X243530003Y-84553853D01*
X243529995Y-84553860D01*
X243353860Y-84729995D01*
X243353853Y-84730003D01*
X243353839Y-84730018D01*
X243202185Y-84927659D01*
X243112339Y-85083279D01*
X243077623Y-85143409D01*
X243077621Y-85143413D01*
X243077616Y-85143423D01*
X243077610Y-85143436D01*
X242982285Y-85373572D01*
X242917802Y-85614225D01*
X242885287Y-85861203D01*
X242885287Y-85861210D01*
X242885286Y-85861227D01*
X242885286Y-86110344D01*
X242885287Y-86110361D01*
X242905528Y-86264111D01*
X242917804Y-86357351D01*
X242956161Y-86500500D01*
X242982284Y-86597993D01*
X242982286Y-86597998D01*
X242982289Y-86598008D01*
X243077610Y-86828134D01*
X243077616Y-86828147D01*
X243077623Y-86828162D01*
X243090796Y-86850978D01*
X243202185Y-87043911D01*
X243353839Y-87241552D01*
X243353843Y-87241557D01*
X243353846Y-87241560D01*
X243353852Y-87241567D01*
X243353860Y-87241575D01*
X243373282Y-87260997D01*
X243383294Y-87274371D01*
X243394431Y-87289247D01*
X243399852Y-87299174D01*
X243414706Y-87367447D01*
X243390292Y-87432912D01*
X243334360Y-87474785D01*
X243334356Y-87474787D01*
X243327168Y-87477468D01*
X243283834Y-87485286D01*
X208191193Y-87485286D01*
X208156258Y-87480263D01*
X208145404Y-87477076D01*
X208130405Y-87467437D01*
X208113299Y-87462414D01*
X208101624Y-87448941D01*
X208086626Y-87439302D01*
X208079218Y-87423082D01*
X208067544Y-87409609D01*
X208065006Y-87391962D01*
X208057601Y-87375746D01*
X208060138Y-87358099D01*
X208057601Y-87340451D01*
X208067542Y-87306595D01*
X208070734Y-87299606D01*
X208095843Y-87263444D01*
X208117721Y-87241566D01*
X208117724Y-87241562D01*
X208269385Y-87043913D01*
X208393950Y-86828159D01*
X208489288Y-86597993D01*
X208553768Y-86357351D01*
X208586286Y-86110351D01*
X208586286Y-85861221D01*
X208553768Y-85614221D01*
X208517842Y-85480143D01*
X214354500Y-85480143D01*
X214354500Y-85684857D01*
X214386521Y-85887031D01*
X214449780Y-86081722D01*
X214449786Y-86081735D01*
X214542708Y-86264102D01*
X214542713Y-86264111D01*
X214542715Y-86264114D01*
X214663028Y-86429714D01*
X214807786Y-86574472D01*
X214962749Y-86687057D01*
X214973390Y-86694788D01*
X215089607Y-86754004D01*
X215150154Y-86784854D01*
X215151043Y-86785325D01*
X215151249Y-86785526D01*
X215154629Y-86787163D01*
X215156637Y-86788161D01*
X215160403Y-86789223D01*
X215200488Y-86802247D01*
X215260135Y-86821627D01*
X215260136Y-86821628D01*
X215280246Y-86828162D01*
X215350465Y-86850978D01*
X215451557Y-86866989D01*
X215552648Y-86883001D01*
X215552649Y-86883001D01*
X215757351Y-86883001D01*
X215757352Y-86883001D01*
X215959534Y-86850978D01*
X216154219Y-86787721D01*
X216336610Y-86694788D01*
X216436531Y-86622191D01*
X216469837Y-86597994D01*
X216478237Y-86591890D01*
X216502213Y-86574472D01*
X216502215Y-86574469D01*
X216502219Y-86574467D01*
X216502222Y-86574463D01*
X216502276Y-86574424D01*
X216503022Y-86573663D01*
X216646966Y-86429720D01*
X216646968Y-86429716D01*
X216646971Y-86429714D01*
X216672720Y-86394271D01*
X216699730Y-86357094D01*
X216699732Y-86357092D01*
X216723172Y-86324828D01*
X216767287Y-86264111D01*
X216860220Y-86081720D01*
X216923477Y-85887035D01*
X216955500Y-85684853D01*
X216955500Y-85480149D01*
X216923477Y-85277967D01*
X216923476Y-85277963D01*
X216923476Y-85277962D01*
X216862833Y-85091324D01*
X216860220Y-85083282D01*
X216860218Y-85083279D01*
X216860218Y-85083277D01*
X216857977Y-85078879D01*
X216857667Y-85078084D01*
X216856932Y-85076828D01*
X216826503Y-85017108D01*
X216780926Y-84927659D01*
X216767287Y-84900891D01*
X216742680Y-84867022D01*
X216646971Y-84735287D01*
X216502213Y-84590529D01*
X216502212Y-84590528D01*
X216502211Y-84590527D01*
X216347209Y-84477914D01*
X216347205Y-84477911D01*
X216336613Y-84470216D01*
X216336612Y-84470215D01*
X216336610Y-84470214D01*
X216308171Y-84455723D01*
X216279654Y-84441192D01*
X216279653Y-84441192D01*
X216154223Y-84377282D01*
X215959534Y-84314023D01*
X215959532Y-84314022D01*
X215959530Y-84314022D01*
X215959529Y-84314021D01*
X215784995Y-84286379D01*
X215768409Y-84283752D01*
X215757354Y-84282001D01*
X215757352Y-84282001D01*
X215552648Y-84282001D01*
X215533889Y-84284972D01*
X215350469Y-84314021D01*
X215350468Y-84314022D01*
X215155777Y-84377281D01*
X215155764Y-84377287D01*
X214973397Y-84470209D01*
X214973385Y-84470216D01*
X214807787Y-84590528D01*
X214807784Y-84590530D01*
X214663029Y-84735285D01*
X214663027Y-84735288D01*
X214542715Y-84900886D01*
X214542708Y-84900898D01*
X214449786Y-85083265D01*
X214449780Y-85083278D01*
X214386521Y-85277969D01*
X214354500Y-85480143D01*
X208517842Y-85480143D01*
X208489288Y-85373579D01*
X208393954Y-85143423D01*
X208393948Y-85143409D01*
X208269388Y-84927663D01*
X208269385Y-84927659D01*
X208222855Y-84867020D01*
X208117725Y-84730011D01*
X208117719Y-84730004D01*
X207941567Y-84553852D01*
X207941560Y-84553846D01*
X207941557Y-84553843D01*
X207941552Y-84553839D01*
X207743911Y-84402185D01*
X207644489Y-84344784D01*
X207528162Y-84277623D01*
X207528147Y-84277616D01*
X207528134Y-84277610D01*
X207297997Y-84182285D01*
X207297999Y-84182285D01*
X207057345Y-84117802D01*
X206814451Y-84085825D01*
X206812435Y-84085491D01*
X206810361Y-84085286D01*
X206810356Y-84085286D01*
X206810351Y-84085286D01*
X206561221Y-84085286D01*
X206561215Y-84085286D01*
X206561210Y-84085286D01*
X206559133Y-84085491D01*
X206557119Y-84085825D01*
X206314225Y-84117802D01*
X206073572Y-84182285D01*
X205843436Y-84277610D01*
X205843423Y-84277616D01*
X205843416Y-84277619D01*
X205843409Y-84277623D01*
X205843396Y-84277629D01*
X205843395Y-84277631D01*
X205627659Y-84402185D01*
X205430016Y-84553841D01*
X205430007Y-84553849D01*
X205429993Y-84553862D01*
X205410573Y-84573281D01*
X205410572Y-84573284D01*
X205382318Y-84594435D01*
X205372394Y-84599854D01*
X205304121Y-84614706D01*
X205238656Y-84590290D01*
X205196785Y-84534356D01*
X205196783Y-84534352D01*
X205194099Y-84527154D01*
X205186286Y-84483834D01*
X205186286Y-81620943D01*
X207099500Y-81620943D01*
X207099500Y-81779056D01*
X207106586Y-81805500D01*
X207140422Y-81931780D01*
X207140424Y-81931787D01*
X207140425Y-81931788D01*
X207140428Y-81931793D01*
X207216623Y-82063771D01*
X207216638Y-82063795D01*
X207219475Y-82068709D01*
X207219479Y-82068714D01*
X207219480Y-82068716D01*
X207220049Y-82069285D01*
X207331284Y-82180520D01*
X207331975Y-82181018D01*
X207334483Y-82182367D01*
X207458703Y-82254085D01*
X207468216Y-82259577D01*
X207620943Y-82300500D01*
X207620945Y-82300500D01*
X207779055Y-82300500D01*
X207779057Y-82300500D01*
X207931784Y-82259577D01*
X208068716Y-82180520D01*
X208099715Y-82149520D01*
X208127964Y-82128373D01*
X208141688Y-82120879D01*
X208209946Y-82106028D01*
X208211756Y-82106157D01*
X208269953Y-82125523D01*
X208276471Y-82129712D01*
X208297106Y-82146342D01*
X208331284Y-82180520D01*
X208331975Y-82181018D01*
X208334483Y-82182367D01*
X208458703Y-82254085D01*
X208468216Y-82259577D01*
X208620943Y-82300500D01*
X208620945Y-82300500D01*
X208779055Y-82300500D01*
X208779057Y-82300500D01*
X208931784Y-82259577D01*
X209068716Y-82180520D01*
X209099715Y-82149520D01*
X209127964Y-82128373D01*
X209141688Y-82120879D01*
X209209946Y-82106028D01*
X209211756Y-82106157D01*
X209269953Y-82125523D01*
X209276471Y-82129712D01*
X209297106Y-82146342D01*
X209331284Y-82180520D01*
X209331975Y-82181018D01*
X209334483Y-82182367D01*
X209458703Y-82254085D01*
X209468216Y-82259577D01*
X209620943Y-82300500D01*
X209620945Y-82300500D01*
X209779055Y-82300500D01*
X209779057Y-82300500D01*
X209931784Y-82259577D01*
X210068716Y-82180520D01*
X210180520Y-82068716D01*
X210259577Y-81931784D01*
X210300500Y-81779057D01*
X210300500Y-81620943D01*
X210259577Y-81468216D01*
X210220481Y-81400499D01*
X210180524Y-81331290D01*
X210180518Y-81331282D01*
X210180513Y-81331276D01*
X210068722Y-81219485D01*
X210068720Y-81219484D01*
X210068717Y-81219481D01*
X210068709Y-81219475D01*
X209935241Y-81142418D01*
X209932927Y-81140981D01*
X209931790Y-81140425D01*
X209931774Y-81140420D01*
X209838512Y-81115431D01*
X209779057Y-81099500D01*
X209779056Y-81099500D01*
X209620943Y-81099500D01*
X209468218Y-81140422D01*
X209468211Y-81140424D01*
X209468210Y-81140425D01*
X209468200Y-81140430D01*
X209331298Y-81219470D01*
X209331282Y-81219480D01*
X209331276Y-81219486D01*
X209300287Y-81250476D01*
X209300285Y-81250477D01*
X209300284Y-81250480D01*
X209272029Y-81271629D01*
X209258309Y-81279120D01*
X209190051Y-81293971D01*
X209190035Y-81293969D01*
X209190035Y-81293970D01*
X209190034Y-81293969D01*
X209188245Y-81293842D01*
X209130044Y-81274474D01*
X209123529Y-81270287D01*
X209102892Y-81253656D01*
X209068721Y-81219484D01*
X209068717Y-81219481D01*
X209068709Y-81219475D01*
X209042147Y-81204140D01*
X208931807Y-81140435D01*
X208931783Y-81140422D01*
X208819979Y-81110464D01*
X208779057Y-81099500D01*
X208779056Y-81099500D01*
X208620943Y-81099500D01*
X208468218Y-81140422D01*
X208468211Y-81140424D01*
X208468210Y-81140425D01*
X208468200Y-81140430D01*
X208331298Y-81219470D01*
X208331282Y-81219480D01*
X208331276Y-81219486D01*
X208300287Y-81250476D01*
X208300285Y-81250477D01*
X208300284Y-81250480D01*
X208272029Y-81271629D01*
X208258309Y-81279120D01*
X208190051Y-81293971D01*
X208190035Y-81293969D01*
X208190035Y-81293970D01*
X208190034Y-81293969D01*
X208188245Y-81293842D01*
X208130044Y-81274474D01*
X208123529Y-81270287D01*
X208102892Y-81253656D01*
X208068721Y-81219484D01*
X208068717Y-81219481D01*
X208068709Y-81219475D01*
X208042147Y-81204140D01*
X207931807Y-81140435D01*
X207931783Y-81140422D01*
X207819979Y-81110464D01*
X207779057Y-81099500D01*
X207779056Y-81099500D01*
X207620943Y-81099500D01*
X207468218Y-81140422D01*
X207468211Y-81140424D01*
X207468210Y-81140425D01*
X207468200Y-81140430D01*
X207331298Y-81219470D01*
X207331294Y-81219472D01*
X207331290Y-81219475D01*
X207331282Y-81219481D01*
X207331278Y-81219484D01*
X207331276Y-81219485D01*
X207219485Y-81331276D01*
X207219484Y-81331278D01*
X207219481Y-81331281D01*
X207219481Y-81331282D01*
X207219475Y-81331290D01*
X207219472Y-81331294D01*
X207219470Y-81331298D01*
X207140430Y-81468200D01*
X207140425Y-81468210D01*
X207140424Y-81468211D01*
X207140422Y-81468218D01*
X207099500Y-81620943D01*
X205186286Y-81620943D01*
X205186286Y-78570373D01*
X218694500Y-78570373D01*
X218694500Y-81148638D01*
X218696250Y-81181281D01*
X218696254Y-81181334D01*
X218699081Y-81207625D01*
X218699920Y-81214660D01*
X218699920Y-81214662D01*
X218734700Y-81321401D01*
X218734704Y-81321411D01*
X218768189Y-81382733D01*
X218820289Y-81452329D01*
X218820307Y-81452350D01*
X218937013Y-81569055D01*
X219047660Y-81679702D01*
X219068884Y-81698766D01*
X219071993Y-81701559D01*
X219092674Y-81718224D01*
X219098172Y-81722551D01*
X219098175Y-81722553D01*
X219198251Y-81773439D01*
X219265290Y-81793124D01*
X219351362Y-81805500D01*
X222250480Y-81805500D01*
X222250481Y-81805500D01*
X222280952Y-81801856D01*
X222322500Y-81796889D01*
X222322500Y-81796888D01*
X222322507Y-81796888D01*
X222379328Y-81783103D01*
X222424016Y-81768541D01*
X222518122Y-81707315D01*
X222568689Y-81659099D01*
X222622441Y-81590746D01*
X222655783Y-81532992D01*
X222675478Y-81507326D01*
X222707324Y-81475480D01*
X222732996Y-81455780D01*
X222771998Y-81433263D01*
X222801900Y-81420878D01*
X222814202Y-81417582D01*
X222845395Y-81409225D01*
X222877486Y-81405000D01*
X222922514Y-81405000D01*
X222954606Y-81409225D01*
X222979575Y-81415915D01*
X222998095Y-81420877D01*
X223027999Y-81433263D01*
X223081132Y-81463939D01*
X223081488Y-81464144D01*
X223097296Y-81474981D01*
X223121767Y-81494702D01*
X223166114Y-81523203D01*
X223200893Y-81542478D01*
X223246994Y-81554552D01*
X223289669Y-81569055D01*
X223304789Y-81569689D01*
X223309501Y-81570924D01*
X223328162Y-81572258D01*
X223328162Y-81572256D01*
X223331707Y-81572510D01*
X223331718Y-81572511D01*
X223351596Y-81573933D01*
X223351596Y-81573934D01*
X223379179Y-81575907D01*
X223440652Y-81574099D01*
X223476055Y-81562561D01*
X223530663Y-81548990D01*
X223546978Y-81539447D01*
X223547398Y-81539311D01*
X223562161Y-81531249D01*
X223562160Y-81531248D01*
X223566398Y-81528935D01*
X223588693Y-81516760D01*
X223588694Y-81516761D01*
X223608706Y-81505834D01*
X223623906Y-81494455D01*
X223627576Y-81492309D01*
X223632669Y-81487895D01*
X223678320Y-81453722D01*
X223679702Y-81452340D01*
X223701558Y-81428008D01*
X223718192Y-81407366D01*
X223722553Y-81401825D01*
X223722553Y-81401824D01*
X223725715Y-81397808D01*
X223782645Y-81357303D01*
X223823154Y-81350500D01*
X230809428Y-81350500D01*
X230833614Y-81352882D01*
X230866922Y-81359506D01*
X230874830Y-81361349D01*
X231020943Y-81400500D01*
X231020945Y-81400500D01*
X231179055Y-81400500D01*
X231179057Y-81400500D01*
X231331784Y-81359577D01*
X231468716Y-81280520D01*
X231580520Y-81168716D01*
X231659577Y-81031784D01*
X231680292Y-80954470D01*
X231694182Y-80922035D01*
X231700072Y-80912371D01*
X231751770Y-80865376D01*
X231820672Y-80853789D01*
X231884899Y-80881292D01*
X231890819Y-80886180D01*
X231916497Y-80916538D01*
X231916832Y-80916310D01*
X231919041Y-80919544D01*
X231919251Y-80919793D01*
X231919477Y-80920184D01*
X231919481Y-80920189D01*
X231919484Y-80920192D01*
X231919488Y-80920197D01*
X232016156Y-81016865D01*
X232016159Y-81016867D01*
X232037310Y-81045121D01*
X232044802Y-81058841D01*
X232059656Y-81127105D01*
X232059527Y-81128911D01*
X232040159Y-81187114D01*
X232035978Y-81193620D01*
X232019342Y-81214263D01*
X229695533Y-83538073D01*
X229674757Y-83553626D01*
X229667282Y-83559222D01*
X229644194Y-83571830D01*
X229584764Y-83587000D01*
X229317928Y-83587000D01*
X229282992Y-83581977D01*
X229257750Y-83574565D01*
X229205004Y-83543268D01*
X229168721Y-83506984D01*
X229168717Y-83506981D01*
X229168709Y-83506975D01*
X229142147Y-83491640D01*
X229031807Y-83427935D01*
X229031783Y-83427922D01*
X228919979Y-83397964D01*
X228879057Y-83387000D01*
X228879056Y-83387000D01*
X228720943Y-83387000D01*
X228568218Y-83427922D01*
X228568211Y-83427924D01*
X228568210Y-83427925D01*
X228568200Y-83427930D01*
X228431298Y-83506970D01*
X228431293Y-83506972D01*
X228431290Y-83506975D01*
X228431286Y-83506978D01*
X228431277Y-83506984D01*
X228319485Y-83618776D01*
X228319484Y-83618778D01*
X228319481Y-83618781D01*
X228319481Y-83618782D01*
X228319475Y-83618790D01*
X228319472Y-83618794D01*
X228319470Y-83618798D01*
X228240430Y-83755700D01*
X228240425Y-83755710D01*
X228240424Y-83755711D01*
X228240422Y-83755718D01*
X228208935Y-83873231D01*
X228199500Y-83908443D01*
X228199500Y-84066557D01*
X228213232Y-84117803D01*
X228227332Y-84170425D01*
X228240424Y-84219287D01*
X228240425Y-84219288D01*
X228240428Y-84219293D01*
X228316623Y-84351271D01*
X228316638Y-84351295D01*
X228319475Y-84356209D01*
X228319479Y-84356214D01*
X228319480Y-84356216D01*
X228320049Y-84356785D01*
X228431283Y-84468019D01*
X228431976Y-84468519D01*
X228434487Y-84469870D01*
X228435085Y-84470215D01*
X228483572Y-84498209D01*
X228483573Y-84498209D01*
X228568216Y-84547077D01*
X228720943Y-84588000D01*
X228720945Y-84588000D01*
X228879055Y-84588000D01*
X228879057Y-84588000D01*
X229031784Y-84547077D01*
X229168716Y-84468020D01*
X229199817Y-84436918D01*
X229228062Y-84415775D01*
X229251154Y-84403167D01*
X229310579Y-84388000D01*
X229865225Y-84388000D01*
X229865227Y-84388000D01*
X229967088Y-84360707D01*
X230058413Y-84307980D01*
X233072144Y-81294246D01*
X233100392Y-81273103D01*
X233114112Y-81265612D01*
X233182376Y-81250762D01*
X233182378Y-81250762D01*
X233191218Y-81251394D01*
X233244375Y-81267690D01*
X233373216Y-81342076D01*
X233525943Y-81382999D01*
X233525945Y-81382999D01*
X233684055Y-81382999D01*
X233684057Y-81382999D01*
X233836784Y-81342076D01*
X233973716Y-81263019D01*
X234075217Y-81161517D01*
X234103457Y-81140376D01*
X234113391Y-81134952D01*
X234181661Y-81120099D01*
X234247126Y-81144513D01*
X234288999Y-81200445D01*
X234291682Y-81207637D01*
X234299500Y-81250971D01*
X234299500Y-83126462D01*
X234326794Y-83228328D01*
X234352181Y-83272298D01*
X234364569Y-83302204D01*
X234372732Y-83332666D01*
X234376958Y-83364762D01*
X234376958Y-83373670D01*
X234394846Y-83440426D01*
X234412679Y-83506980D01*
X234412679Y-83506982D01*
X234414473Y-83513680D01*
X234414474Y-83513681D01*
X234414475Y-83513683D01*
X234417824Y-83519484D01*
X234485089Y-83635990D01*
X234486947Y-83639208D01*
X234486949Y-83639210D01*
X234589443Y-83741704D01*
X234595406Y-83745146D01*
X234623144Y-83766962D01*
X234627536Y-83771568D01*
X234633929Y-83778274D01*
X234665934Y-83840336D01*
X234666278Y-83842118D01*
X234662636Y-83903382D01*
X234660281Y-83910748D01*
X234649558Y-83934987D01*
X234612017Y-84000009D01*
X234611989Y-84000078D01*
X234611748Y-84001011D01*
X234574500Y-84140025D01*
X234574500Y-84284972D01*
X234574499Y-84284972D01*
X234592264Y-84351271D01*
X234611838Y-84424319D01*
X234612017Y-84424988D01*
X234684488Y-84550511D01*
X234684493Y-84550517D01*
X234707390Y-84573414D01*
X234715202Y-84586372D01*
X234715635Y-84588022D01*
X234717839Y-84590966D01*
X234723259Y-84600892D01*
X234738111Y-84669165D01*
X234713694Y-84734629D01*
X234657761Y-84776501D01*
X234650573Y-84779182D01*
X234607239Y-84787000D01*
X232059771Y-84787000D01*
X231957911Y-84814292D01*
X231957908Y-84814293D01*
X231866597Y-84867013D01*
X231866582Y-84867023D01*
X231483033Y-85250573D01*
X231454782Y-85271722D01*
X231431694Y-85284330D01*
X231372264Y-85299500D01*
X231320943Y-85299500D01*
X231168218Y-85340422D01*
X231168211Y-85340424D01*
X231168210Y-85340425D01*
X231168200Y-85340430D01*
X231031298Y-85419470D01*
X231031294Y-85419472D01*
X231031290Y-85419475D01*
X231031282Y-85419481D01*
X231031278Y-85419484D01*
X231031276Y-85419485D01*
X230919485Y-85531276D01*
X230919484Y-85531278D01*
X230919481Y-85531281D01*
X230919481Y-85531282D01*
X230919475Y-85531290D01*
X230919472Y-85531294D01*
X230919470Y-85531298D01*
X230840430Y-85668200D01*
X230840425Y-85668210D01*
X230840424Y-85668211D01*
X230840422Y-85668218D01*
X230799500Y-85820943D01*
X230799500Y-85979056D01*
X230827010Y-86081724D01*
X230840423Y-86131783D01*
X230840424Y-86131787D01*
X230840425Y-86131788D01*
X230840428Y-86131793D01*
X230916623Y-86263771D01*
X230916638Y-86263795D01*
X230919475Y-86268709D01*
X230919479Y-86268714D01*
X230919480Y-86268716D01*
X230920049Y-86269285D01*
X231031283Y-86380519D01*
X231031976Y-86381019D01*
X231034487Y-86382370D01*
X231129695Y-86437337D01*
X231168216Y-86459577D01*
X231320943Y-86500500D01*
X231320945Y-86500500D01*
X231479055Y-86500500D01*
X231479057Y-86500500D01*
X231631784Y-86459577D01*
X231768716Y-86380520D01*
X231880520Y-86268716D01*
X231959577Y-86131784D01*
X232000500Y-85979057D01*
X232000500Y-85935084D01*
X232005522Y-85900151D01*
X232012934Y-85874906D01*
X232044228Y-85822164D01*
X232229469Y-85636923D01*
X232257719Y-85615775D01*
X232280811Y-85603167D01*
X232340236Y-85588000D01*
X241165225Y-85588000D01*
X241165227Y-85588000D01*
X241267088Y-85560707D01*
X241358413Y-85507980D01*
X242226041Y-84640350D01*
X242251715Y-84620649D01*
X242279028Y-84604880D01*
X242308932Y-84592493D01*
X242410966Y-84565155D01*
X242431781Y-84559578D01*
X242431782Y-84559577D01*
X242431784Y-84559577D01*
X242441699Y-84553853D01*
X242568709Y-84480524D01*
X242568708Y-84480524D01*
X242568716Y-84480520D01*
X242680520Y-84368716D01*
X242759577Y-84231784D01*
X242800500Y-84079057D01*
X242800500Y-83920943D01*
X242759577Y-83768216D01*
X242752362Y-83755718D01*
X242751400Y-83754052D01*
X242751400Y-83754051D01*
X242709656Y-83681749D01*
X242680524Y-83631290D01*
X242680518Y-83631282D01*
X242680514Y-83631278D01*
X242680513Y-83631276D01*
X242568722Y-83519485D01*
X242568720Y-83519484D01*
X242568717Y-83519481D01*
X242568709Y-83519475D01*
X242542147Y-83504140D01*
X242431807Y-83440435D01*
X242431783Y-83440422D01*
X242319979Y-83410464D01*
X242279057Y-83399500D01*
X242279056Y-83399500D01*
X242120943Y-83399500D01*
X241968218Y-83440422D01*
X241968211Y-83440424D01*
X241968210Y-83440425D01*
X241968200Y-83440430D01*
X241831298Y-83519470D01*
X241831294Y-83519472D01*
X241831290Y-83519475D01*
X241831282Y-83519481D01*
X241831278Y-83519484D01*
X241831276Y-83519485D01*
X241719485Y-83631276D01*
X241719484Y-83631278D01*
X241719481Y-83631281D01*
X241719481Y-83631282D01*
X241719475Y-83631290D01*
X241719472Y-83631294D01*
X241719470Y-83631298D01*
X241640430Y-83768200D01*
X241640425Y-83768210D01*
X241640424Y-83768211D01*
X241640422Y-83768218D01*
X241599500Y-83920943D01*
X241599500Y-84064914D01*
X241599499Y-84064916D01*
X241599500Y-84064917D01*
X241594476Y-84099851D01*
X241587064Y-84125092D01*
X241555769Y-84177836D01*
X240995533Y-84738073D01*
X240967282Y-84759222D01*
X240944194Y-84771830D01*
X240884764Y-84787000D01*
X235646216Y-84787000D01*
X235611281Y-84781977D01*
X235600427Y-84778790D01*
X235541649Y-84741016D01*
X235512624Y-84677460D01*
X235513596Y-84670701D01*
X235522564Y-84608311D01*
X235525754Y-84601324D01*
X235550865Y-84565158D01*
X235565509Y-84550515D01*
X235637984Y-84424985D01*
X235675500Y-84284975D01*
X235675500Y-84284969D01*
X235675525Y-84284876D01*
X235679449Y-84266304D01*
X235687935Y-84237404D01*
X235719228Y-84184664D01*
X235903882Y-84000011D01*
X236120480Y-83783413D01*
X236173207Y-83692088D01*
X236200500Y-83590227D01*
X236200500Y-83484773D01*
X236200500Y-82447273D01*
X236173207Y-82345413D01*
X236120480Y-82254087D01*
X236045913Y-82179520D01*
X235549421Y-81683028D01*
X235528274Y-81654777D01*
X235515667Y-81631688D01*
X235500500Y-81572263D01*
X235500500Y-79338162D01*
X235505522Y-79303229D01*
X235508085Y-79294500D01*
X235509433Y-79289910D01*
X235547206Y-79231133D01*
X235610758Y-79202108D01*
X235615955Y-79201361D01*
X235681046Y-79209539D01*
X235737270Y-79232827D01*
X235795749Y-79257050D01*
X235812025Y-79260287D01*
X235841809Y-79266212D01*
X235841829Y-79266215D01*
X235841851Y-79266220D01*
X235936628Y-79285073D01*
X235984016Y-79294500D01*
X236175982Y-79294500D01*
X236175983Y-79294500D01*
X236199046Y-79289912D01*
X236270758Y-79275647D01*
X236364251Y-79257050D01*
X236541599Y-79183591D01*
X236701207Y-79076943D01*
X236836943Y-78941207D01*
X236943591Y-78781599D01*
X237017050Y-78604251D01*
X237039412Y-78491831D01*
X237054500Y-78415982D01*
X237054500Y-78389533D01*
X237640237Y-78389533D01*
X237682944Y-78604226D01*
X237682951Y-78604256D01*
X237756404Y-78781592D01*
X237802592Y-78850716D01*
X237863057Y-78941208D01*
X237863058Y-78941209D01*
X237863063Y-78941215D01*
X237998783Y-79076935D01*
X237998789Y-79076940D01*
X237998793Y-79076943D01*
X238158401Y-79183591D01*
X238158402Y-79183591D01*
X238158403Y-79183592D01*
X238158404Y-79183592D01*
X238158405Y-79183593D01*
X238211951Y-79205772D01*
X238335749Y-79257050D01*
X238352025Y-79260287D01*
X238381809Y-79266212D01*
X238381829Y-79266215D01*
X238381851Y-79266220D01*
X238476628Y-79285073D01*
X238524016Y-79294500D01*
X238715982Y-79294500D01*
X238715983Y-79294500D01*
X238739046Y-79289912D01*
X238810758Y-79275647D01*
X238904251Y-79257050D01*
X239081599Y-79183591D01*
X239241207Y-79076943D01*
X239376943Y-78941207D01*
X239483591Y-78781599D01*
X239557050Y-78604251D01*
X239579412Y-78491831D01*
X239594500Y-78415982D01*
X239594500Y-78227598D01*
X239986000Y-78227598D01*
X239986000Y-78412400D01*
X240011021Y-78570373D01*
X240014907Y-78594908D01*
X240041278Y-78676068D01*
X240072013Y-78770661D01*
X240072017Y-78770671D01*
X240157215Y-78937883D01*
X240160476Y-78951468D01*
X240170730Y-78955716D01*
X240608862Y-78517583D01*
X240670183Y-78484100D01*
X240739874Y-78489084D01*
X240795808Y-78530955D01*
X240803928Y-78543266D01*
X240823916Y-78577886D01*
X240902114Y-78656084D01*
X240936733Y-78676071D01*
X240984947Y-78726636D01*
X240998171Y-78795242D01*
X240972204Y-78860108D01*
X240962413Y-78871138D01*
X240524283Y-79309267D01*
X240524283Y-79309268D01*
X240524283Y-79309269D01*
X240544686Y-79324092D01*
X240709338Y-79407986D01*
X240885091Y-79465092D01*
X241067605Y-79494000D01*
X241252394Y-79494000D01*
X241252395Y-79494000D01*
X241434908Y-79465092D01*
X241610661Y-79407986D01*
X241747700Y-79338162D01*
X241777884Y-79322783D01*
X241791468Y-79319521D01*
X241795716Y-79309267D01*
X241357586Y-78871138D01*
X241324101Y-78809815D01*
X241329085Y-78740124D01*
X241370956Y-78684190D01*
X241383243Y-78676085D01*
X241417886Y-78656084D01*
X241496084Y-78577886D01*
X241516072Y-78543264D01*
X241566634Y-78495053D01*
X241635241Y-78481828D01*
X241700107Y-78507795D01*
X241711138Y-78517586D01*
X242149267Y-78955716D01*
X242149267Y-78955715D01*
X242149268Y-78955716D01*
X242149268Y-78955715D01*
X242159521Y-78951468D01*
X242162783Y-78937882D01*
X242164092Y-78935312D01*
X242164094Y-78935310D01*
X242247986Y-78770661D01*
X242305092Y-78594908D01*
X242334000Y-78412395D01*
X242334000Y-78389533D01*
X242720237Y-78389533D01*
X242762944Y-78604226D01*
X242762951Y-78604256D01*
X242836404Y-78781592D01*
X242882592Y-78850716D01*
X242943057Y-78941208D01*
X242943058Y-78941209D01*
X242943063Y-78941215D01*
X243078783Y-79076935D01*
X243078789Y-79076940D01*
X243078793Y-79076943D01*
X243238401Y-79183591D01*
X243238402Y-79183591D01*
X243238403Y-79183592D01*
X243238404Y-79183592D01*
X243238405Y-79183593D01*
X243291951Y-79205772D01*
X243415749Y-79257050D01*
X243432025Y-79260287D01*
X243461809Y-79266212D01*
X243461829Y-79266215D01*
X243461851Y-79266220D01*
X243556628Y-79285073D01*
X243604016Y-79294500D01*
X243795982Y-79294500D01*
X243795983Y-79294500D01*
X243819046Y-79289912D01*
X243890758Y-79275647D01*
X243984251Y-79257050D01*
X244161599Y-79183591D01*
X244321207Y-79076943D01*
X244456943Y-78941207D01*
X244563591Y-78781599D01*
X244637050Y-78604251D01*
X244659412Y-78491831D01*
X244674500Y-78415982D01*
X244674500Y-78224014D01*
X244651145Y-78106609D01*
X244637051Y-78035755D01*
X244637050Y-78035749D01*
X244580822Y-77900000D01*
X244565271Y-77862456D01*
X244563969Y-77858968D01*
X244563591Y-77858403D01*
X244563591Y-77858401D01*
X244456943Y-77698793D01*
X244456940Y-77698789D01*
X244456935Y-77698783D01*
X244321212Y-77563060D01*
X244321207Y-77563057D01*
X244295995Y-77546211D01*
X244268485Y-77527829D01*
X244161599Y-77456409D01*
X244161596Y-77456407D01*
X244160555Y-77455713D01*
X244155939Y-77454063D01*
X243984256Y-77382951D01*
X243984252Y-77382950D01*
X243984244Y-77382948D01*
X243984238Y-77382946D01*
X243984226Y-77382944D01*
X243795984Y-77345500D01*
X243795982Y-77345500D01*
X243795980Y-77345500D01*
X243604020Y-77345500D01*
X243604018Y-77345500D01*
X243604016Y-77345500D01*
X243415772Y-77382944D01*
X243415742Y-77382951D01*
X243238406Y-77456404D01*
X243235277Y-77458496D01*
X243235275Y-77458497D01*
X243104004Y-77546211D01*
X243078786Y-77563061D01*
X243078783Y-77563063D01*
X242943060Y-77698786D01*
X242843255Y-77848153D01*
X242843209Y-77848223D01*
X242836409Y-77858401D01*
X242836403Y-77858410D01*
X242762951Y-78035742D01*
X242762944Y-78035772D01*
X242725500Y-78224014D01*
X242725500Y-78371613D01*
X242720237Y-78389533D01*
X242334000Y-78389533D01*
X242334000Y-78227607D01*
X242334000Y-78227602D01*
X242333938Y-78226982D01*
X242333611Y-78225158D01*
X242311021Y-78082524D01*
X242305093Y-78045095D01*
X242305092Y-78045094D01*
X242305092Y-78045091D01*
X242247986Y-77869338D01*
X242164092Y-77704686D01*
X242159808Y-77698790D01*
X242149269Y-77684283D01*
X242149268Y-77684283D01*
X241711138Y-78122412D01*
X241649815Y-78155897D01*
X241580123Y-78150913D01*
X241524190Y-78109041D01*
X241516070Y-78096731D01*
X241507868Y-78082525D01*
X241496084Y-78062114D01*
X241417886Y-77983916D01*
X241383266Y-77963928D01*
X241335050Y-77913361D01*
X241321828Y-77844754D01*
X241347796Y-77779889D01*
X241357577Y-77768868D01*
X241795716Y-77330730D01*
X241776033Y-77316430D01*
X241775377Y-77315946D01*
X241775302Y-77315899D01*
X241610671Y-77232017D01*
X241610665Y-77232014D01*
X241610664Y-77232014D01*
X241434908Y-77174907D01*
X241434906Y-77174906D01*
X241434904Y-77174906D01*
X241252400Y-77146000D01*
X241252395Y-77146000D01*
X241067605Y-77146000D01*
X241067600Y-77146000D01*
X240885090Y-77174906D01*
X240709337Y-77232013D01*
X240709330Y-77232016D01*
X240544692Y-77315902D01*
X240544606Y-77315956D01*
X240543936Y-77316451D01*
X240524283Y-77330727D01*
X240524283Y-77330729D01*
X240524283Y-77330730D01*
X240756616Y-77563063D01*
X240962414Y-77768860D01*
X240995899Y-77830183D01*
X240990915Y-77899874D01*
X240949044Y-77955808D01*
X240936734Y-77963927D01*
X240902120Y-77983911D01*
X240902111Y-77983918D01*
X240823918Y-78062111D01*
X240823916Y-78062114D01*
X240803927Y-78096735D01*
X240753358Y-78144949D01*
X240684751Y-78158170D01*
X240619887Y-78132201D01*
X240608860Y-78122413D01*
X240170730Y-77684283D01*
X240170729Y-77684283D01*
X240170728Y-77684283D01*
X240156451Y-77703936D01*
X240155956Y-77704606D01*
X240155902Y-77704692D01*
X240072016Y-77869330D01*
X240072012Y-77869340D01*
X240014906Y-78045094D01*
X239986000Y-78227598D01*
X239594500Y-78227598D01*
X239594500Y-78224014D01*
X239571145Y-78106609D01*
X239557051Y-78035755D01*
X239557050Y-78035749D01*
X239500822Y-77900000D01*
X239485271Y-77862456D01*
X239483969Y-77858968D01*
X239483591Y-77858403D01*
X239483591Y-77858401D01*
X239376943Y-77698793D01*
X239376940Y-77698789D01*
X239376935Y-77698783D01*
X239241215Y-77563063D01*
X239241209Y-77563058D01*
X239241208Y-77563057D01*
X239118536Y-77481090D01*
X239091228Y-77462843D01*
X239090809Y-77462563D01*
X239081599Y-77456409D01*
X239081596Y-77456407D01*
X239081595Y-77456407D01*
X239081594Y-77456406D01*
X239081593Y-77456405D01*
X239081546Y-77456374D01*
X239081486Y-77456333D01*
X239081265Y-77456185D01*
X239081265Y-77456186D01*
X239080560Y-77455715D01*
X239075939Y-77454063D01*
X238904256Y-77382951D01*
X238904252Y-77382950D01*
X238904244Y-77382948D01*
X238904238Y-77382946D01*
X238904226Y-77382944D01*
X238715984Y-77345500D01*
X238715982Y-77345500D01*
X238715980Y-77345500D01*
X238524020Y-77345500D01*
X238524018Y-77345500D01*
X238524016Y-77345500D01*
X238335772Y-77382944D01*
X238335742Y-77382951D01*
X238158406Y-77456404D01*
X238155277Y-77458496D01*
X238155275Y-77458497D01*
X238024004Y-77546211D01*
X237998786Y-77563061D01*
X237998783Y-77563063D01*
X237863060Y-77698786D01*
X237763255Y-77848153D01*
X237763209Y-77848223D01*
X237756409Y-77858401D01*
X237756403Y-77858410D01*
X237682951Y-78035742D01*
X237682944Y-78035772D01*
X237645500Y-78224014D01*
X237645500Y-78371613D01*
X237640237Y-78389533D01*
X237054500Y-78389533D01*
X237054500Y-78224014D01*
X237031145Y-78106609D01*
X237017051Y-78035755D01*
X237017050Y-78035749D01*
X236960822Y-77900000D01*
X236945271Y-77862456D01*
X236943969Y-77858968D01*
X236943591Y-77858403D01*
X236943591Y-77858401D01*
X236836943Y-77698793D01*
X236836940Y-77698789D01*
X236836935Y-77698783D01*
X236701215Y-77563063D01*
X236701209Y-77563058D01*
X236701208Y-77563057D01*
X236578536Y-77481090D01*
X236557572Y-77467082D01*
X236557570Y-77467080D01*
X236539526Y-77452398D01*
X236520629Y-77433817D01*
X236487550Y-77376570D01*
X236484482Y-77364757D01*
X236480500Y-77333587D01*
X236480500Y-68837275D01*
X236480500Y-68837273D01*
X236453207Y-68735413D01*
X236453207Y-68735412D01*
X236400480Y-68644087D01*
X232749421Y-64993028D01*
X232728274Y-64964777D01*
X232715667Y-64941688D01*
X232700500Y-64882263D01*
X232700500Y-63935842D01*
X232705521Y-63900915D01*
X232708707Y-63890062D01*
X232746477Y-63831281D01*
X232810031Y-63802252D01*
X232879186Y-63812190D01*
X232886320Y-63815448D01*
X232916047Y-63834563D01*
X232918784Y-63836937D01*
X232918790Y-63836941D01*
X232918793Y-63836943D01*
X233078401Y-63943591D01*
X233078404Y-63943592D01*
X233078405Y-63943593D01*
X233081246Y-63944770D01*
X233081520Y-63944921D01*
X233082453Y-63945270D01*
X233119842Y-63960756D01*
X233194649Y-63991742D01*
X233255749Y-64017050D01*
X233255751Y-64017050D01*
X233255753Y-64017051D01*
X233301809Y-64026212D01*
X233301829Y-64026215D01*
X233301851Y-64026220D01*
X233374518Y-64040675D01*
X233444016Y-64054500D01*
X233635982Y-64054500D01*
X233635983Y-64054500D01*
X233649521Y-64051806D01*
X233730758Y-64035647D01*
X233824251Y-64017050D01*
X234001599Y-63943591D01*
X234161207Y-63836943D01*
X234296943Y-63701207D01*
X234403591Y-63541599D01*
X234477050Y-63364251D01*
X234495647Y-63270758D01*
X234514500Y-63175982D01*
X234514500Y-63149533D01*
X235100237Y-63149533D01*
X235142944Y-63364226D01*
X235142951Y-63364256D01*
X235216404Y-63541592D01*
X235285368Y-63644802D01*
X235323060Y-63701212D01*
X235458783Y-63836935D01*
X235458789Y-63836940D01*
X235458793Y-63836943D01*
X235618401Y-63943591D01*
X235618404Y-63943592D01*
X235618405Y-63943593D01*
X235621246Y-63944770D01*
X235621520Y-63944921D01*
X235622453Y-63945270D01*
X235659842Y-63960756D01*
X235734649Y-63991742D01*
X235795749Y-64017050D01*
X235795751Y-64017050D01*
X235795753Y-64017051D01*
X235841809Y-64026212D01*
X235841829Y-64026215D01*
X235841851Y-64026220D01*
X235914518Y-64040675D01*
X235984016Y-64054500D01*
X236175982Y-64054500D01*
X236175983Y-64054500D01*
X236189521Y-64051806D01*
X236270758Y-64035647D01*
X236364251Y-64017050D01*
X236541599Y-63943591D01*
X236701207Y-63836943D01*
X236836943Y-63701207D01*
X236943591Y-63541599D01*
X237017050Y-63364251D01*
X237035647Y-63270758D01*
X237054500Y-63175982D01*
X237054500Y-62984014D01*
X237017430Y-62797661D01*
X237017133Y-62796038D01*
X237017050Y-62795749D01*
X236943593Y-62618405D01*
X236943592Y-62618404D01*
X236943591Y-62618401D01*
X236836943Y-62458793D01*
X236836940Y-62458789D01*
X236836939Y-62458788D01*
X236836935Y-62458783D01*
X236701212Y-62323060D01*
X236701207Y-62323057D01*
X236701204Y-62323055D01*
X236648485Y-62287829D01*
X236541599Y-62216409D01*
X236541596Y-62216407D01*
X236540555Y-62215713D01*
X236535939Y-62214063D01*
X236364256Y-62142951D01*
X236364252Y-62142950D01*
X236364244Y-62142948D01*
X236364238Y-62142946D01*
X236364226Y-62142944D01*
X236175984Y-62105500D01*
X236175982Y-62105500D01*
X236175980Y-62105500D01*
X235984020Y-62105500D01*
X235984018Y-62105500D01*
X235984016Y-62105500D01*
X235795772Y-62142944D01*
X235795742Y-62142951D01*
X235618410Y-62216403D01*
X235618406Y-62216405D01*
X235618405Y-62216406D01*
X235618404Y-62216407D01*
X235458795Y-62323055D01*
X235458786Y-62323061D01*
X235458783Y-62323063D01*
X235323060Y-62458786D01*
X235223255Y-62608153D01*
X235223209Y-62608223D01*
X235216409Y-62618401D01*
X235216403Y-62618410D01*
X235142951Y-62795742D01*
X235142944Y-62795772D01*
X235105500Y-62984014D01*
X235105500Y-63131613D01*
X235100237Y-63149533D01*
X234514500Y-63149533D01*
X234514500Y-62984014D01*
X234477430Y-62797661D01*
X234477133Y-62796038D01*
X234477050Y-62795749D01*
X234403593Y-62618405D01*
X234403592Y-62618404D01*
X234403591Y-62618401D01*
X234296943Y-62458793D01*
X234296940Y-62458789D01*
X234296939Y-62458788D01*
X234296935Y-62458783D01*
X234161212Y-62323060D01*
X234161207Y-62323057D01*
X234161204Y-62323055D01*
X234108485Y-62287829D01*
X234001599Y-62216409D01*
X234001596Y-62216407D01*
X234000555Y-62215713D01*
X233995939Y-62214063D01*
X233824256Y-62142951D01*
X233824252Y-62142950D01*
X233824244Y-62142948D01*
X233824238Y-62142946D01*
X233824226Y-62142944D01*
X233635984Y-62105500D01*
X233635982Y-62105500D01*
X233635980Y-62105500D01*
X233444020Y-62105500D01*
X233444018Y-62105500D01*
X233444016Y-62105500D01*
X233255772Y-62142944D01*
X233255742Y-62142951D01*
X233078410Y-62216403D01*
X233078406Y-62216405D01*
X233078405Y-62216406D01*
X233078404Y-62216407D01*
X233069342Y-62222462D01*
X232918793Y-62323054D01*
X232918790Y-62323057D01*
X232789695Y-62452153D01*
X232781522Y-62459627D01*
X232759399Y-62478112D01*
X232695332Y-62505992D01*
X232626365Y-62494809D01*
X232616426Y-62490053D01*
X232582276Y-62465884D01*
X227896723Y-57780331D01*
X227875578Y-57752087D01*
X227872650Y-57746726D01*
X227868859Y-57729309D01*
X227860313Y-57713663D01*
X227861582Y-57695877D01*
X227857791Y-57678455D01*
X227864019Y-57661750D01*
X227865289Y-57643971D01*
X227875971Y-57629696D01*
X227882202Y-57612988D01*
X227896473Y-57602302D01*
X227907153Y-57588032D01*
X227923855Y-57581799D01*
X227938131Y-57571111D01*
X227955914Y-57569837D01*
X227972614Y-57563606D01*
X228007815Y-57566118D01*
X228012433Y-57567123D01*
X228018802Y-57569588D01*
X228018966Y-57568977D01*
X228024971Y-57570585D01*
X228024992Y-57570591D01*
X228034749Y-57573205D01*
X228034750Y-57573206D01*
X228034751Y-57573206D01*
X228034752Y-57573207D01*
X228136612Y-57600501D01*
X228136613Y-57600501D01*
X228249662Y-57600501D01*
X228251566Y-57600501D01*
X228251629Y-57600500D01*
X228864915Y-57600500D01*
X228899847Y-57605521D01*
X228925091Y-57612934D01*
X228977837Y-57644230D01*
X231759519Y-60425912D01*
X231759520Y-60425913D01*
X231834087Y-60500480D01*
X231925413Y-60553207D01*
X232027273Y-60580500D01*
X232132727Y-60580500D01*
X236694915Y-60580500D01*
X236729847Y-60585521D01*
X236755091Y-60592934D01*
X236807837Y-60624230D01*
X238170572Y-61986965D01*
X238191723Y-62015218D01*
X238197886Y-62026506D01*
X238198812Y-62027946D01*
X238198814Y-62027948D01*
X238198814Y-62027949D01*
X238198823Y-62027963D01*
X238198893Y-62028201D01*
X238199006Y-62028392D01*
X238198957Y-62028420D01*
X238206827Y-62055232D01*
X238218502Y-62094986D01*
X238218500Y-62094998D01*
X238218502Y-62095004D01*
X238213481Y-62129921D01*
X238209480Y-62143550D01*
X238174614Y-62199732D01*
X238158844Y-62214291D01*
X238143625Y-62226281D01*
X238127602Y-62236988D01*
X238127599Y-62236990D01*
X237998791Y-62323057D01*
X237998786Y-62323060D01*
X237863060Y-62458786D01*
X237763255Y-62608153D01*
X237763209Y-62608223D01*
X237756409Y-62618401D01*
X237756403Y-62618410D01*
X237682951Y-62795742D01*
X237682944Y-62795772D01*
X237645500Y-62984014D01*
X237645500Y-63131613D01*
X237640237Y-63149533D01*
X237682944Y-63364226D01*
X237682951Y-63364256D01*
X237756404Y-63541592D01*
X237825368Y-63644802D01*
X237863060Y-63701212D01*
X237998783Y-63836935D01*
X237998789Y-63836940D01*
X237998793Y-63836943D01*
X238158401Y-63943591D01*
X238158404Y-63943592D01*
X238158405Y-63943593D01*
X238161246Y-63944770D01*
X238161520Y-63944921D01*
X238162453Y-63945270D01*
X238199842Y-63960756D01*
X238274649Y-63991742D01*
X238335749Y-64017050D01*
X238335751Y-64017050D01*
X238335753Y-64017051D01*
X238381809Y-64026212D01*
X238381829Y-64026215D01*
X238381851Y-64026220D01*
X238454518Y-64040675D01*
X238524016Y-64054500D01*
X238715982Y-64054500D01*
X238715983Y-64054500D01*
X238729521Y-64051806D01*
X238810758Y-64035647D01*
X238904251Y-64017050D01*
X239081599Y-63943591D01*
X239241207Y-63836943D01*
X239376943Y-63701207D01*
X239483591Y-63541599D01*
X239557050Y-63364251D01*
X239575647Y-63270758D01*
X239594500Y-63175982D01*
X239594500Y-62984014D01*
X239557430Y-62797661D01*
X239557133Y-62796038D01*
X239557050Y-62795749D01*
X239483593Y-62618405D01*
X239483592Y-62618404D01*
X239483591Y-62618401D01*
X239376943Y-62458793D01*
X239376940Y-62458789D01*
X239376939Y-62458788D01*
X239376935Y-62458783D01*
X239241215Y-62323063D01*
X239241209Y-62323058D01*
X239241208Y-62323057D01*
X239163066Y-62270844D01*
X239163066Y-62270843D01*
X239097575Y-62227084D01*
X239079524Y-62212397D01*
X239077972Y-62210871D01*
X239077973Y-62210871D01*
X239060627Y-62193815D01*
X239027550Y-62136570D01*
X239024482Y-62124757D01*
X239020500Y-62093587D01*
X239020500Y-61817277D01*
X239020500Y-61817276D01*
X239020499Y-61817269D01*
X239009063Y-61774588D01*
X238993207Y-61715412D01*
X238940480Y-61624087D01*
X237175913Y-59859520D01*
X237165119Y-59853288D01*
X237130250Y-59833155D01*
X237130250Y-59833156D01*
X237084589Y-59806793D01*
X237033657Y-59793146D01*
X237033656Y-59793145D01*
X236982730Y-59779500D01*
X236982727Y-59779500D01*
X236982726Y-59779500D01*
X232315085Y-59779500D01*
X232315084Y-59779499D01*
X232315084Y-59779500D01*
X232280149Y-59774477D01*
X232254907Y-59767065D01*
X232202162Y-59735769D01*
X231751181Y-59284788D01*
X231730032Y-59256538D01*
X231724610Y-59246608D01*
X231709757Y-59178338D01*
X231734171Y-59112873D01*
X231790101Y-59071001D01*
X231793980Y-59069554D01*
X231797316Y-59068311D01*
X231840630Y-59060500D01*
X237714915Y-59060500D01*
X237749847Y-59065521D01*
X237775091Y-59072934D01*
X237827837Y-59104230D01*
X240710572Y-61986964D01*
X240731723Y-62015217D01*
X240737884Y-62026501D01*
X240738819Y-62027955D01*
X240738889Y-62028194D01*
X240739006Y-62028391D01*
X240738955Y-62028420D01*
X240758500Y-62094986D01*
X240758503Y-62094995D01*
X240754484Y-62122947D01*
X240753480Y-62129929D01*
X240749478Y-62143558D01*
X240714614Y-62199732D01*
X240698844Y-62214291D01*
X240683625Y-62226281D01*
X240667602Y-62236988D01*
X240667599Y-62236990D01*
X240538791Y-62323057D01*
X240538786Y-62323060D01*
X240403060Y-62458786D01*
X240303255Y-62608153D01*
X240303209Y-62608223D01*
X240296409Y-62618401D01*
X240296403Y-62618410D01*
X240222951Y-62795742D01*
X240222944Y-62795772D01*
X240185500Y-62984014D01*
X240185500Y-63131613D01*
X240180237Y-63149533D01*
X240222944Y-63364226D01*
X240222951Y-63364256D01*
X240296404Y-63541592D01*
X240365368Y-63644802D01*
X240403060Y-63701212D01*
X240538783Y-63836935D01*
X240538789Y-63836940D01*
X240538793Y-63836943D01*
X240698401Y-63943591D01*
X240698404Y-63943592D01*
X240698405Y-63943593D01*
X240701246Y-63944770D01*
X240701520Y-63944921D01*
X240702453Y-63945270D01*
X240739842Y-63960756D01*
X240814649Y-63991742D01*
X240875749Y-64017050D01*
X240875751Y-64017050D01*
X240875753Y-64017051D01*
X240921809Y-64026212D01*
X240921829Y-64026215D01*
X240921851Y-64026220D01*
X240994518Y-64040675D01*
X241064016Y-64054500D01*
X241255982Y-64054500D01*
X241255983Y-64054500D01*
X241269521Y-64051806D01*
X241350758Y-64035647D01*
X241444251Y-64017050D01*
X241621599Y-63943591D01*
X241781207Y-63836943D01*
X241916943Y-63701207D01*
X242023591Y-63541599D01*
X242097050Y-63364251D01*
X242115647Y-63270758D01*
X242134500Y-63175982D01*
X242134500Y-62984014D01*
X242097430Y-62797661D01*
X242097133Y-62796038D01*
X242097050Y-62795749D01*
X242023593Y-62618405D01*
X242023592Y-62618404D01*
X242023591Y-62618401D01*
X241916943Y-62458793D01*
X241916940Y-62458789D01*
X241916939Y-62458788D01*
X241916935Y-62458783D01*
X241781215Y-62323063D01*
X241781209Y-62323058D01*
X241781208Y-62323057D01*
X241703068Y-62270845D01*
X241703066Y-62270844D01*
X241637574Y-62227083D01*
X241619540Y-62212411D01*
X241608300Y-62201362D01*
X241608493Y-62201164D01*
X241593642Y-62187453D01*
X241588891Y-62181607D01*
X241571542Y-62153162D01*
X241571227Y-62152443D01*
X241562063Y-62120300D01*
X241561758Y-62118175D01*
X241560500Y-62100558D01*
X241560500Y-61935121D01*
X241560501Y-61935070D01*
X241560501Y-61817274D01*
X241558795Y-61810910D01*
X241558791Y-61810895D01*
X241539441Y-61738675D01*
X241537431Y-61731175D01*
X241537009Y-61727971D01*
X241533788Y-61717333D01*
X241533140Y-61715061D01*
X241531206Y-61711947D01*
X241525044Y-61701274D01*
X241525043Y-61701273D01*
X241524019Y-61699500D01*
X241513764Y-61681737D01*
X241513763Y-61681736D01*
X241509699Y-61674696D01*
X241509703Y-61674693D01*
X241509678Y-61674660D01*
X241508562Y-61672727D01*
X241480480Y-61624087D01*
X241405913Y-61549520D01*
X241405912Y-61549519D01*
X241401582Y-61545189D01*
X241401571Y-61545179D01*
X238195915Y-58339522D01*
X238195914Y-58339521D01*
X238195913Y-58339520D01*
X238185119Y-58333288D01*
X238150250Y-58313155D01*
X238150250Y-58313156D01*
X238104589Y-58286793D01*
X238053657Y-58273146D01*
X238053656Y-58273145D01*
X238002730Y-58259500D01*
X238002727Y-58259500D01*
X238002726Y-58259500D01*
X231675085Y-58259500D01*
X231675084Y-58259499D01*
X231675084Y-58259500D01*
X231640149Y-58254477D01*
X231614907Y-58247065D01*
X231562162Y-58215769D01*
X230094227Y-56747834D01*
X230073075Y-56719578D01*
X230065583Y-56705857D01*
X230050731Y-56637601D01*
X230051255Y-56630272D01*
X230071836Y-56570218D01*
X230115084Y-56505495D01*
X230171658Y-56368913D01*
X230177324Y-56340425D01*
X230181096Y-56321465D01*
X230181096Y-56321462D01*
X230200500Y-56223920D01*
X230200500Y-55576079D01*
X230200500Y-55576076D01*
X230171419Y-55429885D01*
X230169332Y-55425472D01*
X230149121Y-55376677D01*
X230141558Y-55358419D01*
X230132833Y-55324235D01*
X230131348Y-55310430D01*
X230134515Y-55292875D01*
X230132611Y-55275134D01*
X230140588Y-55259205D01*
X230143750Y-55241675D01*
X230155907Y-55228615D01*
X230163898Y-55212660D01*
X230191338Y-55190555D01*
X230191357Y-55190535D01*
X230193695Y-55189148D01*
X230195890Y-55187847D01*
X230259144Y-55170500D01*
X231284915Y-55170500D01*
X231319847Y-55175521D01*
X231345091Y-55182934D01*
X231397837Y-55214230D01*
X232258818Y-56075211D01*
X232273000Y-56094155D01*
X232279967Y-56103461D01*
X232285388Y-56113388D01*
X232300242Y-56181661D01*
X232275828Y-56247126D01*
X232219896Y-56288999D01*
X232219892Y-56289001D01*
X232212704Y-56291682D01*
X232169370Y-56299500D01*
X232020943Y-56299500D01*
X231868218Y-56340422D01*
X231868211Y-56340424D01*
X231868210Y-56340425D01*
X231868200Y-56340430D01*
X231731298Y-56419470D01*
X231731294Y-56419472D01*
X231731290Y-56419475D01*
X231731282Y-56419481D01*
X231731278Y-56419484D01*
X231731276Y-56419485D01*
X231619485Y-56531276D01*
X231619484Y-56531278D01*
X231619481Y-56531281D01*
X231619481Y-56531282D01*
X231619475Y-56531290D01*
X231619472Y-56531294D01*
X231619470Y-56531298D01*
X231540430Y-56668200D01*
X231540425Y-56668210D01*
X231540424Y-56668211D01*
X231540422Y-56668218D01*
X231499500Y-56820943D01*
X231499500Y-56979054D01*
X231499499Y-56979054D01*
X231528630Y-57087772D01*
X231528631Y-57087775D01*
X231531907Y-57099999D01*
X231540423Y-57131783D01*
X231540426Y-57131790D01*
X231619425Y-57268622D01*
X231619464Y-57268700D01*
X231731283Y-57380519D01*
X231731976Y-57381019D01*
X231734487Y-57382370D01*
X231844544Y-57445910D01*
X231868216Y-57459577D01*
X232020943Y-57500500D01*
X232020945Y-57500500D01*
X232179055Y-57500500D01*
X232179057Y-57500500D01*
X232331784Y-57459577D01*
X232468716Y-57380520D01*
X232580520Y-57268716D01*
X232659577Y-57131784D01*
X232700500Y-56979057D01*
X232700500Y-56834084D01*
X232705521Y-56799157D01*
X232708707Y-56788304D01*
X232746477Y-56729523D01*
X232810031Y-56700494D01*
X232879186Y-56710432D01*
X232886172Y-56713622D01*
X232922342Y-56738735D01*
X234064087Y-57880480D01*
X234155412Y-57933207D01*
X234257273Y-57960500D01*
X239404915Y-57960500D01*
X239439847Y-57965521D01*
X239465091Y-57972934D01*
X239517837Y-58004230D01*
X243250573Y-61736966D01*
X243271723Y-61765218D01*
X243284331Y-61788307D01*
X243299500Y-61847736D01*
X243299500Y-62091598D01*
X243299499Y-62091599D01*
X243299500Y-62091600D01*
X243294477Y-62126533D01*
X243289481Y-62143550D01*
X243289478Y-62143559D01*
X243254614Y-62199732D01*
X243238844Y-62214291D01*
X243223625Y-62226281D01*
X243207602Y-62236988D01*
X243207599Y-62236990D01*
X243078791Y-62323057D01*
X243078786Y-62323060D01*
X242943060Y-62458786D01*
X242843255Y-62608153D01*
X242843209Y-62608223D01*
X242836409Y-62618401D01*
X242836403Y-62618410D01*
X242762951Y-62795742D01*
X242762944Y-62795772D01*
X242725500Y-62984014D01*
X242725500Y-63131613D01*
X242720237Y-63149533D01*
X242762944Y-63364226D01*
X242762951Y-63364256D01*
X242836404Y-63541592D01*
X242905368Y-63644802D01*
X242943060Y-63701212D01*
X243078783Y-63836935D01*
X243078789Y-63836940D01*
X243078793Y-63836943D01*
X243238401Y-63943591D01*
X243238404Y-63943592D01*
X243238405Y-63943593D01*
X243241246Y-63944770D01*
X243241520Y-63944921D01*
X243242453Y-63945270D01*
X243279842Y-63960756D01*
X243354649Y-63991742D01*
X243415749Y-64017050D01*
X243415751Y-64017050D01*
X243415753Y-64017051D01*
X243461809Y-64026212D01*
X243461829Y-64026215D01*
X243461851Y-64026220D01*
X243534518Y-64040675D01*
X243604016Y-64054500D01*
X243795982Y-64054500D01*
X243795983Y-64054500D01*
X243809521Y-64051806D01*
X243890758Y-64035647D01*
X243984251Y-64017050D01*
X244161599Y-63943591D01*
X244321207Y-63836943D01*
X244456943Y-63701207D01*
X244563591Y-63541599D01*
X244637050Y-63364251D01*
X244655647Y-63270758D01*
X244674500Y-63175982D01*
X244674500Y-62984014D01*
X244637430Y-62797661D01*
X244637133Y-62796038D01*
X244637050Y-62795749D01*
X244563593Y-62618405D01*
X244563592Y-62618404D01*
X244563591Y-62618401D01*
X244456943Y-62458793D01*
X244456940Y-62458789D01*
X244456939Y-62458788D01*
X244456935Y-62458783D01*
X244321215Y-62323063D01*
X244321209Y-62323058D01*
X244321208Y-62323057D01*
X244243066Y-62270844D01*
X244243066Y-62270843D01*
X244177575Y-62227084D01*
X244159524Y-62212397D01*
X244157972Y-62210871D01*
X244157973Y-62210871D01*
X244140627Y-62193815D01*
X244107550Y-62136570D01*
X244104482Y-62124757D01*
X244100500Y-62093587D01*
X244100500Y-61567275D01*
X244100500Y-61567273D01*
X244073207Y-61465413D01*
X244073207Y-61465412D01*
X244020480Y-61374087D01*
X239885913Y-57239520D01*
X239875119Y-57233288D01*
X239840250Y-57213155D01*
X239840250Y-57213156D01*
X239794589Y-57186793D01*
X239743657Y-57173146D01*
X239743656Y-57173145D01*
X239692730Y-57159500D01*
X239692727Y-57159500D01*
X239692726Y-57159500D01*
X234545085Y-57159500D01*
X234545084Y-57159499D01*
X234545084Y-57159500D01*
X234510149Y-57154477D01*
X234484907Y-57147065D01*
X234432162Y-57115769D01*
X233455447Y-56139054D01*
X238849499Y-56139054D01*
X238849500Y-56139056D01*
X238849500Y-56139057D01*
X238885864Y-56274767D01*
X238890423Y-56291783D01*
X238890426Y-56291790D01*
X238968957Y-56427811D01*
X238969348Y-56428562D01*
X238969398Y-56428634D01*
X239081283Y-56540519D01*
X239081976Y-56541019D01*
X239084487Y-56542370D01*
X239087160Y-56543913D01*
X239191602Y-56604212D01*
X239191604Y-56604212D01*
X239218216Y-56619577D01*
X239370943Y-56660500D01*
X239370945Y-56660500D01*
X239529055Y-56660500D01*
X239529057Y-56660500D01*
X239681784Y-56619577D01*
X239818716Y-56540520D01*
X239930520Y-56428716D01*
X240009577Y-56291784D01*
X240050500Y-56139057D01*
X240050500Y-55980943D01*
X240009577Y-55828216D01*
X239984167Y-55784204D01*
X239984167Y-55784203D01*
X239948536Y-55722489D01*
X239930524Y-55691290D01*
X239930518Y-55691282D01*
X239930514Y-55691278D01*
X239930513Y-55691276D01*
X239818722Y-55579485D01*
X239818720Y-55579484D01*
X239818717Y-55579481D01*
X239818709Y-55579475D01*
X239788169Y-55561843D01*
X239681807Y-55500435D01*
X239681783Y-55500422D01*
X239569979Y-55470464D01*
X239529057Y-55459500D01*
X239529056Y-55459500D01*
X239370943Y-55459500D01*
X239218218Y-55500422D01*
X239218211Y-55500424D01*
X239218210Y-55500425D01*
X239218200Y-55500430D01*
X239081298Y-55579470D01*
X239081294Y-55579472D01*
X239081290Y-55579475D01*
X239081282Y-55579481D01*
X239081278Y-55579484D01*
X239081276Y-55579485D01*
X238969485Y-55691276D01*
X238969484Y-55691278D01*
X238969481Y-55691281D01*
X238969481Y-55691282D01*
X238969475Y-55691290D01*
X238969472Y-55691294D01*
X238969470Y-55691298D01*
X238890430Y-55828200D01*
X238890425Y-55828210D01*
X238890424Y-55828211D01*
X238890422Y-55828218D01*
X238849500Y-55980943D01*
X238849500Y-56139054D01*
X238849499Y-56139054D01*
X233455447Y-56139054D01*
X231765915Y-54449522D01*
X231765913Y-54449520D01*
X231755119Y-54443288D01*
X231720250Y-54423155D01*
X231720250Y-54423156D01*
X231674589Y-54396793D01*
X231623657Y-54383146D01*
X231623656Y-54383145D01*
X231572730Y-54369500D01*
X231572727Y-54369500D01*
X229132726Y-54369500D01*
X229027272Y-54369500D01*
X229027270Y-54369500D01*
X228925410Y-54396792D01*
X228925407Y-54396793D01*
X228834096Y-54449513D01*
X228834082Y-54449522D01*
X228834077Y-54449526D01*
X228425299Y-54858303D01*
X228425298Y-54858306D01*
X228397043Y-54879457D01*
X228378627Y-54889513D01*
X228320307Y-54904676D01*
X228313588Y-54904736D01*
X228288292Y-54902359D01*
X228273917Y-54899500D01*
X228126081Y-54899500D01*
X228126079Y-54899500D01*
X228126077Y-54899500D01*
X227981095Y-54928338D01*
X227981078Y-54928344D01*
X227844516Y-54984908D01*
X227844507Y-54984913D01*
X227844490Y-54984923D01*
X227721582Y-55067047D01*
X227675288Y-55113341D01*
X227675287Y-55113344D01*
X227647032Y-55134495D01*
X227633313Y-55141986D01*
X227565057Y-55156838D01*
X227565040Y-55156836D01*
X227565040Y-55156837D01*
X227565039Y-55156836D01*
X227563250Y-55156709D01*
X227505037Y-55137337D01*
X227498527Y-55133153D01*
X227477888Y-55116520D01*
X227428423Y-55067054D01*
X227428418Y-55067050D01*
X227428417Y-55067049D01*
X227305507Y-54984923D01*
X227305506Y-54984922D01*
X227305501Y-54984919D01*
X227305488Y-54984912D01*
X227305481Y-54984908D01*
X227168919Y-54928344D01*
X227168920Y-54928344D01*
X227168917Y-54928343D01*
X227168907Y-54928340D01*
X227168905Y-54928339D01*
X227168900Y-54928338D01*
X227023922Y-54899500D01*
X227023920Y-54899500D01*
X227023918Y-54899500D01*
X226876082Y-54899500D01*
X226876080Y-54899500D01*
X226876078Y-54899500D01*
X226731096Y-54928338D01*
X226731079Y-54928344D01*
X226594517Y-54984908D01*
X226594508Y-54984913D01*
X226594491Y-54984923D01*
X226471583Y-55067047D01*
X226425288Y-55113342D01*
X226425287Y-55113345D01*
X226397032Y-55134496D01*
X226383313Y-55141987D01*
X226315057Y-55156839D01*
X226315040Y-55156837D01*
X226315040Y-55156838D01*
X226315039Y-55156837D01*
X226313250Y-55156710D01*
X226255037Y-55137338D01*
X226248527Y-55133154D01*
X226227888Y-55116521D01*
X226178422Y-55067054D01*
X226178417Y-55067050D01*
X226178416Y-55067049D01*
X226055506Y-54984923D01*
X226055505Y-54984922D01*
X226055500Y-54984919D01*
X226055487Y-54984912D01*
X226055480Y-54984908D01*
X225918918Y-54928344D01*
X225918919Y-54928344D01*
X225918916Y-54928343D01*
X225918906Y-54928340D01*
X225918904Y-54928339D01*
X225918899Y-54928338D01*
X225773921Y-54899500D01*
X225773919Y-54899500D01*
X225773917Y-54899500D01*
X225626081Y-54899500D01*
X225626079Y-54899500D01*
X225626077Y-54899500D01*
X225481095Y-54928338D01*
X225481078Y-54928344D01*
X225344516Y-54984908D01*
X225344507Y-54984913D01*
X225344490Y-54984923D01*
X225221582Y-55067047D01*
X225175288Y-55113341D01*
X225175287Y-55113344D01*
X225147032Y-55134495D01*
X225133313Y-55141986D01*
X225065057Y-55156838D01*
X225065040Y-55156836D01*
X225065040Y-55156837D01*
X225065039Y-55156836D01*
X225063250Y-55156709D01*
X225005037Y-55137337D01*
X224998527Y-55133153D01*
X224977888Y-55116520D01*
X224928423Y-55067054D01*
X224928418Y-55067050D01*
X224928417Y-55067049D01*
X224805507Y-54984923D01*
X224805506Y-54984922D01*
X224805501Y-54984919D01*
X224805488Y-54984912D01*
X224805481Y-54984908D01*
X224668919Y-54928344D01*
X224668920Y-54928344D01*
X224668917Y-54928343D01*
X224668907Y-54928340D01*
X224668905Y-54928339D01*
X224668900Y-54928338D01*
X224523922Y-54899500D01*
X224523920Y-54899500D01*
X224523918Y-54899500D01*
X224376082Y-54899500D01*
X224376080Y-54899500D01*
X224376078Y-54899500D01*
X224231096Y-54928338D01*
X224231079Y-54928344D01*
X224094517Y-54984908D01*
X224094508Y-54984913D01*
X224094491Y-54984923D01*
X223971583Y-55067047D01*
X223925288Y-55113342D01*
X223925287Y-55113345D01*
X223897032Y-55134496D01*
X223883313Y-55141987D01*
X223815057Y-55156839D01*
X223815040Y-55156837D01*
X223815040Y-55156838D01*
X223815039Y-55156837D01*
X223813250Y-55156710D01*
X223755037Y-55137338D01*
X223748527Y-55133154D01*
X223727888Y-55116521D01*
X223678422Y-55067054D01*
X223678417Y-55067050D01*
X223678416Y-55067049D01*
X223555506Y-54984923D01*
X223555505Y-54984922D01*
X223555500Y-54984919D01*
X223555487Y-54984912D01*
X223555480Y-54984908D01*
X223418918Y-54928344D01*
X223418919Y-54928344D01*
X223418916Y-54928343D01*
X223418906Y-54928340D01*
X223418904Y-54928339D01*
X223418899Y-54928338D01*
X223273921Y-54899500D01*
X223273919Y-54899500D01*
X223273917Y-54899500D01*
X223126081Y-54899500D01*
X223126079Y-54899500D01*
X223126076Y-54899500D01*
X222981096Y-54928338D01*
X222981089Y-54928340D01*
X222981075Y-54928346D01*
X222877921Y-54971072D01*
X222843725Y-54979799D01*
X222828183Y-54981470D01*
X222759424Y-54969065D01*
X222747243Y-54962967D01*
X222715074Y-54939769D01*
X222627732Y-54852427D01*
X222627728Y-54852424D01*
X222627725Y-54852422D01*
X222627712Y-54852413D01*
X222519990Y-54785969D01*
X222483492Y-54763457D01*
X222483490Y-54763456D01*
X222483476Y-54763449D01*
X222322604Y-54710143D01*
X222223327Y-54700000D01*
X222223322Y-54700000D01*
X222200000Y-54700000D01*
X222200000Y-55494804D01*
X222180315Y-55561843D01*
X222127511Y-55607598D01*
X222058353Y-55617542D01*
X222043908Y-55614579D01*
X221989497Y-55600000D01*
X221989496Y-55600000D01*
X221910504Y-55600000D01*
X221910502Y-55600000D01*
X221856092Y-55614579D01*
X221786242Y-55612916D01*
X221728380Y-55573752D01*
X221700877Y-55509524D01*
X221700000Y-55494804D01*
X221700000Y-54699999D01*
X221676705Y-54699999D01*
X221676686Y-54700000D01*
X221676685Y-54700000D01*
X221676661Y-54700002D01*
X221577394Y-54710143D01*
X221577393Y-54710143D01*
X221416522Y-54763449D01*
X221416508Y-54763456D01*
X221416505Y-54763458D01*
X221272286Y-54852413D01*
X221272264Y-54852429D01*
X221272261Y-54852431D01*
X221152431Y-54972261D01*
X221152429Y-54972264D01*
X221152413Y-54972286D01*
X221063458Y-55116505D01*
X221063456Y-55116508D01*
X221063451Y-55116520D01*
X221010143Y-55277394D01*
X221000000Y-55376671D01*
X221000000Y-55650000D01*
X221544805Y-55650000D01*
X221611844Y-55669685D01*
X221657599Y-55722489D01*
X221667543Y-55791647D01*
X221664584Y-55806073D01*
X221650000Y-55860504D01*
X221650000Y-55939496D01*
X221664579Y-55993910D01*
X221662917Y-56063756D01*
X221623755Y-56121619D01*
X221559527Y-56149123D01*
X221544805Y-56150000D01*
X221000001Y-56150000D01*
X221000001Y-56423331D01*
X221010144Y-56522608D01*
X221063451Y-56683478D01*
X221063456Y-56683490D01*
X221063458Y-56683493D01*
X221152413Y-56827712D01*
X221152420Y-56827722D01*
X221152424Y-56827728D01*
X221152427Y-56827732D01*
X221152429Y-56827734D01*
X221152431Y-56827737D01*
X221272261Y-56947567D01*
X221272264Y-56947569D01*
X221272267Y-56947572D01*
X221272271Y-56947575D01*
X221272279Y-56947580D01*
X221272286Y-56947585D01*
X221337383Y-56987737D01*
X221416507Y-57036542D01*
X221416518Y-57036547D01*
X221577393Y-57089855D01*
X221676683Y-57099999D01*
X221700000Y-57099998D01*
X221700000Y-56305195D01*
X221719685Y-56238156D01*
X221772489Y-56192401D01*
X221841647Y-56182457D01*
X221856073Y-56185415D01*
X221910504Y-56200000D01*
X221989493Y-56200000D01*
X221989496Y-56200000D01*
X222043910Y-56185420D01*
X222113756Y-56187083D01*
X222171619Y-56226245D01*
X222199123Y-56290473D01*
X222200000Y-56305195D01*
X222200000Y-57099999D01*
X222223296Y-57099999D01*
X222223308Y-57099999D01*
X222223322Y-57099998D01*
X222322607Y-57089855D01*
X222483481Y-57036547D01*
X222483492Y-57036542D01*
X222627727Y-56947576D01*
X222713716Y-56861586D01*
X222741963Y-56840441D01*
X222755687Y-56832947D01*
X222756970Y-56832669D01*
X222823955Y-56818097D01*
X222837537Y-56819068D01*
X222876145Y-56828191D01*
X222975475Y-56869334D01*
X222979882Y-56871418D01*
X222981382Y-56871717D01*
X223126076Y-56900500D01*
X223273919Y-56900500D01*
X223273920Y-56900500D01*
X223300819Y-56895149D01*
X223378734Y-56879650D01*
X223418912Y-56871658D01*
X223542457Y-56820484D01*
X223551857Y-56816590D01*
X223553602Y-56815969D01*
X223557840Y-56814111D01*
X223567106Y-56810272D01*
X223575989Y-56801389D01*
X223678415Y-56732951D01*
X223724721Y-56686643D01*
X223738355Y-56674864D01*
X223743528Y-56671014D01*
X223748898Y-56669027D01*
X223753004Y-56665482D01*
X223755420Y-56664164D01*
X223755740Y-56664752D01*
X223767627Y-56656987D01*
X223772429Y-56654875D01*
X223772435Y-56654871D01*
X223774860Y-56653805D01*
X223775300Y-56654805D01*
X223785971Y-56652950D01*
X223791498Y-56649172D01*
X223803516Y-56648829D01*
X223809060Y-56646780D01*
X223814527Y-56647985D01*
X223835794Y-56644287D01*
X223835870Y-56643225D01*
X223838532Y-56643414D01*
X223838548Y-56643417D01*
X223838614Y-56643421D01*
X223839380Y-56643664D01*
X223839912Y-56643572D01*
X223840030Y-56643586D01*
X223841222Y-56643723D01*
X223841163Y-56644229D01*
X223851379Y-56647467D01*
X223861339Y-56647184D01*
X223893848Y-56660927D01*
X223895297Y-56661801D01*
X223918933Y-56680300D01*
X223971586Y-56732953D01*
X223984247Y-56741412D01*
X223989858Y-56746989D01*
X223994303Y-56748893D01*
X224011239Y-56768242D01*
X224018045Y-56775008D01*
X224019373Y-56776970D01*
X224022097Y-56781341D01*
X224023331Y-56782818D01*
X224026812Y-56787960D01*
X224028988Y-56794767D01*
X224045519Y-56832180D01*
X224048043Y-56844297D01*
X224049430Y-56852467D01*
X224049937Y-56854359D01*
X224051557Y-56861169D01*
X224054031Y-56873050D01*
X224058709Y-56887096D01*
X224076791Y-56954586D01*
X224080575Y-56961141D01*
X224090919Y-56979055D01*
X224090920Y-56979059D01*
X224129515Y-57045906D01*
X224129522Y-57045915D01*
X225516897Y-58433290D01*
X225538048Y-58461545D01*
X225545540Y-58475266D01*
X225560392Y-58543526D01*
X225560263Y-58545332D01*
X225540894Y-58603536D01*
X225536711Y-58610045D01*
X225520076Y-58630687D01*
X225419482Y-58731280D01*
X225419470Y-58731298D01*
X225340430Y-58868200D01*
X225340425Y-58868210D01*
X225340424Y-58868211D01*
X225340423Y-58868215D01*
X225340423Y-58868216D01*
X225299500Y-59020943D01*
X225299500Y-59179057D01*
X225320261Y-59256538D01*
X225324453Y-59272181D01*
X225340423Y-59331783D01*
X225340424Y-59331787D01*
X225340425Y-59331788D01*
X225340428Y-59331793D01*
X225416623Y-59463771D01*
X225416638Y-59463795D01*
X225419475Y-59468709D01*
X225419479Y-59468714D01*
X225419480Y-59468716D01*
X225420049Y-59469285D01*
X225531287Y-59580523D01*
X225531969Y-59581014D01*
X225534475Y-59582363D01*
X225668209Y-59659573D01*
X225668216Y-59659577D01*
X225820943Y-59700500D01*
X225864915Y-59700500D01*
X225899847Y-59705521D01*
X225925091Y-59712934D01*
X225977837Y-59744230D01*
X226850573Y-60616966D01*
X226871723Y-60645218D01*
X226884331Y-60668307D01*
X226899500Y-60727736D01*
X226899500Y-62365592D01*
X226899499Y-62365594D01*
X226899500Y-62365595D01*
X226894686Y-62399069D01*
X226894476Y-62400530D01*
X226891289Y-62411383D01*
X226853514Y-62470160D01*
X226789957Y-62499183D01*
X226720810Y-62489243D01*
X226720150Y-62488941D01*
X226716281Y-62487175D01*
X226679643Y-62460382D01*
X226679088Y-62460938D01*
X226676939Y-62458789D01*
X226676937Y-62458786D01*
X226541210Y-62323059D01*
X226541206Y-62323056D01*
X226488485Y-62287829D01*
X226381599Y-62216409D01*
X226381596Y-62216407D01*
X226380555Y-62215713D01*
X226375939Y-62214063D01*
X226204256Y-62142951D01*
X226204252Y-62142950D01*
X226204244Y-62142948D01*
X226204238Y-62142946D01*
X226204226Y-62142944D01*
X226015984Y-62105500D01*
X226015982Y-62105500D01*
X226015980Y-62105500D01*
X225824020Y-62105500D01*
X225824018Y-62105500D01*
X225824016Y-62105500D01*
X225635772Y-62142944D01*
X225635742Y-62142951D01*
X225458410Y-62216403D01*
X225458406Y-62216405D01*
X225458405Y-62216406D01*
X225458404Y-62216407D01*
X225298795Y-62323055D01*
X225298786Y-62323061D01*
X225298783Y-62323063D01*
X225163060Y-62458786D01*
X225063255Y-62608153D01*
X225063209Y-62608223D01*
X225056409Y-62618401D01*
X225056403Y-62618410D01*
X224982951Y-62795742D01*
X224982944Y-62795772D01*
X224945500Y-62984014D01*
X224945500Y-63131613D01*
X224940237Y-63149533D01*
X224982944Y-63364226D01*
X224982951Y-63364256D01*
X225056404Y-63541592D01*
X225125368Y-63644802D01*
X225163060Y-63701212D01*
X225298783Y-63836935D01*
X225298789Y-63836940D01*
X225298793Y-63836943D01*
X225458401Y-63943591D01*
X225458404Y-63943592D01*
X225458405Y-63943593D01*
X225461246Y-63944770D01*
X225461520Y-63944921D01*
X225462453Y-63945270D01*
X225499842Y-63960756D01*
X225574649Y-63991742D01*
X225635749Y-64017050D01*
X225635751Y-64017050D01*
X225635753Y-64017051D01*
X225681809Y-64026212D01*
X225681829Y-64026215D01*
X225681851Y-64026220D01*
X225754518Y-64040675D01*
X225824016Y-64054500D01*
X226015982Y-64054500D01*
X226015983Y-64054500D01*
X226029521Y-64051806D01*
X226110758Y-64035647D01*
X226204251Y-64017050D01*
X226381599Y-63943591D01*
X226541207Y-63836943D01*
X226676943Y-63701207D01*
X226704730Y-63659619D01*
X226728305Y-63633374D01*
X226738961Y-63624468D01*
X226803021Y-63596583D01*
X226871990Y-63607757D01*
X226873100Y-63608289D01*
X226875411Y-63609395D01*
X226918185Y-63643138D01*
X226918940Y-63644069D01*
X226926436Y-63654967D01*
X226926637Y-63654834D01*
X226926641Y-63654840D01*
X226929359Y-63659215D01*
X226930006Y-63660156D01*
X226930835Y-63661592D01*
X226930854Y-63661622D01*
X226979520Y-63745913D01*
X226979522Y-63745915D01*
X234250574Y-71016967D01*
X234271723Y-71045218D01*
X234284331Y-71068307D01*
X234299500Y-71127736D01*
X234299500Y-77405643D01*
X234294475Y-77440585D01*
X234290637Y-77453653D01*
X234252859Y-77512429D01*
X234189301Y-77541450D01*
X234127291Y-77534500D01*
X234119574Y-77531543D01*
X234095062Y-77518859D01*
X234004724Y-77458497D01*
X234001595Y-77456406D01*
X234001594Y-77456405D01*
X234001584Y-77456401D01*
X233824256Y-77382951D01*
X233824252Y-77382950D01*
X233824244Y-77382948D01*
X233824238Y-77382946D01*
X233824226Y-77382944D01*
X233635984Y-77345500D01*
X233635982Y-77345500D01*
X233635980Y-77345500D01*
X233444020Y-77345500D01*
X233444018Y-77345500D01*
X233444016Y-77345500D01*
X233255772Y-77382944D01*
X233255742Y-77382951D01*
X233078406Y-77456404D01*
X233075277Y-77458496D01*
X233075275Y-77458497D01*
X232944004Y-77546211D01*
X232918786Y-77563061D01*
X232918783Y-77563063D01*
X232783060Y-77698786D01*
X232683255Y-77848153D01*
X232683209Y-77848223D01*
X232676409Y-77858401D01*
X232676403Y-77858410D01*
X232602951Y-78035742D01*
X232602944Y-78035772D01*
X232565500Y-78224014D01*
X232565500Y-78371613D01*
X232560237Y-78389533D01*
X232602944Y-78604226D01*
X232602951Y-78604256D01*
X232676404Y-78781592D01*
X232722592Y-78850716D01*
X232783057Y-78941208D01*
X232783058Y-78941209D01*
X232783063Y-78941215D01*
X232918783Y-79076935D01*
X232918789Y-79076940D01*
X232918793Y-79076943D01*
X233078401Y-79183591D01*
X233078402Y-79183591D01*
X233078403Y-79183592D01*
X233078404Y-79183592D01*
X233078405Y-79183593D01*
X233131951Y-79205772D01*
X233255749Y-79257050D01*
X233272025Y-79260287D01*
X233301809Y-79266212D01*
X233301829Y-79266215D01*
X233301851Y-79266220D01*
X233396628Y-79285073D01*
X233444016Y-79294500D01*
X233635982Y-79294500D01*
X233635983Y-79294500D01*
X233659046Y-79289912D01*
X233730758Y-79275647D01*
X233824251Y-79257050D01*
X234001599Y-79183591D01*
X234091791Y-79123324D01*
X234123616Y-79108097D01*
X234136623Y-79104024D01*
X234206478Y-79102778D01*
X234265921Y-79139497D01*
X234294597Y-79194920D01*
X234296228Y-79202107D01*
X234296426Y-79202977D01*
X234299500Y-79230416D01*
X234299500Y-80310571D01*
X234294476Y-80345509D01*
X234291289Y-80356362D01*
X234281651Y-80371357D01*
X234276631Y-80388459D01*
X234263156Y-80400135D01*
X234253514Y-80415139D01*
X234237298Y-80422543D01*
X234223829Y-80434216D01*
X234206178Y-80436754D01*
X234189957Y-80444162D01*
X234172313Y-80441625D01*
X234154671Y-80444163D01*
X234120808Y-80434221D01*
X234113829Y-80431034D01*
X234077659Y-80405922D01*
X233973717Y-80301980D01*
X233973709Y-80301974D01*
X233947147Y-80286639D01*
X233836807Y-80222934D01*
X233836783Y-80222921D01*
X233723393Y-80192539D01*
X233684057Y-80181999D01*
X233684056Y-80181999D01*
X233525943Y-80181999D01*
X233373218Y-80222921D01*
X233373211Y-80222923D01*
X233373210Y-80222924D01*
X233373200Y-80222929D01*
X233236298Y-80301969D01*
X233236282Y-80301979D01*
X233187687Y-80350574D01*
X233160354Y-80371216D01*
X233159753Y-80371550D01*
X233148154Y-80377884D01*
X233146651Y-80378849D01*
X233143226Y-80380758D01*
X233112671Y-80387677D01*
X233082573Y-80396434D01*
X233077348Y-80395675D01*
X233075082Y-80396189D01*
X233071224Y-80394787D01*
X233047929Y-80391407D01*
X233043371Y-80390068D01*
X233024037Y-80377642D01*
X233009413Y-80372328D01*
X233003312Y-80364321D01*
X232984611Y-80352301D01*
X232973778Y-80339800D01*
X232960101Y-80320594D01*
X232916467Y-80245018D01*
X232880524Y-80182762D01*
X232880518Y-80182754D01*
X232880517Y-80182753D01*
X232880513Y-80182748D01*
X232768722Y-80070957D01*
X232768720Y-80070956D01*
X232768717Y-80070953D01*
X232768709Y-80070947D01*
X232742147Y-80055612D01*
X232631807Y-79991907D01*
X232631783Y-79991894D01*
X232519979Y-79961936D01*
X232479057Y-79950972D01*
X232479056Y-79950972D01*
X232435085Y-79950972D01*
X232435084Y-79950971D01*
X232435084Y-79950972D01*
X232400149Y-79945949D01*
X232374907Y-79938537D01*
X232322162Y-79907241D01*
X232294443Y-79879522D01*
X232294441Y-79879520D01*
X232283647Y-79873288D01*
X232248778Y-79853155D01*
X232248778Y-79853156D01*
X232203117Y-79826793D01*
X232152185Y-79813146D01*
X232152184Y-79813145D01*
X232101258Y-79799500D01*
X232101255Y-79799500D01*
X232101254Y-79799500D01*
X230938193Y-79799500D01*
X230938190Y-79799499D01*
X230938189Y-79799500D01*
X230903255Y-79794476D01*
X230885200Y-79789174D01*
X230830398Y-79755771D01*
X230823209Y-79748232D01*
X230805561Y-79724657D01*
X230780522Y-79681287D01*
X230780518Y-79681282D01*
X230668717Y-79569481D01*
X230668015Y-79568975D01*
X230665513Y-79567629D01*
X230531797Y-79490430D01*
X230531783Y-79490422D01*
X230419979Y-79460464D01*
X230379057Y-79449500D01*
X230379056Y-79449500D01*
X230220943Y-79449500D01*
X230068218Y-79490422D01*
X230068211Y-79490424D01*
X230068210Y-79490425D01*
X230068200Y-79490430D01*
X229931298Y-79569470D01*
X229931294Y-79569472D01*
X229931290Y-79569475D01*
X229931282Y-79569481D01*
X229931278Y-79569484D01*
X229931276Y-79569485D01*
X229819485Y-79681276D01*
X229819484Y-79681278D01*
X229819481Y-79681281D01*
X229819481Y-79681282D01*
X229819475Y-79681290D01*
X229819472Y-79681294D01*
X229819470Y-79681298D01*
X229740430Y-79818200D01*
X229740425Y-79818210D01*
X229740424Y-79818211D01*
X229740422Y-79818218D01*
X229699500Y-79970943D01*
X229699500Y-80107670D01*
X229699499Y-80107676D01*
X229699500Y-80107679D01*
X229694475Y-80142614D01*
X229690070Y-80157612D01*
X229652327Y-80216355D01*
X229652292Y-80216385D01*
X229652291Y-80216387D01*
X229652289Y-80216387D01*
X229650958Y-80217542D01*
X229596097Y-80245018D01*
X229588539Y-80246663D01*
X229562168Y-80249500D01*
X223464971Y-80249500D01*
X223397932Y-80229815D01*
X223392064Y-80225802D01*
X223350576Y-80195645D01*
X223350561Y-80195636D01*
X220186350Y-78491831D01*
X219996368Y-78389533D01*
X224940237Y-78389533D01*
X224982944Y-78604226D01*
X224982951Y-78604256D01*
X225056404Y-78781592D01*
X225102592Y-78850716D01*
X225163057Y-78941208D01*
X225163058Y-78941209D01*
X225163063Y-78941215D01*
X225298783Y-79076935D01*
X225298789Y-79076940D01*
X225298793Y-79076943D01*
X225458401Y-79183591D01*
X225458402Y-79183591D01*
X225458403Y-79183592D01*
X225458404Y-79183592D01*
X225458405Y-79183593D01*
X225511951Y-79205772D01*
X225635749Y-79257050D01*
X225652025Y-79260287D01*
X225681809Y-79266212D01*
X225681829Y-79266215D01*
X225681851Y-79266220D01*
X225776628Y-79285073D01*
X225824016Y-79294500D01*
X226015982Y-79294500D01*
X226015983Y-79294500D01*
X226039046Y-79289912D01*
X226110758Y-79275647D01*
X226204251Y-79257050D01*
X226381599Y-79183591D01*
X226541207Y-79076943D01*
X226676943Y-78941207D01*
X226783591Y-78781599D01*
X226857050Y-78604251D01*
X226879412Y-78491831D01*
X226894500Y-78415982D01*
X226894500Y-78389533D01*
X227480237Y-78389533D01*
X227522944Y-78604226D01*
X227522951Y-78604256D01*
X227596404Y-78781592D01*
X227642592Y-78850716D01*
X227703057Y-78941208D01*
X227703058Y-78941209D01*
X227703063Y-78941215D01*
X227838783Y-79076935D01*
X227838789Y-79076940D01*
X227838793Y-79076943D01*
X227998401Y-79183591D01*
X227998402Y-79183591D01*
X227998403Y-79183592D01*
X227998404Y-79183592D01*
X227998405Y-79183593D01*
X228051951Y-79205772D01*
X228175749Y-79257050D01*
X228192025Y-79260287D01*
X228221809Y-79266212D01*
X228221829Y-79266215D01*
X228221851Y-79266220D01*
X228316628Y-79285073D01*
X228364016Y-79294500D01*
X228555982Y-79294500D01*
X228555983Y-79294500D01*
X228579046Y-79289912D01*
X228650758Y-79275647D01*
X228744251Y-79257050D01*
X228921599Y-79183591D01*
X229081207Y-79076943D01*
X229216943Y-78941207D01*
X229323591Y-78781599D01*
X229397050Y-78604251D01*
X229419412Y-78491831D01*
X229434500Y-78415982D01*
X229434500Y-78389533D01*
X230020237Y-78389533D01*
X230062944Y-78604226D01*
X230062951Y-78604256D01*
X230136404Y-78781592D01*
X230182592Y-78850716D01*
X230243057Y-78941208D01*
X230243058Y-78941209D01*
X230243063Y-78941215D01*
X230378783Y-79076935D01*
X230378789Y-79076940D01*
X230378793Y-79076943D01*
X230538401Y-79183591D01*
X230538403Y-79183591D01*
X230538965Y-79183967D01*
X230542454Y-79185270D01*
X230591951Y-79205772D01*
X230715749Y-79257050D01*
X230732025Y-79260287D01*
X230761809Y-79266212D01*
X230761829Y-79266215D01*
X230761851Y-79266220D01*
X230856628Y-79285073D01*
X230904016Y-79294500D01*
X231095982Y-79294500D01*
X231095983Y-79294500D01*
X231119046Y-79289912D01*
X231190758Y-79275647D01*
X231284251Y-79257050D01*
X231461599Y-79183591D01*
X231621207Y-79076943D01*
X231756943Y-78941207D01*
X231863591Y-78781599D01*
X231937050Y-78604251D01*
X231959412Y-78491831D01*
X231974500Y-78415982D01*
X231974500Y-78224014D01*
X231951145Y-78106609D01*
X231937051Y-78035755D01*
X231937050Y-78035749D01*
X231880822Y-77900000D01*
X231865271Y-77862456D01*
X231863969Y-77858968D01*
X231863591Y-77858403D01*
X231863591Y-77858401D01*
X231756943Y-77698793D01*
X231756940Y-77698789D01*
X231756935Y-77698783D01*
X231621212Y-77563060D01*
X231621207Y-77563057D01*
X231595995Y-77546211D01*
X231568485Y-77527829D01*
X231461599Y-77456409D01*
X231461596Y-77456407D01*
X231460555Y-77455713D01*
X231455939Y-77454063D01*
X231284256Y-77382951D01*
X231284252Y-77382950D01*
X231284244Y-77382948D01*
X231284238Y-77382946D01*
X231284226Y-77382944D01*
X231095984Y-77345500D01*
X231095982Y-77345500D01*
X231095980Y-77345500D01*
X230904020Y-77345500D01*
X230904018Y-77345500D01*
X230904016Y-77345500D01*
X230715772Y-77382944D01*
X230715742Y-77382951D01*
X230538406Y-77456404D01*
X230535277Y-77458496D01*
X230535275Y-77458497D01*
X230404004Y-77546211D01*
X230378786Y-77563061D01*
X230378783Y-77563063D01*
X230243060Y-77698786D01*
X230143255Y-77848153D01*
X230143209Y-77848223D01*
X230136409Y-77858401D01*
X230136403Y-77858410D01*
X230062951Y-78035742D01*
X230062944Y-78035772D01*
X230025500Y-78224014D01*
X230025500Y-78371613D01*
X230020237Y-78389533D01*
X229434500Y-78389533D01*
X229434500Y-78224014D01*
X229411145Y-78106609D01*
X229397051Y-78035755D01*
X229397050Y-78035749D01*
X229340822Y-77900000D01*
X229325271Y-77862456D01*
X229323969Y-77858968D01*
X229323591Y-77858403D01*
X229323591Y-77858401D01*
X229216943Y-77698793D01*
X229216940Y-77698789D01*
X229216935Y-77698783D01*
X229081212Y-77563060D01*
X229081207Y-77563057D01*
X229055995Y-77546211D01*
X229028485Y-77527829D01*
X228921599Y-77456409D01*
X228921596Y-77456407D01*
X228920555Y-77455713D01*
X228915939Y-77454063D01*
X228744256Y-77382951D01*
X228744252Y-77382950D01*
X228744244Y-77382948D01*
X228744238Y-77382946D01*
X228744226Y-77382944D01*
X228555984Y-77345500D01*
X228555982Y-77345500D01*
X228555980Y-77345500D01*
X228364020Y-77345500D01*
X228364018Y-77345500D01*
X228364016Y-77345500D01*
X228175772Y-77382944D01*
X228175742Y-77382951D01*
X227998406Y-77456404D01*
X227995277Y-77458496D01*
X227995275Y-77458497D01*
X227864004Y-77546211D01*
X227838786Y-77563061D01*
X227838783Y-77563063D01*
X227703060Y-77698786D01*
X227603255Y-77848153D01*
X227603209Y-77848223D01*
X227596409Y-77858401D01*
X227596403Y-77858410D01*
X227522951Y-78035742D01*
X227522944Y-78035772D01*
X227485500Y-78224014D01*
X227485500Y-78371613D01*
X227480237Y-78389533D01*
X226894500Y-78389533D01*
X226894500Y-78224014D01*
X226871145Y-78106609D01*
X226857051Y-78035755D01*
X226857050Y-78035749D01*
X226800822Y-77900000D01*
X226785271Y-77862456D01*
X226783969Y-77858968D01*
X226783591Y-77858403D01*
X226783591Y-77858401D01*
X226676943Y-77698793D01*
X226676940Y-77698789D01*
X226676935Y-77698783D01*
X226541212Y-77563060D01*
X226541207Y-77563057D01*
X226515995Y-77546211D01*
X226488485Y-77527829D01*
X226381599Y-77456409D01*
X226381596Y-77456407D01*
X226380555Y-77455713D01*
X226375939Y-77454063D01*
X226204256Y-77382951D01*
X226204252Y-77382950D01*
X226204244Y-77382948D01*
X226204238Y-77382946D01*
X226204226Y-77382944D01*
X226015984Y-77345500D01*
X226015982Y-77345500D01*
X226015980Y-77345500D01*
X225824020Y-77345500D01*
X225824018Y-77345500D01*
X225824016Y-77345500D01*
X225635772Y-77382944D01*
X225635742Y-77382951D01*
X225458406Y-77456404D01*
X225455277Y-77458496D01*
X225455275Y-77458497D01*
X225324004Y-77546211D01*
X225298786Y-77563061D01*
X225298783Y-77563063D01*
X225163060Y-77698786D01*
X225063255Y-77848153D01*
X225063209Y-77848223D01*
X225056409Y-77858401D01*
X225056403Y-77858410D01*
X224982951Y-78035742D01*
X224982944Y-78035772D01*
X224945500Y-78224014D01*
X224945500Y-78371613D01*
X224940237Y-78389533D01*
X219996368Y-78389533D01*
X219470939Y-78106609D01*
X219470931Y-78106606D01*
X219405633Y-78080627D01*
X219398679Y-78078752D01*
X219350904Y-78065871D01*
X219350895Y-78065869D01*
X219350890Y-78065868D01*
X219306970Y-78057418D01*
X219194971Y-78065047D01*
X219194963Y-78065048D01*
X219194962Y-78065049D01*
X219181074Y-78068636D01*
X219127314Y-78082524D01*
X219047073Y-78116036D01*
X219047063Y-78116041D01*
X218903752Y-78201641D01*
X218903747Y-78201644D01*
X218847965Y-78244380D01*
X218847962Y-78244382D01*
X218807230Y-78283802D01*
X218777448Y-78317182D01*
X218726559Y-78417263D01*
X218706877Y-78484292D01*
X218706876Y-78484299D01*
X218698398Y-78543266D01*
X218694500Y-78570373D01*
X205186286Y-78570373D01*
X205186286Y-73100000D01*
X205931114Y-73100000D01*
X205931116Y-73100001D01*
X206694805Y-73100001D01*
X206761844Y-73119686D01*
X206807599Y-73172490D01*
X206817543Y-73241648D01*
X206814584Y-73256074D01*
X206800000Y-73310505D01*
X206800000Y-73389497D01*
X206814579Y-73443911D01*
X206812917Y-73513757D01*
X206773755Y-73571620D01*
X206709527Y-73599124D01*
X206694805Y-73600001D01*
X205931116Y-73600001D01*
X205936506Y-73627103D01*
X205936507Y-73627104D01*
X205936510Y-73627113D01*
X206008115Y-73799986D01*
X206008120Y-73799996D01*
X206112087Y-73955592D01*
X206112088Y-73955593D01*
X206112091Y-73955597D01*
X206123310Y-73966815D01*
X206123312Y-73966818D01*
X206123314Y-73966819D01*
X206123319Y-73966824D01*
X206144466Y-73995076D01*
X206151957Y-74008796D01*
X206166807Y-74077065D01*
X206165771Y-74091551D01*
X206157442Y-74128195D01*
X206109639Y-74249412D01*
X206104065Y-74295840D01*
X206099500Y-74333859D01*
X206099500Y-74866140D01*
X206104824Y-74910491D01*
X206109639Y-74950585D01*
X206109639Y-74950586D01*
X206162636Y-75084977D01*
X206249920Y-75200078D01*
X206315296Y-75249654D01*
X206365023Y-75287363D01*
X206365024Y-75287363D01*
X206365244Y-75287530D01*
X206367965Y-75288524D01*
X206465383Y-75326940D01*
X206499410Y-75340359D01*
X206583856Y-75350500D01*
X206583862Y-75350500D01*
X207616138Y-75350500D01*
X207616144Y-75350500D01*
X207700590Y-75340359D01*
X207834975Y-75287364D01*
X207950078Y-75200078D01*
X208037364Y-75084975D01*
X208090359Y-74950590D01*
X208100500Y-74866144D01*
X208100500Y-74333856D01*
X208090359Y-74249410D01*
X208042946Y-74129179D01*
X208034803Y-74094844D01*
X208034506Y-74091551D01*
X208033397Y-74079269D01*
X208037815Y-74056970D01*
X208046972Y-74010738D01*
X208053699Y-73997853D01*
X208075934Y-73967567D01*
X208087916Y-73955586D01*
X208191875Y-73800001D01*
X208191880Y-73799992D01*
X208191883Y-73799986D01*
X208263488Y-73627113D01*
X208263492Y-73627104D01*
X208263493Y-73627101D01*
X208268884Y-73600001D01*
X207505195Y-73600001D01*
X207438156Y-73580316D01*
X207392401Y-73527512D01*
X207382457Y-73458354D01*
X207385415Y-73443927D01*
X207400000Y-73389497D01*
X207400000Y-73310505D01*
X207385420Y-73256090D01*
X207387083Y-73186245D01*
X207426245Y-73128382D01*
X207490473Y-73100878D01*
X207505195Y-73100001D01*
X208268884Y-73100001D01*
X208268884Y-73100000D01*
X208263493Y-73072900D01*
X208263492Y-73072897D01*
X208263488Y-73072887D01*
X208191883Y-72900014D01*
X208191878Y-72900004D01*
X208087911Y-72744408D01*
X208087910Y-72744407D01*
X208087905Y-72744401D01*
X207955598Y-72612094D01*
X207955592Y-72612089D01*
X207955591Y-72612088D01*
X207799994Y-72508121D01*
X207799995Y-72508121D01*
X207799985Y-72508116D01*
X207627106Y-72436509D01*
X207627079Y-72436503D01*
X207443572Y-72400001D01*
X207443570Y-72400001D01*
X207350000Y-72400001D01*
X207350000Y-72944805D01*
X207330315Y-73011844D01*
X207277511Y-73057599D01*
X207208353Y-73067543D01*
X207193908Y-73064580D01*
X207139497Y-73050001D01*
X207139496Y-73050001D01*
X207060504Y-73050001D01*
X207060502Y-73050001D01*
X207006092Y-73064580D01*
X206936242Y-73062917D01*
X206878380Y-73023753D01*
X206850877Y-72959525D01*
X206850000Y-72944805D01*
X206850000Y-72400001D01*
X206756430Y-72400001D01*
X206756428Y-72400001D01*
X206572919Y-72436503D01*
X206572892Y-72436509D01*
X206400013Y-72508116D01*
X206400003Y-72508121D01*
X206244407Y-72612088D01*
X206244406Y-72612089D01*
X206244400Y-72612094D01*
X206112093Y-72744401D01*
X206112088Y-72744407D01*
X206112087Y-72744408D01*
X206008120Y-72900004D01*
X206008115Y-72900014D01*
X205936510Y-73072887D01*
X205936507Y-73072896D01*
X205936505Y-73072904D01*
X205931115Y-73100000D01*
X205931114Y-73100000D01*
X205186286Y-73100000D01*
X205186286Y-69720943D01*
X215899500Y-69720943D01*
X215899500Y-69879057D01*
X215908032Y-69910897D01*
X215911356Y-69923302D01*
X215940423Y-70031784D01*
X215940424Y-70031787D01*
X215940425Y-70031788D01*
X215940428Y-70031793D01*
X216016623Y-70163771D01*
X216016638Y-70163795D01*
X216019475Y-70168709D01*
X216019479Y-70168714D01*
X216019480Y-70168716D01*
X216020049Y-70169285D01*
X216131287Y-70280523D01*
X216131967Y-70281013D01*
X216134462Y-70282355D01*
X216222368Y-70333107D01*
X216268216Y-70359577D01*
X216420943Y-70400500D01*
X216420945Y-70400500D01*
X216579055Y-70400500D01*
X216579057Y-70400500D01*
X216731784Y-70359577D01*
X216868716Y-70280520D01*
X216980520Y-70168716D01*
X217059577Y-70031784D01*
X217100500Y-69879057D01*
X217100500Y-69720943D01*
X217059577Y-69568216D01*
X217005232Y-69474087D01*
X216980524Y-69431290D01*
X216980518Y-69431282D01*
X216980513Y-69431276D01*
X216868722Y-69319485D01*
X216868720Y-69319484D01*
X216868717Y-69319481D01*
X216868709Y-69319475D01*
X216842147Y-69304140D01*
X216731807Y-69240435D01*
X216731783Y-69240422D01*
X216619979Y-69210464D01*
X216579057Y-69199500D01*
X216579056Y-69199500D01*
X216420943Y-69199500D01*
X216268218Y-69240422D01*
X216268211Y-69240424D01*
X216268210Y-69240425D01*
X216268200Y-69240430D01*
X216131298Y-69319470D01*
X216131294Y-69319472D01*
X216131290Y-69319475D01*
X216131282Y-69319481D01*
X216131278Y-69319484D01*
X216131276Y-69319485D01*
X216019485Y-69431276D01*
X216019484Y-69431278D01*
X216019481Y-69431281D01*
X216019481Y-69431282D01*
X216019475Y-69431290D01*
X216019472Y-69431294D01*
X216019470Y-69431298D01*
X215940430Y-69568200D01*
X215940425Y-69568210D01*
X215940424Y-69568211D01*
X215940422Y-69568218D01*
X215900030Y-69718962D01*
X215900030Y-69718964D01*
X215899500Y-69720943D01*
X205186286Y-69720943D01*
X205186286Y-62220943D01*
X222699500Y-62220943D01*
X222699500Y-62379057D01*
X222705254Y-62400530D01*
X222729281Y-62490202D01*
X222729282Y-62490205D01*
X222732599Y-62502582D01*
X222740423Y-62531783D01*
X222740426Y-62531790D01*
X222819348Y-62668489D01*
X222819445Y-62668681D01*
X222931287Y-62780523D01*
X222931969Y-62781014D01*
X222934475Y-62782363D01*
X223068209Y-62859573D01*
X223068216Y-62859577D01*
X223220943Y-62900500D01*
X223220945Y-62900500D01*
X223379055Y-62900500D01*
X223379057Y-62900500D01*
X223531784Y-62859577D01*
X223668716Y-62780520D01*
X223780520Y-62668716D01*
X223859577Y-62531784D01*
X223900500Y-62379057D01*
X223900500Y-62220943D01*
X223859577Y-62068216D01*
X223855351Y-62060897D01*
X223853981Y-62058523D01*
X223853979Y-62058520D01*
X223836584Y-62028391D01*
X223780524Y-61931290D01*
X223780518Y-61931282D01*
X223780514Y-61931278D01*
X223780513Y-61931276D01*
X223668722Y-61819485D01*
X223668720Y-61819484D01*
X223668717Y-61819481D01*
X223668709Y-61819475D01*
X223614724Y-61788307D01*
X223531807Y-61740435D01*
X223531783Y-61740422D01*
X223419979Y-61710464D01*
X223379057Y-61699500D01*
X223379056Y-61699500D01*
X223220943Y-61699500D01*
X223068218Y-61740422D01*
X223068211Y-61740424D01*
X223068210Y-61740425D01*
X223068200Y-61740430D01*
X222931298Y-61819470D01*
X222931294Y-61819472D01*
X222931290Y-61819475D01*
X222931282Y-61819481D01*
X222931278Y-61819484D01*
X222931276Y-61819485D01*
X222819485Y-61931276D01*
X222819484Y-61931278D01*
X222819481Y-61931281D01*
X222819481Y-61931282D01*
X222819475Y-61931290D01*
X222819472Y-61931294D01*
X222819470Y-61931298D01*
X222740430Y-62068200D01*
X222740425Y-62068210D01*
X222740424Y-62068211D01*
X222740422Y-62068218D01*
X222706769Y-62193815D01*
X222699500Y-62220943D01*
X205186286Y-62220943D01*
X205186286Y-56991192D01*
X205191307Y-56956265D01*
X205193855Y-56947585D01*
X205194493Y-56945410D01*
X205232263Y-56886631D01*
X205295817Y-56857602D01*
X205364972Y-56867540D01*
X205371958Y-56870730D01*
X205408128Y-56895843D01*
X205430004Y-56917719D01*
X205430011Y-56917725D01*
X205430014Y-56917727D01*
X205430018Y-56917731D01*
X205597072Y-57045915D01*
X205627659Y-57069385D01*
X205843409Y-57193948D01*
X205843424Y-57193955D01*
X205942611Y-57235039D01*
X206073579Y-57289288D01*
X206314221Y-57353768D01*
X206561221Y-57386286D01*
X206561228Y-57386286D01*
X206810344Y-57386286D01*
X206810351Y-57386286D01*
X207057351Y-57353768D01*
X207297993Y-57289288D01*
X207528159Y-57193950D01*
X207743913Y-57069385D01*
X207941562Y-56917724D01*
X208117724Y-56741562D01*
X208269385Y-56543913D01*
X208386869Y-56340424D01*
X208393949Y-56328161D01*
X208393955Y-56328147D01*
X208405952Y-56299184D01*
X208489288Y-56097993D01*
X208553768Y-55857351D01*
X208586286Y-55610351D01*
X208586286Y-55361221D01*
X208553768Y-55114221D01*
X208489288Y-54873579D01*
X208393954Y-54643423D01*
X208393948Y-54643409D01*
X208269385Y-54427659D01*
X208117727Y-54230014D01*
X208117721Y-54230006D01*
X208117707Y-54229991D01*
X208098290Y-54210575D01*
X208098288Y-54210573D01*
X208077138Y-54182321D01*
X208071716Y-54172391D01*
X208056865Y-54104120D01*
X208081282Y-54038656D01*
X208137211Y-53996786D01*
X208141088Y-53995340D01*
X208144424Y-53994097D01*
X208187738Y-53986286D01*
X243280379Y-53986286D01*
X243315306Y-53991307D01*
G37*
%TD.AperFunction*%
%TD*%
%TA.AperFunction,Conductor*%
%TO.N,Net-(D2-K)*%
G36*
X219326100Y-78375593D02*
G01*
X223205734Y-80464626D01*
X223253402Y-80510218D01*
X223482456Y-80893705D01*
X223486888Y-80909767D01*
X223494977Y-80922354D01*
X223500000Y-80957289D01*
X223500000Y-81148638D01*
X223480315Y-81215677D01*
X223463681Y-81236319D01*
X223462299Y-81237701D01*
X223442287Y-81248628D01*
X223427511Y-81261432D01*
X223415739Y-81263124D01*
X223400976Y-81271186D01*
X223373393Y-81269213D01*
X223358353Y-81271376D01*
X223349945Y-81267536D01*
X223331284Y-81266202D01*
X223286937Y-81237701D01*
X223268717Y-81219481D01*
X223268709Y-81219475D01*
X223131790Y-81140426D01*
X223131786Y-81140424D01*
X223131784Y-81140423D01*
X222979057Y-81099500D01*
X222820943Y-81099500D01*
X222668216Y-81140423D01*
X222668209Y-81140426D01*
X222531290Y-81219475D01*
X222531282Y-81219481D01*
X222419481Y-81331282D01*
X222419479Y-81331285D01*
X222357869Y-81437999D01*
X222307302Y-81486215D01*
X222250481Y-81500000D01*
X219351362Y-81500000D01*
X219284323Y-81480315D01*
X219263681Y-81463681D01*
X219036319Y-81236319D01*
X219002834Y-81174996D01*
X219000000Y-81148638D01*
X219000000Y-78570371D01*
X219019685Y-78503332D01*
X219060414Y-78463915D01*
X219203727Y-78378314D01*
X219271375Y-78360838D01*
X219326100Y-78375593D01*
G37*
%TD.AperFunction*%
%TD*%
M02*
