%TF.GenerationSoftware,KiCad,Pcbnew,10.0.1*%
%TF.CreationDate,2026-04-30T14:59:29+02:00*%
%TF.ProjectId,Dive_Computer,44697665-5f43-46f6-9d70-757465722e6b,rev?*%
%TF.SameCoordinates,Original*%
%TF.FileFunction,Copper,L4,Bot*%
%TF.FilePolarity,Positive*%
%FSLAX46Y46*%
G04 Gerber Fmt 4.6, Leading zero omitted, Abs format (unit mm)*
G04 Created by KiCad (PCBNEW 10.0.1) date 2026-04-30 14:59:29*
%MOMM*%
%LPD*%
G01*
G04 APERTURE LIST*
G04 Aperture macros list*
%AMRoundRect*
0 Rectangle with rounded corners*
0 $1 Rounding radius*
0 $2 $3 $4 $5 $6 $7 $8 $9 X,Y pos of 4 corners*
0 Add a 4 corners polygon primitive as box body*
4,1,4,$2,$3,$4,$5,$6,$7,$8,$9,$2,$3,0*
0 Add four circle primitives for the rounded corners*
1,1,$1+$1,$2,$3*
1,1,$1+$1,$4,$5*
1,1,$1+$1,$6,$7*
1,1,$1+$1,$8,$9*
0 Add four rect primitives between the rounded corners*
20,1,$1+$1,$2,$3,$4,$5,0*
20,1,$1+$1,$4,$5,$6,$7,0*
20,1,$1+$1,$6,$7,$8,$9,0*
20,1,$1+$1,$8,$9,$2,$3,0*%
G04 Aperture macros list end*
%TA.AperFunction,ComponentPad*%
%ADD10RoundRect,0.225000X0.475000X-0.225000X0.475000X0.225000X-0.475000X0.225000X-0.475000X-0.225000X0*%
%TD*%
%TA.AperFunction,ComponentPad*%
%ADD11O,1.400000X0.900000*%
%TD*%
%TA.AperFunction,ComponentPad*%
%ADD12C,2.000000*%
%TD*%
%TA.AperFunction,ComponentPad*%
%ADD13C,3.200000*%
%TD*%
%TA.AperFunction,ComponentPad*%
%ADD14C,1.348000*%
%TD*%
%TA.AperFunction,ComponentPad*%
%ADD15RoundRect,0.225000X-0.225000X-0.475000X0.225000X-0.475000X0.225000X0.475000X-0.225000X0.475000X0*%
%TD*%
%TA.AperFunction,ComponentPad*%
%ADD16O,0.900000X1.400000*%
%TD*%
%TA.AperFunction,SMDPad,CuDef*%
%ADD17R,1.300000X1.300000*%
%TD*%
%TA.AperFunction,ViaPad*%
%ADD18C,0.600000*%
%TD*%
%TA.AperFunction,ViaPad*%
%ADD19C,0.500000*%
%TD*%
%TA.AperFunction,Conductor*%
%ADD20C,0.200000*%
%TD*%
G04 APERTURE END LIST*
D10*
%TO.P,BATTERIE1,1,Pin_1_1*%
%TO.N,/BAT+*%
X207100000Y-74600000D03*
D11*
%TO.P,BATTERIE1,2,Pin_2_2*%
%TO.N,GND*%
X207100000Y-73350001D03*
%TD*%
D12*
%TO.P,Power_Inductor1,1,1_1*%
%TO.N,GND*%
X220655000Y-85582501D03*
%TO.P,Power_Inductor1,2,2_2*%
%TO.N,Net-(C4-Pad1)*%
X215655000Y-85582501D03*
%TD*%
D13*
%TO.P,,P$1*%
%TO.N,N/C*%
X206685786Y-55485786D03*
%TD*%
%TO.P,,P$1*%
%TO.N,N/C*%
X244785786Y-55485786D03*
%TD*%
D14*
%TO.P,U1,0,GPIO0_0*%
%TO.N,/INT1*%
X225920000Y-78320000D03*
%TO.P,U1,1,GPIO1_1*%
%TO.N,/INT2*%
X228460000Y-78320000D03*
%TO.P,U1,2,GPIO2_2*%
%TO.N,unconnected-(U1-GPIO2-Pad2)*%
X231000000Y-78320000D03*
%TO.P,U1,3,GPIO3_3*%
%TO.N,Net-(U1-GPIO3)*%
X233540000Y-78320000D03*
%TO.P,U1,3.3,3V3_3.3*%
%TO.N,+3.3V*%
X238620000Y-78320000D03*
%TO.P,U1,4,GPIO4_4*%
%TO.N,/SPI_CLK*%
X236080000Y-78320000D03*
%TO.P,U1,5,GPIO5_5*%
%TO.N,/MISO*%
X243700000Y-63080000D03*
%TO.P,U1,5V,5V_5V*%
%TO.N,Net-(D4-K)*%
X243700000Y-78320000D03*
%TO.P,U1,6,GPIO6_6*%
%TO.N,/MOSI*%
X241160000Y-63080000D03*
%TO.P,U1,7,GPIO7_7*%
%TO.N,/CS*%
X238620000Y-63080000D03*
%TO.P,U1,8,GPIO8_8*%
%TO.N,/SDA*%
X236080000Y-63080000D03*
%TO.P,U1,9,GPIO9_9*%
%TO.N,/SCL*%
X233540000Y-63080000D03*
%TO.P,U1,10,GPIO10_10*%
%TO.N,/Data{slash}Command*%
X231000000Y-63080000D03*
%TO.P,U1,20,GPIO20_20*%
%TO.N,/~{CHRG}*%
X228460000Y-63080000D03*
%TO.P,U1,21,GPIO21_21*%
%TO.N,Net-(JP1-A)*%
X225920000Y-63080000D03*
%TO.P,U1,G,GND_G*%
%TO.N,GND*%
X241160000Y-78320000D03*
%TD*%
D13*
%TO.P,,P$1*%
%TO.N,N/C*%
X206685786Y-85985786D03*
%TD*%
%TO.P,,P$1*%
%TO.N,N/C*%
X244785786Y-85985786D03*
%TD*%
D15*
%TO.P,J1,1,Pin_1_1*%
%TO.N,GND*%
X221950000Y-55900000D03*
D16*
%TO.P,J1,2,Pin_2_2*%
%TO.N,VCC*%
X223199999Y-55900000D03*
%TO.P,J1,3,Pin_3_3*%
%TO.N,/Data{slash}Command*%
X224450000Y-55900000D03*
%TO.P,J1,4,Pin_4_4*%
%TO.N,/SPI_CLK*%
X225699999Y-55900000D03*
%TO.P,J1,5,Pin_5_5*%
%TO.N,/CS*%
X226950000Y-55900000D03*
%TO.P,J1,6,Pin_6_6*%
%TO.N,/MISO*%
X228199999Y-55900000D03*
%TO.P,J1,7,Pin_7_7*%
%TO.N,/MOSI*%
X229450000Y-55900000D03*
%TD*%
D17*
%TO.P,IC2,1,GND_1*%
%TO.N,GND*%
X236490000Y-57530000D03*
%TO.P,IC2,2,VDD_2*%
%TO.N,+3.3V*%
X238490000Y-57530000D03*
%TO.P,IC2,3,SCL_3*%
%TO.N,/SCL*%
X238490000Y-59530000D03*
%TO.P,IC2,4,SDA_4*%
%TO.N,/SDA*%
X236490000Y-59530000D03*
%TD*%
D18*
%TO.N,GND*%
X205700000Y-68400000D03*
X205800000Y-65500000D03*
%TO.N,Net-(D2-K)*%
X219835003Y-79082500D03*
X231100000Y-80800000D03*
X219855000Y-81082501D03*
%TO.N,+3.3V*%
X232100000Y-56900000D03*
X239450000Y-56060000D03*
X216500000Y-69800000D03*
X223300000Y-62300000D03*
%TO.N,GND*%
X217800000Y-54900000D03*
X208800000Y-54800000D03*
X236700000Y-64400000D03*
X222900000Y-81700000D03*
X207200000Y-78200000D03*
X220900000Y-63600000D03*
X230700000Y-59800000D03*
X242700000Y-86900000D03*
X205700000Y-83800000D03*
X220100000Y-75900000D03*
X229200000Y-67300000D03*
X239000000Y-79900000D03*
X245500000Y-57900000D03*
X212700000Y-74900000D03*
X238187500Y-86887500D03*
X241100000Y-60400000D03*
X229200000Y-86800000D03*
X232400000Y-75400000D03*
X216500000Y-65400000D03*
X223000000Y-86800000D03*
X233100000Y-71800000D03*
X245700000Y-83400000D03*
X212600000Y-59700000D03*
X245100000Y-65300000D03*
X233687500Y-85787500D03*
X235430000Y-55470000D03*
X223200000Y-74200000D03*
X217200000Y-76500000D03*
X242400000Y-54500000D03*
X245000000Y-76100000D03*
X222900000Y-79300000D03*
X207000000Y-71600000D03*
X213000000Y-86900000D03*
X210800000Y-84600000D03*
X241300000Y-81600000D03*
X233700000Y-82000000D03*
X205800000Y-71500000D03*
X228000000Y-74300000D03*
X230700000Y-55600000D03*
X226000000Y-76500000D03*
X240987500Y-86787500D03*
X205800000Y-77300000D03*
X221100000Y-60400000D03*
X218500000Y-69100000D03*
X205800000Y-79700000D03*
X245900000Y-80000000D03*
X239200000Y-61100000D03*
X242200000Y-79500000D03*
X232050000Y-83637500D03*
X212500000Y-54900000D03*
X212300000Y-79000000D03*
X222200000Y-83700000D03*
X232600000Y-54500000D03*
X218100000Y-86900000D03*
X243400000Y-84300000D03*
X209100000Y-87000000D03*
X234000000Y-64900000D03*
X216100000Y-62400000D03*
X238200000Y-83800000D03*
X212200000Y-67100000D03*
X221400000Y-82400000D03*
X230500000Y-69700000D03*
X205800000Y-58100000D03*
X218100000Y-84500000D03*
%TO.N,VCC*%
X208700000Y-81700000D03*
X231400000Y-85900000D03*
X242200000Y-84000000D03*
X209700000Y-81700000D03*
X207700000Y-81700000D03*
D19*
%TO.N,/~{CHRG}*%
X235125000Y-84212500D03*
D18*
%TO.N,Net-(IC1-FREQ)*%
X233605000Y-80782499D03*
X228800000Y-83987500D03*
%TO.N,Net-(IC1-BOOST)*%
X230300000Y-80050000D03*
X232400000Y-80551472D03*
%TO.N,/~{FLT}*%
X225900000Y-59100000D03*
D19*
X234927458Y-83301195D03*
%TD*%
%TO.N,/SDA*%
D20*
X236490000Y-62670000D02*
X236080000Y-63080000D01*
X236490000Y-59530000D02*
X236490000Y-62670000D01*
%TO.N,+3.3V*%
X239450000Y-56060000D02*
X239450000Y-56560000D01*
X238490000Y-57520000D02*
X238490000Y-57530000D01*
X239450000Y-56560000D02*
X238490000Y-57520000D01*
%TO.N,/SCL*%
X238490000Y-59530000D02*
X237540000Y-58580000D01*
X233540000Y-60260000D02*
X233540000Y-63080000D01*
X235220000Y-58580000D02*
X233540000Y-60260000D01*
X237540000Y-58580000D02*
X235220000Y-58580000D01*
%TD*%
%TA.AperFunction,Conductor*%
%TO.N,GND*%
G36*
X243365248Y-54005971D02*
G01*
X243411003Y-54058775D01*
X243420947Y-54127933D01*
X243391922Y-54191489D01*
X243385890Y-54197967D01*
X243353852Y-54230004D01*
X243353846Y-54230011D01*
X243202186Y-54427659D01*
X243077623Y-54643409D01*
X243077616Y-54643424D01*
X242982284Y-54873578D01*
X242917803Y-55114224D01*
X242885287Y-55361210D01*
X242885286Y-55361227D01*
X242885286Y-55610344D01*
X242885287Y-55610361D01*
X242917803Y-55857347D01*
X242982284Y-56097993D01*
X243077616Y-56328147D01*
X243077623Y-56328162D01*
X243202186Y-56543912D01*
X243353846Y-56741560D01*
X243353852Y-56741567D01*
X243530004Y-56917719D01*
X243530011Y-56917725D01*
X243727659Y-57069385D01*
X243943409Y-57193948D01*
X243943424Y-57193955D01*
X244042611Y-57235039D01*
X244173579Y-57289288D01*
X244414221Y-57353768D01*
X244661221Y-57386286D01*
X244661228Y-57386286D01*
X244910344Y-57386286D01*
X244910351Y-57386286D01*
X245157351Y-57353768D01*
X245397993Y-57289288D01*
X245628159Y-57193950D01*
X245843913Y-57069385D01*
X246041562Y-56917724D01*
X246052962Y-56906324D01*
X246073605Y-56885682D01*
X246134928Y-56852197D01*
X246204620Y-56857181D01*
X246260553Y-56899053D01*
X246284970Y-56964517D01*
X246285286Y-56973363D01*
X246285286Y-84498209D01*
X246265601Y-84565248D01*
X246212797Y-84611003D01*
X246143639Y-84620947D01*
X246080083Y-84591922D01*
X246073605Y-84585890D01*
X246041567Y-84553852D01*
X246041560Y-84553846D01*
X245843912Y-84402186D01*
X245628162Y-84277623D01*
X245628147Y-84277616D01*
X245397993Y-84182284D01*
X245157347Y-84117803D01*
X244910361Y-84085287D01*
X244910356Y-84085286D01*
X244910351Y-84085286D01*
X244661221Y-84085286D01*
X244661215Y-84085286D01*
X244661210Y-84085287D01*
X244414224Y-84117803D01*
X244173578Y-84182284D01*
X243943424Y-84277616D01*
X243943409Y-84277623D01*
X243727659Y-84402186D01*
X243530011Y-84553846D01*
X243530004Y-84553852D01*
X243353852Y-84730004D01*
X243353846Y-84730011D01*
X243202186Y-84927659D01*
X243077623Y-85143409D01*
X243077616Y-85143424D01*
X242982284Y-85373578D01*
X242917803Y-85614224D01*
X242885287Y-85861210D01*
X242885286Y-85861227D01*
X242885286Y-86110344D01*
X242885287Y-86110361D01*
X242905528Y-86264111D01*
X242917804Y-86357351D01*
X242956161Y-86500500D01*
X242982284Y-86597993D01*
X243077616Y-86828147D01*
X243077623Y-86828162D01*
X243202186Y-87043912D01*
X243353846Y-87241560D01*
X243353852Y-87241567D01*
X243385890Y-87273605D01*
X243419375Y-87334928D01*
X243414391Y-87404620D01*
X243372519Y-87460553D01*
X243307055Y-87484970D01*
X243298209Y-87485286D01*
X208173363Y-87485286D01*
X208106324Y-87465601D01*
X208060569Y-87412797D01*
X208050625Y-87343639D01*
X208079650Y-87280083D01*
X208085682Y-87273605D01*
X208117719Y-87241567D01*
X208117724Y-87241562D01*
X208269385Y-87043913D01*
X208393950Y-86828159D01*
X208489288Y-86597993D01*
X208553768Y-86357351D01*
X208586286Y-86110351D01*
X208586286Y-85861221D01*
X208553768Y-85614221D01*
X208517843Y-85480149D01*
X214354500Y-85480149D01*
X214354500Y-85684852D01*
X214386522Y-85887035D01*
X214449781Y-86081724D01*
X214542715Y-86264114D01*
X214663028Y-86429714D01*
X214807786Y-86574472D01*
X214962749Y-86687057D01*
X214973390Y-86694788D01*
X215089607Y-86754004D01*
X215155776Y-86787719D01*
X215155778Y-86787719D01*
X215155781Y-86787721D01*
X215260137Y-86821628D01*
X215350465Y-86850978D01*
X215451557Y-86866989D01*
X215552648Y-86883001D01*
X215552649Y-86883001D01*
X215757351Y-86883001D01*
X215757352Y-86883001D01*
X215959534Y-86850978D01*
X216154219Y-86787721D01*
X216336610Y-86694788D01*
X216469838Y-86597993D01*
X216502213Y-86574472D01*
X216502215Y-86574469D01*
X216502219Y-86574467D01*
X216646966Y-86429720D01*
X216646968Y-86429716D01*
X216646971Y-86429714D01*
X216699732Y-86357091D01*
X216767287Y-86264111D01*
X216860220Y-86081720D01*
X216923477Y-85887035D01*
X216933945Y-85820943D01*
X230799500Y-85820943D01*
X230799500Y-85979057D01*
X230827010Y-86081724D01*
X230840423Y-86131783D01*
X230840426Y-86131790D01*
X230919475Y-86268709D01*
X230919479Y-86268714D01*
X230919480Y-86268716D01*
X231031284Y-86380520D01*
X231031286Y-86380521D01*
X231031290Y-86380524D01*
X231129695Y-86437337D01*
X231168216Y-86459577D01*
X231320943Y-86500500D01*
X231320945Y-86500500D01*
X231479055Y-86500500D01*
X231479057Y-86500500D01*
X231631784Y-86459577D01*
X231768716Y-86380520D01*
X231880520Y-86268716D01*
X231959577Y-86131784D01*
X232000500Y-85979057D01*
X232000500Y-85820943D01*
X231959577Y-85668216D01*
X231928403Y-85614221D01*
X231880524Y-85531290D01*
X231880518Y-85531282D01*
X231768717Y-85419481D01*
X231768709Y-85419475D01*
X231631790Y-85340426D01*
X231631786Y-85340424D01*
X231631784Y-85340423D01*
X231479057Y-85299500D01*
X231320943Y-85299500D01*
X231168216Y-85340423D01*
X231168209Y-85340426D01*
X231031290Y-85419475D01*
X231031282Y-85419481D01*
X230919481Y-85531282D01*
X230919475Y-85531290D01*
X230840426Y-85668209D01*
X230840423Y-85668216D01*
X230799500Y-85820943D01*
X216933945Y-85820943D01*
X216955500Y-85684853D01*
X216955500Y-85480149D01*
X216923477Y-85277967D01*
X216860220Y-85083282D01*
X216860218Y-85083279D01*
X216860218Y-85083277D01*
X216826503Y-85017108D01*
X216767287Y-84900891D01*
X216707106Y-84818058D01*
X216646971Y-84735287D01*
X216502213Y-84590529D01*
X216336613Y-84470216D01*
X216336612Y-84470215D01*
X216336610Y-84470214D01*
X216279653Y-84441192D01*
X216154223Y-84377282D01*
X215959534Y-84314023D01*
X215784995Y-84286379D01*
X215757352Y-84282001D01*
X215552648Y-84282001D01*
X215533890Y-84284972D01*
X215350465Y-84314023D01*
X215155776Y-84377282D01*
X214973386Y-84470216D01*
X214807786Y-84590529D01*
X214663028Y-84735287D01*
X214542715Y-84900887D01*
X214449781Y-85083277D01*
X214386522Y-85277966D01*
X214354500Y-85480149D01*
X208517843Y-85480149D01*
X208489288Y-85373579D01*
X208393950Y-85143413D01*
X208269385Y-84927659D01*
X208248842Y-84900887D01*
X208117725Y-84730011D01*
X208117719Y-84730004D01*
X207941567Y-84553852D01*
X207941560Y-84553846D01*
X207743912Y-84402186D01*
X207528162Y-84277623D01*
X207528147Y-84277616D01*
X207297993Y-84182284D01*
X207057347Y-84117803D01*
X206810361Y-84085287D01*
X206810356Y-84085286D01*
X206810351Y-84085286D01*
X206561221Y-84085286D01*
X206561215Y-84085286D01*
X206561210Y-84085287D01*
X206314224Y-84117803D01*
X206073578Y-84182284D01*
X205843424Y-84277616D01*
X205843409Y-84277623D01*
X205627659Y-84402186D01*
X205430011Y-84553846D01*
X205430004Y-84553852D01*
X205397967Y-84585890D01*
X205336644Y-84619375D01*
X205266952Y-84614391D01*
X205211019Y-84572519D01*
X205186602Y-84507055D01*
X205186286Y-84498209D01*
X205186286Y-83908443D01*
X228199500Y-83908443D01*
X228199500Y-84066557D01*
X228213232Y-84117803D01*
X228240423Y-84219283D01*
X228240426Y-84219290D01*
X228319475Y-84356209D01*
X228319479Y-84356214D01*
X228319480Y-84356216D01*
X228431284Y-84468020D01*
X228431286Y-84468021D01*
X228431290Y-84468024D01*
X228483573Y-84498209D01*
X228568216Y-84547077D01*
X228720943Y-84588000D01*
X228720945Y-84588000D01*
X228879055Y-84588000D01*
X228879057Y-84588000D01*
X229031784Y-84547077D01*
X229168716Y-84468020D01*
X229280520Y-84356216D01*
X229359577Y-84219284D01*
X229400500Y-84066557D01*
X229400500Y-83908443D01*
X229359577Y-83755716D01*
X229292311Y-83639206D01*
X229280524Y-83618790D01*
X229280518Y-83618782D01*
X229168717Y-83506981D01*
X229168709Y-83506975D01*
X229031790Y-83427926D01*
X229031786Y-83427924D01*
X229031784Y-83427923D01*
X228879057Y-83387000D01*
X228720943Y-83387000D01*
X228568216Y-83427923D01*
X228568209Y-83427926D01*
X228431290Y-83506975D01*
X228431282Y-83506981D01*
X228319481Y-83618782D01*
X228319475Y-83618790D01*
X228240426Y-83755709D01*
X228240423Y-83755716D01*
X228199500Y-83908443D01*
X205186286Y-83908443D01*
X205186286Y-83228720D01*
X234376958Y-83228720D01*
X234376958Y-83373670D01*
X234412679Y-83506980D01*
X234414475Y-83513683D01*
X234486946Y-83639206D01*
X234486948Y-83639208D01*
X234486949Y-83639210D01*
X234589443Y-83741704D01*
X234610838Y-83754056D01*
X234659053Y-83804623D01*
X234672275Y-83873231D01*
X234656224Y-83923443D01*
X234612017Y-84000011D01*
X234612016Y-84000015D01*
X234574500Y-84140025D01*
X234574500Y-84284975D01*
X234612016Y-84424985D01*
X234612017Y-84424988D01*
X234684488Y-84550511D01*
X234684490Y-84550513D01*
X234684491Y-84550515D01*
X234786985Y-84653009D01*
X234786986Y-84653010D01*
X234786988Y-84653011D01*
X234912511Y-84725482D01*
X234912512Y-84725482D01*
X234912515Y-84725484D01*
X235052525Y-84763000D01*
X235052528Y-84763000D01*
X235197472Y-84763000D01*
X235197475Y-84763000D01*
X235337485Y-84725484D01*
X235463015Y-84653009D01*
X235565509Y-84550515D01*
X235637984Y-84424985D01*
X235675500Y-84284975D01*
X235675500Y-84140025D01*
X235637984Y-84000015D01*
X235637982Y-84000011D01*
X235623437Y-83974818D01*
X235623436Y-83974817D01*
X235593775Y-83923443D01*
X235592332Y-83920943D01*
X241599500Y-83920943D01*
X241599500Y-84079057D01*
X241637076Y-84219290D01*
X241640423Y-84231783D01*
X241640426Y-84231790D01*
X241719475Y-84368709D01*
X241719479Y-84368714D01*
X241719480Y-84368716D01*
X241831284Y-84480520D01*
X241831286Y-84480521D01*
X241831290Y-84480524D01*
X241958293Y-84553848D01*
X241968216Y-84559577D01*
X242120943Y-84600500D01*
X242120945Y-84600500D01*
X242279055Y-84600500D01*
X242279057Y-84600500D01*
X242431784Y-84559577D01*
X242568716Y-84480520D01*
X242680520Y-84368716D01*
X242759577Y-84231784D01*
X242800500Y-84079057D01*
X242800500Y-83920943D01*
X242759577Y-83768216D01*
X242751402Y-83754056D01*
X242680524Y-83631290D01*
X242680518Y-83631282D01*
X242568717Y-83519481D01*
X242568709Y-83519475D01*
X242431790Y-83440426D01*
X242431786Y-83440424D01*
X242431784Y-83440423D01*
X242279057Y-83399500D01*
X242120943Y-83399500D01*
X241968216Y-83440423D01*
X241968209Y-83440426D01*
X241831290Y-83519475D01*
X241831282Y-83519481D01*
X241719481Y-83631282D01*
X241719475Y-83631290D01*
X241640426Y-83768209D01*
X241640423Y-83768216D01*
X241599500Y-83920943D01*
X235592332Y-83920943D01*
X235565509Y-83874485D01*
X235463015Y-83771991D01*
X235453662Y-83766591D01*
X235441618Y-83759637D01*
X235393403Y-83709069D01*
X235380182Y-83640462D01*
X235396234Y-83590250D01*
X235440439Y-83513685D01*
X235440440Y-83513684D01*
X235440440Y-83513682D01*
X235440442Y-83513680D01*
X235477958Y-83373670D01*
X235477958Y-83228720D01*
X235440442Y-83088710D01*
X235367967Y-82963180D01*
X235265473Y-82860686D01*
X235265471Y-82860685D01*
X235265469Y-82860683D01*
X235139946Y-82788212D01*
X235139947Y-82788212D01*
X235128464Y-82785135D01*
X234999933Y-82750695D01*
X234854983Y-82750695D01*
X234726451Y-82785135D01*
X234714969Y-82788212D01*
X234589446Y-82860683D01*
X234589440Y-82860688D01*
X234486951Y-82963177D01*
X234486946Y-82963183D01*
X234414475Y-83088706D01*
X234414474Y-83088710D01*
X234376958Y-83228720D01*
X205186286Y-83228720D01*
X205186286Y-81620943D01*
X207099500Y-81620943D01*
X207099500Y-81779056D01*
X207140423Y-81931783D01*
X207140426Y-81931790D01*
X207219475Y-82068709D01*
X207219479Y-82068714D01*
X207219480Y-82068716D01*
X207331284Y-82180520D01*
X207331286Y-82180521D01*
X207331290Y-82180524D01*
X207468209Y-82259573D01*
X207468216Y-82259577D01*
X207620943Y-82300500D01*
X207620945Y-82300500D01*
X207779055Y-82300500D01*
X207779057Y-82300500D01*
X207931784Y-82259577D01*
X208068716Y-82180520D01*
X208112319Y-82136917D01*
X208173642Y-82103432D01*
X208243334Y-82108416D01*
X208287681Y-82136917D01*
X208331284Y-82180520D01*
X208331286Y-82180521D01*
X208331290Y-82180524D01*
X208468209Y-82259573D01*
X208468216Y-82259577D01*
X208620943Y-82300500D01*
X208620945Y-82300500D01*
X208779055Y-82300500D01*
X208779057Y-82300500D01*
X208931784Y-82259577D01*
X209068716Y-82180520D01*
X209112319Y-82136917D01*
X209173642Y-82103432D01*
X209243334Y-82108416D01*
X209287681Y-82136917D01*
X209331284Y-82180520D01*
X209331286Y-82180521D01*
X209331290Y-82180524D01*
X209468209Y-82259573D01*
X209468216Y-82259577D01*
X209620943Y-82300500D01*
X209620945Y-82300500D01*
X209779055Y-82300500D01*
X209779057Y-82300500D01*
X209931784Y-82259577D01*
X210068716Y-82180520D01*
X210180520Y-82068716D01*
X210259577Y-81931784D01*
X210300500Y-81779057D01*
X210300500Y-81620943D01*
X210259577Y-81468216D01*
X210220481Y-81400499D01*
X210180524Y-81331290D01*
X210180518Y-81331282D01*
X210068717Y-81219481D01*
X210068709Y-81219475D01*
X209931790Y-81140426D01*
X209931787Y-81140424D01*
X209931784Y-81140423D01*
X209779057Y-81099500D01*
X209620943Y-81099500D01*
X209468216Y-81140423D01*
X209468209Y-81140426D01*
X209331290Y-81219475D01*
X209331282Y-81219481D01*
X209287681Y-81263083D01*
X209226358Y-81296568D01*
X209156666Y-81291584D01*
X209112319Y-81263083D01*
X209068717Y-81219481D01*
X209068709Y-81219475D01*
X208931790Y-81140426D01*
X208931786Y-81140424D01*
X208931784Y-81140423D01*
X208779057Y-81099500D01*
X208620943Y-81099500D01*
X208468216Y-81140423D01*
X208468209Y-81140426D01*
X208331290Y-81219475D01*
X208331282Y-81219481D01*
X208287681Y-81263083D01*
X208226358Y-81296568D01*
X208156666Y-81291584D01*
X208112319Y-81263083D01*
X208068717Y-81219481D01*
X208068709Y-81219475D01*
X207931790Y-81140426D01*
X207931786Y-81140424D01*
X207931784Y-81140423D01*
X207779057Y-81099500D01*
X207620943Y-81099500D01*
X207468216Y-81140423D01*
X207468209Y-81140426D01*
X207331290Y-81219475D01*
X207331282Y-81219481D01*
X207219481Y-81331282D01*
X207219475Y-81331290D01*
X207140426Y-81468209D01*
X207140423Y-81468216D01*
X207099500Y-81620943D01*
X205186286Y-81620943D01*
X205186286Y-81003444D01*
X219254500Y-81003444D01*
X219254500Y-81161558D01*
X219289341Y-81291584D01*
X219295423Y-81314284D01*
X219295426Y-81314291D01*
X219374475Y-81451210D01*
X219374479Y-81451215D01*
X219374480Y-81451217D01*
X219486284Y-81563021D01*
X219486286Y-81563022D01*
X219486290Y-81563025D01*
X219586612Y-81620945D01*
X219623216Y-81642078D01*
X219775943Y-81683001D01*
X219775945Y-81683001D01*
X219934055Y-81683001D01*
X219934057Y-81683001D01*
X220086784Y-81642078D01*
X220223716Y-81563021D01*
X220335520Y-81451217D01*
X220414577Y-81314285D01*
X220455500Y-81161558D01*
X220455500Y-81003444D01*
X220414577Y-80850717D01*
X220375629Y-80783256D01*
X220335524Y-80713791D01*
X220335518Y-80713783D01*
X220223717Y-80601982D01*
X220223709Y-80601976D01*
X220086790Y-80522927D01*
X220086786Y-80522925D01*
X220086784Y-80522924D01*
X219934057Y-80482001D01*
X219775943Y-80482001D01*
X219623216Y-80522924D01*
X219623209Y-80522927D01*
X219486290Y-80601976D01*
X219486282Y-80601982D01*
X219374481Y-80713783D01*
X219374475Y-80713791D01*
X219295426Y-80850710D01*
X219295423Y-80850717D01*
X219254500Y-81003444D01*
X205186286Y-81003444D01*
X205186286Y-79970943D01*
X229699500Y-79970943D01*
X229699500Y-80129057D01*
X229729341Y-80240423D01*
X229740423Y-80281783D01*
X229740426Y-80281790D01*
X229819475Y-80418709D01*
X229819479Y-80418714D01*
X229819480Y-80418716D01*
X229931284Y-80530520D01*
X229931286Y-80530521D01*
X229931290Y-80530524D01*
X230055059Y-80601981D01*
X230068216Y-80609577D01*
X230220943Y-80650500D01*
X230220945Y-80650500D01*
X230375500Y-80650500D01*
X230442539Y-80670185D01*
X230488294Y-80722989D01*
X230499500Y-80774500D01*
X230499500Y-80879057D01*
X230535736Y-81014289D01*
X230540423Y-81031783D01*
X230540426Y-81031790D01*
X230619475Y-81168709D01*
X230619479Y-81168714D01*
X230619480Y-81168716D01*
X230731284Y-81280520D01*
X230731286Y-81280521D01*
X230731290Y-81280524D01*
X230819221Y-81331290D01*
X230868216Y-81359577D01*
X231020943Y-81400500D01*
X231020945Y-81400500D01*
X231179055Y-81400500D01*
X231179057Y-81400500D01*
X231331784Y-81359577D01*
X231468716Y-81280520D01*
X231580520Y-81168716D01*
X231659577Y-81031784D01*
X231684906Y-80937254D01*
X231721270Y-80877595D01*
X231784117Y-80847066D01*
X231853492Y-80855361D01*
X231907370Y-80899846D01*
X231912067Y-80907349D01*
X231919477Y-80920184D01*
X231919479Y-80920187D01*
X231919480Y-80920188D01*
X232031284Y-81031992D01*
X232031286Y-81031993D01*
X232031290Y-81031996D01*
X232148212Y-81099500D01*
X232168216Y-81111049D01*
X232320943Y-81151972D01*
X232320945Y-81151972D01*
X232479055Y-81151972D01*
X232479057Y-81151972D01*
X232631784Y-81111049D01*
X232768716Y-81031992D01*
X232838825Y-80961882D01*
X232900144Y-80928400D01*
X232969836Y-80933384D01*
X233025770Y-80975255D01*
X233041288Y-81007200D01*
X233042314Y-81006776D01*
X233045422Y-81014279D01*
X233045423Y-81014283D01*
X233045424Y-81014286D01*
X233045426Y-81014289D01*
X233124475Y-81151208D01*
X233124479Y-81151213D01*
X233124480Y-81151215D01*
X233236284Y-81263019D01*
X233236286Y-81263020D01*
X233236290Y-81263023D01*
X233354534Y-81331290D01*
X233373216Y-81342076D01*
X233525943Y-81382999D01*
X233525945Y-81382999D01*
X233684055Y-81382999D01*
X233684057Y-81382999D01*
X233836784Y-81342076D01*
X233973716Y-81263019D01*
X234085520Y-81151215D01*
X234164577Y-81014283D01*
X234205500Y-80861556D01*
X234205500Y-80703442D01*
X234164577Y-80550715D01*
X234133051Y-80496110D01*
X234085524Y-80413789D01*
X234085518Y-80413781D01*
X233973717Y-80301980D01*
X233973709Y-80301974D01*
X233836790Y-80222925D01*
X233836786Y-80222923D01*
X233836784Y-80222922D01*
X233684057Y-80181999D01*
X233525943Y-80181999D01*
X233373216Y-80222922D01*
X233373209Y-80222925D01*
X233236290Y-80301974D01*
X233236286Y-80301977D01*
X233166177Y-80372086D01*
X233104853Y-80405570D01*
X233035162Y-80400585D01*
X232979228Y-80358714D01*
X232963713Y-80326769D01*
X232962686Y-80327195D01*
X232959579Y-80319695D01*
X232959577Y-80319688D01*
X232959573Y-80319681D01*
X232880524Y-80182762D01*
X232880518Y-80182754D01*
X232768717Y-80070953D01*
X232768709Y-80070947D01*
X232631790Y-79991898D01*
X232631786Y-79991896D01*
X232631784Y-79991895D01*
X232479057Y-79950972D01*
X232320943Y-79950972D01*
X232168216Y-79991895D01*
X232168209Y-79991898D01*
X232031290Y-80070947D01*
X232031282Y-80070953D01*
X231919481Y-80182754D01*
X231919475Y-80182762D01*
X231840426Y-80319681D01*
X231840424Y-80319685D01*
X231815094Y-80414217D01*
X231778728Y-80473877D01*
X231715881Y-80504405D01*
X231646505Y-80496110D01*
X231592628Y-80451624D01*
X231587931Y-80444120D01*
X231580522Y-80431287D01*
X231580518Y-80431282D01*
X231468717Y-80319481D01*
X231468709Y-80319475D01*
X231331790Y-80240426D01*
X231331786Y-80240424D01*
X231331784Y-80240423D01*
X231179057Y-80199500D01*
X231024500Y-80199500D01*
X230957461Y-80179815D01*
X230911706Y-80127011D01*
X230900500Y-80075500D01*
X230900500Y-79970945D01*
X230900500Y-79970943D01*
X230859577Y-79818216D01*
X230781511Y-79683000D01*
X230780524Y-79681290D01*
X230780518Y-79681282D01*
X230668717Y-79569481D01*
X230668709Y-79569475D01*
X230531790Y-79490426D01*
X230531786Y-79490424D01*
X230531784Y-79490423D01*
X230379057Y-79449500D01*
X230220943Y-79449500D01*
X230068216Y-79490423D01*
X230068209Y-79490426D01*
X229931290Y-79569475D01*
X229931282Y-79569481D01*
X229819481Y-79681282D01*
X229819475Y-79681290D01*
X229740426Y-79818209D01*
X229740423Y-79818216D01*
X229699500Y-79970943D01*
X205186286Y-79970943D01*
X205186286Y-79003443D01*
X219234503Y-79003443D01*
X219234503Y-79161557D01*
X219274083Y-79309269D01*
X219275426Y-79314283D01*
X219275429Y-79314290D01*
X219354478Y-79451209D01*
X219354482Y-79451214D01*
X219354483Y-79451216D01*
X219466287Y-79563020D01*
X219466289Y-79563021D01*
X219466293Y-79563024D01*
X219603212Y-79642073D01*
X219603219Y-79642077D01*
X219755946Y-79683000D01*
X219755948Y-79683000D01*
X219914058Y-79683000D01*
X219914060Y-79683000D01*
X220066787Y-79642077D01*
X220203719Y-79563020D01*
X220315523Y-79451216D01*
X220394580Y-79314284D01*
X220435503Y-79161557D01*
X220435503Y-79003443D01*
X220394580Y-78850716D01*
X220354676Y-78781599D01*
X220315527Y-78713790D01*
X220315521Y-78713782D01*
X220203720Y-78601981D01*
X220203712Y-78601975D01*
X220066793Y-78522926D01*
X220066789Y-78522924D01*
X220066787Y-78522923D01*
X219914060Y-78482000D01*
X219755946Y-78482000D01*
X219603219Y-78522923D01*
X219603212Y-78522926D01*
X219466293Y-78601975D01*
X219466285Y-78601981D01*
X219354484Y-78713782D01*
X219354478Y-78713790D01*
X219275429Y-78850709D01*
X219275426Y-78850716D01*
X219234503Y-79003443D01*
X205186286Y-79003443D01*
X205186286Y-78415982D01*
X224945499Y-78415982D01*
X224982948Y-78604244D01*
X224982950Y-78604252D01*
X225056406Y-78781594D01*
X225056407Y-78781595D01*
X225056409Y-78781599D01*
X225102592Y-78850716D01*
X225163056Y-78941206D01*
X225163059Y-78941210D01*
X225298789Y-79076940D01*
X225298793Y-79076943D01*
X225458401Y-79183591D01*
X225458404Y-79183592D01*
X225458405Y-79183593D01*
X225576633Y-79232563D01*
X225635749Y-79257050D01*
X225681851Y-79266220D01*
X225824017Y-79294500D01*
X225824020Y-79294500D01*
X226015982Y-79294500D01*
X226110758Y-79275647D01*
X226204251Y-79257050D01*
X226381599Y-79183591D01*
X226541207Y-79076943D01*
X226676943Y-78941207D01*
X226783591Y-78781599D01*
X226857050Y-78604251D01*
X226894500Y-78415982D01*
X227485499Y-78415982D01*
X227522948Y-78604244D01*
X227522950Y-78604252D01*
X227596406Y-78781594D01*
X227596407Y-78781595D01*
X227596409Y-78781599D01*
X227642592Y-78850716D01*
X227703056Y-78941206D01*
X227703059Y-78941210D01*
X227838789Y-79076940D01*
X227838793Y-79076943D01*
X227998401Y-79183591D01*
X227998404Y-79183592D01*
X227998405Y-79183593D01*
X228116633Y-79232563D01*
X228175749Y-79257050D01*
X228221851Y-79266220D01*
X228364017Y-79294500D01*
X228364020Y-79294500D01*
X228555982Y-79294500D01*
X228650758Y-79275647D01*
X228744251Y-79257050D01*
X228921599Y-79183591D01*
X229081207Y-79076943D01*
X229216943Y-78941207D01*
X229323591Y-78781599D01*
X229397050Y-78604251D01*
X229434500Y-78415982D01*
X230025499Y-78415982D01*
X230062948Y-78604244D01*
X230062950Y-78604252D01*
X230136406Y-78781594D01*
X230136407Y-78781595D01*
X230136409Y-78781599D01*
X230182592Y-78850716D01*
X230243056Y-78941206D01*
X230243059Y-78941210D01*
X230378789Y-79076940D01*
X230378793Y-79076943D01*
X230538401Y-79183591D01*
X230538404Y-79183592D01*
X230538405Y-79183593D01*
X230656633Y-79232563D01*
X230715749Y-79257050D01*
X230761851Y-79266220D01*
X230904017Y-79294500D01*
X230904020Y-79294500D01*
X231095982Y-79294500D01*
X231190758Y-79275647D01*
X231284251Y-79257050D01*
X231461599Y-79183591D01*
X231621207Y-79076943D01*
X231756943Y-78941207D01*
X231863591Y-78781599D01*
X231937050Y-78604251D01*
X231974500Y-78415982D01*
X232565499Y-78415982D01*
X232602948Y-78604244D01*
X232602950Y-78604252D01*
X232676406Y-78781594D01*
X232676407Y-78781595D01*
X232676409Y-78781599D01*
X232722592Y-78850716D01*
X232783056Y-78941206D01*
X232783059Y-78941210D01*
X232918789Y-79076940D01*
X232918793Y-79076943D01*
X233078401Y-79183591D01*
X233078404Y-79183592D01*
X233078405Y-79183593D01*
X233196633Y-79232563D01*
X233255749Y-79257050D01*
X233301851Y-79266220D01*
X233444017Y-79294500D01*
X233444020Y-79294500D01*
X233635982Y-79294500D01*
X233730758Y-79275647D01*
X233824251Y-79257050D01*
X234001599Y-79183591D01*
X234161207Y-79076943D01*
X234296943Y-78941207D01*
X234403591Y-78781599D01*
X234477050Y-78604251D01*
X234514500Y-78415982D01*
X235105499Y-78415982D01*
X235142948Y-78604244D01*
X235142950Y-78604252D01*
X235216406Y-78781594D01*
X235216407Y-78781595D01*
X235216409Y-78781599D01*
X235262592Y-78850716D01*
X235323056Y-78941206D01*
X235323059Y-78941210D01*
X235458789Y-79076940D01*
X235458793Y-79076943D01*
X235618401Y-79183591D01*
X235618404Y-79183592D01*
X235618405Y-79183593D01*
X235736633Y-79232563D01*
X235795749Y-79257050D01*
X235841851Y-79266220D01*
X235984017Y-79294500D01*
X235984020Y-79294500D01*
X236175982Y-79294500D01*
X236270758Y-79275647D01*
X236364251Y-79257050D01*
X236541599Y-79183591D01*
X236701207Y-79076943D01*
X236836943Y-78941207D01*
X236943591Y-78781599D01*
X237017050Y-78604251D01*
X237054500Y-78415982D01*
X237645499Y-78415982D01*
X237682948Y-78604244D01*
X237682950Y-78604252D01*
X237756406Y-78781594D01*
X237756407Y-78781595D01*
X237756409Y-78781599D01*
X237802592Y-78850716D01*
X237863056Y-78941206D01*
X237863059Y-78941210D01*
X237998789Y-79076940D01*
X237998793Y-79076943D01*
X238158401Y-79183591D01*
X238158404Y-79183592D01*
X238158405Y-79183593D01*
X238276633Y-79232563D01*
X238335749Y-79257050D01*
X238381851Y-79266220D01*
X238524017Y-79294500D01*
X238524020Y-79294500D01*
X238715982Y-79294500D01*
X238810758Y-79275647D01*
X238904251Y-79257050D01*
X239081599Y-79183591D01*
X239241207Y-79076943D01*
X239376943Y-78941207D01*
X239483591Y-78781599D01*
X239557050Y-78604251D01*
X239594500Y-78415980D01*
X239594500Y-78227604D01*
X239986000Y-78227604D01*
X239986000Y-78412395D01*
X240014907Y-78594908D01*
X240072014Y-78770664D01*
X240155900Y-78935303D01*
X240155903Y-78935307D01*
X240170730Y-78955715D01*
X240170730Y-78955716D01*
X240742356Y-78384090D01*
X240768622Y-78482114D01*
X240823916Y-78577886D01*
X240902114Y-78656084D01*
X240997886Y-78711378D01*
X241095909Y-78737643D01*
X240524283Y-79309268D01*
X240524283Y-79309269D01*
X240544686Y-79324092D01*
X240709338Y-79407986D01*
X240885091Y-79465092D01*
X241067605Y-79494000D01*
X241252395Y-79494000D01*
X241434908Y-79465092D01*
X241610661Y-79407986D01*
X241775310Y-79324094D01*
X241795715Y-79309268D01*
X241795716Y-79309268D01*
X241224090Y-78737642D01*
X241322114Y-78711378D01*
X241417886Y-78656084D01*
X241496084Y-78577886D01*
X241551378Y-78482114D01*
X241577642Y-78384090D01*
X242149268Y-78955716D01*
X242149268Y-78955715D01*
X242164094Y-78935310D01*
X242247986Y-78770661D01*
X242305092Y-78594908D01*
X242333432Y-78415982D01*
X242725499Y-78415982D01*
X242762948Y-78604244D01*
X242762950Y-78604252D01*
X242836406Y-78781594D01*
X242836407Y-78781595D01*
X242836409Y-78781599D01*
X242882592Y-78850716D01*
X242943056Y-78941206D01*
X242943059Y-78941210D01*
X243078789Y-79076940D01*
X243078793Y-79076943D01*
X243238401Y-79183591D01*
X243238404Y-79183592D01*
X243238405Y-79183593D01*
X243356633Y-79232563D01*
X243415749Y-79257050D01*
X243461851Y-79266220D01*
X243604017Y-79294500D01*
X243604020Y-79294500D01*
X243795982Y-79294500D01*
X243890758Y-79275647D01*
X243984251Y-79257050D01*
X244161599Y-79183591D01*
X244321207Y-79076943D01*
X244456943Y-78941207D01*
X244563591Y-78781599D01*
X244637050Y-78604251D01*
X244674500Y-78415980D01*
X244674500Y-78224020D01*
X244674500Y-78224017D01*
X244637051Y-78035755D01*
X244637050Y-78035749D01*
X244580822Y-77900000D01*
X244563593Y-77858405D01*
X244563592Y-77858404D01*
X244563591Y-77858401D01*
X244456943Y-77698793D01*
X244456940Y-77698789D01*
X244321210Y-77563059D01*
X244321206Y-77563056D01*
X244198536Y-77481090D01*
X244161599Y-77456409D01*
X244161596Y-77456407D01*
X244161595Y-77456407D01*
X244161594Y-77456406D01*
X243984252Y-77382950D01*
X243984244Y-77382948D01*
X243795982Y-77345500D01*
X243795980Y-77345500D01*
X243604020Y-77345500D01*
X243604018Y-77345500D01*
X243415755Y-77382948D01*
X243415747Y-77382950D01*
X243238405Y-77456406D01*
X243238404Y-77456407D01*
X243078793Y-77563056D01*
X243078789Y-77563059D01*
X242943059Y-77698789D01*
X242943056Y-77698793D01*
X242836407Y-77858404D01*
X242836406Y-77858405D01*
X242762950Y-78035747D01*
X242762948Y-78035755D01*
X242725500Y-78224017D01*
X242725500Y-78224020D01*
X242725500Y-78415980D01*
X242725500Y-78415982D01*
X242725499Y-78415982D01*
X242333432Y-78415982D01*
X242334000Y-78412395D01*
X242334000Y-78227607D01*
X242333999Y-78227602D01*
X242305092Y-78045091D01*
X242247986Y-77869338D01*
X242164092Y-77704686D01*
X242149269Y-77684283D01*
X242149268Y-77684283D01*
X241577642Y-78255909D01*
X241551378Y-78157886D01*
X241496084Y-78062114D01*
X241417886Y-77983916D01*
X241322114Y-77928622D01*
X241224090Y-77902356D01*
X241795716Y-77330730D01*
X241775307Y-77315903D01*
X241775303Y-77315900D01*
X241610664Y-77232014D01*
X241434908Y-77174907D01*
X241252395Y-77146000D01*
X241067605Y-77146000D01*
X240885091Y-77174907D01*
X240709338Y-77232013D01*
X240544692Y-77315903D01*
X240544688Y-77315906D01*
X240524283Y-77330729D01*
X240524283Y-77330730D01*
X241095910Y-77902356D01*
X240997886Y-77928622D01*
X240902114Y-77983916D01*
X240823916Y-78062114D01*
X240768622Y-78157886D01*
X240742356Y-78255909D01*
X240170730Y-77684283D01*
X240170729Y-77684283D01*
X240155906Y-77704688D01*
X240155903Y-77704692D01*
X240072013Y-77869338D01*
X240014907Y-78045091D01*
X239986000Y-78227604D01*
X239594500Y-78227604D01*
X239594500Y-78224020D01*
X239594500Y-78224017D01*
X239557051Y-78035755D01*
X239557050Y-78035749D01*
X239500822Y-77900000D01*
X239483593Y-77858405D01*
X239483592Y-77858404D01*
X239483591Y-77858401D01*
X239376943Y-77698793D01*
X239376940Y-77698789D01*
X239241210Y-77563059D01*
X239241206Y-77563056D01*
X239118536Y-77481090D01*
X239081599Y-77456409D01*
X239081596Y-77456407D01*
X239081595Y-77456407D01*
X239081594Y-77456406D01*
X238904252Y-77382950D01*
X238904244Y-77382948D01*
X238715982Y-77345500D01*
X238715980Y-77345500D01*
X238524020Y-77345500D01*
X238524018Y-77345500D01*
X238335755Y-77382948D01*
X238335747Y-77382950D01*
X238158405Y-77456406D01*
X238158404Y-77456407D01*
X237998793Y-77563056D01*
X237998789Y-77563059D01*
X237863059Y-77698789D01*
X237863056Y-77698793D01*
X237756407Y-77858404D01*
X237756406Y-77858405D01*
X237682950Y-78035747D01*
X237682948Y-78035755D01*
X237645500Y-78224017D01*
X237645500Y-78224020D01*
X237645500Y-78415980D01*
X237645500Y-78415982D01*
X237645499Y-78415982D01*
X237054500Y-78415982D01*
X237054500Y-78415980D01*
X237054500Y-78224020D01*
X237054500Y-78224017D01*
X237017051Y-78035755D01*
X237017050Y-78035749D01*
X236960822Y-77900000D01*
X236943593Y-77858405D01*
X236943592Y-77858404D01*
X236943591Y-77858401D01*
X236836943Y-77698793D01*
X236836940Y-77698789D01*
X236701210Y-77563059D01*
X236701206Y-77563056D01*
X236578536Y-77481090D01*
X236541599Y-77456409D01*
X236541596Y-77456407D01*
X236541595Y-77456407D01*
X236541594Y-77456406D01*
X236364252Y-77382950D01*
X236364244Y-77382948D01*
X236175982Y-77345500D01*
X236175980Y-77345500D01*
X235984020Y-77345500D01*
X235984018Y-77345500D01*
X235795755Y-77382948D01*
X235795747Y-77382950D01*
X235618405Y-77456406D01*
X235618404Y-77456407D01*
X235458793Y-77563056D01*
X235458789Y-77563059D01*
X235323059Y-77698789D01*
X235323056Y-77698793D01*
X235216407Y-77858404D01*
X235216406Y-77858405D01*
X235142950Y-78035747D01*
X235142948Y-78035755D01*
X235105500Y-78224017D01*
X235105500Y-78224020D01*
X235105500Y-78415980D01*
X235105500Y-78415982D01*
X235105499Y-78415982D01*
X234514500Y-78415982D01*
X234514500Y-78415980D01*
X234514500Y-78224020D01*
X234514500Y-78224017D01*
X234477051Y-78035755D01*
X234477050Y-78035749D01*
X234420822Y-77900000D01*
X234403593Y-77858405D01*
X234403592Y-77858404D01*
X234403591Y-77858401D01*
X234296943Y-77698793D01*
X234296940Y-77698789D01*
X234161210Y-77563059D01*
X234161206Y-77563056D01*
X234038536Y-77481090D01*
X234001599Y-77456409D01*
X234001596Y-77456407D01*
X234001595Y-77456407D01*
X234001594Y-77456406D01*
X233824252Y-77382950D01*
X233824244Y-77382948D01*
X233635982Y-77345500D01*
X233635980Y-77345500D01*
X233444020Y-77345500D01*
X233444018Y-77345500D01*
X233255755Y-77382948D01*
X233255747Y-77382950D01*
X233078405Y-77456406D01*
X233078404Y-77456407D01*
X232918793Y-77563056D01*
X232918789Y-77563059D01*
X232783059Y-77698789D01*
X232783056Y-77698793D01*
X232676407Y-77858404D01*
X232676406Y-77858405D01*
X232602950Y-78035747D01*
X232602948Y-78035755D01*
X232565500Y-78224017D01*
X232565500Y-78224020D01*
X232565500Y-78415980D01*
X232565500Y-78415982D01*
X232565499Y-78415982D01*
X231974500Y-78415982D01*
X231974500Y-78415980D01*
X231974500Y-78224020D01*
X231974500Y-78224017D01*
X231937051Y-78035755D01*
X231937050Y-78035749D01*
X231880822Y-77900000D01*
X231863593Y-77858405D01*
X231863592Y-77858404D01*
X231863591Y-77858401D01*
X231756943Y-77698793D01*
X231756940Y-77698789D01*
X231621210Y-77563059D01*
X231621206Y-77563056D01*
X231498536Y-77481090D01*
X231461599Y-77456409D01*
X231461596Y-77456407D01*
X231461595Y-77456407D01*
X231461594Y-77456406D01*
X231284252Y-77382950D01*
X231284244Y-77382948D01*
X231095982Y-77345500D01*
X231095980Y-77345500D01*
X230904020Y-77345500D01*
X230904018Y-77345500D01*
X230715755Y-77382948D01*
X230715747Y-77382950D01*
X230538405Y-77456406D01*
X230538404Y-77456407D01*
X230378793Y-77563056D01*
X230378789Y-77563059D01*
X230243059Y-77698789D01*
X230243056Y-77698793D01*
X230136407Y-77858404D01*
X230136406Y-77858405D01*
X230062950Y-78035747D01*
X230062948Y-78035755D01*
X230025500Y-78224017D01*
X230025500Y-78224020D01*
X230025500Y-78415980D01*
X230025500Y-78415982D01*
X230025499Y-78415982D01*
X229434500Y-78415982D01*
X229434500Y-78415980D01*
X229434500Y-78224020D01*
X229434500Y-78224017D01*
X229397051Y-78035755D01*
X229397050Y-78035749D01*
X229340822Y-77900000D01*
X229323593Y-77858405D01*
X229323592Y-77858404D01*
X229323591Y-77858401D01*
X229216943Y-77698793D01*
X229216940Y-77698789D01*
X229081210Y-77563059D01*
X229081206Y-77563056D01*
X228958536Y-77481090D01*
X228921599Y-77456409D01*
X228921596Y-77456407D01*
X228921595Y-77456407D01*
X228921594Y-77456406D01*
X228744252Y-77382950D01*
X228744244Y-77382948D01*
X228555982Y-77345500D01*
X228555980Y-77345500D01*
X228364020Y-77345500D01*
X228364018Y-77345500D01*
X228175755Y-77382948D01*
X228175747Y-77382950D01*
X227998405Y-77456406D01*
X227998404Y-77456407D01*
X227838793Y-77563056D01*
X227838789Y-77563059D01*
X227703059Y-77698789D01*
X227703056Y-77698793D01*
X227596407Y-77858404D01*
X227596406Y-77858405D01*
X227522950Y-78035747D01*
X227522948Y-78035755D01*
X227485500Y-78224017D01*
X227485500Y-78224020D01*
X227485500Y-78415980D01*
X227485500Y-78415982D01*
X227485499Y-78415982D01*
X226894500Y-78415982D01*
X226894500Y-78415980D01*
X226894500Y-78224020D01*
X226894500Y-78224017D01*
X226857051Y-78035755D01*
X226857050Y-78035749D01*
X226800822Y-77900000D01*
X226783593Y-77858405D01*
X226783592Y-77858404D01*
X226783591Y-77858401D01*
X226676943Y-77698793D01*
X226676940Y-77698789D01*
X226541210Y-77563059D01*
X226541206Y-77563056D01*
X226418536Y-77481090D01*
X226381599Y-77456409D01*
X226381596Y-77456407D01*
X226381595Y-77456407D01*
X226381594Y-77456406D01*
X226204252Y-77382950D01*
X226204244Y-77382948D01*
X226015982Y-77345500D01*
X226015980Y-77345500D01*
X225824020Y-77345500D01*
X225824018Y-77345500D01*
X225635755Y-77382948D01*
X225635747Y-77382950D01*
X225458405Y-77456406D01*
X225458404Y-77456407D01*
X225298793Y-77563056D01*
X225298789Y-77563059D01*
X225163059Y-77698789D01*
X225163056Y-77698793D01*
X225056407Y-77858404D01*
X225056406Y-77858405D01*
X224982950Y-78035747D01*
X224982948Y-78035755D01*
X224945500Y-78224017D01*
X224945500Y-78224020D01*
X224945500Y-78415980D01*
X224945500Y-78415982D01*
X224945499Y-78415982D01*
X205186286Y-78415982D01*
X205186286Y-73600001D01*
X205931116Y-73600001D01*
X205936506Y-73627101D01*
X205936507Y-73627104D01*
X206008119Y-73799992D01*
X206008124Y-73800001D01*
X206112086Y-73955590D01*
X206112089Y-73955594D01*
X206135920Y-73979425D01*
X206169405Y-74040748D01*
X206164421Y-74110440D01*
X206163594Y-74112596D01*
X206109640Y-74249411D01*
X206104065Y-74295841D01*
X206099500Y-74333856D01*
X206099500Y-74866144D01*
X206104825Y-74910494D01*
X206109640Y-74950588D01*
X206162636Y-75084976D01*
X206249921Y-75200078D01*
X206365023Y-75287363D01*
X206365024Y-75287363D01*
X206365025Y-75287364D01*
X206499410Y-75340359D01*
X206583856Y-75350500D01*
X206583862Y-75350500D01*
X207616138Y-75350500D01*
X207616144Y-75350500D01*
X207700590Y-75340359D01*
X207834975Y-75287364D01*
X207950078Y-75200078D01*
X208037364Y-75084975D01*
X208090359Y-74950590D01*
X208100500Y-74866144D01*
X208100500Y-74333856D01*
X208090359Y-74249410D01*
X208037364Y-74115025D01*
X208036406Y-74112595D01*
X208030124Y-74043009D01*
X208062461Y-73981072D01*
X208064080Y-73979422D01*
X208087916Y-73955586D01*
X208191875Y-73800001D01*
X208191880Y-73799992D01*
X208263492Y-73627104D01*
X208263493Y-73627101D01*
X208268884Y-73600001D01*
X207266988Y-73600001D01*
X207284205Y-73590061D01*
X207340060Y-73534206D01*
X207379556Y-73465797D01*
X207400000Y-73389497D01*
X207400000Y-73310505D01*
X207379556Y-73234205D01*
X207340060Y-73165796D01*
X207284205Y-73109941D01*
X207266988Y-73100001D01*
X207350000Y-73100001D01*
X208268884Y-73100001D01*
X208268884Y-73100000D01*
X208263493Y-73072900D01*
X208263492Y-73072897D01*
X208191880Y-72900009D01*
X208191875Y-72900000D01*
X208087913Y-72744411D01*
X208087910Y-72744407D01*
X207955593Y-72612090D01*
X207955589Y-72612087D01*
X207800000Y-72508125D01*
X207799991Y-72508120D01*
X207627105Y-72436509D01*
X207627097Y-72436507D01*
X207443570Y-72400001D01*
X207350000Y-72400001D01*
X207350000Y-73100001D01*
X207266988Y-73100001D01*
X207215796Y-73070445D01*
X207139496Y-73050001D01*
X207060504Y-73050001D01*
X206984204Y-73070445D01*
X206915795Y-73109941D01*
X206859940Y-73165796D01*
X206820444Y-73234205D01*
X206800000Y-73310505D01*
X206800000Y-73389497D01*
X206820444Y-73465797D01*
X206859940Y-73534206D01*
X206915795Y-73590061D01*
X206933012Y-73600001D01*
X205931116Y-73600001D01*
X205186286Y-73600001D01*
X205186286Y-73100000D01*
X205931115Y-73100000D01*
X205931116Y-73100001D01*
X206850000Y-73100001D01*
X206850000Y-72400001D01*
X206756430Y-72400001D01*
X206572902Y-72436507D01*
X206572894Y-72436509D01*
X206400008Y-72508120D01*
X206399999Y-72508125D01*
X206244410Y-72612087D01*
X206244406Y-72612090D01*
X206112089Y-72744407D01*
X206112086Y-72744411D01*
X206008124Y-72900000D01*
X206008119Y-72900009D01*
X205936507Y-73072897D01*
X205936506Y-73072900D01*
X205931115Y-73100000D01*
X205186286Y-73100000D01*
X205186286Y-69720943D01*
X215899500Y-69720943D01*
X215899500Y-69879056D01*
X215940423Y-70031783D01*
X215940426Y-70031790D01*
X216019475Y-70168709D01*
X216019479Y-70168714D01*
X216019480Y-70168716D01*
X216131284Y-70280520D01*
X216131286Y-70280521D01*
X216131290Y-70280524D01*
X216268209Y-70359573D01*
X216268216Y-70359577D01*
X216420943Y-70400500D01*
X216420945Y-70400500D01*
X216579055Y-70400500D01*
X216579057Y-70400500D01*
X216731784Y-70359577D01*
X216868716Y-70280520D01*
X216980520Y-70168716D01*
X217059577Y-70031784D01*
X217100500Y-69879057D01*
X217100500Y-69720943D01*
X217059577Y-69568216D01*
X217059573Y-69568209D01*
X216980524Y-69431290D01*
X216980518Y-69431282D01*
X216868717Y-69319481D01*
X216868709Y-69319475D01*
X216731790Y-69240426D01*
X216731786Y-69240424D01*
X216731784Y-69240423D01*
X216579057Y-69199500D01*
X216420943Y-69199500D01*
X216268216Y-69240423D01*
X216268209Y-69240426D01*
X216131290Y-69319475D01*
X216131282Y-69319481D01*
X216019481Y-69431282D01*
X216019475Y-69431290D01*
X215940426Y-69568209D01*
X215940423Y-69568216D01*
X215899500Y-69720943D01*
X205186286Y-69720943D01*
X205186286Y-63175982D01*
X224945499Y-63175982D01*
X224982948Y-63364244D01*
X224982950Y-63364252D01*
X225056406Y-63541594D01*
X225056407Y-63541595D01*
X225056409Y-63541599D01*
X225127829Y-63648485D01*
X225163056Y-63701206D01*
X225163059Y-63701210D01*
X225298789Y-63836940D01*
X225298793Y-63836943D01*
X225458401Y-63943591D01*
X225458404Y-63943592D01*
X225458405Y-63943593D01*
X225576633Y-63992563D01*
X225635749Y-64017050D01*
X225681851Y-64026220D01*
X225824017Y-64054500D01*
X225824020Y-64054500D01*
X226015982Y-64054500D01*
X226110758Y-64035647D01*
X226204251Y-64017050D01*
X226381599Y-63943591D01*
X226541207Y-63836943D01*
X226676943Y-63701207D01*
X226783591Y-63541599D01*
X226857050Y-63364251D01*
X226894500Y-63175982D01*
X227485499Y-63175982D01*
X227522948Y-63364244D01*
X227522950Y-63364252D01*
X227596406Y-63541594D01*
X227596407Y-63541595D01*
X227596409Y-63541599D01*
X227667829Y-63648485D01*
X227703056Y-63701206D01*
X227703059Y-63701210D01*
X227838789Y-63836940D01*
X227838793Y-63836943D01*
X227998401Y-63943591D01*
X227998404Y-63943592D01*
X227998405Y-63943593D01*
X228116633Y-63992563D01*
X228175749Y-64017050D01*
X228221851Y-64026220D01*
X228364017Y-64054500D01*
X228364020Y-64054500D01*
X228555982Y-64054500D01*
X228650758Y-64035647D01*
X228744251Y-64017050D01*
X228921599Y-63943591D01*
X229081207Y-63836943D01*
X229216943Y-63701207D01*
X229323591Y-63541599D01*
X229397050Y-63364251D01*
X229434500Y-63175982D01*
X230025499Y-63175982D01*
X230062948Y-63364244D01*
X230062950Y-63364252D01*
X230136406Y-63541594D01*
X230136407Y-63541595D01*
X230136409Y-63541599D01*
X230207829Y-63648485D01*
X230243056Y-63701206D01*
X230243059Y-63701210D01*
X230378789Y-63836940D01*
X230378793Y-63836943D01*
X230538401Y-63943591D01*
X230538404Y-63943592D01*
X230538405Y-63943593D01*
X230656633Y-63992563D01*
X230715749Y-64017050D01*
X230761851Y-64026220D01*
X230904017Y-64054500D01*
X230904020Y-64054500D01*
X231095982Y-64054500D01*
X231190758Y-64035647D01*
X231284251Y-64017050D01*
X231461599Y-63943591D01*
X231621207Y-63836943D01*
X231756943Y-63701207D01*
X231863591Y-63541599D01*
X231937050Y-63364251D01*
X231974500Y-63175982D01*
X232565499Y-63175982D01*
X232602948Y-63364244D01*
X232602950Y-63364252D01*
X232676406Y-63541594D01*
X232676407Y-63541595D01*
X232676409Y-63541599D01*
X232747829Y-63648485D01*
X232783056Y-63701206D01*
X232783059Y-63701210D01*
X232918789Y-63836940D01*
X232918793Y-63836943D01*
X233078401Y-63943591D01*
X233078404Y-63943592D01*
X233078405Y-63943593D01*
X233196633Y-63992563D01*
X233255749Y-64017050D01*
X233301851Y-64026220D01*
X233444017Y-64054500D01*
X233444020Y-64054500D01*
X233635982Y-64054500D01*
X233730758Y-64035647D01*
X233824251Y-64017050D01*
X234001599Y-63943591D01*
X234161207Y-63836943D01*
X234296943Y-63701207D01*
X234403591Y-63541599D01*
X234477050Y-63364251D01*
X234514500Y-63175980D01*
X234514500Y-62984020D01*
X234514500Y-62984017D01*
X234477051Y-62795755D01*
X234477050Y-62795749D01*
X234403591Y-62618401D01*
X234296943Y-62458793D01*
X234296940Y-62458789D01*
X234161210Y-62323059D01*
X234161206Y-62323056D01*
X234083066Y-62270844D01*
X234001599Y-62216409D01*
X234001597Y-62216408D01*
X233996534Y-62213025D01*
X233997973Y-62210871D01*
X233956173Y-62169771D01*
X233940500Y-62109428D01*
X233940500Y-60477254D01*
X233960185Y-60410215D01*
X233976819Y-60389573D01*
X234352308Y-60014084D01*
X235327821Y-59038570D01*
X235389142Y-59005087D01*
X235458834Y-59010071D01*
X235514767Y-59051943D01*
X235539184Y-59117407D01*
X235539500Y-59126253D01*
X235539500Y-60224856D01*
X235539502Y-60224882D01*
X235542413Y-60249987D01*
X235542415Y-60249991D01*
X235587793Y-60352764D01*
X235587794Y-60352765D01*
X235667235Y-60432206D01*
X235770009Y-60477585D01*
X235795135Y-60480500D01*
X235965500Y-60480499D01*
X236032539Y-60500183D01*
X236078294Y-60552987D01*
X236089500Y-60604499D01*
X236089500Y-61982754D01*
X236069815Y-62049793D01*
X236017011Y-62095548D01*
X235989692Y-62104371D01*
X235795755Y-62142948D01*
X235795747Y-62142950D01*
X235618405Y-62216406D01*
X235618404Y-62216407D01*
X235458793Y-62323056D01*
X235458789Y-62323059D01*
X235323059Y-62458789D01*
X235323056Y-62458793D01*
X235216407Y-62618404D01*
X235216406Y-62618405D01*
X235142950Y-62795747D01*
X235142948Y-62795755D01*
X235105500Y-62984017D01*
X235105500Y-62984020D01*
X235105500Y-63175980D01*
X235105500Y-63175982D01*
X235105499Y-63175982D01*
X235142948Y-63364244D01*
X235142950Y-63364252D01*
X235216406Y-63541594D01*
X235216407Y-63541595D01*
X235216409Y-63541599D01*
X235287829Y-63648485D01*
X235323056Y-63701206D01*
X235323059Y-63701210D01*
X235458789Y-63836940D01*
X235458793Y-63836943D01*
X235618401Y-63943591D01*
X235618404Y-63943592D01*
X235618405Y-63943593D01*
X235736633Y-63992563D01*
X235795749Y-64017050D01*
X235841851Y-64026220D01*
X235984017Y-64054500D01*
X235984020Y-64054500D01*
X236175982Y-64054500D01*
X236270758Y-64035647D01*
X236364251Y-64017050D01*
X236541599Y-63943591D01*
X236701207Y-63836943D01*
X236836943Y-63701207D01*
X236943591Y-63541599D01*
X237017050Y-63364251D01*
X237054500Y-63175982D01*
X237645499Y-63175982D01*
X237682948Y-63364244D01*
X237682950Y-63364252D01*
X237756406Y-63541594D01*
X237756407Y-63541595D01*
X237756409Y-63541599D01*
X237827829Y-63648485D01*
X237863056Y-63701206D01*
X237863059Y-63701210D01*
X237998789Y-63836940D01*
X237998793Y-63836943D01*
X238158401Y-63943591D01*
X238158404Y-63943592D01*
X238158405Y-63943593D01*
X238276633Y-63992563D01*
X238335749Y-64017050D01*
X238381851Y-64026220D01*
X238524017Y-64054500D01*
X238524020Y-64054500D01*
X238715982Y-64054500D01*
X238810758Y-64035647D01*
X238904251Y-64017050D01*
X239081599Y-63943591D01*
X239241207Y-63836943D01*
X239376943Y-63701207D01*
X239483591Y-63541599D01*
X239557050Y-63364251D01*
X239594500Y-63175982D01*
X240185499Y-63175982D01*
X240222948Y-63364244D01*
X240222950Y-63364252D01*
X240296406Y-63541594D01*
X240296407Y-63541595D01*
X240296409Y-63541599D01*
X240367829Y-63648485D01*
X240403056Y-63701206D01*
X240403059Y-63701210D01*
X240538789Y-63836940D01*
X240538793Y-63836943D01*
X240698401Y-63943591D01*
X240698404Y-63943592D01*
X240698405Y-63943593D01*
X240816633Y-63992563D01*
X240875749Y-64017050D01*
X240921851Y-64026220D01*
X241064017Y-64054500D01*
X241064020Y-64054500D01*
X241255982Y-64054500D01*
X241350758Y-64035647D01*
X241444251Y-64017050D01*
X241621599Y-63943591D01*
X241781207Y-63836943D01*
X241916943Y-63701207D01*
X242023591Y-63541599D01*
X242097050Y-63364251D01*
X242134500Y-63175982D01*
X242725499Y-63175982D01*
X242762948Y-63364244D01*
X242762950Y-63364252D01*
X242836406Y-63541594D01*
X242836407Y-63541595D01*
X242836409Y-63541599D01*
X242907829Y-63648485D01*
X242943056Y-63701206D01*
X242943059Y-63701210D01*
X243078789Y-63836940D01*
X243078793Y-63836943D01*
X243238401Y-63943591D01*
X243238404Y-63943592D01*
X243238405Y-63943593D01*
X243356633Y-63992563D01*
X243415749Y-64017050D01*
X243461851Y-64026220D01*
X243604017Y-64054500D01*
X243604020Y-64054500D01*
X243795982Y-64054500D01*
X243890758Y-64035647D01*
X243984251Y-64017050D01*
X244161599Y-63943591D01*
X244321207Y-63836943D01*
X244456943Y-63701207D01*
X244563591Y-63541599D01*
X244637050Y-63364251D01*
X244674500Y-63175980D01*
X244674500Y-62984020D01*
X244674500Y-62984017D01*
X244637051Y-62795755D01*
X244637050Y-62795749D01*
X244563591Y-62618401D01*
X244456943Y-62458793D01*
X244456940Y-62458789D01*
X244321210Y-62323059D01*
X244321206Y-62323056D01*
X244268485Y-62287829D01*
X244161599Y-62216409D01*
X244161596Y-62216407D01*
X244161595Y-62216407D01*
X244161594Y-62216406D01*
X243984252Y-62142950D01*
X243984244Y-62142948D01*
X243795982Y-62105500D01*
X243795980Y-62105500D01*
X243604020Y-62105500D01*
X243604018Y-62105500D01*
X243415755Y-62142948D01*
X243415747Y-62142950D01*
X243238405Y-62216406D01*
X243238404Y-62216407D01*
X243078793Y-62323056D01*
X243078789Y-62323059D01*
X242943059Y-62458789D01*
X242943056Y-62458793D01*
X242836407Y-62618404D01*
X242836406Y-62618405D01*
X242762950Y-62795747D01*
X242762948Y-62795755D01*
X242725500Y-62984017D01*
X242725500Y-62984020D01*
X242725500Y-63175980D01*
X242725500Y-63175982D01*
X242725499Y-63175982D01*
X242134500Y-63175982D01*
X242134500Y-63175980D01*
X242134500Y-62984020D01*
X242134500Y-62984017D01*
X242097051Y-62795755D01*
X242097050Y-62795749D01*
X242023591Y-62618401D01*
X241916943Y-62458793D01*
X241916940Y-62458789D01*
X241781210Y-62323059D01*
X241781206Y-62323056D01*
X241728485Y-62287829D01*
X241621599Y-62216409D01*
X241621596Y-62216407D01*
X241621595Y-62216407D01*
X241621594Y-62216406D01*
X241444252Y-62142950D01*
X241444244Y-62142948D01*
X241255982Y-62105500D01*
X241255980Y-62105500D01*
X241064020Y-62105500D01*
X241064018Y-62105500D01*
X240875755Y-62142948D01*
X240875747Y-62142950D01*
X240698405Y-62216406D01*
X240698404Y-62216407D01*
X240538793Y-62323056D01*
X240538789Y-62323059D01*
X240403059Y-62458789D01*
X240403056Y-62458793D01*
X240296407Y-62618404D01*
X240296406Y-62618405D01*
X240222950Y-62795747D01*
X240222948Y-62795755D01*
X240185500Y-62984017D01*
X240185500Y-62984020D01*
X240185500Y-63175980D01*
X240185500Y-63175982D01*
X240185499Y-63175982D01*
X239594500Y-63175982D01*
X239594500Y-63175980D01*
X239594500Y-62984020D01*
X239594500Y-62984017D01*
X239557051Y-62795755D01*
X239557050Y-62795749D01*
X239483591Y-62618401D01*
X239376943Y-62458793D01*
X239376940Y-62458789D01*
X239241210Y-62323059D01*
X239241206Y-62323056D01*
X239188485Y-62287829D01*
X239081599Y-62216409D01*
X239081596Y-62216407D01*
X239081595Y-62216407D01*
X239081594Y-62216406D01*
X238904252Y-62142950D01*
X238904244Y-62142948D01*
X238715982Y-62105500D01*
X238715980Y-62105500D01*
X238524020Y-62105500D01*
X238524018Y-62105500D01*
X238335755Y-62142948D01*
X238335747Y-62142950D01*
X238158405Y-62216406D01*
X238158404Y-62216407D01*
X237998793Y-62323056D01*
X237998789Y-62323059D01*
X237863059Y-62458789D01*
X237863056Y-62458793D01*
X237756407Y-62618404D01*
X237756406Y-62618405D01*
X237682950Y-62795747D01*
X237682948Y-62795755D01*
X237645500Y-62984017D01*
X237645500Y-62984020D01*
X237645500Y-63175980D01*
X237645500Y-63175982D01*
X237645499Y-63175982D01*
X237054500Y-63175982D01*
X237054500Y-63175980D01*
X237054500Y-62984020D01*
X237054500Y-62984017D01*
X237017051Y-62795755D01*
X237017050Y-62795749D01*
X236943591Y-62618401D01*
X236943589Y-62618399D01*
X236943589Y-62618397D01*
X236911398Y-62570220D01*
X236890520Y-62503543D01*
X236890500Y-62501329D01*
X236890500Y-60604499D01*
X236910185Y-60537460D01*
X236962989Y-60491705D01*
X237014500Y-60480499D01*
X237184856Y-60480499D01*
X237184864Y-60480499D01*
X237184879Y-60480497D01*
X237184882Y-60480497D01*
X237209987Y-60477586D01*
X237209988Y-60477585D01*
X237209991Y-60477585D01*
X237312765Y-60432206D01*
X237392206Y-60352765D01*
X237392206Y-60352764D01*
X237400331Y-60344640D01*
X237402749Y-60347058D01*
X237441810Y-60315165D01*
X237511230Y-60307249D01*
X237573910Y-60338121D01*
X237579609Y-60344699D01*
X237579669Y-60344640D01*
X237587794Y-60352765D01*
X237667235Y-60432206D01*
X237770009Y-60477585D01*
X237795135Y-60480500D01*
X239184864Y-60480499D01*
X239184879Y-60480497D01*
X239184882Y-60480497D01*
X239209987Y-60477586D01*
X239209988Y-60477585D01*
X239209991Y-60477585D01*
X239312765Y-60432206D01*
X239392206Y-60352765D01*
X239437585Y-60249991D01*
X239440500Y-60224865D01*
X239440499Y-58835136D01*
X239440497Y-58835117D01*
X239437586Y-58810012D01*
X239437585Y-58810010D01*
X239437585Y-58810009D01*
X239392206Y-58707235D01*
X239312765Y-58627794D01*
X239304640Y-58619669D01*
X239307058Y-58617250D01*
X239275165Y-58578190D01*
X239267249Y-58508770D01*
X239298121Y-58446090D01*
X239304699Y-58440390D01*
X239304640Y-58440331D01*
X239312765Y-58432206D01*
X239392206Y-58352765D01*
X239437585Y-58249991D01*
X239440500Y-58224865D01*
X239440499Y-57187254D01*
X239460183Y-57120216D01*
X239476813Y-57099578D01*
X239770480Y-56805913D01*
X239823207Y-56714588D01*
X239850500Y-56612727D01*
X239850500Y-56560098D01*
X239870185Y-56493059D01*
X239886819Y-56472417D01*
X239907815Y-56451421D01*
X239930520Y-56428716D01*
X240009577Y-56291784D01*
X240050500Y-56139057D01*
X240050500Y-55980943D01*
X240009577Y-55828216D01*
X239984167Y-55784204D01*
X239930524Y-55691290D01*
X239930518Y-55691282D01*
X239818717Y-55579481D01*
X239818709Y-55579475D01*
X239681790Y-55500426D01*
X239681786Y-55500424D01*
X239681784Y-55500423D01*
X239529057Y-55459500D01*
X239370943Y-55459500D01*
X239218216Y-55500423D01*
X239218209Y-55500426D01*
X239081290Y-55579475D01*
X239081282Y-55579481D01*
X238969481Y-55691282D01*
X238969475Y-55691290D01*
X238890426Y-55828209D01*
X238890423Y-55828216D01*
X238849500Y-55980943D01*
X238849500Y-56139057D01*
X238890423Y-56291784D01*
X238934955Y-56368917D01*
X238938527Y-56375103D01*
X238945093Y-56402167D01*
X238954824Y-56428257D01*
X238953215Y-56435649D01*
X238955000Y-56443003D01*
X238945891Y-56469320D01*
X238939972Y-56496530D01*
X238933464Y-56505222D01*
X238932147Y-56509030D01*
X238918821Y-56524784D01*
X238900424Y-56543181D01*
X238839101Y-56576666D01*
X238812743Y-56579500D01*
X237795143Y-56579500D01*
X237795117Y-56579502D01*
X237770012Y-56582413D01*
X237770008Y-56582415D01*
X237667235Y-56627793D01*
X237587794Y-56707234D01*
X237542415Y-56810006D01*
X237542415Y-56810008D01*
X237540359Y-56827732D01*
X237539500Y-56835135D01*
X237539500Y-57500500D01*
X237539501Y-58055500D01*
X237519816Y-58122539D01*
X237467013Y-58168294D01*
X237415501Y-58179500D01*
X235167273Y-58179500D01*
X235065412Y-58206793D01*
X235034113Y-58224863D01*
X235034113Y-58224864D01*
X234974087Y-58259520D01*
X234974084Y-58259522D01*
X233219522Y-60014084D01*
X233219518Y-60014090D01*
X233166792Y-60105412D01*
X233166793Y-60105413D01*
X233139500Y-60207273D01*
X233139500Y-62109428D01*
X233119815Y-62176467D01*
X233082226Y-62211169D01*
X233083466Y-62213025D01*
X233078402Y-62216408D01*
X233078401Y-62216409D01*
X233039216Y-62242591D01*
X232918793Y-62323056D01*
X232918789Y-62323059D01*
X232783059Y-62458789D01*
X232783056Y-62458793D01*
X232676407Y-62618404D01*
X232676406Y-62618405D01*
X232602950Y-62795747D01*
X232602948Y-62795755D01*
X232565500Y-62984017D01*
X232565500Y-62984020D01*
X232565500Y-63175980D01*
X232565500Y-63175982D01*
X232565499Y-63175982D01*
X231974500Y-63175982D01*
X231974500Y-63175980D01*
X231974500Y-62984020D01*
X231974500Y-62984017D01*
X231937051Y-62795755D01*
X231937050Y-62795749D01*
X231863591Y-62618401D01*
X231756943Y-62458793D01*
X231756940Y-62458789D01*
X231621210Y-62323059D01*
X231621206Y-62323056D01*
X231568485Y-62287829D01*
X231461599Y-62216409D01*
X231461596Y-62216407D01*
X231461595Y-62216407D01*
X231461594Y-62216406D01*
X231284252Y-62142950D01*
X231284244Y-62142948D01*
X231095982Y-62105500D01*
X231095980Y-62105500D01*
X230904020Y-62105500D01*
X230904018Y-62105500D01*
X230715755Y-62142948D01*
X230715747Y-62142950D01*
X230538405Y-62216406D01*
X230538404Y-62216407D01*
X230378793Y-62323056D01*
X230378789Y-62323059D01*
X230243059Y-62458789D01*
X230243056Y-62458793D01*
X230136407Y-62618404D01*
X230136406Y-62618405D01*
X230062950Y-62795747D01*
X230062948Y-62795755D01*
X230025500Y-62984017D01*
X230025500Y-62984020D01*
X230025500Y-63175980D01*
X230025500Y-63175982D01*
X230025499Y-63175982D01*
X229434500Y-63175982D01*
X229434500Y-63175980D01*
X229434500Y-62984020D01*
X229434500Y-62984017D01*
X229397051Y-62795755D01*
X229397050Y-62795749D01*
X229323591Y-62618401D01*
X229216943Y-62458793D01*
X229216940Y-62458789D01*
X229081210Y-62323059D01*
X229081206Y-62323056D01*
X229028485Y-62287829D01*
X228921599Y-62216409D01*
X228921596Y-62216407D01*
X228921595Y-62216407D01*
X228921594Y-62216406D01*
X228744252Y-62142950D01*
X228744244Y-62142948D01*
X228555982Y-62105500D01*
X228555980Y-62105500D01*
X228364020Y-62105500D01*
X228364018Y-62105500D01*
X228175755Y-62142948D01*
X228175747Y-62142950D01*
X227998405Y-62216406D01*
X227998404Y-62216407D01*
X227838793Y-62323056D01*
X227838789Y-62323059D01*
X227703059Y-62458789D01*
X227703056Y-62458793D01*
X227596407Y-62618404D01*
X227596406Y-62618405D01*
X227522950Y-62795747D01*
X227522948Y-62795755D01*
X227485500Y-62984017D01*
X227485500Y-62984020D01*
X227485500Y-63175980D01*
X227485500Y-63175982D01*
X227485499Y-63175982D01*
X226894500Y-63175982D01*
X226894500Y-63175980D01*
X226894500Y-62984020D01*
X226894500Y-62984017D01*
X226857051Y-62795755D01*
X226857050Y-62795749D01*
X226783591Y-62618401D01*
X226676943Y-62458793D01*
X226676940Y-62458789D01*
X226541210Y-62323059D01*
X226541206Y-62323056D01*
X226488485Y-62287829D01*
X226381599Y-62216409D01*
X226381596Y-62216407D01*
X226381595Y-62216407D01*
X226381594Y-62216406D01*
X226204252Y-62142950D01*
X226204244Y-62142948D01*
X226015982Y-62105500D01*
X226015980Y-62105500D01*
X225824020Y-62105500D01*
X225824018Y-62105500D01*
X225635755Y-62142948D01*
X225635747Y-62142950D01*
X225458405Y-62216406D01*
X225458404Y-62216407D01*
X225298793Y-62323056D01*
X225298789Y-62323059D01*
X225163059Y-62458789D01*
X225163056Y-62458793D01*
X225056407Y-62618404D01*
X225056406Y-62618405D01*
X224982950Y-62795747D01*
X224982948Y-62795755D01*
X224945500Y-62984017D01*
X224945500Y-62984020D01*
X224945500Y-63175980D01*
X224945500Y-63175982D01*
X224945499Y-63175982D01*
X205186286Y-63175982D01*
X205186286Y-62220943D01*
X222699500Y-62220943D01*
X222699500Y-62379056D01*
X222740423Y-62531783D01*
X222740426Y-62531790D01*
X222819475Y-62668709D01*
X222819479Y-62668714D01*
X222819480Y-62668716D01*
X222931284Y-62780520D01*
X222931286Y-62780521D01*
X222931290Y-62780524D01*
X223068209Y-62859573D01*
X223068216Y-62859577D01*
X223220943Y-62900500D01*
X223220945Y-62900500D01*
X223379055Y-62900500D01*
X223379057Y-62900500D01*
X223531784Y-62859577D01*
X223668716Y-62780520D01*
X223780520Y-62668716D01*
X223859577Y-62531784D01*
X223900500Y-62379057D01*
X223900500Y-62220943D01*
X223859577Y-62068216D01*
X223810236Y-61982754D01*
X223780524Y-61931290D01*
X223780518Y-61931282D01*
X223668717Y-61819481D01*
X223668709Y-61819475D01*
X223531790Y-61740426D01*
X223531786Y-61740424D01*
X223531784Y-61740423D01*
X223379057Y-61699500D01*
X223220943Y-61699500D01*
X223068216Y-61740423D01*
X223068209Y-61740426D01*
X222931290Y-61819475D01*
X222931282Y-61819481D01*
X222819481Y-61931282D01*
X222819475Y-61931290D01*
X222740426Y-62068209D01*
X222740423Y-62068216D01*
X222699500Y-62220943D01*
X205186286Y-62220943D01*
X205186286Y-59020943D01*
X225299500Y-59020943D01*
X225299500Y-59179056D01*
X225340423Y-59331783D01*
X225340426Y-59331790D01*
X225419475Y-59468709D01*
X225419479Y-59468714D01*
X225419480Y-59468716D01*
X225531284Y-59580520D01*
X225531286Y-59580521D01*
X225531290Y-59580524D01*
X225668209Y-59659573D01*
X225668216Y-59659577D01*
X225820943Y-59700500D01*
X225820945Y-59700500D01*
X225979055Y-59700500D01*
X225979057Y-59700500D01*
X226131784Y-59659577D01*
X226268716Y-59580520D01*
X226380520Y-59468716D01*
X226459577Y-59331784D01*
X226500500Y-59179057D01*
X226500500Y-59020943D01*
X226459577Y-58868216D01*
X226459573Y-58868209D01*
X226380524Y-58731290D01*
X226380518Y-58731282D01*
X226268717Y-58619481D01*
X226268709Y-58619475D01*
X226131790Y-58540426D01*
X226131786Y-58540424D01*
X226131784Y-58540423D01*
X225979057Y-58499500D01*
X225820943Y-58499500D01*
X225668216Y-58540423D01*
X225668209Y-58540426D01*
X225531290Y-58619475D01*
X225531282Y-58619481D01*
X225419481Y-58731282D01*
X225419475Y-58731290D01*
X225340426Y-58868209D01*
X225340423Y-58868216D01*
X225299500Y-59020943D01*
X205186286Y-59020943D01*
X205186286Y-56973363D01*
X205205971Y-56906324D01*
X205258775Y-56860569D01*
X205327933Y-56850625D01*
X205391489Y-56879650D01*
X205397967Y-56885682D01*
X205430004Y-56917719D01*
X205430011Y-56917725D01*
X205627659Y-57069385D01*
X205843409Y-57193948D01*
X205843424Y-57193955D01*
X205942611Y-57235039D01*
X206073579Y-57289288D01*
X206314221Y-57353768D01*
X206561221Y-57386286D01*
X206561228Y-57386286D01*
X206810344Y-57386286D01*
X206810351Y-57386286D01*
X207057351Y-57353768D01*
X207297993Y-57289288D01*
X207528159Y-57193950D01*
X207743913Y-57069385D01*
X207941562Y-56917724D01*
X208117724Y-56741562D01*
X208269385Y-56543913D01*
X208339008Y-56423322D01*
X221000001Y-56423322D01*
X221010144Y-56522607D01*
X221063452Y-56683481D01*
X221063457Y-56683492D01*
X221152424Y-56827728D01*
X221152427Y-56827732D01*
X221272267Y-56947572D01*
X221272271Y-56947575D01*
X221416507Y-57036542D01*
X221416518Y-57036547D01*
X221577393Y-57089855D01*
X221676683Y-57099999D01*
X221700000Y-57099998D01*
X221700000Y-56150000D01*
X221000001Y-56150000D01*
X221000001Y-56423322D01*
X208339008Y-56423322D01*
X208393950Y-56328159D01*
X208489288Y-56097993D01*
X208552923Y-55860504D01*
X221650000Y-55860504D01*
X221650000Y-55939496D01*
X221670444Y-56015796D01*
X221709940Y-56084205D01*
X221765795Y-56140060D01*
X221834204Y-56179556D01*
X221910504Y-56200000D01*
X221989496Y-56200000D01*
X222065796Y-56179556D01*
X222134205Y-56140060D01*
X222190060Y-56084205D01*
X222200000Y-56066988D01*
X222200000Y-57099999D01*
X222223308Y-57099999D01*
X222223322Y-57099998D01*
X222322607Y-57089855D01*
X222483481Y-57036547D01*
X222483492Y-57036542D01*
X222627727Y-56947576D01*
X222726318Y-56848985D01*
X222787641Y-56815500D01*
X222857333Y-56820484D01*
X222861452Y-56822105D01*
X222981081Y-56871656D01*
X222981086Y-56871658D01*
X222981090Y-56871658D01*
X222981091Y-56871659D01*
X223126078Y-56900500D01*
X223126081Y-56900500D01*
X223273919Y-56900500D01*
X223378734Y-56879650D01*
X223418912Y-56871658D01*
X223555494Y-56815084D01*
X223678415Y-56732951D01*
X223737319Y-56674046D01*
X223798640Y-56640563D01*
X223868332Y-56645547D01*
X223912680Y-56674048D01*
X223971580Y-56732948D01*
X223971584Y-56732951D01*
X224094498Y-56815080D01*
X224094511Y-56815087D01*
X224231082Y-56871656D01*
X224231087Y-56871658D01*
X224231091Y-56871658D01*
X224231092Y-56871659D01*
X224376079Y-56900500D01*
X224376082Y-56900500D01*
X224523920Y-56900500D01*
X224628735Y-56879650D01*
X224668913Y-56871658D01*
X224805495Y-56815084D01*
X224928416Y-56732951D01*
X224987319Y-56674047D01*
X225048640Y-56640564D01*
X225118332Y-56645548D01*
X225162680Y-56674049D01*
X225221579Y-56732948D01*
X225221583Y-56732951D01*
X225344497Y-56815080D01*
X225344510Y-56815087D01*
X225481081Y-56871656D01*
X225481086Y-56871658D01*
X225481090Y-56871658D01*
X225481091Y-56871659D01*
X225626078Y-56900500D01*
X225626081Y-56900500D01*
X225773919Y-56900500D01*
X225878734Y-56879650D01*
X225918912Y-56871658D01*
X226055494Y-56815084D01*
X226178415Y-56732951D01*
X226237319Y-56674046D01*
X226298640Y-56640563D01*
X226368332Y-56645547D01*
X226412680Y-56674048D01*
X226471580Y-56732948D01*
X226471584Y-56732951D01*
X226594498Y-56815080D01*
X226594511Y-56815087D01*
X226731082Y-56871656D01*
X226731087Y-56871658D01*
X226731091Y-56871658D01*
X226731092Y-56871659D01*
X226876079Y-56900500D01*
X226876082Y-56900500D01*
X227023920Y-56900500D01*
X227128735Y-56879650D01*
X227168913Y-56871658D01*
X227305495Y-56815084D01*
X227428416Y-56732951D01*
X227487319Y-56674047D01*
X227548640Y-56640564D01*
X227618332Y-56645548D01*
X227662680Y-56674049D01*
X227721579Y-56732948D01*
X227721583Y-56732951D01*
X227844497Y-56815080D01*
X227844510Y-56815087D01*
X227981081Y-56871656D01*
X227981086Y-56871658D01*
X227981090Y-56871658D01*
X227981091Y-56871659D01*
X228126078Y-56900500D01*
X228126081Y-56900500D01*
X228273919Y-56900500D01*
X228378734Y-56879650D01*
X228418912Y-56871658D01*
X228555494Y-56815084D01*
X228678415Y-56732951D01*
X228737319Y-56674046D01*
X228798640Y-56640563D01*
X228868332Y-56645547D01*
X228912680Y-56674048D01*
X228971580Y-56732948D01*
X228971584Y-56732951D01*
X229094498Y-56815080D01*
X229094511Y-56815087D01*
X229231082Y-56871656D01*
X229231087Y-56871658D01*
X229231091Y-56871658D01*
X229231092Y-56871659D01*
X229376079Y-56900500D01*
X229376082Y-56900500D01*
X229523920Y-56900500D01*
X229628735Y-56879650D01*
X229668913Y-56871658D01*
X229791350Y-56820943D01*
X231499500Y-56820943D01*
X231499500Y-56979057D01*
X231537324Y-57120216D01*
X231540423Y-57131783D01*
X231540426Y-57131790D01*
X231619475Y-57268709D01*
X231619479Y-57268714D01*
X231619480Y-57268716D01*
X231731284Y-57380520D01*
X231731286Y-57380521D01*
X231731290Y-57380524D01*
X231868209Y-57459573D01*
X231868216Y-57459577D01*
X232020943Y-57500500D01*
X232020945Y-57500500D01*
X232179055Y-57500500D01*
X232179057Y-57500500D01*
X232331784Y-57459577D01*
X232468716Y-57380520D01*
X232580520Y-57268716D01*
X232659577Y-57131784D01*
X232700500Y-56979057D01*
X232700500Y-56820943D01*
X232659577Y-56668216D01*
X232643612Y-56640563D01*
X232580524Y-56531290D01*
X232580518Y-56531282D01*
X232468717Y-56419481D01*
X232468709Y-56419475D01*
X232331790Y-56340426D01*
X232331786Y-56340424D01*
X232331784Y-56340423D01*
X232179057Y-56299500D01*
X232020943Y-56299500D01*
X231868216Y-56340423D01*
X231868209Y-56340426D01*
X231731290Y-56419475D01*
X231731282Y-56419481D01*
X231619481Y-56531282D01*
X231619475Y-56531290D01*
X231540426Y-56668209D01*
X231540423Y-56668216D01*
X231499500Y-56820943D01*
X229791350Y-56820943D01*
X229805495Y-56815084D01*
X229928416Y-56732951D01*
X229928419Y-56732948D01*
X229936233Y-56725135D01*
X230032948Y-56628419D01*
X230032951Y-56628416D01*
X230115084Y-56505495D01*
X230171658Y-56368913D01*
X230181096Y-56321462D01*
X230200500Y-56223920D01*
X230200500Y-55576079D01*
X230171659Y-55431092D01*
X230171658Y-55431091D01*
X230171658Y-55431087D01*
X230131665Y-55334534D01*
X230115087Y-55294511D01*
X230115080Y-55294498D01*
X230032951Y-55171584D01*
X230032948Y-55171580D01*
X229928419Y-55067051D01*
X229928415Y-55067048D01*
X229805501Y-54984919D01*
X229805488Y-54984912D01*
X229668917Y-54928343D01*
X229668907Y-54928340D01*
X229523920Y-54899500D01*
X229523918Y-54899500D01*
X229376082Y-54899500D01*
X229376080Y-54899500D01*
X229231092Y-54928340D01*
X229231082Y-54928343D01*
X229094511Y-54984912D01*
X229094498Y-54984919D01*
X228971584Y-55067048D01*
X228912680Y-55125952D01*
X228851356Y-55159436D01*
X228781665Y-55154451D01*
X228737318Y-55125951D01*
X228678418Y-55067051D01*
X228678414Y-55067048D01*
X228555500Y-54984919D01*
X228555487Y-54984912D01*
X228418916Y-54928343D01*
X228418906Y-54928340D01*
X228273919Y-54899500D01*
X228273917Y-54899500D01*
X228126081Y-54899500D01*
X228126079Y-54899500D01*
X227981091Y-54928340D01*
X227981081Y-54928343D01*
X227844510Y-54984912D01*
X227844497Y-54984919D01*
X227721583Y-55067048D01*
X227662680Y-55125951D01*
X227601356Y-55159435D01*
X227531665Y-55154450D01*
X227487318Y-55125950D01*
X227428419Y-55067051D01*
X227428415Y-55067048D01*
X227305501Y-54984919D01*
X227305488Y-54984912D01*
X227168917Y-54928343D01*
X227168907Y-54928340D01*
X227023920Y-54899500D01*
X227023918Y-54899500D01*
X226876082Y-54899500D01*
X226876080Y-54899500D01*
X226731092Y-54928340D01*
X226731082Y-54928343D01*
X226594511Y-54984912D01*
X226594498Y-54984919D01*
X226471584Y-55067048D01*
X226412680Y-55125952D01*
X226351356Y-55159436D01*
X226281665Y-55154451D01*
X226237318Y-55125951D01*
X226178418Y-55067051D01*
X226178414Y-55067048D01*
X226055500Y-54984919D01*
X226055487Y-54984912D01*
X225918916Y-54928343D01*
X225918906Y-54928340D01*
X225773919Y-54899500D01*
X225773917Y-54899500D01*
X225626081Y-54899500D01*
X225626079Y-54899500D01*
X225481091Y-54928340D01*
X225481081Y-54928343D01*
X225344510Y-54984912D01*
X225344497Y-54984919D01*
X225221583Y-55067048D01*
X225162680Y-55125951D01*
X225101356Y-55159435D01*
X225031665Y-55154450D01*
X224987318Y-55125950D01*
X224928419Y-55067051D01*
X224928415Y-55067048D01*
X224805501Y-54984919D01*
X224805488Y-54984912D01*
X224668917Y-54928343D01*
X224668907Y-54928340D01*
X224523920Y-54899500D01*
X224523918Y-54899500D01*
X224376082Y-54899500D01*
X224376080Y-54899500D01*
X224231092Y-54928340D01*
X224231082Y-54928343D01*
X224094511Y-54984912D01*
X224094498Y-54984919D01*
X223971584Y-55067048D01*
X223912680Y-55125952D01*
X223851356Y-55159436D01*
X223781665Y-55154451D01*
X223737318Y-55125951D01*
X223678418Y-55067051D01*
X223678414Y-55067048D01*
X223555500Y-54984919D01*
X223555487Y-54984912D01*
X223418916Y-54928343D01*
X223418906Y-54928340D01*
X223273919Y-54899500D01*
X223273917Y-54899500D01*
X223126081Y-54899500D01*
X223126079Y-54899500D01*
X222981091Y-54928340D01*
X222981086Y-54928342D01*
X222861451Y-54977895D01*
X222791982Y-54985363D01*
X222729503Y-54954087D01*
X222726319Y-54951014D01*
X222627732Y-54852427D01*
X222627728Y-54852424D01*
X222483492Y-54763457D01*
X222483481Y-54763452D01*
X222322606Y-54710144D01*
X222223322Y-54700000D01*
X222200000Y-54700000D01*
X222200000Y-55733011D01*
X222190060Y-55715795D01*
X222134205Y-55659940D01*
X222065796Y-55620444D01*
X221989496Y-55600000D01*
X221910504Y-55600000D01*
X221834204Y-55620444D01*
X221765795Y-55659940D01*
X221709940Y-55715795D01*
X221670444Y-55784204D01*
X221650000Y-55860504D01*
X208552923Y-55860504D01*
X208553768Y-55857351D01*
X208586286Y-55610351D01*
X208586286Y-55376677D01*
X221000000Y-55376677D01*
X221000000Y-55650000D01*
X221700000Y-55650000D01*
X221700000Y-54699999D01*
X221676693Y-54700000D01*
X221676674Y-54700001D01*
X221577392Y-54710144D01*
X221416518Y-54763452D01*
X221416507Y-54763457D01*
X221272271Y-54852424D01*
X221272267Y-54852427D01*
X221152427Y-54972267D01*
X221152424Y-54972271D01*
X221063457Y-55116507D01*
X221063452Y-55116518D01*
X221010144Y-55277393D01*
X221000000Y-55376677D01*
X208586286Y-55376677D01*
X208586286Y-55361221D01*
X208553768Y-55114221D01*
X208489288Y-54873579D01*
X208393950Y-54643413D01*
X208269385Y-54427659D01*
X208117724Y-54230010D01*
X208117719Y-54230004D01*
X208085682Y-54197967D01*
X208052197Y-54136644D01*
X208057181Y-54066952D01*
X208099053Y-54011019D01*
X208164517Y-53986602D01*
X208173363Y-53986286D01*
X243298209Y-53986286D01*
X243365248Y-54005971D01*
G37*
%TD.AperFunction*%
%TD*%
M02*
